<?xml version="1.0" encoding="UTF-8"?>
<svg viewBox="0 0 256 256" xmlns="http://www.w3.org/2000/svg" fill="none">
  <path d="M 72.13 39 L 84.88 39 L 94.44 39.06 L 100.81 39.19 L 104 39.38 L 104 39.63 L 104.19 39.81 L 104.56 39.94 L 105.13 40 L 105.88 40 L 106.44 40.06 L 106.81 40.19 L 107 40.38 L 107 40.63 L 107.13 40.81 L 107.38 40.94 L 107.75 41 L 108.25 41 L 108.63 41.06 L 108.88 41.19 L 109 41.38 L 109 41.63 L 109.06 41.81 L 109.19 41.94 L 109.38 42 L 109.63 42 L 109.81 42.06 L 109.94 42.19 L 110 42.38 L 110 42.63 L 110.06 42.81 L 110.19 42.94 L 110.38 43 L 110.63 43 L 110.81 43.06 L 110.94 43.19 L 111 43.38 L 111 43.63 L 111.06 43.81 L 111.19 43.94 L 111.38 44 L 111.63 44 L 111.81 44.06 L 111.94 44.19 L 112 44.38 L 112 44.63 L 112.13 44.81 L 112.38 44.94 L 112.75 45 L 113.25 45 L 113.63 45.13 L 113.88 45.38 L 114 45.75 L 114 46.25 L 114.06 46.63 L 114.19 46.88 L 114.38 47 L 114.63 47 L 114.81 47.06 L 114.94 47.19 L 115 47.38 L 115 47.63 L 115.06 47.81 L 115.19 47.94 L 115.38 48 L 115.63 48 L 115.81 48.13 L 115.94 48.38 L 116 48.75 L 116 49.25 L 116.06 49.63 L 116.19 49.88 L 116.38 50 L 116.63 50 L 116.81 50.19 L 116.94 50.56 L 117 51.13 L 117 51.88 L 117.06 52.44 L 117.19 52.81 L 117.38 53 L 117.63 53 L 117.81 53.56 L 117.94 54.69 L 118 56.38 L 118 58.63 L 117.94 60.31 L 117.81 61.44 L 117.63 62 L 117.38 62 L 117.19 62.13 L 117.06 62.38 L 117 62.75 L 117 63.25 L 116.94 63.63 L 116.81 63.88 L 116.63 64 L 116.38 64 L 116.19 64.06 L 116.06 64.19 L 116 64.38 L 116 64.63 L 115.94 64.81 L 115.81 64.94 L 115.63 65 L 115.38 65 L 115.19 65.06 L 115.06 65.19 L 115 65.38 L 115 65.63 L 114.44 65.81 L 113.31 65.94 L 111.63 66 L 109.38 66 L 107.69 66.06 L 106.56 66.19 L 106 66.38 L 106 66.63 L 105.06 66.81 L 103.19 66.94 L 100.38 67 L 96.63 67 L 93.81 66.94 L 91.94 66.81 L 91 66.63 L 91 66.38 L 90.69 66.19 L 90.06 66.06 L 89.13 66 L 87.88 66 L 86.94 65.94 L 86.31 65.81 L 86 65.63 L 86 65.38 L 85.88 65.19 L 85.63 65.06 L 85.25 65 L 84.75 65 L 84.38 64.94 L 84.13 64.81 L 84 64.63 L 84 64.38 L 83.94 64.19 L 83.81 64.06 L 83.63 64 L 83.38 64 L 83.19 63.94 L 83.06 63.81 L 83 63.63 L 83 63.38 L 82.94 63.19 L 82.81 63.06 L 82.63 63 L 82.38 63 L 82.19 62.81 L 82.06 62.44 L 82 61.88 L 82 61.13 L 81.94 60.56 L 81.81 60.19 L 81.63 60 L 81.38 60 L 81.19 59.75 L 81.06 59.25 L 81 58.5 L 81 57.5 L 80.94 56.75 L 80.81 56.25 L 80.63 56 L 80.38 56 L 80.19 55.94 L 80.06 55.81 L 80 55.63 L 80 55.38 L 79.88 55.19 L 79.63 55.06 L 79.25 55 L 78.75 55 L 78.38 54.94 L 78.13 54.81 L 78 54.63 L 78 54.38 L 76.44 54.19 L 73.31 54.06 L 68.63 54 L 62.38 54 L 57.69 53.94 L 54.56 53.81 L 53 53.63 L 53 53.38 L 52.94 53.19 L 52.81 53.06 L 52.63 53 L 52.38 53 L 52.19 52.75 L 52.06 52.25 L 52 51.5 L 52 50.5 L 52.75 49.75 L 54.25 49.25 L 56.5 49 L 59.5 49 L 61.75 48.94 L 63.25 48.81 L 64 48.63 L 64 48.38 L 64.75 48.19 L 66.25 48.06 L 68.5 48 L 71.5 48 L 73.75 48.06 L 75.25 48.19 L 76 48.38 L 76 48.63 L 76.38 48.81 L 77.13 48.94 L 78.25 49 L 79.75 49 L 80.88 49.06 L 81.63 49.19 L 82 49.38 L 82 49.63 L 82.13 49.81 L 82.38 49.94 L 82.75 50 L 83.25 50 L 83.63 50.06 L 83.88 50.19 L 84 50.38 L 84 50.63 L 84.06 50.81 L 84.19 50.94 L 84.38 51 L 84.63 51 L 84.81 51.06 L 84.94 51.19 L 85 51.38 L 85 51.63 L 85.06 51.81 L 85.19 51.94 L 85.38 52 L 85.63 52 L 85.81 52.25 L 85.94 52.75 L 86 53.5 L 86 54.5 L 86.06 55.25 L 86.19 55.75 L 86.38 56 L 86.63 56 L 86.81 56.25 L 86.94 56.75 L 87 57.5 L 87 58.5 L 87.19 59.25 L 87.56 59.75 L 88.13 60 L 88.88 60 L 89.44 60.06 L 89.81 60.19 L 90 60.38 L 90 60.63 L 91.25 60.81 L 93.75 60.94 L 97.5 61 L 102.5 61 L 106.25 60.94 L 108.75 60.81 L 110 60.63 L 110 60.38 L 110.13 60.19 L 110.38 60.06 L 110.75 60 L 111.25 60 L 111.63 59.56 L 111.88 58.69 L 112 57.38 L 112 55.63 L 111.94 54.31 L 111.81 53.44 L 111.63 53 L 111.38 53 L 111.19 52.94 L 111.06 52.81 L 111 52.63 L 111 52.38 L 110.94 52.19 L 110.81 52.06 L 110.63 52 L 110.38 52 L 110.19 51.88 L 110.06 51.63 L 110 51.25 L 110 50.75 L 109.94 50.38 L 109.81 50.13 L 109.63 50 L 109.38 50 L 109.19 49.94 L 109.06 49.81 L 109 49.63 L 109 49.38 L 108.94 49.19 L 108.81 49.06 L 108.63 49 L 108.38 49 L 108.19 48.94 L 108.06 48.81 L 108 48.63 L 108 48.38 L 107.94 48.19 L 107.81 48.06 L 107.63 48 L 107.38 48 L 107.19 47.94 L 107.06 47.81 L 107 47.63 L 107 47.38 L 106.94 47.19 L 106.81 47.06 L 106.63 47 L 106.38 47 L 106.19 46.94 L 106.06 46.81 L 106 46.63 L 106 46.38 L 105.88 46.19 L 105.63 46.06 L 105.25 46 L 104.75 46 L 104.38 45.94 L 104.13 45.81 L 104 45.63 L 104 45.38 L 103.31 45.19 L 101.94 45.06 L 99.88 45 L 97.13 45 L 95.06 44.94 L 93.69 44.81 L 93 44.63 L 93 44.38 L 91.94 44.19 L 89.81 44.06 L 86.63 44 L 82.38 44 L 79.19 44.06 L 77.06 44.19 L 76 44.38 L 76 44.63 L 74.63 44.81 L 71.88 44.94 L 67.75 45 L 62.25 45 L 58.13 44.94 L 55.38 44.81 L 54 44.63 L 54 44.38 L 53.88 44.19 L 53.63 44.06 L 53.25 44 L 52.75 44 L 52.38 43.75 L 52.13 43.25 L 52 42.5 L 52 41.5 L 52.06 40.75 L 52.19 40.25 L 52.38 40 L 52.63 40 L 52.81 39.94 L 52.94 39.81 L 53 39.63 L 53 39.38 L 56.19 39.19 L 62.56 39.06 Z M 163.75 41 L 164.25 41 L 164.63 41.06 L 164.88 41.19 L 165 41.38 L 165 41.63 L 165.06 41.81 L 165.19 41.94 L 165.38 42 L 165.63 42 L 165.81 42.06 L 165.94 42.19 L 166 42.38 L 166 42.63 L 166.06 42.81 L 166.19 42.94 L 166.38 43 L 166.63 43 L 166.81 43.44 L 166.94 44.31 L 167 45.63 L 167 47.38 L 167.06 48.69 L 167.19 49.56 L 167.38 50 L 167.63 50 L 167.81 50.13 L 167.94 50.38 L 168 50.75 L 168 51.25 L 168.06 51.63 L 168.19 51.88 L 168.38 52 L 168.63 52 L 168.81 52.06 L 168.94 52.19 L 169 52.38 L 169 52.63 L 169.19 52.81 L 169.56 52.94 L 170.13 53 L 170.88 53 L 171.44 53.06 L 171.81 53.19 L 172 53.38 L 172 53.63 L 172.19 53.81 L 172.56 53.94 L 173.13 54 L 173.88 54 L 174.44 54.06 L 174.81 54.19 L 175 54.38 L 175 54.63 L 175.13 54.81 L 175.38 54.94 L 175.75 55 L 176.25 55 L 176.63 55.06 L 176.88 55.19 L 177 55.38 L 177 55.63 L 177.06 55.81 L 177.19 55.94 L 177.38 56 L 177.63 56 L 177.81 56.13 L 177.94 56.38 L 178 56.75 L 178 57.25 L 177.94 57.63 L 177.81 57.88 L 177.63 58 L 177.38 58 L 177.19 58.06 L 177.06 58.19 L 177 58.38 L 177 58.63 L 176.94 58.81 L 176.81 58.94 L 176.63 59 L 176.38 59 L 176.19 59.06 L 176.06 59.19 L 176 59.38 L 176 59.63 L 175.75 59.81 L 175.25 59.94 L 174.5 60 L 173.5 60 L 172.75 60.06 L 172.25 60.19 L 172 60.38 L 172 60.63 L 171.88 60.81 L 171.63 60.94 L 171.25 61 L 170.75 61 L 170.38 61.06 L 170.13 61.19 L 170 61.38 L 170 61.63 L 169.94 61.81 L 169.81 61.94 L 169.63 62 L 169.38 62 L 169.19 62.06 L 169.06 62.19 L 169 62.38 L 169 62.63 L 168.94 62.81 L 168.81 62.94 L 168.63 63 L 168.38 63 L 168.19 63.13 L 168.06 63.38 L 168 63.75 L 168 64.25 L 167.94 64.63 L 167.81 64.88 L 167.63 65 L 167.38 65 L 167.19 65.38 L 167.06 66.13 L 167 67.25 L 167 68.75 L 166.94 69.88 L 166.81 70.63 L 166.63 71 L 166.38 71 L 166.19 71.06 L 166.06 71.19 L 166 71.38 L 166 71.63 L 165.94 71.81 L 165.81 71.94 L 165.63 72 L 165.38 72 L 165.19 72.06 L 165.06 72.19 L 165 72.38 L 165 72.63 L 164.94 72.81 L 164.81 72.94 L 164.63 73 L 164.38 73 L 164.19 73.06 L 164.06 73.19 L 164 73.38 L 164 73.63 L 163.94 73.81 L 163.81 73.94 L 163.63 74 L 163.38 74 L 163.19 73.94 L 163.06 73.81 L 163 73.63 L 163 73.38 L 162.94 73.19 L 162.81 73.06 L 162.63 73 L 162.38 73 L 162.19 72.94 L 162.06 72.81 L 162 72.63 L 162 72.38 L 161.94 72.19 L 161.81 72.06 L 161.63 72 L 161.38 72 L 161.19 71.88 L 161.06 71.63 L 161 71.25 L 161 70.75 L 160.94 70.38 L 160.81 70.13 L 160.63 70 L 160.38 70 L 160.19 69.81 L 160.06 69.44 L 160 68.88 L 160 68.13 L 159.94 67.56 L 159.81 67.19 L 159.63 67 L 159.38 67 L 159.19 66.75 L 159.06 66.25 L 159 65.5 L 159 64.5 L 158.88 63.75 L 158.63 63.25 L 158.25 63 L 157.75 63 L 157.38 62.94 L 157.13 62.81 L 157 62.63 L 157 62.38 L 156.94 62.19 L 156.81 62.06 L 156.63 62 L 156.38 62 L 156.19 61.94 L 156.06 61.81 L 156 61.63 L 156 61.38 L 155.81 61.19 L 155.44 61.06 L 154.88 61 L 154.13 61 L 153.56 60.94 L 153.19 60.81 L 153 60.63 L 153 60.38 L 152.88 60.19 L 152.63 60.06 L 152.25 60 L 151.75 60 L 151.38 59.94 L 151.13 59.81 L 151 59.63 L 151 59.38 L 150.94 59.19 L 150.81 59.06 L 150.63 59 L 150.38 59 L 150.19 58.94 L 150.06 58.81 L 150 58.63 L 150 58.38 L 149.94 58.19 L 149.81 58.06 L 149.63 58 L 149.38 58 L 149.19 57.88 L 149.06 57.63 L 149 57.25 L 149 56.75 L 148.94 56.38 L 148.81 56.13 L 148.63 56 L 148.38 56 L 148.19 56.06 L 148.06 56.19 L 148 56.38 L 148 56.63 L 147.88 56.81 L 147.63 56.94 L 147.25 57 L 146.75 57 L 146.38 56.88 L 146.13 56.63 L 146 56.25 L 146 55.75 L 145.94 55.38 L 145.81 55.13 L 145.63 55 L 145.38 55 L 145.19 54.94 L 145.06 54.81 L 145 54.63 L 145 54.38 L 144.94 54.19 L 144.81 54.06 L 144.63 54 L 144.38 54 L 144.19 53.94 L 144.06 53.81 L 144 53.63 L 144 53.38 L 143.88 53.19 L 143.63 53.06 L 143.25 53 L 142.75 53 L 142.38 52.94 L 142.13 52.81 L 142 52.63 L 142 52.38 L 141.94 52.19 L 141.81 52.06 L 141.63 52 L 141.38 52 L 141.19 51.94 L 141.06 51.81 L 141 51.63 L 141 51.38 L 141.06 51.19 L 141.19 51.06 L 141.38 51 L 141.63 51 L 141.81 50.88 L 141.94 50.63 L 142 50.25 L 142 49.75 L 142.19 49.38 L 142.56 49.13 L 143.13 49 L 143.88 49 L 144.44 48.88 L 144.81 48.63 L 145 48.25 L 145 47.75 L 145.06 47.38 L 145.19 47.13 L 145.38 47 L 145.63 47 L 145.81 46.94 L 145.94 46.81 L 146 46.63 L 146 46.38 L 146.19 46.19 L 146.56 46.06 L 147.13 46 L 147.88 46 L 148.44 46.13 L 148.81 46.38 L 149 46.75 L 149 47.25 L 149.06 47.63 L 149.19 47.88 L 149.38 48 L 149.63 48 L 149.81 48.06 L 149.94 48.19 L 150 48.38 L 150 48.63 L 150.13 48.81 L 150.38 48.94 L 150.75 49 L 151.25 49 L 151.63 49.13 L 151.88 49.38 L 152 49.75 L 152 50.25 L 152.06 50.63 L 152.19 50.88 L 152.38 51 L 152.63 51 L 152.81 51.06 L 152.94 51.19 L 153 51.38 L 153 51.63 L 152.94 51.81 L 152.81 51.94 L 152.63 52 L 152.38 52 L 152.19 52.06 L 152.06 52.19 L 152 52.38 L 152 52.63 L 151.88 52.81 L 151.63 52.94 L 151.25 53 L 150.75 53 L 150.38 53.13 L 150.13 53.38 L 150 53.75 L 150 54.25 L 150.13 54.63 L 150.38 54.88 L 150.75 55 L 151.25 55 L 151.63 54.94 L 151.88 54.81 L 152 54.63 L 152 54.38 L 152.25 54.19 L 152.75 54.06 L 153.5 54 L 154.5 54 L 155.25 53.94 L 155.75 53.81 L 156 53.63 L 156 53.38 L 156.06 53.19 L 156.19 53.06 L 156.38 53 L 156.63 53 L 156.81 52.94 L 156.94 52.81 L 157 52.63 L 157 52.38 L 157.06 52.19 L 157.19 52.06 L 157.38 52 L 157.63 52 L 157.81 51.94 L 157.94 51.81 L 158 51.63 L 158 51.38 L 158.06 51.19 L 158.19 51.06 L 158.38 51 L 158.63 51 L 158.81 50.88 L 158.94 50.63 L 159 50.25 L 159 49.75 L 159.06 49.38 L 159.19 49.13 L 159.38 49 L 159.63 49 L 159.81 48.75 L 159.94 48.25 L 160 47.5 L 160 46.5 L 160.06 45.75 L 160.19 45.25 L 160.38 45 L 160.63 45 L 160.81 44.88 L 160.94 44.63 L 161 44.25 L 161 43.75 L 161.06 43.38 L 161.19 43.13 L 161.38 43 L 161.63 43 L 161.81 42.94 L 161.94 42.81 L 162 42.63 L 162 42.38 L 162.06 42.19 L 162.19 42.06 L 162.38 42 L 162.63 42 L 162.81 41.94 L 162.94 41.81 L 163 41.63 L 163 41.38 L 163.13 41.19 L 163.38 41.06 Z M 163.63 49 L 163.38 49 L 163.19 49.13 L 163.06 49.38 L 163 49.75 L 163 50.25 L 162.94 50.63 L 162.81 50.88 L 162.63 51 L 162.38 51 L 162.19 51.06 L 162.06 51.19 L 162 51.38 L 162 51.63 L 161.94 51.81 L 161.81 51.94 L 161.63 52 L 161.38 52 L 161.19 52.13 L 161.06 52.38 L 161 52.75 L 161 53.25 L 160.94 53.63 L 160.81 53.88 L 160.63 54 L 160.38 54 L 160.19 54.06 L 160.06 54.19 L 160 54.38 L 160 54.63 L 159.94 54.81 L 159.81 54.94 L 159.63 55 L 159.38 55 L 159.19 55.06 L 159.06 55.19 L 159 55.38 L 159 55.63 L 158.94 55.81 L 158.81 55.94 L 158.63 56 L 158.38 56 L 158.19 56.06 L 158.06 56.19 L 158 56.38 L 158 56.63 L 157.88 56.81 L 157.63 56.94 L 157.25 57 L 156.75 57 L 156.38 57.06 L 156.13 57.19 L 156 57.38 L 156 57.63 L 156.13 57.81 L 156.38 57.94 L 156.75 58 L 157.25 58 L 157.63 58.06 L 157.88 58.19 L 158 58.38 L 158 58.63 L 158.13 58.81 L 158.38 58.94 L 158.75 59 L 159.25 59 L 159.63 59.06 L 159.88 59.19 L 160 59.38 L 160 59.63 L 160.06 59.81 L 160.19 59.94 L 160.38 60 L 160.63 60 L 160.81 60.19 L 160.94 60.56 L 161 61.13 L 161 61.88 L 161.06 62.44 L 161.19 62.81 L 161.38 63 L 161.63 63 L 161.81 63.06 L 161.94 63.19 L 162 63.38 L 162 63.63 L 162.06 63.81 L 162.19 63.94 L 162.38 64 L 162.63 64 L 162.81 64.13 L 162.94 64.38 L 163 64.75 L 163 65.25 L 163.06 65.63 L 163.19 65.88 L 163.38 66 L 163.63 66 L 163.81 65.81 L 163.94 65.44 L 164 64.88 L 164 64.13 L 164.06 63.56 L 164.19 63.19 L 164.38 63 L 164.63 63 L 164.81 62.88 L 164.94 62.63 L 165 62.25 L 165 61.75 L 165.06 61.38 L 165.19 61.13 L 165.38 61 L 165.63 61 L 165.81 60.88 L 165.94 60.63 L 166 60.25 L 166 59.75 L 166.13 59.38 L 166.38 59.13 L 166.75 59 L 167.25 59 L 167.63 58.94 L 167.88 58.81 L 168 58.63 L 168 58.38 L 168.13 58.19 L 168.38 58.06 L 168.75 58 L 169.25 58 L 169.63 57.94 L 169.88 57.81 L 170 57.63 L 170 57.38 L 169.94 57.19 L 169.81 57.06 L 169.63 57 L 169.38 57 L 169.19 56.94 L 169.06 56.81 L 169 56.63 L 169 56.38 L 168.88 56.19 L 168.63 56.06 L 168.25 56 L 167.75 56 L 167.38 55.94 L 167.13 55.81 L 167 55.63 L 167 55.38 L 166.94 55.19 L 166.81 55.06 L 166.63 55 L 166.38 55 L 166.19 54.88 L 166.06 54.63 L 166 54.25 L 166 53.75 L 165.94 53.38 L 165.81 53.13 L 165.63 53 L 165.38 53 L 165.19 52.94 L 165.06 52.81 L 165 52.63 L 165 52.38 L 164.94 52.19 L 164.81 52.06 L 164.63 52 L 164.38 52 L 164.19 51.81 L 164.06 51.44 L 164 50.88 L 164 50.13 L 163.94 49.56 L 163.81 49.19 Z M 149.13 62 L 149.88 62 L 150.44 62.13 L 150.81 62.38 L 151 62.75 L 151 63.25 L 151.06 63.63 L 151.19 63.88 L 151.38 64 L 151.63 64 L 151.81 64.31 L 151.94 64.94 L 152 65.88 L 152 67.13 L 152.06 68.06 L 152.19 68.69 L 152.38 69 L 152.63 69 L 152.81 69.06 L 152.94 69.19 L 153 69.38 L 153 69.63 L 153.19 69.81 L 153.56 69.94 L 154.13 70 L 154.88 70 L 155.44 70.06 L 155.81 70.19 L 156 70.38 L 156 70.63 L 156.13 70.81 L 156.38 70.94 L 156.75 71 L 157.25 71 L 157.63 71.06 L 157.88 71.19 L 158 71.38 L 158 71.63 L 158.06 71.81 L 158.19 71.94 L 158.38 72 L 158.63 72 L 158.81 72.13 L 158.94 72.38 L 159 72.75 L 159 73.25 L 158.94 73.63 L 158.81 73.88 L 158.63 74 L 158.38 74 L 158.19 74.06 L 158.06 74.19 L 158 74.38 L 158 74.63 L 157.88 74.81 L 157.63 74.94 L 157.25 75 L 156.75 75 L 156.38 75.06 L 156.13 75.19 L 156 75.38 L 156 75.63 L 155.81 75.81 L 155.44 75.94 L 154.88 76 L 154.13 76 L 153.56 76.06 L 153.19 76.19 L 153 76.38 L 153 76.63 L 152.94 76.81 L 152.81 76.94 L 152.63 77 L 152.38 77 L 152.19 77.25 L 152.06 77.75 L 152 78.5 L 152 79.5 L 151.94 80.25 L 151.81 80.75 L 151.63 81 L 151.38 81 L 151.19 81.13 L 151.06 81.38 L 151 81.75 L 151 82.25 L 150.75 82.63 L 150.25 82.88 L 149.5 83 L 148.5 83 L 147.75 82.88 L 147.25 82.63 L 147 82.25 L 147 81.75 L 146.94 81.38 L 146.81 81.13 L 146.63 81 L 146.38 81 L 146.19 80.81 L 146.06 80.44 L 146 79.88 L 146 79.13 L 145.94 78.56 L 145.81 78.19 L 145.63 78 L 145.38 78 L 145.19 77.88 L 145.06 77.63 L 145 77.25 L 145 76.75 L 144.81 76.38 L 144.44 76.13 L 143.88 76 L 143.13 76 L 142.56 75.94 L 142.19 75.81 L 142 75.63 L 142 75.38 L 141.88 75.19 L 141.63 75.06 L 141.25 75 L 140.75 75 L 140.38 74.75 L 140.13 74.25 L 140 73.5 L 140 72.5 L 140.13 71.75 L 140.38 71.25 L 140.75 71 L 141.25 71 L 141.63 70.94 L 141.88 70.81 L 142 70.63 L 142 70.38 L 142.13 70.19 L 142.38 70.06 L 142.75 70 L 143.25 70 L 143.63 69.94 L 143.88 69.81 L 144 69.63 L 144 69.38 L 144.06 69.19 L 144.19 69.06 L 144.38 69 L 144.63 69 L 144.81 68.94 L 144.94 68.81 L 145 68.63 L 145 68.38 L 145.06 68.19 L 145.19 68.06 L 145.38 68 L 145.63 68 L 145.81 67.75 L 145.94 67.25 L 146 66.5 L 146 65.5 L 146.06 64.75 L 146.19 64.25 L 146.38 64 L 146.63 64 L 146.81 63.94 L 146.94 63.81 L 147 63.63 L 147 63.38 L 147.06 63.19 L 147.19 63.06 L 147.38 63 L 147.63 63 L 147.81 62.94 L 147.94 62.81 L 148 62.63 L 148 62.38 L 148.19 62.19 L 148.56 62.06 Z M 86.5 69 L 87.5 69 L 88.25 69.06 L 88.75 69.19 L 89 69.38 L 89 69.63 L 89.06 69.81 L 89.19 69.94 L 89.38 70 L 89.63 70 L 89.81 72.25 L 89.94 76.75 L 90 83.5 L 90 92.5 L 89.94 99.25 L 89.81 103.75 L 89.63 106 L 89.38 106 L 89.19 106.06 L 89.06 106.19 L 89 106.38 L 89 106.63 L 88.75 106.81 L 88.25 106.94 L 87.5 107 L 86.5 107 L 85.75 106.88 L 85.25 106.63 L 85 106.25 L 85 105.75 L 84.94 105.38 L 84.81 105.13 L 84.63 105 L 84.38 105 L 84.19 104.88 L 84.06 104.63 L 84 104.25 L 84 103.75 L 84.06 103.38 L 84.19 103.13 L 84.38 103 L 84.63 103 L 84.81 102.88 L 84.94 102.63 L 85 102.25 L 85 101.75 L 84.94 101.38 L 84.81 101.13 L 84.63 101 L 84.38 101 L 84.19 99.13 L 84.06 95.38 L 84 89.75 L 84 82.25 L 84.06 76.63 L 84.19 72.88 L 84.38 71 L 84.63 71 L 84.81 70.88 L 84.94 70.63 L 85 70.25 L 85 69.75 L 85.25 69.38 L 85.75 69.13 Z M 100.13 69 L 100.88 69 L 101.44 69.06 L 101.81 69.19 L 102 69.38 L 102 69.63 L 102.06 69.81 L 102.19 69.94 L 102.38 70 L 102.63 70 L 102.81 71.25 L 102.94 73.75 L 103 77.5 L 103 82.5 L 103.31 86.25 L 103.94 88.75 L 104.88 90 L 106.13 90 L 107.06 90.06 L 107.69 90.19 L 108 90.38 L 108 90.63 L 108.06 90.81 L 108.19 90.94 L 108.38 91 L 108.63 91 L 108.81 91.19 L 108.94 91.56 L 109 92.13 L 109 92.88 L 108.94 93.44 L 108.81 93.81 L 108.63 94 L 108.38 94 L 108.19 94.06 L 108.06 94.19 L 108 94.38 L 108 94.63 L 107.94 94.81 L 107.81 94.94 L 107.63 95 L 107.38 95 L 107.19 95.06 L 107.06 95.19 L 107 95.38 L 107 95.63 L 106.88 95.81 L 106.63 95.94 L 106.25 96 L 105.75 96 L 105.38 96.06 L 105.13 96.19 L 105 96.38 L 105 96.63 L 104.94 96.81 L 104.81 96.94 L 104.63 97 L 104.38 97 L 104.19 97.06 L 104.06 97.19 L 104 97.38 L 104 97.63 L 103.94 97.81 L 103.81 97.94 L 103.63 98 L 103.38 98 L 103.19 98.13 L 103.06 98.38 L 103 98.75 L 103 99.25 L 102.75 99.63 L 102.25 99.88 L 101.5 100 L 100.5 100 L 99.75 99.94 L 99.25 99.81 L 99 99.63 L 99 99.38 L 98.94 99.19 L 98.81 99.06 L 98.63 99 L 98.38 99 L 98.19 98.88 L 98.06 98.63 L 98 98.25 L 98 97.75 L 97.94 97.38 L 97.81 97.13 L 97.63 97 L 97.38 97 L 97.19 96.94 L 97.06 96.81 L 97 96.63 L 97 96.38 L 96.94 96.19 L 96.81 96.06 L 96.63 96 L 96.38 96 L 96.19 95.94 L 96.06 95.81 L 96 95.63 L 96 95.38 L 95.94 95.19 L 95.81 95.06 L 95.63 95 L 95.38 95 L 95.19 94.69 L 95.06 94.06 L 95 93.13 L 95 91.88 L 95.19 90.94 L 95.56 90.31 L 96.13 90 L 96.88 90 L 97.44 88.75 L 97.81 86.25 L 98 82.5 L 98 77.5 L 98.06 73.75 L 98.19 71.25 L 98.38 70 L 98.63 70 L 98.81 69.94 L 98.94 69.81 L 99 69.63 L 99 69.38 L 99.19 69.19 L 99.56 69.06 Z M 113.5 69 L 114.5 69 L 115.25 70.56 L 115.75 73.69 L 116 78.38 L 116 84.63 L 116.25 89.31 L 116.75 92.44 L 117.5 94 L 118.5 94 L 119.25 93.94 L 119.75 93.81 L 120 93.63 L 120 93.38 L 120.19 93.19 L 120.56 93.06 L 121.13 93 L 121.88 93 L 122.44 92.94 L 122.81 92.81 L 123 92.63 L 123 92.38 L 123.81 92.19 L 125.44 92.06 L 127.88 92 L 131.13 92 L 133.56 92.06 L 135.19 92.19 L 136 92.38 L 136 92.63 L 136.06 92.81 L 136.19 92.94 L 136.38 93 L 136.63 93 L 136.81 93.06 L 136.94 93.19 L 137 93.38 L 137 93.63 L 136.94 93.81 L 136.81 93.94 L 136.63 94 L 136.38 94 L 136.19 94.13 L 136.06 94.38 L 136 94.75 L 136 95.25 L 135.94 95.63 L 135.81 95.88 L 135.63 96 L 135.38 96 L 135.19 96.13 L 135.06 96.38 L 135 96.75 L 135 97.25 L 134.94 97.63 L 134.81 97.88 L 134.63 98 L 134.38 98 L 134.19 98.06 L 134.06 98.19 L 134 98.38 L 134 98.63 L 133.94 98.81 L 133.81 98.94 L 133.63 99 L 133.38 99 L 133.19 99.25 L 133.06 99.75 L 133 100.5 L 133 101.5 L 132.94 102.25 L 132.81 102.75 L 132.63 103 L 132.38 103 L 132.19 103.19 L 132.06 103.56 L 132 104.13 L 132 104.88 L 131.94 105.44 L 131.81 105.81 L 131.63 106 L 131.38 106 L 131.19 106.25 L 131.06 106.75 L 131 107.5 L 131 108.5 L 131.13 109.25 L 131.38 109.75 L 131.75 110 L 132.25 110 L 132.63 109.94 L 132.88 109.81 L 133 109.63 L 133 109.38 L 133.06 109.19 L 133.19 109.06 L 133.38 109 L 133.63 109 L 133.81 108.63 L 133.94 107.88 L 134 106.75 L 134 105.25 L 134.06 104.13 L 134.19 103.38 L 134.38 103 L 134.63 103 L 134.81 102.88 L 134.94 102.63 L 135 102.25 L 135 101.75 L 135.06 101.38 L 135.19 101.13 L 135.38 101 L 135.63 101 L 135.81 100.81 L 135.94 100.44 L 136 99.88 L 136 99.13 L 136.06 98.56 L 136.19 98.19 L 136.38 98 L 136.63 98 L 136.81 97.94 L 136.94 97.81 L 137 97.63 L 137 97.38 L 137.06 97.19 L 137.19 97.06 L 137.38 97 L 137.63 97 L 137.81 96.88 L 137.94 96.63 L 138 96.25 L 138 95.75 L 138.06 95.38 L 138.19 95.13 L 138.38 95 L 138.63 95 L 138.81 94.94 L 138.94 94.81 L 139 94.63 L 139 94.38 L 139.25 94.19 L 139.75 94.06 L 140.5 94 L 141.5 94 L 142.25 94.06 L 142.75 94.19 L 143 94.38 L 143 94.63 L 143.19 94.81 L 143.56 94.94 L 144.13 95 L 144.88 95 L 145.44 95.06 L 145.81 95.19 L 146 95.38 L 146 95.63 L 146.13 95.81 L 146.38 95.94 L 146.75 96 L 147.25 96 L 147.63 95.94 L 147.88 95.81 L 148 95.63 L 148 95.38 L 148.13 95.19 L 148.38 95.06 L 148.75 95 L 149.25 95 L 149.63 94.94 L 149.88 94.81 L 150 94.63 L 150 94.38 L 150.19 94.19 L 150.56 94.06 L 151.13 94 L 151.88 94 L 152.44 93.94 L 152.81 93.81 L 153 93.63 L 153 93.38 L 153.13 93.19 L 153.38 93.06 L 153.75 93 L 154.25 93 L 154.63 92.94 L 154.88 92.81 L 155 92.63 L 155 92.38 L 155.19 92.19 L 155.56 92.06 L 156.13 92 L 156.88 92 L 157.44 91.94 L 157.81 91.81 L 158 91.63 L 158 91.38 L 158.13 91.19 L 158.38 91.06 L 158.75 91 L 159.25 91 L 159.63 90.94 L 159.88 90.81 L 160 90.63 L 160 90.38 L 160.31 90.19 L 160.94 90.06 L 161.88 90 L 163.13 90 L 164.06 90.06 L 164.69 90.19 L 165 90.38 L 165 90.63 L 165.06 90.81 L 165.19 90.94 L 165.38 91 L 165.63 91 L 165.81 91.38 L 165.94 92.13 L 166 93.25 L 166 94.75 L 166.06 95.88 L 166.19 96.63 L 166.38 97 L 166.63 97 L 166.81 97.19 L 166.94 97.56 L 167 98.13 L 167 98.88 L 167.06 99.44 L 167.19 99.81 L 167.38 100 L 167.63 100 L 167.81 100.06 L 167.94 100.19 L 168 100.38 L 168 100.63 L 168.06 100.81 L 168.19 100.94 L 168.38 101 L 168.63 101 L 168.81 101.06 L 168.94 101.19 L 169 101.38 L 169 101.63 L 169.06 101.81 L 169.19 101.94 L 169.38 102 L 169.63 102 L 169.81 102.06 L 169.94 102.19 L 170 102.38 L 170 102.63 L 170.19 102.81 L 170.56 102.94 L 171.13 103 L 171.88 103 L 172.44 103.06 L 172.81 103.19 L 173 103.38 L 173 103.63 L 173.06 103.81 L 173.19 103.94 L 173.38 104 L 173.63 104 L 173.81 104.31 L 173.94 104.94 L 174 105.88 L 174 107.13 L 173.88 108.06 L 173.63 108.69 L 173.25 109 L 172.75 109 L 172.38 109.13 L 172.13 109.38 L 172 109.75 L 172 110.25 L 171.94 110.63 L 171.81 110.88 L 171.63 111 L 171.38 111 L 171.19 111.06 L 171.06 111.19 L 171 111.38 L 171 111.63 L 170.94 111.81 L 170.81 111.94 L 170.63 112 L 170.38 112 L 170.19 112.06 L 170.06 112.19 L 170 112.38 L 170 112.63 L 169.94 112.81 L 169.81 112.94 L 169.63 113 L 169.38 113 L 169.19 113.06 L 169.06 113.19 L 169 113.38 L 169 113.63 L 168.94 113.81 L 168.81 113.94 L 168.63 114 L 168.38 114 L 168.19 114.06 L 168.06 114.19 L 168 114.38 L 168 114.63 L 168.06 114.81 L 168.19 114.94 L 168.38 115 L 168.63 115 L 168.81 115.06 L 168.94 115.19 L 169 115.38 L 169 115.63 L 169.06 115.81 L 169.19 115.94 L 169.38 116 L 169.63 116 L 169.81 115.94 L 169.94 115.81 L 170 115.63 L 170 115.38 L 170.06 115.19 L 170.19 115.06 L 170.38 115 L 170.63 115 L 170.81 114.94 L 170.94 114.81 L 171 114.63 L 171 114.38 L 171.06 114.19 L 171.19 114.06 L 171.38 114 L 171.63 114 L 171.81 113.94 L 171.94 113.81 L 172 113.63 L 172 113.38 L 172.06 113.19 L 172.19 113.06 L 172.38 113 L 172.63 113 L 172.81 112.94 L 172.94 112.81 L 173 112.63 L 173 112.38 L 173.06 112.19 L 173.19 112.06 L 173.38 112 L 173.63 112 L 173.81 111.94 L 173.94 111.81 L 174 111.63 L 174 111.38 L 174.06 111.19 L 174.19 111.06 L 174.38 111 L 174.63 111 L 174.81 110.88 L 174.94 110.63 L 175 110.25 L 175 109.75 L 175.06 109.38 L 175.19 109.13 L 175.38 109 L 175.63 109 L 175.81 108.88 L 175.94 108.63 L 176 108.25 L 176 107.75 L 176.25 107.38 L 176.75 107.13 L 177.5 107 L 178.5 107 L 179.25 107.06 L 179.75 107.19 L 180 107.38 L 180 107.63 L 180.13 107.81 L 180.38 107.94 L 180.75 108 L 181.25 108 L 181.63 108.06 L 181.88 108.19 L 182 108.38 L 182 108.63 L 182.13 108.81 L 182.38 108.94 L 182.75 109 L 183.25 109 L 183.63 109.06 L 183.88 109.19 L 184 109.38 L 184 109.63 L 184.06 109.81 L 184.19 109.94 L 184.38 110 L 184.63 110 L 184.81 110.06 L 184.94 110.19 L 185 110.38 L 185 110.63 L 185.13 110.81 L 185.38 110.94 L 185.75 111 L 186.25 111 L 186.63 111.13 L 186.88 111.38 L 187 111.75 L 187 112.25 L 187.06 112.63 L 187.19 112.88 L 187.38 113 L 187.63 113 L 187.81 113.06 L 187.94 113.19 L 188 113.38 L 188 113.63 L 188.06 113.81 L 188.19 113.94 L 188.38 114 L 188.63 114 L 188.81 114.13 L 188.94 114.38 L 189 114.75 L 189 115.25 L 189.06 115.63 L 189.19 115.88 L 189.38 116 L 189.63 116 L 189.81 116.06 L 189.94 116.19 L 190 116.38 L 190 116.63 L 190.06 116.81 L 190.19 116.94 L 190.38 117 L 190.63 117 L 190.81 117.5 L 190.94 118.5 L 191 120 L 191 122 L 190.94 123.5 L 190.81 124.5 L 190.63 125 L 190.38 125 L 190.19 125.13 L 190.06 125.38 L 190 125.75 L 190 126.25 L 189.94 126.63 L 189.81 126.88 L 189.63 127 L 189.38 127 L 189.19 127.25 L 189.06 127.75 L 189 128.5 L 189 129.5 L 188.94 130.25 L 188.81 130.75 L 188.63 131 L 188.38 131 L 188.19 131.13 L 188.06 131.38 L 188 131.75 L 188 132.25 L 187.94 132.63 L 187.81 132.88 L 187.63 133 L 187.38 133 L 187.19 133.25 L 187.06 133.75 L 187 134.5 L 187 135.5 L 185.94 136.25 L 183.81 136.75 L 180.63 137 L 176.38 137 L 173.19 137.06 L 171.06 137.19 L 170 137.38 L 170 137.63 L 169.81 137.81 L 169.44 137.94 L 168.88 138 L 168.13 138 L 167.56 138.06 L 167.19 138.19 L 167 138.38 L 167 138.63 L 166.69 138.81 L 166.06 138.94 L 165.13 139 L 163.88 139 L 162.94 139.06 L 162.31 139.19 L 162 139.38 L 162 139.63 L 161.88 139.81 L 161.63 139.94 L 161.25 140 L 160.75 140 L 160.38 140.06 L 160.13 140.19 L 160 140.38 L 160 140.63 L 159.81 140.81 L 159.44 140.94 L 158.88 141 L 158.13 141 L 157.56 141.06 L 157.19 141.19 L 157 141.38 L 157 141.63 L 156.94 141.81 L 156.81 141.94 L 156.63 142 L 156.38 142 L 156.19 142.06 L 156.06 142.19 L 156 142.38 L 156 142.63 L 155.81 142.81 L 155.44 142.94 L 154.88 143 L 154.13 143 L 153.56 143.06 L 153.19 143.19 L 153 143.38 L 153 143.63 L 152.88 143.81 L 152.63 143.94 L 152.25 144 L 151.75 144 L 151.38 144.06 L 151.13 144.19 L 151 144.38 L 151 144.63 L 150.94 144.81 L 150.81 144.94 L 150.63 145 L 150.38 145 L 150.19 145.06 L 150.06 145.19 L 150 145.38 L 150 145.63 L 149.88 145.81 L 149.63 145.94 L 149.25 146 L 148.75 146 L 148.38 146.06 L 148.13 146.19 L 148 146.38 L 148 146.63 L 147.88 146.81 L 147.63 146.94 L 147.25 147 L 146.75 147 L 146.38 147.06 L 146.13 147.19 L 146 147.38 L 146 147.63 L 145.94 147.81 L 145.81 147.94 L 145.63 148 L 145.38 148 L 145.19 148.06 L 145.06 148.19 L 145 148.38 L 145 148.63 L 144.94 148.81 L 144.81 148.94 L 144.63 149 L 144.38 149 L 144.19 149.06 L 144.06 149.19 L 144 149.38 L 144 149.63 L 143.94 149.81 L 143.81 149.94 L 143.63 150 L 143.38 150 L 143.19 150.06 L 143.06 150.19 L 143 150.38 L 143 150.63 L 142.94 150.81 L 142.81 150.94 L 142.63 151 L 142.38 151 L 142.19 151.06 L 142.06 151.19 L 142 151.38 L 142 151.63 L 141.94 151.81 L 141.81 151.94 L 141.63 152 L 141.38 152 L 141.19 152.06 L 141.06 152.19 L 141 152.38 L 141 152.63 L 140.94 152.81 L 140.81 152.94 L 140.63 153 L 140.38 153 L 140.19 153.06 L 140.06 153.19 L 140 153.38 L 140 153.63 L 139.88 153.81 L 139.63 153.94 L 139.25 154 L 138.75 154 L 138.38 154.06 L 138.13 154.19 L 138 154.38 L 138 154.63 L 137.94 154.81 L 137.81 154.94 L 137.63 155 L 137.38 155 L 137.19 155.06 L 137.06 155.19 L 137 155.38 L 137 155.63 L 136.5 155.81 L 135.5 155.94 L 134 156 L 132 156 L 130.5 155.94 L 129.5 155.81 L 129 155.63 L 129 155.38 L 128.94 155.19 L 128.81 155.06 L 128.63 155 L 128.38 155 L 128.19 154.94 L 128.06 154.81 L 128 154.63 L 128 154.38 L 127.88 154.19 L 127.63 154.06 L 127.25 154 L 126.75 154 L 126.38 153.88 L 126.13 153.63 L 126 153.25 L 126 152.75 L 125.94 152.38 L 125.81 152.13 L 125.63 152 L 125.38 152 L 125.19 151.56 L 125.06 150.69 L 125 149.38 L 125 147.63 L 125.06 146.31 L 125.19 145.44 L 125.38 145 L 125.63 145 L 125.81 144.94 L 125.94 144.81 L 126 144.63 L 126 144.38 L 126.06 144.19 L 126.19 144.06 L 126.38 144 L 126.63 144 L 126.81 143.94 L 126.94 143.81 L 127 143.63 L 127 143.38 L 127.06 143.19 L 127.19 143.06 L 127.38 143 L 127.63 143 L 127.81 142.94 L 127.94 142.81 L 128 142.63 L 128 142.38 L 128.06 142.19 L 128.19 142.06 L 128.38 142 L 128.63 142 L 128.81 141.94 L 128.94 141.81 L 129 141.63 L 129 141.38 L 129.06 141.19 L 129.19 141.06 L 129.38 141 L 129.63 141 L 129.81 140.94 L 129.94 140.81 L 130 140.63 L 130 140.38 L 130.06 140.19 L 130.19 140.06 L 130.38 140 L 130.63 140 L 130.81 139.88 L 130.94 139.63 L 131 139.25 L 131 138.75 L 130.94 138.38 L 130.81 138.13 L 130.63 138 L 130.38 138 L 130.19 137.94 L 130.06 137.81 L 130 137.63 L 130 137.38 L 129.88 137.19 L 129.63 137.06 L 129.25 137 L 128.75 137 L 128.38 136.94 L 128.13 136.81 L 128 136.63 L 128 136.38 L 127.88 136.19 L 127.63 136.06 L 127.25 136 L 126.75 136 L 126.38 135.94 L 126.13 135.81 L 126 135.63 L 126 135.38 L 125.94 135.19 L 125.81 135.06 L 125.63 135 L 125.38 135 L 125.19 134.94 L 125.06 134.81 L 125 134.63 L 125 134.38 L 124.94 134.19 L 124.81 134.06 L 124.63 134 L 124.38 134 L 124.19 133.94 L 124.06 133.81 L 124 133.63 L 124 133.38 L 123.94 133.19 L 123.81 133.06 L 123.63 133 L 123.38 133 L 123.19 132.94 L 123.06 132.81 L 123 132.63 L 123 132.38 L 122.88 132.19 L 122.63 132.06 L 122.25 132 L 121.75 132 L 121.38 131.88 L 121.13 131.63 L 121 131.25 L 121 130.75 L 120.94 130.38 L 120.81 130.13 L 120.63 130 L 120.38 130 L 120.19 129.94 L 120.06 129.81 L 120 129.63 L 120 129.38 L 119.94 129.19 L 119.81 129.06 L 119.63 129 L 119.38 129 L 119.19 128.94 L 119.06 128.81 L 119 128.63 L 119 128.38 L 118.94 128.19 L 118.81 128.06 L 118.63 128 L 118.38 128 L 118.19 127.88 L 118.06 127.63 L 118 127.25 L 118 126.75 L 117.94 126.38 L 117.81 126.13 L 117.63 126 L 117.38 126 L 117.19 125.94 L 117.06 125.81 L 117 125.63 L 117 125.38 L 116.94 125.19 L 116.81 125.06 L 116.63 125 L 116.38 125 L 116.19 124.81 L 116.06 124.44 L 116 123.88 L 116 123.13 L 115.94 122.56 L 115.81 122.19 L 115.63 122 L 115.38 122 L 115.19 121.94 L 115.06 121.81 L 115 121.63 L 115 121.38 L 114.94 121.19 L 114.81 121.06 L 114.63 121 L 114.38 121 L 114.19 120.63 L 114.06 119.88 L 114 118.75 L 114 117.25 L 113.94 116.13 L 113.81 115.38 L 113.63 115 L 113.38 115 L 113.19 114.63 L 113.06 113.88 L 113 112.75 L 113 111.25 L 112.94 110.13 L 112.81 109.38 L 112.63 109 L 112.38 109 L 112.19 108.94 L 112.06 108.81 L 112 108.63 L 112 108.38 L 111.94 108.19 L 111.81 108.06 L 111.63 108 L 111.38 108 L 111.19 108.69 L 111.06 110.06 L 111 112.13 L 111 114.88 L 111.06 116.94 L 111.19 118.31 L 111.38 119 L 111.63 119 L 111.81 119.19 L 111.94 119.56 L 112 120.13 L 112 120.88 L 112.06 121.44 L 112.19 121.81 L 112.38 122 L 112.63 122 L 112.81 122.13 L 112.94 122.38 L 113 122.75 L 113 123.25 L 113.06 123.63 L 113.19 123.88 L 113.38 124 L 113.63 124 L 113.81 124.13 L 113.94 124.38 L 114 124.75 L 114 125.25 L 114.06 125.63 L 114.19 125.88 L 114.38 126 L 114.63 126 L 114.81 126.06 L 114.94 126.19 L 115 126.38 L 115 126.63 L 115.06 126.81 L 115.19 126.94 L 115.38 127 L 115.63 127 L 115.81 127.13 L 115.94 127.38 L 116 127.75 L 116 128.25 L 116.06 128.63 L 116.19 128.88 L 116.38 129 L 116.63 129 L 116.81 129.06 L 116.94 129.19 L 117 129.38 L 117 129.63 L 117.06 129.81 L 117.19 129.94 L 117.38 130 L 117.63 130 L 117.81 130.06 L 117.94 130.19 L 118 130.38 L 118 130.63 L 118.06 130.81 L 118.19 130.94 L 118.38 131 L 118.63 131 L 118.81 131.06 L 118.94 131.19 L 119 131.38 L 119 131.63 L 119.06 131.81 L 119.19 131.94 L 119.38 132 L 119.63 132 L 119.81 132.06 L 119.94 132.19 L 120 132.38 L 120 132.63 L 120.06 132.81 L 120.19 132.94 L 120.38 133 L 120.63 133 L 120.81 133.06 L 120.94 133.19 L 121 133.38 L 121 133.63 L 121.06 133.81 L 121.19 133.94 L 121.38 134 L 121.63 134 L 121.81 134.06 L 121.94 134.19 L 122 134.38 L 122 134.63 L 122.06 134.81 L 122.19 134.94 L 122.38 135 L 122.63 135 L 122.81 135.06 L 122.94 135.19 L 123 135.38 L 123 135.63 L 123.06 135.81 L 123.19 135.94 L 123.38 136 L 123.63 136 L 123.81 136.06 L 123.94 136.19 L 124 136.38 L 124 136.63 L 124.06 136.81 L 124.19 136.94 L 124.38 137 L 124.63 137 L 124.81 137.06 L 124.94 137.19 L 125 137.38 L 125 137.63 L 125.06 137.81 L 125.19 137.94 L 125.38 138 L 125.63 138 L 125.81 138.06 L 125.94 138.19 L 126 138.38 L 126 138.63 L 126.06 138.81 L 126.19 138.94 L 126.38 139 L 126.63 139 L 126.81 139.13 L 126.94 139.38 L 127 139.75 L 127 140.25 L 126.94 140.63 L 126.81 140.88 L 126.63 141 L 126.38 141 L 126.19 141.06 L 126.06 141.19 L 126 141.38 L 126 141.63 L 125.94 141.81 L 125.81 141.94 L 125.63 142 L 125.38 142 L 125.19 142.06 L 125.06 142.19 L 125 142.38 L 125 142.63 L 124.94 142.81 L 124.81 142.94 L 124.63 143 L 124.38 143 L 124.19 143.06 L 124.06 143.19 L 124 143.38 L 124 143.63 L 123.94 143.81 L 123.81 143.94 L 123.63 144 L 123.38 144 L 123.19 144.5 L 123.06 145.5 L 123 147 L 123 149 L 123.06 150.5 L 123.19 151.5 L 123.38 152 L 123.63 152 L 123.81 152.19 L 123.94 152.56 L 124 153.13 L 124 153.88 L 123.94 154.44 L 123.81 154.81 L 123.63 155 L 123.38 155 L 123.19 155.06 L 123.06 155.19 L 123 155.38 L 123 155.63 L 122 155.81 L 120 155.94 L 117 156 L 113 156 L 110 155.94 L 108 155.81 L 107 155.63 L 107 155.38 L 106.94 155.19 L 106.81 155.06 L 106.63 155 L 106.38 155 L 106.19 153.5 L 106.06 150.5 L 106 146 L 106 140 L 106.06 135.5 L 106.19 132.5 L 106.38 131 L 106.63 131 L 106.81 130.81 L 106.94 130.44 L 107 129.88 L 107 129.13 L 107.06 128.56 L 107.19 128.19 L 107.38 128 L 107.63 128 L 107.81 127.69 L 107.94 127.06 L 108 126.13 L 108 124.88 L 108.06 123.94 L 108.19 123.31 L 108.38 123 L 108.63 123 L 108.81 122.88 L 108.94 122.63 L 109 122.25 L 109 121.75 L 109.06 121.38 L 109.19 121.13 L 109.38 121 L 109.63 121 L 109.81 120.94 L 109.94 120.81 L 110 120.63 L 110 120.38 L 110.06 120.19 L 110.19 120.06 L 110.38 120 L 110.63 120 L 110.81 119.94 L 110.94 119.81 L 111 119.63 L 111 119.38 L 110.75 119.19 L 110.25 119.06 L 109.5 119 L 108.5 119 L 107.75 119.25 L 107.25 119.75 L 107 120.5 L 107 121.5 L 106.94 122.25 L 106.81 122.75 L 106.63 123 L 106.38 123 L 106.19 123.19 L 106.06 123.56 L 106 124.13 L 106 124.88 L 105.94 125.44 L 105.81 125.81 L 105.63 126 L 105.38 126 L 105.19 126.38 L 105.06 127.13 L 105 128.25 L 105 129.75 L 104.94 130.88 L 104.81 131.63 L 104.63 132 L 104.38 132 L 104.19 132.31 L 104.06 132.94 L 104 133.88 L 104 135.13 L 103.94 136.06 L 103.81 136.69 L 103.63 137 L 103.38 137 L 103.19 138.13 L 103.06 140.38 L 103 143.75 L 103 148.25 L 102.94 151.63 L 102.81 153.88 L 102.63 155 L 102.38 155 L 102.19 155.06 L 102.06 155.19 L 102 155.38 L 102 155.63 L 101.31 155.81 L 99.94 155.94 L 97.88 156 L 95.13 156 L 93.06 155.94 L 91.69 155.81 L 91 155.63 L 91 155.38 L 90.94 155.19 L 90.81 155.06 L 90.63 155 L 90.38 155 L 90.19 154.94 L 90.06 154.81 L 90 154.63 L 90 154.38 L 89.94 154.19 L 89.81 154.06 L 89.63 154 L 89.38 154 L 89.19 153.13 L 89.06 151.38 L 89 148.75 L 89 145.25 L 89.06 142.63 L 89.19 140.88 L 89.38 140 L 89.63 140 L 89.81 139.56 L 89.94 138.69 L 90 137.38 L 90 135.63 L 90.06 134.31 L 90.19 133.44 L 90.38 133 L 90.63 133 L 90.81 132.63 L 90.94 131.88 L 91 130.75 L 91 129.25 L 91.06 128.13 L 91.19 127.38 L 91.38 127 L 91.63 127 L 91.81 126.81 L 91.94 126.44 L 92 125.88 L 92 125.13 L 92.06 124.56 L 92.19 124.19 L 92.38 124 L 92.63 124 L 92.81 123.75 L 92.94 123.25 L 93 122.5 L 93 121.5 L 93.06 120.75 L 93.19 120.25 L 93.38 120 L 93.63 120 L 93.81 119.88 L 93.94 119.63 L 94 119.25 L 94 118.75 L 94.06 118.38 L 94.19 118.13 L 94.38 118 L 94.63 118 L 94.81 117.81 L 94.94 117.44 L 95 116.88 L 95 116.13 L 95.06 115.56 L 95.19 115.19 L 95.38 115 L 95.63 115 L 95.81 114.88 L 95.94 114.63 L 96 114.25 L 96 113.75 L 96.06 113.38 L 96.19 113.13 L 96.38 113 L 96.63 113 L 96.81 112.88 L 96.94 112.63 L 97 112.25 L 97 111.75 L 97.06 111.38 L 97.19 111.13 L 97.38 111 L 97.63 111 L 97.81 110.94 L 97.94 110.81 L 98 110.63 L 98 110.38 L 98.06 110.19 L 98.19 110.06 L 98.38 110 L 98.63 110 L 98.81 109.88 L 98.94 109.63 L 99 109.25 L 99 108.75 L 99.06 108.38 L 99.19 108.13 L 99.38 108 L 99.63 108 L 99.81 107.94 L 99.94 107.81 L 100 107.63 L 100 107.38 L 100.06 107.19 L 100.19 107.06 L 100.38 107 L 100.63 107 L 100.81 106.88 L 100.94 106.63 L 101 106.25 L 101 105.75 L 101.06 105.38 L 101.19 105.13 L 101.38 105 L 101.63 105 L 101.81 104.94 L 101.94 104.81 L 102 104.63 L 102 104.38 L 102.06 104.19 L 102.19 104.06 L 102.38 104 L 102.63 104 L 102.81 103.94 L 102.94 103.81 L 103 103.63 L 103 103.38 L 103.06 103.19 L 103.19 103.06 L 103.38 103 L 103.63 103 L 103.81 102.94 L 103.94 102.81 L 104 102.63 L 104 102.38 L 104.06 102.19 L 104.19 102.06 L 104.38 102 L 104.63 102 L 104.81 101.94 L 104.94 101.81 L 105 101.63 L 105 101.38 L 105.06 101.19 L 105.19 101.06 L 105.38 101 L 105.63 101 L 105.81 100.94 L 105.94 100.81 L 106 100.63 L 106 100.38 L 106.06 100.19 L 106.19 100.06 L 106.38 100 L 106.63 100 L 106.81 99.94 L 106.94 99.81 L 107 99.63 L 107 99.38 L 107.06 99.19 L 107.19 99.06 L 107.38 99 L 107.63 99 L 107.81 98.94 L 107.94 98.81 L 108 98.63 L 108 98.38 L 108.13 98.19 L 108.38 98.06 L 108.75 98 L 109.25 98 L 109.63 97.94 L 109.88 97.81 L 110 97.63 L 110 97.38 L 110.13 97.19 L 110.38 97.06 L 110.75 97 L 111.25 97 L 111.63 96.94 L 111.88 96.81 L 112 96.63 L 112 96.38 L 112.13 96.19 L 112.38 96.06 L 112.75 96 L 113.25 96 L 113.63 95.94 L 113.88 95.81 L 114 95.63 L 114 95.38 L 114.06 95.19 L 114.19 95.06 L 114.38 95 L 114.63 95 L 114.81 94.94 L 114.94 94.81 L 115 94.63 L 115 94.38 L 114.81 94.19 L 114.44 94.06 L 113.88 94 L 113.13 94 L 112.56 92.44 L 112.19 89.31 L 112 84.63 L 112 78.38 L 112.25 73.69 L 112.75 70.56 Z M 148.63 70 L 148.38 70 L 148.19 70.06 L 148.06 70.19 L 148 70.38 L 148 70.63 L 147.94 70.81 L 147.81 70.94 L 147.63 71 L 147.38 71 L 147.19 71.06 L 147.06 71.19 L 147 71.38 L 147 71.63 L 146.94 71.81 L 146.81 71.94 L 146.63 72 L 146.38 72 L 146.19 72.06 L 146.06 72.19 L 146 72.38 L 146 72.63 L 146.06 72.81 L 146.19 72.94 L 146.38 73 L 146.63 73 L 146.81 73.06 L 146.94 73.19 L 147 73.38 L 147 73.63 L 147.06 73.81 L 147.19 73.94 L 147.38 74 L 147.63 74 L 147.81 74.06 L 147.94 74.19 L 148 74.38 L 148 74.63 L 148.13 74.81 L 148.38 74.94 L 148.75 75 L 149.25 75 L 149.63 74.94 L 149.88 74.81 L 150 74.63 L 150 74.38 L 150.06 74.19 L 150.19 74.06 L 150.38 74 L 150.63 74 L 150.81 73.88 L 150.94 73.63 L 151 73.25 L 151 72.75 L 150.94 72.38 L 150.81 72.13 L 150.63 72 L 150.38 72 L 150.19 71.94 L 150.06 71.81 L 150 71.63 L 150 71.38 L 149.94 71.19 L 149.81 71.06 L 149.63 71 L 149.38 71 L 149.19 70.94 L 149.06 70.81 L 149 70.63 L 149 70.38 L 148.94 70.19 L 148.81 70.06 Z M 174.38 72 L 174.63 72 L 174.81 72.06 L 174.94 72.19 L 175 72.38 L 175 72.63 L 175.06 72.81 L 175.19 72.94 L 175.38 73 L 175.63 73 L 175.81 73.13 L 175.94 73.38 L 176 73.75 L 176 74.25 L 176.06 74.63 L 176.19 74.88 L 176.38 75 L 176.63 75 L 176.81 75.06 L 176.94 75.19 L 177 75.38 L 177 75.63 L 177.13 75.81 L 177.38 75.94 L 177.75 76 L 178.25 76 L 178.63 76.06 L 178.88 76.19 L 179 76.38 L 179 76.63 L 179.06 76.81 L 179.19 76.94 L 179.38 77 L 179.63 77 L 179.81 77.13 L 179.94 77.38 L 180 77.75 L 180 78.25 L 179.94 78.63 L 179.81 78.88 L 179.63 79 L 179.38 79 L 179.19 79.06 L 179.06 79.19 L 179 79.38 L 179 79.63 L 178.88 79.81 L 178.63 79.94 L 178.25 80 L 177.75 80 L 177.38 80.06 L 177.13 80.19 L 177 80.38 L 177 80.63 L 176.94 80.81 L 176.81 80.94 L 176.63 81 L 176.38 81 L 176.19 81.13 L 176.06 81.38 L 176 81.75 L 176 82.25 L 175.75 82.63 L 175.25 82.88 L 174.5 83 L 173.5 83 L 172.75 82.81 L 172.25 82.44 L 172 81.88 L 172 81.13 L 171.88 80.56 L 171.63 80.19 L 171.25 80 L 170.75 80 L 170.38 79.94 L 170.13 79.81 L 170 79.63 L 170 79.38 L 169.88 79.19 L 169.63 79.06 L 169.25 79 L 168.75 79 L 168.38 78.88 L 168.13 78.63 L 168 78.25 L 168 77.75 L 168.06 77.38 L 168.19 77.13 L 168.38 77 L 168.63 77 L 168.81 76.94 L 168.94 76.81 L 169 76.63 L 169 76.38 L 169.13 76.19 L 169.38 76.06 L 169.75 76 L 170.25 76 L 170.63 75.94 L 170.88 75.81 L 171 75.63 L 171 75.38 L 171.06 75.19 L 171.19 75.06 L 171.38 75 L 171.63 75 L 171.81 74.88 L 171.94 74.63 L 172 74.25 L 172 73.75 L 172.13 73.38 L 172.38 73.13 L 172.75 73 L 173.25 73 L 173.63 72.94 L 173.88 72.81 L 174 72.63 L 174 72.38 L 174.06 72.19 L 174.19 72.06 Z M 66.75 103 L 67.25 103 L 67.63 103.06 L 67.88 103.19 L 68 103.38 L 68 103.63 L 68.06 103.81 L 68.19 103.94 L 68.38 104 L 68.63 104 L 68.81 104.13 L 68.94 104.38 L 69 104.75 L 69 105.25 L 69.06 105.63 L 69.19 105.88 L 69.38 106 L 69.63 106 L 69.81 106.38 L 69.94 107.13 L 70 108.25 L 70 109.75 L 70.06 110.88 L 70.19 111.63 L 70.38 112 L 70.63 112 L 70.81 112.13 L 70.94 112.38 L 71 112.75 L 71 113.25 L 71.06 113.63 L 71.19 113.88 L 71.38 114 L 71.63 114 L 71.81 114.06 L 71.94 114.19 L 72 114.38 L 72 114.63 L 72.13 114.81 L 72.38 114.94 L 72.75 115 L 73.25 115 L 73.63 115.06 L 73.88 115.19 L 74 115.38 L 74 115.63 L 74.31 115.81 L 74.94 115.94 L 75.88 116 L 77.13 116 L 78.06 116.06 L 78.69 116.19 L 79 116.38 L 79 116.63 L 79.06 116.81 L 79.19 116.94 L 79.38 117 L 79.63 117 L 79.81 117.06 L 79.94 117.19 L 80 117.38 L 80 117.63 L 80.06 117.81 L 80.19 117.94 L 80.38 118 L 80.63 118 L 80.81 118.13 L 80.94 118.38 L 81 118.75 L 81 119.25 L 80.94 119.63 L 80.81 119.88 L 80.63 120 L 80.38 120 L 80.19 120.06 L 80.06 120.19 L 80 120.38 L 80 120.63 L 79.94 120.81 L 79.81 120.94 L 79.63 121 L 79.38 121 L 79.19 121.06 L 79.06 121.19 L 79 121.38 L 79 121.63 L 78.69 121.81 L 78.06 121.94 L 77.13 122 L 75.88 122 L 74.94 122.06 L 74.31 122.19 L 74 122.38 L 74 122.63 L 73.94 122.81 L 73.81 122.94 L 73.63 123 L 73.38 123 L 73.19 123.06 L 73.06 123.19 L 73 123.38 L 73 123.63 L 72.94 123.81 L 72.81 123.94 L 72.63 124 L 72.38 124 L 72.19 124.06 L 72.06 124.19 L 72 124.38 L 72 124.63 L 71.94 124.81 L 71.81 124.94 L 71.63 125 L 71.38 125 L 71.19 125.13 L 71.06 125.38 L 71 125.75 L 71 126.25 L 70.94 126.63 L 70.81 126.88 L 70.63 127 L 70.38 127 L 70.19 127.31 L 70.06 127.94 L 70 128.88 L 70 130.13 L 69.94 131.06 L 69.81 131.69 L 69.63 132 L 69.38 132 L 69.19 132.13 L 69.06 132.38 L 69 132.75 L 69 133.25 L 68.94 133.63 L 68.81 133.88 L 68.63 134 L 68.38 134 L 68.19 134.06 L 68.06 134.19 L 68 134.38 L 68 134.63 L 67.81 134.81 L 67.44 134.94 L 66.88 135 L 66.13 135 L 65.56 134.94 L 65.19 134.81 L 65 134.63 L 65 134.38 L 64.94 134.19 L 64.81 134.06 L 64.63 134 L 64.38 134 L 64.19 133.88 L 64.06 133.63 L 64 133.25 L 64 132.75 L 63.94 132.38 L 63.81 132.13 L 63.63 132 L 63.38 132 L 63.19 131.88 L 63.06 131.63 L 63 131.25 L 63 130.75 L 62.94 130.38 L 62.81 130.13 L 62.63 130 L 62.38 130 L 62.19 129.69 L 62.06 129.06 L 62 128.13 L 62 126.88 L 61.94 125.94 L 61.81 125.31 L 61.63 125 L 61.38 125 L 61.19 124.94 L 61.06 124.81 L 61 124.63 L 61 124.38 L 60.88 124.19 L 60.63 124.06 L 60.25 124 L 59.75 124 L 59.38 123.94 L 59.13 123.81 L 59 123.63 L 59 123.38 L 58.88 123.19 L 58.63 123.06 L 58.25 123 L 57.75 123 L 57.38 122.94 L 57.13 122.81 L 57 122.63 L 57 122.38 L 56.81 122.19 L 56.44 122.06 L 55.88 122 L 55.13 122 L 54.56 121.94 L 54.19 121.81 L 54 121.63 L 54 121.38 L 53.94 121.19 L 53.81 121.06 L 53.63 121 L 53.38 121 L 53.19 120.94 L 53.06 120.81 L 53 120.63 L 53 120.38 L 52.94 120.19 L 52.81 120.06 L 52.63 120 L 52.38 120 L 52.19 119.88 L 52.06 119.63 L 52 119.25 L 52 118.75 L 51.81 118.38 L 51.44 118.13 L 50.88 118 L 50.13 118 L 49.56 117.94 L 49.19 117.81 L 49 117.63 L 49 117.38 L 48.94 117.19 L 48.81 117.06 L 48.63 117 L 48.38 117 L 48.19 116.88 L 48.06 116.63 L 48 116.25 L 48 115.75 L 47.81 115.38 L 47.44 115.13 L 46.88 115 L 46.13 115 L 45.56 114.75 L 45.19 114.25 L 45 113.5 L 45 112.5 L 45.19 111.75 L 45.56 111.25 L 46.13 111 L 46.88 111 L 47.44 110.88 L 47.81 110.63 L 48 110.25 L 48 109.75 L 48.06 109.38 L 48.19 109.13 L 48.38 109 L 48.63 109 L 48.81 108.88 L 48.94 108.63 L 49 108.25 L 49 107.75 L 49.13 107.38 L 49.38 107.13 L 49.75 107 L 50.25 107 L 50.63 107.06 L 50.88 107.19 L 51 107.38 L 51 107.63 L 51.06 107.81 L 51.19 107.94 L 51.38 108 L 51.63 108 L 51.81 108.13 L 51.94 108.38 L 52 108.75 L 52 109.25 L 52.06 109.63 L 52.19 109.88 L 52.38 110 L 52.63 110 L 52.81 110.06 L 52.94 110.19 L 53 110.38 L 53 110.63 L 53.13 110.81 L 53.38 110.94 L 53.75 111 L 54.25 111 L 54.63 111.06 L 54.88 111.19 L 55 111.38 L 55 111.63 L 55.06 111.81 L 55.19 111.94 L 55.38 112 L 55.63 112 L 55.81 112.13 L 55.94 112.38 L 56 112.75 L 56 113.25 L 55.94 113.63 L 55.81 113.88 L 55.63 114 L 55.38 114 L 55.19 114.06 L 55.06 114.19 L 55 114.38 L 55 114.63 L 54.88 114.81 L 54.63 114.94 L 54.25 115 L 53.75 115 L 53.38 115.13 L 53.13 115.38 L 53 115.75 L 53 116.25 L 53.06 116.63 L 53.19 116.88 L 53.38 117 L 53.63 117 L 53.81 116.94 L 53.94 116.81 L 54 116.63 L 54 116.38 L 54.31 116.19 L 54.94 116.06 L 55.88 116 L 57.13 116 L 58.06 115.94 L 58.69 115.81 L 59 115.63 L 59 115.38 L 59.06 115.19 L 59.19 115.06 L 59.38 115 L 59.63 115 L 59.81 114.94 L 59.94 114.81 L 60 114.63 L 60 114.38 L 60.06 114.19 L 60.19 114.06 L 60.38 114 L 60.63 114 L 60.81 113.94 L 60.94 113.81 L 61 113.63 L 61 113.38 L 61.06 113.19 L 61.19 113.06 L 61.38 113 L 61.63 113 L 61.81 112.81 L 61.94 112.44 L 62 111.88 L 62 111.13 L 62.06 110.56 L 62.19 110.19 L 62.38 110 L 62.63 110 L 62.81 109.81 L 62.94 109.44 L 63 108.88 L 63 108.13 L 63.06 107.56 L 63.19 107.19 L 63.38 107 L 63.63 107 L 63.81 106.88 L 63.94 106.63 L 64 106.25 L 64 105.75 L 64.06 105.38 L 64.19 105.13 L 64.38 105 L 64.63 105 L 64.81 104.94 L 64.94 104.81 L 65 104.63 L 65 104.38 L 65.06 104.19 L 65.19 104.06 L 65.38 104 L 65.63 104 L 65.81 103.94 L 65.94 103.81 L 66 103.63 L 66 103.38 L 66.13 103.19 L 66.38 103.06 Z M 148 105.13 L 148 105.88 L 147.94 106.44 L 147.81 106.81 L 147.63 107 L 147.38 107 L 147.19 107.06 L 147.06 107.19 L 147 107.38 L 147 107.63 L 146.94 107.81 L 146.81 107.94 L 146.63 108 L 146.38 108 L 146.19 108.13 L 146.06 108.38 L 146 108.75 L 146 109.25 L 145.94 109.63 L 145.81 109.88 L 145.63 110 L 145.38 110 L 145.19 110.19 L 145.06 110.56 L 145 111.13 L 145 111.88 L 145.06 112.44 L 145.19 112.81 L 145.38 113 L 145.63 113 L 145.81 112.94 L 145.94 112.81 L 146 112.63 L 146 112.38 L 146.06 112.19 L 146.19 112.06 L 146.38 112 L 146.63 112 L 146.81 111.94 L 146.94 111.81 L 147 111.63 L 147 111.38 L 147.06 111.19 L 147.19 111.06 L 147.38 111 L 147.63 111 L 147.81 110.94 L 147.94 110.81 L 148 110.63 L 148 110.38 L 148.06 110.19 L 148.19 110.06 L 148.38 110 L 148.63 110 L 148.81 109.75 L 148.94 109.25 L 149 108.5 L 149 107.5 L 149.06 106.75 L 149.19 106.25 L 149.38 106 L 149.63 106 L 149.81 105.88 L 149.94 105.63 L 150 105.25 L 150 104.75 L 149.88 104.38 L 149.63 104.13 L 149.25 104 L 148.75 104 L 148.38 104.19 L 148.13 104.56 Z M 66.63 110 L 66.38 110 L 66.19 110.19 L 66.06 110.56 L 66 111.13 L 66 111.88 L 65.94 112.44 L 65.81 112.81 L 65.63 113 L 65.38 113 L 65.19 113.13 L 65.06 113.38 L 65 113.75 L 65 114.25 L 64.94 114.63 L 64.81 114.88 L 64.63 115 L 64.38 115 L 64.19 115.06 L 64.06 115.19 L 64 115.38 L 64 115.63 L 63.94 115.81 L 63.81 115.94 L 63.63 116 L 63.38 116 L 63.19 116.06 L 63.06 116.19 L 63 116.38 L 63 116.63 L 62.94 116.81 L 62.81 116.94 L 62.63 117 L 62.38 117 L 62.19 117.06 L 62.06 117.19 L 62 117.38 L 62 117.63 L 61.94 117.81 L 61.81 117.94 L 61.63 118 L 61.38 118 L 61.19 118.06 L 61.06 118.19 L 61 118.38 L 61 118.63 L 60.94 118.81 L 60.81 118.94 L 60.63 119 L 60.38 119 L 60.19 119.06 L 60.06 119.19 L 60 119.38 L 60 119.63 L 60.06 119.81 L 60.19 119.94 L 60.38 120 L 60.63 120 L 60.81 120.06 L 60.94 120.19 L 61 120.38 L 61 120.63 L 61.13 120.81 L 61.38 120.94 L 61.75 121 L 62.25 121 L 62.63 121.06 L 62.88 121.19 L 63 121.38 L 63 121.63 L 63.06 121.81 L 63.19 121.94 L 63.38 122 L 63.63 122 L 63.81 122.13 L 63.94 122.38 L 64 122.75 L 64 123.25 L 64.06 123.63 L 64.19 123.88 L 64.38 124 L 64.63 124 L 64.81 124.13 L 64.94 124.38 L 65 124.75 L 65 125.25 L 65.06 125.63 L 65.19 125.88 L 65.38 126 L 65.63 126 L 65.81 126.13 L 65.94 126.38 L 66 126.75 L 66 127.25 L 66.06 127.63 L 66.19 127.88 L 66.38 128 L 66.63 128 L 66.81 127.75 L 66.94 127.25 L 67 126.5 L 67 125.5 L 67.06 124.75 L 67.19 124.25 L 67.38 124 L 67.63 124 L 67.81 123.94 L 67.94 123.81 L 68 123.63 L 68 123.38 L 68.06 123.19 L 68.19 123.06 L 68.38 123 L 68.63 123 L 68.81 122.94 L 68.94 122.81 L 69 122.63 L 69 122.38 L 69.06 122.19 L 69.19 122.06 L 69.38 122 L 69.63 122 L 69.81 121.94 L 69.94 121.81 L 70 121.63 L 70 121.38 L 70.06 121.19 L 70.19 121.06 L 70.38 121 L 70.63 121 L 70.81 120.94 L 70.94 120.81 L 71 120.63 L 71 120.38 L 71.06 120.19 L 71.19 120.06 L 71.38 120 L 71.63 120 L 71.81 119.88 L 71.94 119.63 L 72 119.25 L 72 118.75 L 71.94 118.38 L 71.81 118.13 L 71.63 118 L 71.38 118 L 71.19 117.94 L 71.06 117.81 L 71 117.63 L 71 117.38 L 70.88 117.19 L 70.63 117.06 L 70.25 117 L 69.75 117 L 69.38 116.88 L 69.13 116.63 L 69 116.25 L 69 115.75 L 68.94 115.38 L 68.81 115.13 L 68.63 115 L 68.38 115 L 68.19 114.94 L 68.06 114.81 L 68 114.63 L 68 114.38 L 67.94 114.19 L 67.81 114.06 L 67.63 114 L 67.38 114 L 67.19 113.75 L 67.06 113.25 L 67 112.5 L 67 111.5 L 66.94 110.75 L 66.81 110.25 Z M 51.5 124 L 52.5 124 L 53.25 124.13 L 53.75 124.38 L 54 124.75 L 54 125.25 L 54.06 125.63 L 54.19 125.88 L 54.38 126 L 54.63 126 L 54.81 126.25 L 54.94 126.75 L 55 127.5 L 55 128.5 L 55.06 129.25 L 55.19 129.75 L 55.38 130 L 55.63 130 L 55.81 130.06 L 55.94 130.19 L 56 130.38 L 56 130.63 L 56.06 130.81 L 56.19 130.94 L 56.38 131 L 56.63 131 L 56.81 131.06 L 56.94 131.19 L 57 131.38 L 57 131.63 L 57.25 131.81 L 57.75 131.94 L 58.5 132 L 59.5 132 L 60.25 132.06 L 60.75 132.19 L 61 132.38 L 61 132.63 L 61.06 132.81 L 61.19 132.94 L 61.38 133 L 61.63 133 L 61.81 133.19 L 61.94 133.56 L 62 134.13 L 62 134.88 L 61.94 135.44 L 61.81 135.81 L 61.63 136 L 61.38 136 L 61.19 136.06 L 61.06 136.19 L 61 136.38 L 61 136.63 L 60.75 136.81 L 60.25 136.94 L 59.5 137 L 58.5 137 L 57.75 137.06 L 57.25 137.19 L 57 137.38 L 57 137.63 L 56.94 137.81 L 56.81 137.94 L 56.63 138 L 56.38 138 L 56.19 138.06 L 56.06 138.19 L 56 138.38 L 56 138.63 L 55.94 138.81 L 55.81 138.94 L 55.63 139 L 55.38 139 L 55.19 139.25 L 55.06 139.75 L 55 140.5 L 55 141.5 L 54.94 142.25 L 54.81 142.75 L 54.63 143 L 54.38 143 L 54.19 143.13 L 54.06 143.38 L 54 143.75 L 54 144.25 L 53.75 144.63 L 53.25 144.88 L 52.5 145 L 51.5 145 L 50.75 144.88 L 50.25 144.63 L 50 144.25 L 50 143.75 L 49.94 143.38 L 49.81 143.13 L 49.63 143 L 49.38 143 L 49.19 142.75 L 49.06 142.25 L 49 141.5 L 49 140.5 L 48.94 139.75 L 48.81 139.25 L 48.63 139 L 48.38 139 L 48.19 138.94 L 48.06 138.81 L 48 138.63 L 48 138.38 L 47.88 138.19 L 47.63 138.06 L 47.25 138 L 46.75 138 L 46.38 137.94 L 46.13 137.81 L 46 137.63 L 46 137.38 L 45.81 137.19 L 45.44 137.06 L 44.88 137 L 44.13 137 L 43.56 136.75 L 43.19 136.25 L 43 135.5 L 43 134.5 L 43.06 133.75 L 43.19 133.25 L 43.38 133 L 43.63 133 L 43.81 132.94 L 43.94 132.81 L 44 132.63 L 44 132.38 L 44.19 132.19 L 44.56 132.06 L 45.13 132 L 45.88 132 L 46.44 131.94 L 46.81 131.81 L 47 131.63 L 47 131.38 L 47.06 131.19 L 47.19 131.06 L 47.38 131 L 47.63 131 L 47.81 130.94 L 47.94 130.81 L 48 130.63 L 48 130.38 L 48.06 130.19 L 48.19 130.06 L 48.38 130 L 48.63 130 L 48.81 129.81 L 48.94 129.44 L 49 128.88 L 49 128.13 L 49.06 127.56 L 49.19 127.19 L 49.38 127 L 49.63 127 L 49.81 126.81 L 49.94 126.44 L 50 125.88 L 50 125.13 L 50.25 124.56 L 50.75 124.19 Z M 51 132.38 L 51 132.63 L 50.94 132.81 L 50.81 132.94 L 50.63 133 L 50.38 133 L 50.19 133.06 L 50.06 133.19 L 50 133.38 L 50 133.63 L 49.94 133.81 L 49.81 133.94 L 49.63 134 L 49.38 134 L 49.19 134.06 L 49.06 134.19 L 49 134.38 L 49 134.63 L 49.06 134.81 L 49.19 134.94 L 49.38 135 L 49.63 135 L 49.81 135.06 L 49.94 135.19 L 50 135.38 L 50 135.63 L 50.06 135.81 L 50.19 135.94 L 50.38 136 L 50.63 136 L 50.81 136.06 L 50.94 136.19 L 51 136.38 L 51 136.63 L 51.13 136.81 L 51.38 136.94 L 51.75 137 L 52.25 137 L 52.63 136.94 L 52.88 136.81 L 53 136.63 L 53 136.38 L 53.06 136.19 L 53.19 136.06 L 53.38 136 L 53.63 136 L 53.81 135.81 L 53.94 135.44 L 54 134.88 L 54 134.13 L 53.94 133.56 L 53.81 133.19 L 53.63 133 L 53.38 133 L 53.19 132.94 L 53.06 132.81 L 53 132.63 L 53 132.38 L 52.88 132.19 L 52.63 132.06 L 52.25 132 L 51.75 132 L 51.38 132.06 L 51.13 132.19 Z M 77.38 134 L 77.63 134 L 77.81 134.06 L 77.94 134.19 L 78 134.38 L 78 134.63 L 78.06 134.81 L 78.19 134.94 L 78.38 135 L 78.63 135 L 78.81 135.13 L 78.94 135.38 L 79 135.75 L 79 136.25 L 79.06 136.63 L 79.19 136.88 L 79.38 137 L 79.63 137 L 79.81 137.06 L 79.94 137.19 L 80 137.38 L 80 137.63 L 80.13 137.81 L 80.38 137.94 L 80.75 138 L 81.25 138 L 81.63 138.19 L 81.88 138.56 L 82 139.13 L 82 139.88 L 81.94 140.44 L 81.81 140.81 L 81.63 141 L 81.38 141 L 81.19 141.06 L 81.06 141.19 L 81 141.38 L 81 141.63 L 80.88 141.81 L 80.63 141.94 L 80.25 142 L 79.75 142 L 79.38 142.19 L 79.13 142.56 L 79 143.13 L 79 143.88 L 78.81 144.44 L 78.44 144.81 L 77.88 145 L 77.13 145 L 76.56 144.94 L 76.19 144.81 L 76 144.63 L 76 144.38 L 75.94 144.19 L 75.81 144.06 L 75.63 144 L 75.38 144 L 75.19 143.88 L 75.06 143.63 L 75 143.25 L 75 142.75 L 74.88 142.38 L 74.63 142.13 L 74.25 142 L 73.75 142 L 73.38 141.94 L 73.13 141.81 L 73 141.63 L 73 141.38 L 72.94 141.19 L 72.81 141.06 L 72.63 141 L 72.38 141 L 72.19 140.94 L 72.06 140.81 L 72 140.63 L 72 140.38 L 71.94 140.19 L 71.81 140.06 L 71.63 140 L 71.38 140 L 71.19 139.94 L 71.06 139.81 L 71 139.63 L 71 139.38 L 71.06 139.19 L 71.19 139.06 L 71.38 139 L 71.63 139 L 71.81 138.94 L 71.94 138.81 L 72 138.63 L 72 138.38 L 72.13 138.19 L 72.38 138.06 L 72.75 138 L 73.25 138 L 73.63 137.94 L 73.88 137.81 L 74 137.63 L 74 137.38 L 74.06 137.19 L 74.19 137.06 L 74.38 137 L 74.63 137 L 74.81 136.88 L 74.94 136.63 L 75 136.25 L 75 135.75 L 75.13 135.38 L 75.38 135.13 L 75.75 135 L 76.25 135 L 76.63 134.94 L 76.88 134.81 L 77 134.63 L 77 134.38 L 77.06 134.19 L 77.19 134.06 Z M 176.5 139 L 179.5 139 L 181.75 139.06 L 183.25 139.19 L 184 139.38 L 184 139.63 L 184.25 139.81 L 184.75 139.94 L 185.5 140 L 186.5 140 L 187.25 140.06 L 187.75 140.19 L 188 140.38 L 188 140.63 L 188.25 140.81 L 188.75 140.94 L 189.5 141 L 190.5 141 L 191.25 141.06 L 191.75 141.19 L 192 141.38 L 192 141.63 L 192.19 141.81 L 192.56 141.94 L 193.13 142 L 193.88 142 L 194.44 142.06 L 194.81 142.19 L 195 142.38 L 195 142.63 L 195.13 142.81 L 195.38 142.94 L 195.75 143 L 196.25 143 L 196.63 143.06 L 196.88 143.19 L 197 143.38 L 197 143.63 L 197.19 143.81 L 197.56 143.94 L 198.13 144 L 198.88 144 L 199.44 144.06 L 199.81 144.19 L 200 144.38 L 200 144.63 L 200.13 144.81 L 200.38 144.94 L 200.75 145 L 201.25 145 L 201.63 145.06 L 201.88 145.19 L 202 145.38 L 202 145.63 L 202.13 145.81 L 202.38 145.94 L 202.75 146 L 203.25 146 L 203.63 146.06 L 203.88 146.19 L 204 146.38 L 204 146.63 L 204.13 146.81 L 204.38 146.94 L 204.75 147 L 205.25 147 L 205.63 147.06 L 205.88 147.19 L 206 147.38 L 206 147.63 L 206.13 147.81 L 206.38 147.94 L 206.75 148 L 207.25 148 L 207.63 148.06 L 207.88 148.19 L 208 148.38 L 208 148.63 L 208.06 148.81 L 208.19 148.94 L 208.38 149 L 208.63 149 L 208.81 149.06 L 208.94 149.19 L 209 149.38 L 209 149.63 L 209.06 149.81 L 209.19 149.94 L 209.38 150 L 209.63 150 L 209.81 150.06 L 209.94 150.19 L 210 150.38 L 210 150.63 L 210.13 150.81 L 210.38 150.94 L 210.75 151 L 211.25 151 L 211.63 151.06 L 211.88 151.19 L 212 151.38 L 212 151.63 L 212.06 151.81 L 212.19 151.94 L 212.38 152 L 212.63 152 L 212.81 152.06 L 212.94 152.19 L 213 152.38 L 213 152.63 L 213.06 152.81 L 213.19 152.94 L 213.38 153 L 213.63 153 L 213.81 153.06 L 213.94 153.19 L 214 153.38 L 214 153.63 L 214.06 153.81 L 214.19 153.94 L 214.38 154 L 214.63 154 L 214.81 154.06 L 214.94 154.19 L 215 154.38 L 215 154.63 L 215.06 154.81 L 215.19 154.94 L 215.38 155 L 215.63 155 L 215.81 155.06 L 215.94 155.19 L 216 155.38 L 216 155.63 L 216.06 155.81 L 216.19 155.94 L 216.38 156 L 216.63 156 L 216.81 156.06 L 216.94 156.19 L 217 156.38 L 217 156.63 L 217.13 156.81 L 217.38 156.94 L 217.75 157 L 218.25 157 L 218.63 157.13 L 218.88 157.38 L 219 157.75 L 219 158.25 L 219.06 158.63 L 219.19 158.88 L 219.38 159 L 219.63 159 L 219.81 159.13 L 219.94 159.38 L 220 159.75 L 220 160.25 L 219.94 160.63 L 219.81 160.88 L 219.63 161 L 219.38 161 L 219.19 161.06 L 219.06 161.19 L 219 161.38 L 219 161.63 L 218.81 161.81 L 218.44 161.94 L 217.88 162 L 217.13 162 L 216.56 161.94 L 216.19 161.81 L 216 161.63 L 216 161.38 L 215.94 161.19 L 215.81 161.06 L 215.63 161 L 215.38 161 L 215.19 160.94 L 215.06 160.81 L 215 160.63 L 215 160.38 L 214.94 160.19 L 214.81 160.06 L 214.63 160 L 214.38 160 L 214.19 159.94 L 214.06 159.81 L 214 159.63 L 214 159.38 L 213.94 159.19 L 213.81 159.06 L 213.63 159 L 213.38 159 L 213.19 158.94 L 213.06 158.81 L 213 158.63 L 213 158.38 L 212.94 158.19 L 212.81 158.06 L 212.63 158 L 212.38 158 L 212.19 157.94 L 212.06 157.81 L 212 157.63 L 212 157.38 L 211.94 157.19 L 211.81 157.06 L 211.63 157 L 211.38 157 L 211.19 156.94 L 211.06 156.81 L 211 156.63 L 211 156.38 L 210.94 156.19 L 210.81 156.06 L 210.63 156 L 210.38 156 L 210.19 155.94 L 210.06 155.81 L 210 155.63 L 210 155.38 L 209.94 155.19 L 209.81 155.06 L 209.63 155 L 209.38 155 L 209.19 154.94 L 209.06 154.81 L 209 154.63 L 209 154.38 L 208.88 154.19 L 208.63 154.06 L 208.25 154 L 207.75 154 L 207.38 153.94 L 207.13 153.81 L 207 153.63 L 207 153.38 L 206.94 153.19 L 206.81 153.06 L 206.63 153 L 206.38 153 L 206.19 152.94 L 206.06 152.81 L 206 152.63 L 206 152.38 L 205.88 152.19 L 205.63 152.06 L 205.25 152 L 204.75 152 L 204.38 151.94 L 204.13 151.81 L 204 151.63 L 204 151.38 L 203.88 151.19 L 203.63 151.06 L 203.25 151 L 202.75 151 L 202.38 150.94 L 202.13 150.81 L 202 150.63 L 202 150.38 L 201.88 150.19 L 201.63 150.06 L 201.25 150 L 200.75 150 L 200.38 149.94 L 200.13 149.81 L 200 149.63 L 200 149.38 L 199.81 149.19 L 199.44 149.06 L 198.88 149 L 198.13 149 L 197.56 148.94 L 197.19 148.81 L 197 148.63 L 197 148.38 L 196.94 148.19 L 196.81 148.06 L 196.63 148 L 196.38 148 L 196.19 147.94 L 196.06 147.81 L 196 147.63 L 196 147.38 L 195.75 147.19 L 195.25 147.06 L 194.5 147 L 193.5 147 L 192.75 146.94 L 192.25 146.81 L 192 146.63 L 192 146.38 L 191.88 146.19 L 191.63 146.06 L 191.25 146 L 190.75 146 L 190.38 145.94 L 190.13 145.81 L 190 145.63 L 190 145.38 L 189.44 145.19 L 188.31 145.06 L 186.63 145 L 184.38 145 L 182.69 144.94 L 181.56 144.81 L 181 144.63 L 181 144.38 L 180.5 144.19 L 179.5 144.06 L 178 144 L 176 144 L 174.5 144.06 L 173.5 144.19 L 173 144.38 L 173 144.63 L 172.5 144.81 L 171.5 144.94 L 170 145 L 168 145 L 166.5 145.06 L 165.5 145.19 L 165 145.38 L 165 145.63 L 164.88 145.81 L 164.63 145.94 L 164.25 146 L 163.75 146 L 163.38 146.06 L 163.13 146.19 L 163 146.38 L 163 146.63 L 162.81 146.81 L 162.44 146.94 L 161.88 147 L 161.13 147 L 160.56 147.06 L 160.19 147.19 L 160 147.38 L 160 147.63 L 159.88 147.81 L 159.63 147.94 L 159.25 148 L 158.75 148 L 158.38 148.06 L 158.13 148.19 L 158 148.38 L 158 148.63 L 157.88 148.81 L 157.63 148.94 L 157.25 149 L 156.75 149 L 156.38 149.06 L 156.13 149.19 L 156 149.38 L 156 149.63 L 155.88 149.81 L 155.63 149.94 L 155.25 150 L 154.75 150 L 154.38 150.06 L 154.13 150.19 L 154 150.38 L 154 150.63 L 153.94 150.81 L 153.81 150.94 L 153.63 151 L 153.38 151 L 153.19 151.06 L 153.06 151.19 L 153 151.38 L 153 151.63 L 152.88 151.81 L 152.63 151.94 L 152.25 152 L 151.75 152 L 151.38 152.06 L 151.13 152.19 L 151 152.38 L 151 152.63 L 150.94 152.81 L 150.81 152.94 L 150.63 153 L 150.38 153 L 150.19 153.06 L 150.06 153.19 L 150 153.38 L 150 153.63 L 149.88 153.81 L 149.63 153.94 L 149.25 154 L 148.75 154 L 148.38 154.06 L 148.13 154.19 L 148 154.38 L 148 154.63 L 147.94 154.81 L 147.81 154.94 L 147.63 155 L 147.38 155 L 147.19 155.06 L 147.06 155.19 L 147 155.38 L 147 155.63 L 146.75 155.81 L 146.25 155.94 L 145.5 156 L 144.5 156 L 143.75 155.94 L 143.25 155.81 L 143 155.63 L 143 155.38 L 142.94 155.19 L 142.81 155.06 L 142.63 155 L 142.38 155 L 142.19 154.94 L 142.06 154.81 L 142 154.63 L 142 154.38 L 142.06 154.19 L 142.19 154.06 L 142.38 154 L 142.63 154 L 142.81 153.88 L 142.94 153.63 L 143 153.25 L 143 152.75 L 143.13 152.38 L 143.38 152.13 L 143.75 152 L 144.25 152 L 144.63 151.94 L 144.88 151.81 L 145 151.63 L 145 151.38 L 145.06 151.19 L 145.19 151.06 L 145.38 151 L 145.63 151 L 145.81 150.94 L 145.94 150.81 L 146 150.63 L 146 150.38 L 146.06 150.19 L 146.19 150.06 L 146.38 150 L 146.63 150 L 146.81 149.94 L 146.94 149.81 L 147 149.63 L 147 149.38 L 147.06 149.19 L 147.19 149.06 L 147.38 149 L 147.63 149 L 147.81 148.94 L 147.94 148.81 L 148 148.63 L 148 148.38 L 148.13 148.19 L 148.38 148.06 L 148.75 148 L 149.25 148 L 149.63 147.94 L 149.88 147.81 L 150 147.63 L 150 147.38 L 150.13 147.19 L 150.38 147.06 L 150.75 147 L 151.25 147 L 151.63 146.94 L 151.88 146.81 L 152 146.63 L 152 146.38 L 152.13 146.19 L 152.38 146.06 L 152.75 146 L 153.25 146 L 153.63 145.94 L 153.88 145.81 L 154 145.63 L 154 145.38 L 154.13 145.19 L 154.38 145.06 L 154.75 145 L 155.25 145 L 155.63 144.94 L 155.88 144.81 L 156 144.63 L 156 144.38 L 156.19 144.19 L 156.56 144.06 L 157.13 144 L 157.88 144 L 158.44 143.94 L 158.81 143.81 L 159 143.63 L 159 143.38 L 159.13 143.19 L 159.38 143.06 L 159.75 143 L 160.25 143 L 160.63 142.94 L 160.88 142.81 L 161 142.63 L 161 142.38 L 161.19 142.19 L 161.56 142.06 L 162.13 142 L 162.88 142 L 163.44 141.94 L 163.81 141.81 L 164 141.63 L 164 141.38 L 164.19 141.19 L 164.56 141.06 L 165.13 141 L 165.88 141 L 166.44 140.94 L 166.81 140.81 L 167 140.63 L 167 140.38 L 167.31 140.19 L 167.94 140.06 L 168.88 140 L 170.13 140 L 171.06 139.94 L 171.69 139.81 L 172 139.63 L 172 139.38 L 172.75 139.19 L 174.25 139.06 Z M 99 158 L 127 158 L 148 158.06 L 162 158.19 L 169 158.38 L 169 158.63 L 169.13 158.81 L 169.38 158.94 L 169.75 159 L 170.25 159 L 170.63 159.06 L 170.88 159.19 L 171 159.38 L 171 159.63 L 171.06 159.81 L 171.19 159.94 L 171.38 160 L 171.63 160 L 171.81 160.06 L 171.94 160.19 L 172 160.38 L 172 160.63 L 172.06 160.81 L 172.19 160.94 L 172.38 161 L 172.63 161 L 172.81 161.13 L 172.94 161.38 L 173 161.75 L 173 162.25 L 173.06 162.63 L 173.19 162.88 L 173.38 163 L 173.63 163 L 173.81 163.38 L 173.94 164.13 L 174 165.25 L 174 166.75 L 173.94 167.88 L 173.81 168.63 L 173.63 169 L 173.38 169 L 173.19 169.06 L 173.06 169.19 L 173 169.38 L 173 169.63 L 172.94 169.81 L 172.81 169.94 L 172.63 170 L 172.38 170 L 172.19 170.13 L 172.06 170.38 L 172 170.75 L 172 171.25 L 171.94 171.63 L 171.81 171.88 L 171.63 172 L 171.38 172 L 171.19 172.06 L 171.06 172.19 L 171 172.38 L 171 172.63 L 170.94 172.81 L 170.81 172.94 L 170.63 173 L 170.38 173 L 170.19 173.13 L 170.06 173.38 L 170 173.75 L 170 174.25 L 169.88 174.63 L 169.63 174.88 L 169.25 175 L 168.75 175 L 168.38 175.13 L 168.13 175.38 L 168 175.75 L 168 176.25 L 167.94 176.63 L 167.81 176.88 L 167.63 177 L 167.38 177 L 167.19 177.06 L 167.06 177.19 L 167 177.38 L 167 177.63 L 166.94 177.81 L 166.81 177.94 L 166.63 178 L 166.38 178 L 166.19 178.06 L 166.06 178.19 L 166 178.38 L 166 178.63 L 165.94 178.81 L 165.81 178.94 L 165.63 179 L 165.38 179 L 165.19 179.06 L 165.06 179.19 L 165 179.38 L 165 179.63 L 164.94 179.81 L 164.81 179.94 L 164.63 180 L 164.38 180 L 164.19 180.06 L 164.06 180.19 L 164 180.38 L 164 180.63 L 163.94 180.81 L 163.81 180.94 L 163.63 181 L 163.38 181 L 163.19 181.06 L 163.06 181.19 L 163 181.38 L 163 181.63 L 162.94 181.81 L 162.81 181.94 L 162.63 182 L 162.38 182 L 162.19 182.06 L 162.06 182.19 L 162 182.38 L 162 182.63 L 161.94 182.81 L 161.81 182.94 L 161.63 183 L 161.38 183 L 161.19 183.06 L 161.06 183.19 L 161 183.38 L 161 183.63 L 160.94 183.81 L 160.81 183.94 L 160.63 184 L 160.38 184 L 160.19 184.06 L 160.06 184.19 L 160 184.38 L 160 184.63 L 159.94 184.81 L 159.81 184.94 L 159.63 185 L 159.38 185 L 159.19 185.06 L 159.06 185.19 L 159 185.38 L 159 185.63 L 158.94 185.81 L 158.81 185.94 L 158.63 186 L 158.38 186 L 158.19 186.06 L 158.06 186.19 L 158 186.38 L 158 186.63 L 157.94 186.81 L 157.81 186.94 L 157.63 187 L 157.38 187 L 157.19 187.06 L 157.06 187.19 L 157 187.38 L 157 187.63 L 156.88 187.81 L 156.63 187.94 L 156.25 188 L 155.75 188 L 155.38 188.06 L 155.13 188.19 L 155 188.38 L 155 188.63 L 154.94 188.81 L 154.81 188.94 L 154.63 189 L 154.38 189 L 154.19 189.06 L 154.06 189.19 L 154 189.38 L 154 189.63 L 153.94 189.81 L 153.81 189.94 L 153.63 190 L 153.38 190 L 153.19 190.06 L 153.06 190.19 L 153 190.38 L 153 190.63 L 152.94 190.81 L 152.81 190.94 L 152.63 191 L 152.38 191 L 152.19 191.06 L 152.06 191.19 L 152 191.38 L 152 191.63 L 151.88 191.81 L 151.63 191.94 L 151.25 192 L 150.75 192 L 150.38 192.06 L 150.13 192.19 L 150 192.38 L 150 192.63 L 149.88 192.81 L 149.63 192.94 L 149.25 193 L 148.75 193 L 148.38 193.06 L 148.13 193.19 L 148 193.38 L 148 193.63 L 147.94 193.81 L 147.81 193.94 L 147.63 194 L 147.38 194 L 147.19 194.06 L 147.06 194.19 L 147 194.38 L 147 194.63 L 146.94 194.81 L 146.81 194.94 L 146.63 195 L 146.38 195 L 146.19 195.06 L 146.06 195.19 L 146 195.38 L 146 195.63 L 145.88 195.81 L 145.63 195.94 L 145.25 196 L 144.75 196 L 144.38 196.06 L 144.13 196.19 L 144 196.38 L 144 196.63 L 143.88 196.81 L 143.63 196.94 L 143.25 197 L 142.75 197 L 142.38 197.06 L 142.13 197.19 L 142 197.38 L 142 197.63 L 141.88 197.81 L 141.63 197.94 L 141.25 198 L 140.75 198 L 140.38 198.06 L 140.13 198.19 L 140 198.38 L 140 198.63 L 134.75 198.81 L 124.25 198.94 L 108.5 199 L 87.5 199 L 71.75 198.94 L 61.25 198.81 L 56 198.63 L 56 198.38 L 55.94 198.19 L 55.81 198.06 L 55.63 198 L 55.38 198 L 55.19 197.94 L 55.06 197.81 L 55 197.63 L 55 197.38 L 55.06 197.19 L 55.19 197.06 L 55.38 197 L 55.63 197 L 55.81 196.94 L 55.94 196.81 L 56 196.63 L 56 196.38 L 55.94 196.19 L 55.81 196.06 L 55.63 196 L 55.38 196 L 55.19 195.94 L 55.06 195.81 L 55 195.63 L 55 195.38 L 55.06 195.19 L 55.19 195.06 L 55.38 195 L 55.63 195 L 55.81 194 L 55.94 192 L 56 189 L 56 185 L 55.94 182 L 55.81 180 L 55.63 179 L 55.38 179 L 55.19 178.88 L 55.06 178.63 L 55 178.25 L 55 177.75 L 55.06 177.38 L 55.19 177.13 L 55.38 177 L 55.63 177 L 55.81 176.13 L 55.94 174.38 L 56 171.75 L 56 168.25 L 55.94 165.63 L 55.81 163.88 L 55.63 163 L 55.38 163 L 55.19 162.94 L 55.06 162.81 L 55 162.63 L 55 162.38 L 55.06 162.19 L 55.19 162.06 L 55.38 162 L 55.63 162 L 55.81 161.81 L 55.94 161.44 L 56 160.88 L 56 160.13 L 56.06 159.56 L 56.19 159.19 L 56.38 159 L 56.63 159 L 56.81 158.94 L 56.94 158.81 L 57 158.63 L 57 158.38 L 64 158.19 L 78 158.06 Z M 180.5 170 L 183.5 170 L 185.75 170.06 L 187.25 170.19 L 188 170.38 L 188 170.63 L 188.13 170.81 L 188.38 170.94 L 188.75 171 L 189.25 171 L 189.63 171.06 L 189.88 171.19 L 190 171.38 L 190 171.63 L 190.06 171.81 L 190.19 171.94 L 190.38 172 L 190.63 172 L 190.81 172.06 L 190.94 172.19 L 191 172.38 L 191 172.63 L 191.13 172.81 L 191.38 172.94 L 191.75 173 L 192.25 173 L 192.63 173.06 L 192.88 173.19 L 193 173.38 L 193 173.63 L 193.06 173.81 L 193.19 173.94 L 193.38 174 L 193.63 174 L 193.81 174.06 L 193.94 174.19 L 194 174.38 L 194 174.63 L 194.06 174.81 L 194.19 174.94 L 194.38 175 L 194.63 175 L 194.81 175.06 L 194.94 175.19 L 195 175.38 L 195 175.63 L 195.06 175.81 L 195.19 175.94 L 195.38 176 L 195.63 176 L 195.81 176.06 L 195.94 176.19 L 196 176.38 L 196 176.63 L 196.06 176.81 L 196.19 176.94 L 196.38 177 L 196.63 177 L 196.81 177.06 L 196.94 177.19 L 197 177.38 L 197 177.63 L 197.06 177.81 L 197.19 177.94 L 197.38 178 L 197.63 178 L 197.81 178.06 L 197.94 178.19 L 198 178.38 L 198 178.63 L 198.06 178.81 L 198.19 178.94 L 198.38 179 L 198.63 179 L 198.81 179.06 L 198.94 179.19 L 199 179.38 L 199 179.63 L 199.06 179.81 L 199.19 179.94 L 199.38 180 L 199.63 180 L 199.81 180.06 L 199.94 180.19 L 200 180.38 L 200 180.63 L 200.06 180.81 L 200.19 180.94 L 200.38 181 L 200.63 181 L 200.81 181.06 L 200.94 181.19 L 201 181.38 L 201 181.63 L 201.06 181.81 L 201.19 181.94 L 201.38 182 L 201.63 182 L 201.81 182.06 L 201.94 182.19 L 202 182.38 L 202 182.63 L 202.13 182.81 L 202.38 182.94 L 202.75 183 L 203.25 183 L 203.63 183.13 L 203.88 183.38 L 204 183.75 L 204 184.25 L 204.13 184.63 L 204.38 184.88 L 204.75 185 L 205.25 185 L 205.63 185.06 L 205.88 185.19 L 206 185.38 L 206 185.63 L 206.06 185.81 L 206.19 185.94 L 206.38 186 L 206.63 186 L 206.81 186.06 L 206.94 186.19 L 207 186.38 L 207 186.63 L 207.06 186.81 L 207.19 186.94 L 207.38 187 L 207.63 187 L 207.81 187.06 L 207.94 187.19 L 208 187.38 L 208 187.63 L 208.06 187.81 L 208.19 187.94 L 208.38 188 L 208.63 188 L 208.81 188.06 L 208.94 188.19 L 209 188.38 L 209 188.63 L 209.06 188.81 L 209.19 188.94 L 209.38 189 L 209.63 189 L 209.81 189.06 L 209.94 189.19 L 210 189.38 L 210 189.63 L 210.06 189.81 L 210.19 189.94 L 210.38 190 L 210.63 190 L 210.81 190.06 L 210.94 190.19 L 211 190.38 L 211 190.63 L 211.06 190.81 L 211.19 190.94 L 211.38 191 L 211.63 191 L 211.81 191.06 L 211.94 191.19 L 212 191.38 L 212 191.63 L 212.06 191.81 L 212.19 191.94 L 212.38 192 L 212.63 192 L 212.81 192.06 L 212.94 192.19 L 213 192.38 L 213 192.63 L 213.06 192.81 L 213.19 192.94 L 213.38 193 L 213.63 193 L 213.81 193.06 L 213.94 193.19 L 214 193.38 L 214 193.63 L 214.06 193.81 L 214.19 193.94 L 214.38 194 L 214.63 194 L 214.81 194.06 L 214.94 194.19 L 215 194.38 L 215 194.63 L 215.13 194.81 L 215.38 194.94 L 215.75 195 L 216.25 195 L 216.63 195.13 L 216.88 195.38 L 217 195.75 L 217 196.25 L 217.13 196.63 L 217.38 196.88 L 217.75 197 L 218.25 197 L 218.63 197.13 L 218.88 197.38 L 219 197.75 L 219 198.25 L 219.06 198.63 L 219.19 198.88 L 219.38 199 L 219.63 199 L 219.81 199.06 L 219.94 199.19 L 220 199.38 L 220 199.63 L 219.94 199.81 L 219.81 199.94 L 219.63 200 L 219.38 200 L 219.19 200.13 L 219.06 200.38 L 219 200.75 L 219 201.25 L 218.88 201.63 L 218.63 201.88 L 218.25 202 L 217.75 202 L 217.38 201.94 L 217.13 201.81 L 217 201.63 L 217 201.38 L 216.88 201.19 L 216.63 201.06 L 216.25 201 L 215.75 201 L 215.38 200.94 L 215.13 200.81 L 215 200.63 L 215 200.38 L 214.94 200.19 L 214.81 200.06 L 214.63 200 L 214.38 200 L 214.19 199.94 L 214.06 199.81 L 214 199.63 L 214 199.38 L 213.94 199.19 L 213.81 199.06 L 213.63 199 L 213.38 199 L 213.19 198.94 L 213.06 198.81 L 213 198.63 L 213 198.38 L 212.94 198.19 L 212.81 198.06 L 212.63 198 L 212.38 198 L 212.19 197.94 L 212.06 197.81 L 212 197.63 L 212 197.38 L 211.94 197.19 L 211.81 197.06 L 211.63 197 L 211.38 197 L 211.19 196.94 L 211.06 196.81 L 211 196.63 L 211 196.38 L 210.94 196.19 L 210.81 196.06 L 210.63 196 L 210.38 196 L 210.19 195.94 L 210.06 195.81 L 210 195.63 L 210 195.38 L 209.94 195.19 L 209.81 195.06 L 209.63 195 L 209.38 195 L 209.19 194.94 L 209.06 194.81 L 209 194.63 L 209 194.38 L 208.88 194.19 L 208.63 194.06 L 208.25 194 L 207.75 194 L 207.38 193.88 L 207.13 193.63 L 207 193.25 L 207 192.75 L 206.88 192.38 L 206.63 192.13 L 206.25 192 L 205.75 192 L 205.38 191.94 L 205.13 191.81 L 205 191.63 L 205 191.38 L 204.94 191.19 L 204.81 191.06 L 204.63 191 L 204.38 191 L 204.19 190.94 L 204.06 190.81 L 204 190.63 L 204 190.38 L 203.94 190.19 L 203.81 190.06 L 203.63 190 L 203.38 190 L 203.19 189.94 L 203.06 189.81 L 203 189.63 L 203 189.38 L 202.94 189.19 L 202.81 189.06 L 202.63 189 L 202.38 189 L 202.19 188.94 L 202.06 188.81 L 202 188.63 L 202 188.38 L 201.94 188.19 L 201.81 188.06 L 201.63 188 L 201.38 188 L 201.19 187.94 L 201.06 187.81 L 201 187.63 L 201 187.38 L 200.94 187.19 L 200.81 187.06 L 200.63 187 L 200.38 187 L 200.19 186.94 L 200.06 186.81 L 200 186.63 L 200 186.38 L 199.94 186.19 L 199.81 186.06 L 199.63 186 L 199.38 186 L 199.19 185.94 L 199.06 185.81 L 199 185.63 L 199 185.38 L 198.94 185.19 L 198.81 185.06 L 198.63 185 L 198.38 185 L 198.19 184.94 L 198.06 184.81 L 198 184.63 L 198 184.38 L 197.94 184.19 L 197.81 184.06 L 197.63 184 L 197.38 184 L 197.19 183.94 L 197.06 183.81 L 197 183.63 L 197 183.38 L 196.94 183.19 L 196.81 183.06 L 196.63 183 L 196.38 183 L 196.19 182.94 L 196.06 182.81 L 196 182.63 L 196 182.38 L 195.88 182.19 L 195.63 182.06 L 195.25 182 L 194.75 182 L 194.38 181.88 L 194.13 181.63 L 194 181.25 L 194 180.75 L 193.88 180.38 L 193.63 180.13 L 193.25 180 L 192.75 180 L 192.38 179.94 L 192.13 179.81 L 192 179.63 L 192 179.38 L 191.94 179.19 L 191.81 179.06 L 191.63 179 L 191.38 179 L 191.19 178.94 L 191.06 178.81 L 191 178.63 L 191 178.38 L 190.94 178.19 L 190.81 178.06 L 190.63 178 L 190.38 178 L 190.19 177.94 L 190.06 177.81 L 190 177.63 L 190 177.38 L 189.94 177.19 L 189.81 177.06 L 189.63 177 L 189.38 177 L 189.19 176.94 L 189.06 176.81 L 189 176.63 L 189 176.38 L 188.94 176.19 L 188.81 176.06 L 188.63 176 L 188.38 176 L 188.19 175.94 L 188.06 175.81 L 188 175.63 L 188 175.38 L 187.13 175.19 L 185.38 175.06 L 182.75 175 L 179.25 175 L 176.63 174.94 L 174.88 174.81 L 174 174.63 L 174 174.38 L 173.94 174.19 L 173.81 174.06 L 173.63 174 L 173.38 174 L 173.19 173.94 L 173.06 173.81 L 173 173.63 L 173 173.38 L 173.06 173.19 L 173.19 173.06 L 173.38 173 L 173.63 173 L 173.81 172.88 L 173.94 172.63 L 174 172.25 L 174 171.75 L 174.13 171.38 L 174.38 171.13 L 174.75 171 L 175.25 171 L 175.63 170.94 L 175.88 170.81 L 176 170.63 L 176 170.38 L 176.75 170.19 L 178.25 170.06 Z" fill="#FFE998" fill-rule="evenodd"/>
</svg>
