<?xml version="1.0" encoding="UTF-8"?>
<svg viewBox="0 0 256 256" xmlns="http://www.w3.org/2000/svg" fill="none">
  <path d="M 189.25 19 L 190.75 19 L 191.88 19.13 L 192.63 19.38 L 193 19.75 L 193 20.25 L 193.06 20.63 L 193.19 20.88 L 193.38 21 L 193.63 21 L 193.81 21.06 L 193.94 21.19 L 194 21.38 L 194 21.63 L 194.06 21.81 L 194.19 21.94 L 194.38 22 L 194.63 22 L 194.81 22.06 L 194.94 22.19 L 195 22.38 L 195 22.63 L 194.94 22.81 L 194.81 22.94 L 194.63 23 L 194.38 23 L 194.19 23.06 L 194.06 23.19 L 194 23.38 L 194 23.63 L 193.94 23.81 L 193.81 23.94 L 193.63 24 L 193.38 24 L 193.19 24.06 L 193.06 24.19 L 193 24.38 L 193 24.63 L 192.94 24.81 L 192.81 24.94 L 192.63 25 L 192.38 25 L 192.19 25.06 L 192.06 25.19 L 192 25.38 L 192 25.63 L 191.75 25.81 L 191.25 25.94 L 190.5 26 L 189.5 26 L 188.75 26.06 L 188.25 26.19 L 188 26.38 L 188 26.63 L 187.81 26.81 L 187.44 26.94 L 186.88 27 L 186.13 27 L 185.56 27.06 L 185.19 27.19 L 185 27.38 L 185 27.63 L 184.75 27.81 L 184.25 27.94 L 183.5 28 L 182.5 28 L 181.75 28.06 L 181.25 28.19 L 181 28.38 L 181 28.63 L 180.94 28.81 L 180.81 28.94 L 180.63 29 L 180.38 29 L 180.19 29.38 L 180.06 30.13 L 180 31.25 L 180 32.75 L 179.94 33.88 L 179.81 34.63 L 179.63 35 L 179.38 35 L 179.19 35.06 L 179.06 35.19 L 179 35.38 L 179 35.63 L 178.94 35.81 L 178.81 35.94 L 178.63 36 L 178.38 36 L 178.19 36.13 L 178.06 36.38 L 178 36.75 L 178 37.25 L 177.94 37.63 L 177.81 37.88 L 177.63 38 L 177.38 38 L 177.19 38.06 L 177.06 38.19 L 177 38.38 L 177 38.63 L 176.94 38.81 L 176.81 38.94 L 176.63 39 L 176.38 39 L 176.19 39.06 L 176.06 39.19 L 176 39.38 L 176 39.63 L 175.94 39.81 L 175.81 39.94 L 175.63 40 L 175.38 40 L 175.19 40.06 L 175.06 40.19 L 175 40.38 L 175 40.63 L 174.94 40.81 L 174.81 40.94 L 174.63 41 L 174.38 41 L 174.19 41.06 L 174.06 41.19 L 174 41.38 L 174 41.63 L 173.94 41.81 L 173.81 41.94 L 173.63 42 L 173.38 42 L 173.19 42.06 L 173.06 42.19 L 173 42.38 L 173 42.63 L 172.94 42.81 L 172.81 42.94 L 172.63 43 L 172.38 43 L 172.19 43.06 L 172.06 43.19 L 172 43.38 L 172 43.63 L 171.94 43.81 L 171.81 43.94 L 171.63 44 L 171.38 44 L 171.19 44.13 L 171.06 44.38 L 171 44.75 L 171 45.25 L 170.88 45.63 L 170.63 45.88 L 170.25 46 L 169.75 46 L 169.38 46.13 L 169.13 46.38 L 169 46.75 L 169 47.25 L 168.88 47.63 L 168.63 47.88 L 168.25 48 L 167.75 48 L 167.38 48.06 L 167.13 48.19 L 167 48.38 L 167 48.63 L 166.88 48.81 L 166.63 48.94 L 166.25 49 L 165.75 49 L 165.38 49.06 L 165.13 49.19 L 165 49.38 L 165 49.63 L 164.81 49.81 L 164.44 49.94 L 163.88 50 L 163.13 50 L 162.56 50.06 L 162.19 50.19 L 162 50.38 L 162 50.63 L 161.94 50.81 L 161.81 50.94 L 161.63 51 L 161.38 51 L 161.19 51.06 L 161.06 51.19 L 161 51.38 L 161 51.63 L 160.75 51.81 L 160.25 51.94 L 159.5 52 L 158.5 52 L 157.75 52.06 L 157.25 52.19 L 157 52.38 L 157 52.63 L 156.94 52.81 L 156.81 52.94 L 156.63 53 L 156.38 53 L 156.19 53.06 L 156.06 53.19 L 156 53.38 L 156 53.63 L 155.81 53.81 L 155.44 53.94 L 154.88 54 L 154.13 54 L 153.56 53.94 L 153.19 53.81 L 153 53.63 L 153 53.38 L 152.88 53.19 L 152.63 53.06 L 152.25 53 L 151.75 53 L 151.38 53.06 L 151.13 53.19 L 151 53.38 L 151 53.63 L 150.94 53.81 L 150.81 53.94 L 150.63 54 L 150.38 54 L 150.19 54.13 L 150.06 54.38 L 150 54.75 L 150 55.25 L 149.94 55.63 L 149.81 55.88 L 149.63 56 L 149.38 56 L 149.19 56.13 L 149.06 56.38 L 149 56.75 L 149 57.25 L 148.94 57.63 L 148.81 57.88 L 148.63 58 L 148.38 58 L 148.19 58.06 L 148.06 58.19 L 148 58.38 L 148 58.63 L 147.94 58.81 L 147.81 58.94 L 147.63 59 L 147.38 59 L 147.19 59.19 L 147.06 59.56 L 147 60.13 L 147 60.88 L 146.94 61.44 L 146.81 61.81 L 146.63 62 L 146.38 62 L 146.19 62.13 L 146.06 62.38 L 146 62.75 L 146 63.25 L 145.94 63.63 L 145.81 63.88 L 145.63 64 L 145.38 64 L 145.19 64.25 L 145.06 64.75 L 145 65.5 L 145 66.5 L 144.94 67.25 L 144.81 67.75 L 144.63 68 L 144.38 68 L 144.19 68.13 L 144.06 68.38 L 144 68.75 L 144 69.25 L 143.94 69.63 L 143.81 69.88 L 143.63 70 L 143.38 70 L 143.19 70.19 L 143.06 70.56 L 143 71.13 L 143 71.88 L 143.25 72.44 L 143.75 72.81 L 144.5 73 L 145.5 73 L 146.25 73.06 L 146.75 73.19 L 147 73.38 L 147 73.63 L 147.06 73.81 L 147.19 73.94 L 147.38 74 L 147.63 74 L 147.81 74.06 L 147.94 74.19 L 148 74.38 L 148 74.63 L 148.13 74.81 L 148.38 74.94 L 148.75 75 L 149.25 75 L 149.63 75.06 L 149.88 75.19 L 150 75.38 L 150 75.63 L 150.06 75.81 L 150.19 75.94 L 150.38 76 L 150.63 76 L 150.81 76.06 L 150.94 76.19 L 151 76.38 L 151 76.63 L 151.19 76.81 L 151.56 76.94 L 152.13 77 L 152.88 77 L 153.44 77.06 L 153.81 77.19 L 154 77.38 L 154 77.63 L 154.13 77.81 L 154.38 77.94 L 154.75 78 L 155.25 78 L 155.63 78.06 L 155.88 78.19 L 156 78.38 L 156 78.63 L 156.19 78.81 L 156.56 78.94 L 157.13 79 L 157.88 79 L 158.44 79.06 L 158.81 79.19 L 159 79.38 L 159 79.63 L 159.19 79.81 L 159.56 79.94 L 160.13 80 L 160.88 80 L 161.44 80.06 L 161.81 80.19 L 162 80.38 L 162 80.63 L 162.25 80.81 L 162.75 80.94 L 163.5 81 L 164.5 81 L 165.25 81.06 L 165.75 81.19 L 166 81.38 L 166 81.63 L 166.56 81.81 L 167.69 81.94 L 169.38 82 L 171.63 82 L 173.31 82.06 L 174.44 82.19 L 175 82.38 L 175 82.63 L 175.63 82.81 L 176.88 82.94 L 178.75 83 L 181.25 83 L 183.13 82.94 L 184.38 82.81 L 185 82.63 L 185 82.38 L 185.38 82.19 L 186.13 82.06 L 187.25 82 L 188.75 82 L 189.88 81.94 L 190.63 81.81 L 191 81.63 L 191 81.38 L 191.19 81.19 L 191.56 81.06 L 192.13 81 L 192.88 81 L 193.44 80.94 L 193.81 80.81 L 194 80.63 L 194 80.38 L 194.13 80.19 L 194.38 80.06 L 194.75 80 L 195.25 80 L 195.63 79.94 L 195.88 79.81 L 196 79.63 L 196 79.38 L 196.25 79.19 L 196.75 79.06 L 197.5 79 L 198.5 79 L 199.25 78.94 L 199.75 78.81 L 200 78.63 L 200 78.38 L 200.06 78.19 L 200.19 78.06 L 200.38 78 L 200.63 78 L 200.81 77.94 L 200.94 77.81 L 201 77.63 L 201 77.38 L 201.19 77.19 L 201.56 77.06 L 202.13 77 L 202.88 77 L 203.44 76.94 L 203.81 76.81 L 204 76.63 L 204 76.38 L 204.06 76.19 L 204.19 76.06 L 204.38 76 L 204.63 76 L 204.81 75.94 L 204.94 75.81 L 205 75.63 L 205 75.38 L 205.19 75.19 L 205.56 75.06 L 206.13 75 L 206.88 75 L 207.44 74.94 L 207.81 74.81 L 208 74.63 L 208 74.38 L 208.06 74.19 L 208.19 74.06 L 208.38 74 L 208.63 74 L 208.81 73.94 L 208.94 73.81 L 209 73.63 L 209 73.38 L 209.31 73.19 L 209.94 73.06 L 210.88 73 L 212.13 73 L 213.06 73.06 L 213.69 73.19 L 214 73.38 L 214 73.63 L 214.06 73.81 L 214.19 73.94 L 214.38 74 L 214.63 74 L 214.81 74.25 L 214.94 74.75 L 215 75.5 L 215 76.5 L 214.94 77.25 L 214.81 77.75 L 214.63 78 L 214.38 78 L 214.19 78.06 L 214.06 78.19 L 214 78.38 L 214 78.63 L 213.94 78.81 L 213.81 78.94 L 213.63 79 L 213.38 79 L 213.19 79.06 L 213.06 79.19 L 213 79.38 L 213 79.63 L 212.94 79.81 L 212.81 79.94 L 212.63 80 L 212.38 80 L 212.19 80.06 L 212.06 80.19 L 212 80.38 L 212 80.63 L 211.88 80.81 L 211.63 80.94 L 211.25 81 L 210.75 81 L 210.38 81.06 L 210.13 81.19 L 210 81.38 L 210 81.63 L 209.88 81.81 L 209.63 81.94 L 209.25 82 L 208.75 82 L 208.38 82.06 L 208.13 82.19 L 208 82.38 L 208 82.63 L 207.88 82.81 L 207.63 82.94 L 207.25 83 L 206.75 83 L 206.38 83.06 L 206.13 83.19 L 206 83.38 L 206 83.63 L 205.88 83.81 L 205.63 83.94 L 205.25 84 L 204.75 84 L 204.38 84.06 L 204.13 84.19 L 204 84.38 L 204 84.63 L 203.81 84.81 L 203.44 84.94 L 202.88 85 L 202.13 85 L 201.56 85.06 L 201.19 85.19 L 201 85.38 L 201 85.63 L 200.88 85.81 L 200.63 85.94 L 200.25 86 L 199.75 86 L 199.38 86.06 L 199.13 86.19 L 199 86.38 L 199 86.63 L 198.81 86.81 L 198.44 86.94 L 197.88 87 L 197.13 87 L 196.56 87.06 L 196.19 87.19 L 196 87.38 L 196 87.63 L 195.88 87.81 L 195.63 87.94 L 195.25 88 L 194.75 88 L 194.38 88.06 L 194.13 88.19 L 194 88.38 L 194 88.63 L 192.56 88.81 L 189.69 88.94 L 185.38 89 L 179.63 89 L 175.31 88.94 L 172.44 88.81 L 171 88.63 L 171 88.38 L 170.75 88.19 L 170.25 88.06 L 169.5 88 L 168.5 88 L 167.75 87.94 L 167.25 87.81 L 167 87.63 L 167 87.38 L 166.69 87.19 L 166.06 87.06 L 165.13 87 L 163.88 87 L 162.94 86.94 L 162.31 86.81 L 162 86.63 L 162 86.38 L 161.81 86.19 L 161.44 86.06 L 160.88 86 L 160.13 86 L 159.56 85.94 L 159.19 85.81 L 159 85.63 L 159 85.38 L 158.75 85.19 L 158.25 85.06 L 157.5 85 L 156.5 85 L 155.75 84.94 L 155.25 84.81 L 155 84.63 L 155 84.38 L 154.81 84.19 L 154.44 84.06 L 153.88 84 L 153.13 84 L 152.56 83.94 L 152.19 83.81 L 152 83.63 L 152 83.38 L 151.81 83.19 L 151.44 83.06 L 150.88 83 L 150.13 83 L 149.56 82.94 L 149.19 82.81 L 149 82.63 L 149 82.38 L 148.81 82.19 L 148.44 82.06 L 147.88 82 L 147.13 82 L 146.56 81.94 L 146.19 81.81 L 146 81.63 L 146 81.38 L 145.88 81.19 L 145.63 81.06 L 145.25 81 L 144.75 81 L 144.38 80.94 L 144.13 80.81 L 144 80.63 L 144 80.38 L 143.88 80.19 L 143.63 80.06 L 143.25 80 L 142.75 80 L 142.38 79.94 L 142.13 79.81 L 142 79.63 L 142 79.38 L 141.94 79.19 L 141.81 79.06 L 141.63 79 L 141.38 79 L 141.19 79.06 L 141.06 79.19 L 141 79.38 L 141 79.63 L 140.94 79.81 L 140.81 79.94 L 140.63 80 L 140.38 80 L 140.19 80.13 L 140.06 80.38 L 140 80.75 L 140 81.25 L 139.88 81.63 L 139.63 81.88 L 139.25 82 L 138.75 82 L 138.38 82.06 L 138.13 82.19 L 138 82.38 L 138 82.63 L 137.94 82.81 L 137.81 82.94 L 137.63 83 L 137.38 83 L 137.19 83.06 L 137.06 83.19 L 137 83.38 L 137 83.63 L 136.81 83.81 L 136.44 83.94 L 135.88 84 L 135.13 84 L 134.56 84.06 L 134.19 84.19 L 134 84.38 L 134 84.63 L 133.81 84.81 L 133.44 84.94 L 132.88 85 L 132.13 85 L 131.56 85.06 L 131.19 85.19 L 131 85.38 L 131 85.63 L 130.88 85.81 L 130.63 85.94 L 130.25 86 L 129.75 86 L 129.38 86.06 L 129.13 86.19 L 129 86.38 L 129 86.63 L 128.81 86.81 L 128.44 86.94 L 127.88 87 L 127.13 87 L 126.56 87.06 L 126.19 87.19 L 126 87.38 L 126 87.63 L 125.88 87.81 L 125.63 87.94 L 125.25 88 L 124.75 88 L 124.38 88.06 L 124.13 88.19 L 124 88.38 L 124 88.63 L 123.75 88.81 L 123.25 88.94 L 122.5 89 L 121.5 89 L 120.75 89.06 L 120.25 89.19 L 120 89.38 L 120 89.63 L 119.88 89.81 L 119.63 89.94 L 119.25 90 L 118.75 90 L 118.38 89.94 L 118.13 89.81 L 118 89.63 L 118 89.38 L 117.94 89.19 L 117.81 89.06 L 117.63 89 L 117.38 89 L 117.19 89.06 L 117.06 89.19 L 117 89.38 L 117 89.63 L 116.94 89.81 L 116.81 89.94 L 116.63 90 L 116.38 90 L 116.19 90.06 L 116.06 90.19 L 116 90.38 L 116 90.63 L 115.25 90.81 L 113.75 90.94 L 111.5 91 L 108.5 91 L 106.25 90.94 L 104.75 90.81 L 104 90.63 L 104 90.38 L 103.94 90.19 L 103.81 90.06 L 103.63 90 L 103.38 90 L 103.19 90.13 L 103.06 90.38 L 103 90.75 L 103 91.25 L 103.06 91.63 L 103.19 91.88 L 103.38 92 L 103.63 92 L 103.81 92.13 L 103.94 92.38 L 104 92.75 L 104 93.25 L 104.06 93.63 L 104.19 93.88 L 104.38 94 L 104.63 94 L 104.81 94.13 L 104.94 94.38 L 105 94.75 L 105 95.25 L 105.06 95.63 L 105.19 95.88 L 105.38 96 L 105.63 96 L 105.81 96.19 L 105.94 96.56 L 106 97.13 L 106 97.88 L 106.06 98.44 L 106.19 98.81 L 106.38 99 L 106.63 99 L 106.81 99.19 L 106.94 99.56 L 107 100.13 L 107 100.88 L 107.06 101.44 L 107.19 101.81 L 107.38 102 L 107.63 102 L 107.81 102.75 L 107.94 104.25 L 108 106.5 L 108 109.5 L 107.94 111.75 L 107.81 113.25 L 107.63 114 L 107.38 114 L 107.19 114.19 L 107.06 114.56 L 107 115.13 L 107 115.88 L 106.94 116.44 L 106.81 116.81 L 106.63 117 L 106.38 117 L 106.19 117.25 L 106.06 117.75 L 106 118.5 L 106 119.5 L 105.94 120.25 L 105.81 120.75 L 105.63 121 L 105.38 121 L 105.19 121.94 L 105.06 123.81 L 105 126.63 L 105 130.38 L 105.19 133.19 L 105.56 135.06 L 106.13 136 L 106.88 136 L 107.44 135.94 L 107.81 135.81 L 108 135.63 L 108 135.38 L 108.06 135.19 L 108.19 135.06 L 108.38 135 L 108.63 135 L 108.81 134.94 L 108.94 134.81 L 109 134.63 L 109 134.38 L 109.06 134.19 L 109.19 134.06 L 109.38 134 L 109.63 134 L 109.81 133.88 L 109.94 133.63 L 110 133.25 L 110 132.75 L 110.06 132.38 L 110.19 132.13 L 110.38 132 L 110.63 132 L 110.81 131.38 L 110.94 130.13 L 111 128.25 L 111 125.75 L 110.94 123.88 L 110.81 122.63 L 110.63 122 L 110.38 122 L 110.19 121.5 L 110.06 120.5 L 110 119 L 110 117 L 109.94 115.5 L 109.81 114.5 L 109.63 114 L 109.38 114 L 109.19 113.19 L 109.06 111.56 L 109 109.13 L 109 105.88 L 109.06 103.44 L 109.19 101.81 L 109.38 101 L 109.63 101 L 109.81 100.88 L 109.94 100.63 L 110 100.25 L 110 99.75 L 110.06 99.38 L 110.19 99.13 L 110.38 99 L 110.63 99 L 110.81 98.88 L 110.94 98.63 L 111 98.25 L 111 97.75 L 111.06 97.38 L 111.19 97.13 L 111.38 97 L 111.63 97 L 111.81 96.94 L 111.94 96.81 L 112 96.63 L 112 96.38 L 112.13 96.19 L 112.38 96.06 L 112.75 96 L 113.25 96 L 113.63 95.94 L 113.88 95.81 L 114 95.63 L 114 95.38 L 114.13 95.19 L 114.38 95.06 L 114.75 95 L 115.25 95 L 115.63 94.94 L 115.88 94.81 L 116 94.63 L 116 94.38 L 116.13 94.19 L 116.38 94.06 L 116.75 94 L 117.25 94 L 117.63 93.94 L 117.88 93.81 L 118 93.63 L 118 93.38 L 118.31 93.19 L 118.94 93.06 L 119.88 93 L 121.13 93 L 122.06 93.06 L 122.69 93.19 L 123 93.38 L 123 93.63 L 123.13 93.81 L 123.38 93.94 L 123.75 94 L 124.25 94 L 124.63 94.06 L 124.88 94.19 L 125 94.38 L 125 94.63 L 125.13 94.81 L 125.38 94.94 L 125.75 95 L 126.25 95 L 126.63 95.06 L 126.88 95.19 L 127 95.38 L 127 95.63 L 127.06 95.81 L 127.19 95.94 L 127.38 96 L 127.63 96 L 127.81 96.06 L 127.94 96.19 L 128 96.38 L 128 96.63 L 128.06 96.81 L 128.19 96.94 L 128.38 97 L 128.63 97 L 128.81 97.13 L 128.94 97.38 L 129 97.75 L 129 98.25 L 129.06 98.63 L 129.19 98.88 L 129.38 99 L 129.63 99 L 129.81 100.25 L 129.94 102.75 L 130 106.5 L 130 111.5 L 129.94 115.25 L 129.81 117.75 L 129.63 119 L 129.38 119 L 129.19 120 L 129.06 122 L 129 125 L 129 129 L 129.06 132 L 129.19 134 L 129.38 135 L 129.63 135 L 129.81 135.13 L 129.94 135.38 L 130 135.75 L 130 136.25 L 130.06 136.63 L 130.19 136.88 L 130.38 137 L 130.63 137 L 130.81 136.94 L 130.94 136.81 L 131 136.63 L 131 136.38 L 131.06 136.19 L 131.19 136.06 L 131.38 136 L 131.63 136 L 131.81 135.56 L 131.94 134.69 L 132 133.38 L 132 131.63 L 131.94 130.31 L 131.81 129.44 L 131.63 129 L 131.38 129 L 131.19 127.63 L 131.06 124.88 L 131 120.75 L 131 115.25 L 131.06 111.13 L 131.19 108.38 L 131.38 107 L 131.63 107 L 131.81 106.88 L 131.94 106.63 L 132 106.25 L 132 105.75 L 132.06 105.38 L 132.19 105.13 L 132.38 105 L 132.63 105 L 132.81 104.88 L 132.94 104.63 L 133 104.25 L 133 103.75 L 133.06 103.38 L 133.19 103.13 L 133.38 103 L 133.63 103 L 133.81 102.94 L 133.94 102.81 L 134 102.63 L 134 102.38 L 134.13 102.19 L 134.38 102.06 L 134.75 102 L 135.25 102 L 135.63 101.94 L 135.88 101.81 L 136 101.63 L 136 101.38 L 136.13 101.19 L 136.38 101.06 L 136.75 101 L 137.25 101 L 137.63 100.94 L 137.88 100.81 L 138 100.63 L 138 100.38 L 138.38 100.19 L 139.13 100.06 L 140.25 100 L 141.75 100 L 142.88 100.06 L 143.63 100.19 L 144 100.38 L 144 100.63 L 144.13 100.81 L 144.38 100.94 L 144.75 101 L 145.25 101 L 145.63 101.06 L 145.88 101.19 L 146 101.38 L 146 101.63 L 146.06 101.81 L 146.19 101.94 L 146.38 102 L 146.63 102 L 146.81 102.06 L 146.94 102.19 L 147 102.38 L 147 102.63 L 147.06 102.81 L 147.19 102.94 L 147.38 103 L 147.63 103 L 147.81 103.06 L 147.94 103.19 L 148 103.38 L 148 103.63 L 148.06 103.81 L 148.19 103.94 L 148.38 104 L 148.63 104 L 148.81 104.13 L 148.94 104.38 L 149 104.75 L 149 105.25 L 149.06 105.63 L 149.19 105.88 L 149.38 106 L 149.63 106 L 149.81 106.94 L 149.94 108.81 L 150 111.63 L 150 115.38 L 149.94 118.19 L 149.81 120.06 L 149.63 121 L 149.38 121 L 149.19 121.5 L 149.06 122.5 L 149 124 L 149 126 L 148.94 127.5 L 148.81 128.5 L 148.63 129 L 148.38 129 L 148.19 129.31 L 148.06 129.94 L 148 130.88 L 148 132.13 L 147.94 133.06 L 147.81 133.69 L 147.63 134 L 147.38 134 L 147.19 134.25 L 147.06 134.75 L 147 135.5 L 147 136.5 L 147.06 137.25 L 147.19 137.75 L 147.38 138 L 147.63 138 L 147.81 138.13 L 147.94 138.38 L 148 138.75 L 148 139.25 L 148.06 139.63 L 148.19 139.88 L 148.38 140 L 148.63 140 L 148.81 140.13 L 148.94 140.38 L 149 140.75 L 149 141.25 L 149.06 141.63 L 149.19 141.88 L 149.38 142 L 149.63 142 L 149.81 142.06 L 149.94 142.19 L 150 142.38 L 150 142.63 L 150.06 142.81 L 150.19 142.94 L 150.38 143 L 150.63 143 L 150.81 142.94 L 150.94 142.81 L 151 142.63 L 151 142.38 L 151.06 142.19 L 151.19 142.06 L 151.38 142 L 151.63 142 L 151.81 141.75 L 151.94 141.25 L 152 140.5 L 152 139.5 L 152.06 138.75 L 152.19 138.25 L 152.38 138 L 152.63 138 L 152.81 137.44 L 152.94 136.31 L 153 134.63 L 153 132.38 L 152.94 130.69 L 152.81 129.56 L 152.63 129 L 152.38 129 L 152.19 128.75 L 152.06 128.25 L 152 127.5 L 152 126.5 L 151.94 125.75 L 151.81 125.25 L 151.63 125 L 151.38 125 L 151.19 124.94 L 151.06 124.81 L 151 124.63 L 151 124.38 L 151.06 124.19 L 151.19 124.06 L 151.38 124 L 151.63 124 L 151.81 123.81 L 151.94 123.44 L 152 122.88 L 152 122.13 L 152.06 121.56 L 152.19 121.19 L 152.38 121 L 152.63 121 L 152.81 120.88 L 152.94 120.63 L 153 120.25 L 153 119.75 L 153.06 119.38 L 153.19 119.13 L 153.38 119 L 153.63 119 L 153.81 118.94 L 153.94 118.81 L 154 118.63 L 154 118.38 L 154.06 118.19 L 154.19 118.06 L 154.38 118 L 154.63 118 L 154.81 117.94 L 154.94 117.81 L 155 117.63 L 155 117.38 L 155.06 117.19 L 155.19 117.06 L 155.38 117 L 155.63 117 L 155.81 116.94 L 155.94 116.81 L 156 116.63 L 156 116.38 L 156.06 116.19 L 156.19 116.06 L 156.38 116 L 156.63 116 L 156.81 115.94 L 156.94 115.81 L 157 115.63 L 157 115.38 L 157.19 115.19 L 157.56 115.06 L 158.13 115 L 158.88 115 L 159.44 114.94 L 159.81 114.81 L 160 114.63 L 160 114.38 L 160.06 114.19 L 160.19 114.06 L 160.38 114 L 160.63 114 L 160.81 114.06 L 160.94 114.19 L 161 114.38 L 161 114.63 L 161.25 114.81 L 161.75 114.94 L 162.5 115 L 163.5 115 L 164.25 115.06 L 164.75 115.19 L 165 115.38 L 165 115.63 L 165.13 115.81 L 165.38 115.94 L 165.75 116 L 166.25 116 L 166.63 116.06 L 166.88 116.19 L 167 116.38 L 167 116.63 L 167.06 116.81 L 167.19 116.94 L 167.38 117 L 167.63 117 L 167.81 117.06 L 167.94 117.19 L 168 117.38 L 168 117.63 L 168.06 117.81 L 168.19 117.94 L 168.38 118 L 168.63 118 L 168.81 118.06 L 168.94 118.19 L 169 118.38 L 169 118.63 L 169.06 118.81 L 169.19 118.94 L 169.38 119 L 169.63 119 L 169.81 119.13 L 169.94 119.38 L 170 119.75 L 170 120.25 L 170.06 120.63 L 170.19 120.88 L 170.38 121 L 170.63 121 L 170.81 122 L 170.94 124 L 171 127 L 171 131 L 171.06 134 L 171.19 136 L 171.38 137 L 171.63 137 L 171.81 136.94 L 171.94 136.81 L 172 136.63 L 172 136.38 L 172.13 136.19 L 172.38 136.06 L 172.75 136 L 173.25 136 L 173.63 135.94 L 173.88 135.81 L 174 135.63 L 174 135.38 L 174.38 135.19 L 175.13 135.06 L 176.25 135 L 177.75 135 L 178.88 135.06 L 179.63 135.19 L 180 135.38 L 180 135.63 L 180.13 135.81 L 180.38 135.94 L 180.75 136 L 181.25 136 L 181.63 136.06 L 181.88 136.19 L 182 136.38 L 182 136.63 L 182.06 136.81 L 182.19 136.94 L 182.38 137 L 182.63 137 L 182.81 137.06 L 182.94 137.19 L 183 137.38 L 183 137.63 L 183.06 137.81 L 183.19 137.94 L 183.38 138 L 183.63 138 L 183.81 140.31 L 183.94 144.94 L 184 151.88 L 184 161.13 L 183.94 168.06 L 183.81 172.69 L 183.63 175 L 183.38 175 L 183.19 175.25 L 183.06 175.75 L 183 176.5 L 183 177.5 L 182.94 178.25 L 182.81 178.75 L 182.63 179 L 182.38 179 L 182.19 179.69 L 182.06 181.06 L 182 183.13 L 182 185.88 L 181.94 187.94 L 181.81 189.31 L 181.63 190 L 181.38 190 L 181.19 190.38 L 181.06 191.13 L 181 192.25 L 181 193.75 L 180.94 194.88 L 180.81 195.63 L 180.63 196 L 180.38 196 L 180.19 196.63 L 180.06 197.88 L 180 199.75 L 180 202.25 L 179.94 204.13 L 179.81 205.38 L 179.63 206 L 179.38 206 L 179.19 206.31 L 179.06 206.94 L 179 207.88 L 179 209.13 L 178.94 210.06 L 178.81 210.69 L 178.63 211 L 178.38 211 L 178.19 211.5 L 178.06 212.5 L 178 214 L 178 216 L 177.94 217.5 L 177.81 218.5 L 177.63 219 L 177.38 219 L 177.19 219.13 L 177.06 219.38 L 177 219.75 L 177 220.25 L 176.88 220.63 L 176.63 220.88 L 176.25 221 L 175.75 221 L 175.38 221.06 L 175.13 221.19 L 175 221.38 L 175 221.63 L 169.31 221.81 L 157.94 221.94 L 140.88 222 L 118.13 222 L 101.06 221.94 L 89.69 221.81 L 84 221.63 L 84 221.38 L 83.88 221.19 L 83.63 221.06 L 83.25 221 L 82.75 221 L 82.38 220.94 L 82.13 220.81 L 82 220.63 L 82 220.38 L 81.94 220.19 L 81.81 220.06 L 81.63 220 L 81.38 220 L 81.19 219.44 L 81.06 218.31 L 81 216.63 L 81 214.38 L 80.94 212.69 L 80.81 211.56 L 80.63 211 L 80.38 211 L 80.19 210.63 L 80.06 209.88 L 80 208.75 L 80 207.25 L 79.94 206.13 L 79.81 205.38 L 79.63 205 L 79.38 205 L 79.19 204.19 L 79.06 202.56 L 79 200.13 L 79 196.88 L 78.94 194.44 L 78.81 192.81 L 78.63 192 L 78.38 192 L 78.19 191.69 L 78.06 191.06 L 78 190.13 L 78 188.88 L 77.94 187.94 L 77.81 187.31 L 77.63 187 L 77.38 187 L 77.19 186.25 L 77.06 184.75 L 77 182.5 L 77 179.5 L 76.94 177.25 L 76.81 175.75 L 76.63 175 L 76.38 175 L 76.19 173.56 L 76.06 170.69 L 76 166.38 L 76 160.63 L 75.94 156.31 L 75.81 153.44 L 75.63 152 L 75.38 152 L 75.19 151.5 L 75.06 150.5 L 75 149 L 75 147 L 74.94 145.5 L 74.81 144.5 L 74.63 144 L 74.38 144 L 74.19 143.63 L 74.06 142.88 L 74 141.75 L 74 140.25 L 73.94 139.13 L 73.81 138.38 L 73.63 138 L 73.38 138 L 73.19 137.75 L 73.06 137.25 L 73 136.5 L 73 135.5 L 72.94 134.75 L 72.81 134.25 L 72.63 134 L 72.38 134 L 72.19 133.56 L 72.06 132.69 L 72 131.38 L 72 129.63 L 71.94 128.31 L 71.81 127.44 L 71.63 127 L 71.38 127 L 71.19 126.81 L 71.06 126.44 L 71 125.88 L 71 125.13 L 70.94 124.56 L 70.81 124.19 L 70.63 124 L 70.38 124 L 70.19 122.63 L 70.06 119.88 L 70 115.75 L 70 110.25 L 70.06 106.13 L 70.19 103.38 L 70.38 102 L 70.63 102 L 70.81 101.81 L 70.94 101.44 L 71 100.88 L 71 100.13 L 71.06 99.56 L 71.19 99.19 L 71.38 99 L 71.63 99 L 71.81 98.75 L 71.94 98.25 L 72 97.5 L 72 96.5 L 72.06 95.75 L 72.19 95.25 L 72.38 95 L 72.63 95 L 72.81 94.88 L 72.94 94.63 L 73 94.25 L 73 93.75 L 73.06 93.38 L 73.19 93.13 L 73.38 93 L 73.63 93 L 73.81 92.88 L 73.94 92.63 L 74 92.25 L 74 91.75 L 74.06 91.38 L 74.19 91.13 L 74.38 91 L 74.63 91 L 74.81 90.94 L 74.94 90.81 L 75 90.63 L 75 90.38 L 75.06 90.19 L 75.19 90.06 L 75.38 90 L 75.63 90 L 75.81 89.94 L 75.94 89.81 L 76 89.63 L 76 89.38 L 76.13 89.19 L 76.38 89.06 L 76.75 89 L 77.25 89 L 77.63 88.94 L 77.88 88.81 L 78 88.63 L 78 88.38 L 78.13 88.19 L 78.38 88.06 L 78.75 88 L 79.25 88 L 79.63 87.94 L 79.88 87.81 L 80 87.63 L 80 87.38 L 80.06 87.19 L 80.19 87.06 L 80.38 87 L 80.63 87 L 80.81 86.94 L 80.94 86.81 L 81 86.63 L 81 86.38 L 82 86.19 L 84 86.06 L 87 86 L 91 86 L 94 86.06 L 96 86.19 L 97 86.38 L 97 86.63 L 97.06 86.81 L 97.19 86.94 L 97.38 87 L 97.63 87 L 97.81 87.06 L 97.94 87.19 L 98 87.38 L 98 87.63 L 98.13 87.81 L 98.38 87.94 L 98.75 88 L 99.25 88 L 99.63 88.06 L 99.88 88.19 L 100 88.38 L 100 88.63 L 100.06 88.81 L 100.19 88.94 L 100.38 89 L 100.63 89 L 100.81 89.06 L 100.94 89.19 L 101 89.38 L 101 89.63 L 101.13 89.81 L 101.38 89.94 L 101.75 90 L 102.25 90 L 102.63 89.81 L 102.88 89.44 L 103 88.88 L 103 88.13 L 102.94 87.56 L 102.81 87.19 L 102.63 87 L 102.38 87 L 102.19 86.94 L 102.06 86.81 L 102 86.63 L 102 86.38 L 101.94 86.19 L 101.81 86.06 L 101.63 86 L 101.38 86 L 101.19 85.94 L 101.06 85.81 L 101 85.63 L 101 85.38 L 101.06 85.19 L 101.19 85.06 L 101.38 85 L 101.63 85 L 101.81 84.94 L 101.94 84.81 L 102 84.63 L 102 84.38 L 102.06 84.19 L 102.19 84.06 L 102.38 84 L 102.63 84 L 102.81 83.88 L 102.94 83.63 L 103 83.25 L 103 82.75 L 103.06 82.38 L 103.19 82.13 L 103.38 82 L 103.63 82 L 103.81 81.94 L 103.94 81.81 L 104 81.63 L 104 81.38 L 104.06 81.19 L 104.19 81.06 L 104.38 81 L 104.63 81 L 104.81 80.94 L 104.94 80.81 L 105 80.63 L 105 80.38 L 105.06 80.19 L 105.19 80.06 L 105.38 80 L 105.63 80 L 105.81 79.94 L 105.94 79.81 L 106 79.63 L 106 79.38 L 106.06 79.19 L 106.19 79.06 L 106.38 79 L 106.63 79 L 106.81 78.94 L 106.94 78.81 L 107 78.63 L 107 78.38 L 107.06 78.19 L 107.19 78.06 L 107.38 78 L 107.63 78 L 107.81 77.94 L 107.94 77.81 L 108 77.63 L 108 77.38 L 108.13 77.19 L 108.38 77.06 L 108.75 77 L 109.25 77 L 109.63 76.94 L 109.88 76.81 L 110 76.63 L 110 76.38 L 110.19 76.19 L 110.56 76.06 L 111.13 76 L 111.88 76 L 112.44 75.88 L 112.81 75.63 L 113 75.25 L 113 74.75 L 113.06 74.38 L 113.19 74.13 L 113.38 74 L 113.63 74 L 113.81 73.94 L 113.94 73.81 L 114 73.63 L 114 73.38 L 114.38 73.19 L 115.13 73.06 L 116.25 73 L 117.75 73 L 118.88 72.94 L 119.63 72.81 L 120 72.63 L 120 72.38 L 120.13 72.19 L 120.38 72.06 L 120.75 72 L 121.25 72 L 121.63 71.94 L 121.88 71.81 L 122 71.63 L 122 71.38 L 122.13 71.19 L 122.38 71.06 L 122.75 71 L 123.25 71 L 123.63 70.94 L 123.88 70.81 L 124 70.63 L 124 70.38 L 124.06 70.19 L 124.19 70.06 L 124.38 70 L 124.63 70 L 124.81 69.94 L 124.94 69.81 L 125 69.63 L 125 69.38 L 125.19 69.19 L 125.56 69.06 L 126.13 69 L 126.88 69 L 127.44 68.94 L 127.81 68.81 L 128 68.63 L 128 68.38 L 128.19 68.19 L 128.56 68.06 L 129.13 68 L 129.88 68 L 130.44 67.94 L 130.81 67.81 L 131 67.63 L 131 67.38 L 131.13 67.19 L 131.38 67.06 L 131.75 67 L 132.25 67 L 132.63 66.94 L 132.88 66.81 L 133 66.63 L 133 66.38 L 133.13 66.19 L 133.38 66.06 L 133.75 66 L 134.25 66 L 134.63 65.94 L 134.88 65.81 L 135 65.63 L 135 65.38 L 135.06 65.19 L 135.19 65.06 L 135.38 65 L 135.63 65 L 135.81 64.94 L 135.94 64.81 L 136 64.63 L 136 64.38 L 136.13 64.19 L 136.38 64.06 L 136.75 64 L 137.25 64 L 137.63 63.88 L 137.88 63.63 L 138 63.25 L 138 62.75 L 138.13 62.38 L 138.38 62.13 L 138.75 62 L 139.25 62 L 139.63 61.81 L 139.88 61.44 L 140 60.88 L 140 60.13 L 140.06 59.56 L 140.19 59.19 L 140.38 59 L 140.63 59 L 140.81 58.94 L 140.94 58.81 L 141 58.63 L 141 58.38 L 141.06 58.19 L 141.19 58.06 L 141.38 58 L 141.63 58 L 141.81 57.88 L 141.94 57.63 L 142 57.25 L 142 56.75 L 142.06 56.38 L 142.19 56.13 L 142.38 56 L 142.63 56 L 142.81 55.94 L 142.94 55.81 L 143 55.63 L 143 55.38 L 143.06 55.19 L 143.19 55.06 L 143.38 55 L 143.63 55 L 143.81 54.81 L 143.94 54.44 L 144 53.88 L 144 53.13 L 144.06 52.56 L 144.19 52.19 L 144.38 52 L 144.63 52 L 144.81 51.94 L 144.94 51.81 L 145 51.63 L 145 51.38 L 145.06 51.19 L 145.19 51.06 L 145.38 51 L 145.63 51 L 145.81 50.88 L 145.94 50.63 L 146 50.25 L 146 49.75 L 146.06 49.38 L 146.19 49.13 L 146.38 49 L 146.63 49 L 146.81 48.94 L 146.94 48.81 L 147 48.63 L 147 48.38 L 147.06 48.19 L 147.19 48.06 L 147.38 48 L 147.63 48 L 147.81 47.94 L 147.94 47.81 L 148 47.63 L 148 47.38 L 148.06 47.19 L 148.19 47.06 L 148.38 47 L 148.63 47 L 148.81 46.88 L 148.94 46.63 L 149 46.25 L 149 45.75 L 149.06 45.38 L 149.19 45.13 L 149.38 45 L 149.63 45 L 149.81 44.94 L 149.94 44.81 L 150 44.63 L 150 44.38 L 150.06 44.19 L 150.19 44.06 L 150.38 44 L 150.63 44 L 150.81 43.88 L 150.94 43.63 L 151 43.25 L 151 42.75 L 151.06 42.38 L 151.19 42.13 L 151.38 42 L 151.63 42 L 151.81 41.94 L 151.94 41.81 L 152 41.63 L 152 41.38 L 152.06 41.19 L 152.19 41.06 L 152.38 41 L 152.63 41 L 152.81 40.94 L 152.94 40.81 L 153 40.63 L 153 40.38 L 153.06 40.19 L 153.19 40.06 L 153.38 40 L 153.63 40 L 153.81 39.94 L 153.94 39.81 L 154 39.63 L 154 39.38 L 154.06 39.19 L 154.19 39.06 L 154.38 39 L 154.63 39 L 154.81 38.94 L 154.94 38.81 L 155 38.63 L 155 38.38 L 155.06 38.19 L 155.19 38.06 L 155.38 38 L 155.63 38 L 155.81 37.94 L 155.94 37.81 L 156 37.63 L 156 37.38 L 156.06 37.19 L 156.19 37.06 L 156.38 37 L 156.63 37 L 156.81 36.88 L 156.94 36.63 L 157 36.25 L 157 35.75 L 157.06 35.38 L 157.19 35.13 L 157.38 35 L 157.63 35 L 157.81 34.94 L 157.94 34.81 L 158 34.63 L 158 34.38 L 158.06 34.19 L 158.19 34.06 L 158.38 34 L 158.63 34 L 158.81 33.94 L 158.94 33.81 L 159 33.63 L 159 33.38 L 159.06 33.19 L 159.19 33.06 L 159.38 33 L 159.63 33 L 159.81 32.94 L 159.94 32.81 L 160 32.63 L 160 32.38 L 160.06 32.19 L 160.19 32.06 L 160.38 32 L 160.63 32 L 160.81 31.94 L 160.94 31.81 L 161 31.63 L 161 31.38 L 161.13 31.19 L 161.38 31.06 L 161.75 31 L 162.25 31 L 162.63 30.94 L 162.88 30.81 L 163 30.63 L 163 30.38 L 163.06 30.19 L 163.19 30.06 L 163.38 30 L 163.63 30 L 163.81 29.94 L 163.94 29.81 L 164 29.63 L 164 29.38 L 164.06 29.19 L 164.19 29.06 L 164.38 29 L 164.63 29 L 164.81 28.94 L 164.94 28.81 L 165 28.63 L 165 28.38 L 165.06 28.19 L 165.19 28.06 L 165.38 28 L 165.63 28 L 165.81 27.94 L 165.94 27.81 L 166 27.63 L 166 27.38 L 166.13 27.19 L 166.38 27.06 L 166.75 27 L 167.25 27 L 167.63 26.94 L 167.88 26.81 L 168 26.63 L 168 26.38 L 168.06 26.19 L 168.19 26.06 L 168.38 26 L 168.63 26 L 168.81 25.94 L 168.94 25.81 L 169 25.63 L 169 25.38 L 169.25 25.19 L 169.75 25.06 L 170.5 25 L 171.5 25 L 172.25 24.94 L 172.75 24.81 L 173 24.63 L 173 24.38 L 173.06 24.19 L 173.19 24.06 L 173.38 24 L 173.63 24 L 173.81 23.94 L 173.94 23.81 L 174 23.63 L 174 23.38 L 174.19 23.19 L 174.56 23.06 L 175.13 23 L 175.88 23 L 176.44 22.94 L 176.81 22.81 L 177 22.63 L 177 22.38 L 177.19 22.19 L 177.56 22.06 L 178.13 22 L 178.88 22 L 179.44 21.94 L 179.81 21.81 L 180 21.63 L 180 21.38 L 180.19 21.19 L 180.56 21.06 L 181.13 21 L 181.88 21 L 182.44 20.94 L 182.81 20.81 L 183 20.63 L 183 20.38 L 183.25 20.19 L 183.75 20.06 L 184.5 20 L 185.5 20 L 186.25 19.94 L 186.75 19.81 L 187 19.63 L 187 19.38 L 187.38 19.19 L 188.13 19.06 Z M 176.63 30 L 176.38 30 L 176.19 30.06 L 176.06 30.19 L 176 30.38 L 176 30.63 L 175.88 30.81 L 175.63 30.94 L 175.25 31 L 174.75 31 L 174.38 31.06 L 174.13 31.19 L 174 31.38 L 174 31.63 L 173.88 31.81 L 173.63 31.94 L 173.25 32 L 172.75 32 L 172.38 32.06 L 172.13 32.19 L 172 32.38 L 172 32.63 L 171.94 32.81 L 171.81 32.94 L 171.63 33 L 171.38 33 L 171.19 33.06 L 171.06 33.19 L 171 33.38 L 171 33.63 L 170.88 33.81 L 170.63 33.94 L 170.25 34 L 169.75 34 L 169.38 34.06 L 169.13 34.19 L 169 34.38 L 169 34.63 L 168.88 34.81 L 168.63 34.94 L 168.25 35 L 167.75 35 L 167.38 35.06 L 167.13 35.19 L 167 35.38 L 167 35.63 L 166.94 35.81 L 166.81 35.94 L 166.63 36 L 166.38 36 L 166.19 36.06 L 166.06 36.19 L 166 36.38 L 166 36.63 L 165.88 36.81 L 165.63 36.94 L 165.25 37 L 164.75 37 L 164.38 37.06 L 164.13 37.19 L 164 37.38 L 164 37.63 L 163.94 37.81 L 163.81 37.94 L 163.63 38 L 163.38 38 L 163.19 38.06 L 163.06 38.19 L 163 38.38 L 163 38.63 L 162.94 38.81 L 162.81 38.94 L 162.63 39 L 162.38 39 L 162.19 39.06 L 162.06 39.19 L 162 39.38 L 162 39.63 L 161.94 39.81 L 161.81 39.94 L 161.63 40 L 161.38 40 L 161.19 40.06 L 161.06 40.19 L 161 40.38 L 161 40.63 L 160.94 40.81 L 160.81 40.94 L 160.63 41 L 160.38 41 L 160.19 41.06 L 160.06 41.19 L 160 41.38 L 160 41.63 L 159.94 41.81 L 159.81 41.94 L 159.63 42 L 159.38 42 L 159.19 42.06 L 159.06 42.19 L 159 42.38 L 159 42.63 L 158.94 42.81 L 158.81 42.94 L 158.63 43 L 158.38 43 L 158.19 43.06 L 158.06 43.19 L 158 43.38 L 158 43.63 L 157.94 43.81 L 157.81 43.94 L 157.63 44 L 157.38 44 L 157.19 44.06 L 157.06 44.19 L 157 44.38 L 157 44.63 L 156.94 44.81 L 156.81 44.94 L 156.63 45 L 156.38 45 L 156.19 45.13 L 156.06 45.38 L 156 45.75 L 156 46.25 L 155.88 46.63 L 155.63 46.88 L 155.25 47 L 154.75 47 L 154.38 47.19 L 154.13 47.56 L 154 48.13 L 154 48.88 L 154.06 49.44 L 154.19 49.81 L 154.38 50 L 154.63 50 L 154.81 49.94 L 154.94 49.81 L 155 49.63 L 155 49.38 L 155.25 49.19 L 155.75 49.06 L 156.5 49 L 157.5 49 L 158.25 48.94 L 158.75 48.81 L 159 48.63 L 159 48.38 L 159.06 48.19 L 159.19 48.06 L 159.38 48 L 159.63 48 L 159.81 47.94 L 159.94 47.81 L 160 47.63 L 160 47.38 L 160.25 47.19 L 160.75 47.06 L 161.5 47 L 162.5 47 L 163.25 46.94 L 163.75 46.81 L 164 46.63 L 164 46.38 L 164.06 46.19 L 164.19 46.06 L 164.38 46 L 164.63 46 L 164.81 45.94 L 164.94 45.81 L 165 45.63 L 165 45.38 L 165.13 45.19 L 165.38 45.06 L 165.75 45 L 166.25 45 L 166.63 44.94 L 166.88 44.81 L 167 44.63 L 167 44.38 L 167.06 44.19 L 167.19 44.06 L 167.38 44 L 167.63 44 L 167.81 43.94 L 167.94 43.81 L 168 43.63 L 168 43.38 L 168.06 43.19 L 168.19 43.06 L 168.38 43 L 168.63 43 L 168.81 42.94 L 168.94 42.81 L 169 42.63 L 169 42.38 L 169.06 42.19 L 169.19 42.06 L 169.38 42 L 169.63 42 L 169.81 41.94 L 169.94 41.81 L 170 41.63 L 170 41.38 L 170.06 41.19 L 170.19 41.06 L 170.38 41 L 170.63 41 L 170.81 40.94 L 170.94 40.81 L 171 40.63 L 171 40.38 L 171.06 40.19 L 171.19 40.06 L 171.38 40 L 171.63 40 L 171.81 39.94 L 171.94 39.81 L 172 39.63 L 172 39.38 L 172.06 39.19 L 172.19 39.06 L 172.38 39 L 172.63 39 L 172.81 38.94 L 172.94 38.81 L 173 38.63 L 173 38.38 L 173.06 38.19 L 173.19 38.06 L 173.38 38 L 173.63 38 L 173.81 37.94 L 173.94 37.81 L 174 37.63 L 174 37.38 L 174.06 37.19 L 174.19 37.06 L 174.38 37 L 174.63 37 L 174.81 36.88 L 174.94 36.63 L 175 36.25 L 175 35.75 L 175.06 35.38 L 175.19 35.13 L 175.38 35 L 175.63 35 L 175.81 34.94 L 175.94 34.81 L 176 34.63 L 176 34.38 L 176.06 34.19 L 176.19 34.06 L 176.38 34 L 176.63 34 L 176.81 33.75 L 176.94 33.25 L 177 32.5 L 177 31.5 L 176.94 30.75 L 176.81 30.25 Z M 64.13 55 L 64.88 55 L 65.44 55.06 L 65.81 55.19 L 66 55.38 L 66 55.63 L 66.19 55.81 L 66.56 55.94 L 67.13 56 L 67.88 56 L 68.44 56.06 L 68.81 56.19 L 69 56.38 L 69 56.63 L 69.19 56.81 L 69.56 56.94 L 70.13 57 L 70.88 57 L 71.44 57.06 L 71.81 57.19 L 72 57.38 L 72 57.63 L 72.25 57.81 L 72.75 57.94 L 73.5 58 L 74.5 58 L 75.25 58.06 L 75.75 58.19 L 76 58.38 L 76 58.63 L 76.13 58.81 L 76.38 58.94 L 76.75 59 L 77.25 59 L 77.63 59.06 L 77.88 59.19 L 78 59.38 L 78 59.63 L 78.13 59.81 L 78.38 59.94 L 78.75 60 L 79.25 60 L 79.63 60.06 L 79.88 60.19 L 80 60.38 L 80 60.63 L 80.06 60.81 L 80.19 60.94 L 80.38 61 L 80.63 61 L 80.81 61.06 L 80.94 61.19 L 81 61.38 L 81 61.63 L 80.94 61.81 L 80.81 61.94 L 80.63 62 L 80.38 62 L 80.19 62.06 L 80.06 62.19 L 80 62.38 L 80 62.63 L 79.88 62.81 L 79.63 62.94 L 79.25 63 L 78.75 63 L 78.38 63.06 L 78.13 63.19 L 78 63.38 L 78 63.63 L 77.94 63.81 L 77.81 63.94 L 77.63 64 L 77.38 64 L 77.19 64.06 L 77.06 64.19 L 77 64.38 L 77 64.63 L 76.81 64.81 L 76.44 64.94 L 75.88 65 L 75.13 65 L 74.56 65.06 L 74.19 65.19 L 74 65.38 L 74 65.63 L 73.94 65.81 L 73.81 65.94 L 73.63 66 L 73.38 66 L 73.19 66.06 L 73.06 66.19 L 73 66.38 L 73 66.63 L 72.88 66.81 L 72.63 66.94 L 72.25 67 L 71.75 67 L 71.38 67.06 L 71.13 67.19 L 71 67.38 L 71 67.63 L 70.81 67.81 L 70.44 67.94 L 69.88 68 L 69.13 68 L 68.56 67.94 L 68.19 67.81 L 68 67.63 L 68 67.38 L 67.94 67.19 L 67.81 67.06 L 67.63 67 L 67.38 67 L 67.19 66.94 L 67.06 66.81 L 67 66.63 L 67 66.38 L 66.94 66.19 L 66.81 66.06 L 66.63 66 L 66.38 66 L 66.19 65.88 L 66.06 65.63 L 66 65.25 L 66 64.75 L 65.94 64.38 L 65.81 64.13 L 65.63 64 L 65.38 64 L 65.19 63.88 L 65.06 63.63 L 65 63.25 L 65 62.75 L 64.94 62.38 L 64.81 62.13 L 64.63 62 L 64.38 62 L 64.19 61.88 L 64.06 61.63 L 64 61.25 L 64 60.75 L 63.94 60.38 L 63.81 60.13 L 63.63 60 L 63.38 60 L 63.19 59.88 L 63.06 59.63 L 63 59.25 L 63 58.75 L 62.94 58.38 L 62.81 58.13 L 62.63 58 L 62.38 58 L 62.19 57.88 L 62.06 57.63 L 62 57.25 L 62 56.75 L 62.06 56.38 L 62.19 56.13 L 62.38 56 L 62.63 56 L 62.81 55.94 L 62.94 55.81 L 63 55.63 L 63 55.38 L 63.19 55.19 L 63.56 55.06 Z M 114 79.38 L 114 79.63 L 113.94 79.81 L 113.81 79.94 L 113.63 80 L 113.38 80 L 113.19 80.13 L 113.06 80.38 L 113 80.75 L 113 81.25 L 112.94 81.63 L 112.81 81.88 L 112.63 82 L 112.38 82 L 112.19 82.06 L 112.06 82.19 L 112 82.38 L 112 82.63 L 111.94 82.81 L 111.81 82.94 L 111.63 83 L 111.38 83 L 111.19 83.06 L 111.06 83.19 L 111 83.38 L 111 83.63 L 111.06 83.81 L 111.19 83.94 L 111.38 84 L 111.63 84 L 111.81 84.06 L 111.94 84.19 L 112 84.38 L 112 84.63 L 112.13 84.81 L 112.38 84.94 L 112.75 85 L 113.25 85 L 113.63 85.06 L 113.88 85.19 L 114 85.38 L 114 85.63 L 114.25 85.81 L 114.75 85.94 L 115.5 86 L 116.5 86 L 117.25 85.88 L 117.75 85.63 L 118 85.25 L 118 84.75 L 118.06 84.38 L 118.19 84.13 L 118.38 84 L 118.63 84 L 118.81 83.94 L 118.94 83.81 L 119 83.63 L 119 83.38 L 119.06 83.19 L 119.19 83.06 L 119.38 83 L 119.63 83 L 119.81 82.88 L 119.94 82.63 L 120 82.25 L 120 81.75 L 120.06 81.38 L 120.19 81.13 L 120.38 81 L 120.63 81 L 120.81 80.94 L 120.94 80.81 L 121 80.63 L 121 80.38 L 120.69 80.19 L 120.06 80.06 L 119.13 80 L 117.88 80 L 116.94 79.94 L 116.31 79.81 L 116 79.63 L 116 79.38 L 115.88 79.19 L 115.63 79.06 L 115.25 79 L 114.75 79 L 114.38 79.06 L 114.13 79.19 Z M 192.5 102 L 193.5 102 L 194.25 102.13 L 194.75 102.38 L 195 102.75 L 195 103.25 L 195.13 103.63 L 195.38 103.88 L 195.75 104 L 196.25 104 L 196.63 104.31 L 196.88 104.94 L 197 105.88 L 197 107.13 L 197.06 108.06 L 197.19 108.69 L 197.38 109 L 197.63 109 L 197.81 109.13 L 197.94 109.38 L 198 109.75 L 198 110.25 L 197.94 110.63 L 197.81 110.88 L 197.63 111 L 197.38 111 L 197.19 111.25 L 197.06 111.75 L 197 112.5 L 197 113.5 L 196.94 114.25 L 196.81 114.75 L 196.63 115 L 196.38 115 L 196.19 115.06 L 196.06 115.19 L 196 115.38 L 196 115.63 L 195.94 115.81 L 195.81 115.94 L 195.63 116 L 195.38 116 L 195.19 116.06 L 195.06 116.19 L 195 116.38 L 195 116.63 L 194.88 116.81 L 194.63 116.94 L 194.25 117 L 193.75 117 L 193.38 117.06 L 193.13 117.19 L 193 117.38 L 193 117.63 L 192.94 117.81 L 192.81 117.94 L 192.63 118 L 192.38 118 L 192.19 118.06 L 192.06 118.19 L 192 118.38 L 192 118.63 L 191.5 118.81 L 190.5 118.94 L 189 119 L 187 119 L 185.5 118.94 L 184.5 118.81 L 184 118.63 L 184 118.38 L 183.94 118.19 L 183.81 118.06 L 183.63 118 L 183.38 118 L 183.19 117.81 L 183.06 117.44 L 183 116.88 L 183 116.13 L 183.13 115.56 L 183.38 115.19 L 183.75 115 L 184.25 115 L 184.63 114.94 L 184.88 114.81 L 185 114.63 L 185 114.38 L 185.19 114.19 L 185.56 114.06 L 186.13 114 L 186.88 114 L 187.44 113.94 L 187.81 113.81 L 188 113.63 L 188 113.38 L 188.06 113.19 L 188.19 113.06 L 188.38 113 L 188.63 113 L 188.81 112.94 L 188.94 112.81 L 189 112.63 L 189 112.38 L 189.06 112.19 L 189.19 112.06 L 189.38 112 L 189.63 112 L 189.81 111.94 L 189.94 111.81 L 190 111.63 L 190 111.38 L 190.06 111.19 L 190.19 111.06 L 190.38 111 L 190.63 111 L 190.81 110.88 L 190.94 110.63 L 191 110.25 L 191 109.75 L 191.06 109.38 L 191.19 109.13 L 191.38 109 L 191.63 109 L 191.81 108.69 L 191.94 108.06 L 192 107.13 L 192 105.88 L 191.94 104.94 L 191.81 104.31 L 191.63 104 L 191.38 104 L 191.19 103.88 L 191.06 103.63 L 191 103.25 L 191 102.75 L 191.25 102.38 L 191.75 102.13 Z M 45.38 110 L 45.63 110 L 45.81 110.06 L 45.94 110.19 L 46 110.38 L 46 110.63 L 46.06 110.81 L 46.19 110.94 L 46.38 111 L 46.63 111 L 46.81 111.19 L 46.94 111.56 L 47 112.13 L 47 112.88 L 46.94 113.44 L 46.81 113.81 L 46.63 114 L 46.38 114 L 46.19 114.06 L 46.06 114.19 L 46 114.38 L 46 114.63 L 45.94 114.81 L 45.81 114.94 L 45.63 115 L 45.38 115 L 45.19 115.19 L 45.06 115.56 L 45 116.13 L 45 116.88 L 44.94 117.44 L 44.81 117.81 L 44.63 118 L 44.38 118 L 44.19 118.31 L 44.06 118.94 L 44 119.88 L 44 121.13 L 44.06 122.06 L 44.19 122.69 L 44.38 123 L 44.63 123 L 44.81 123.19 L 44.94 123.56 L 45 124.13 L 45 124.88 L 45.06 125.44 L 45.19 125.81 L 45.38 126 L 45.63 126 L 45.81 126.13 L 45.94 126.38 L 46 126.75 L 46 127.25 L 46.06 127.63 L 46.19 127.88 L 46.38 128 L 46.63 128 L 46.81 128.13 L 46.94 128.38 L 47 128.75 L 47 129.25 L 47.13 129.63 L 47.38 129.88 L 47.75 130 L 48.25 130 L 48.63 130.13 L 48.88 130.38 L 49 130.75 L 49 131.25 L 49.13 131.63 L 49.38 131.88 L 49.75 132 L 50.25 132 L 50.63 132.06 L 50.88 132.19 L 51 132.38 L 51 132.63 L 51.13 132.81 L 51.38 132.94 L 51.75 133 L 52.25 133 L 52.63 133.06 L 52.88 133.19 L 53 133.38 L 53 133.63 L 53.25 133.81 L 53.75 133.94 L 54.5 134 L 55.5 134 L 56.25 134.06 L 56.75 134.19 L 57 134.38 L 57 134.63 L 57.06 134.81 L 57.19 134.94 L 57.38 135 L 57.63 135 L 57.81 135.06 L 57.94 135.19 L 58 135.38 L 58 135.63 L 57.94 135.81 L 57.81 135.94 L 57.63 136 L 57.38 136 L 57.19 136.06 L 57.06 136.19 L 57 136.38 L 57 136.63 L 56.94 136.81 L 56.81 136.94 L 56.63 137 L 56.38 137 L 56.19 137.06 L 56.06 137.19 L 56 137.38 L 56 137.63 L 55.94 137.81 L 55.81 137.94 L 55.63 138 L 55.38 138 L 55.19 138.06 L 55.06 138.19 L 55 138.38 L 55 138.63 L 54.31 138.81 L 52.94 138.94 L 50.88 139 L 48.13 139 L 46.06 138.94 L 44.69 138.81 L 44 138.63 L 44 138.38 L 43.94 138.19 L 43.81 138.06 L 43.63 138 L 43.38 138 L 43.19 137.94 L 43.06 137.81 L 43 137.63 L 43 137.38 L 42.88 137.19 L 42.63 137.06 L 42.25 137 L 41.75 137 L 41.38 136.94 L 41.13 136.81 L 41 136.63 L 41 136.38 L 40.94 136.19 L 40.81 136.06 L 40.63 136 L 40.38 136 L 40.19 135.94 L 40.06 135.81 L 40 135.63 L 40 135.38 L 39.94 135.19 L 39.81 135.06 L 39.63 135 L 39.38 135 L 39.19 134.94 L 39.06 134.81 L 39 134.63 L 39 134.38 L 38.94 134.19 L 38.81 134.06 L 38.63 134 L 38.38 134 L 38.19 133.94 L 38.06 133.81 L 38 133.63 L 38 133.38 L 37.94 133.19 L 37.81 133.06 L 37.63 133 L 37.38 133 L 37.19 132.88 L 37.06 132.63 L 37 132.25 L 37 131.75 L 36.94 131.38 L 36.81 131.13 L 36.63 131 L 36.38 131 L 36.19 130.88 L 36.06 130.63 L 36 130.25 L 36 129.75 L 35.94 129.38 L 35.81 129.13 L 35.63 129 L 35.38 129 L 35.19 128.44 L 35.06 127.31 L 35 125.63 L 35 123.38 L 35.06 121.69 L 35.19 120.56 L 35.38 120 L 35.63 120 L 35.81 119.88 L 35.94 119.63 L 36 119.25 L 36 118.75 L 36.06 118.38 L 36.19 118.13 L 36.38 118 L 36.63 118 L 36.81 117.88 L 36.94 117.63 L 37 117.25 L 37 116.75 L 37.06 116.38 L 37.19 116.13 L 37.38 116 L 37.63 116 L 37.81 115.94 L 37.94 115.81 L 38 115.63 L 38 115.38 L 38.06 115.19 L 38.19 115.06 L 38.38 115 L 38.63 115 L 38.81 114.94 L 38.94 114.81 L 39 114.63 L 39 114.38 L 39.06 114.19 L 39.19 114.06 L 39.38 114 L 39.63 114 L 39.81 113.94 L 39.94 113.81 L 40 113.63 L 40 113.38 L 40.06 113.19 L 40.19 113.06 L 40.38 113 L 40.63 113 L 40.81 112.94 L 40.94 112.81 L 41 112.63 L 41 112.38 L 41.13 112.19 L 41.38 112.06 L 41.75 112 L 42.25 112 L 42.63 111.94 L 42.88 111.81 L 43 111.63 L 43 111.38 L 43.13 111.19 L 43.38 111.06 L 43.75 111 L 44.25 111 L 44.63 110.94 L 44.88 110.81 L 45 110.63 L 45 110.38 L 45.06 110.19 L 45.19 110.06 Z M 167.63 151 L 167.38 151 L 167.19 151.44 L 167.06 152.31 L 167 153.63 L 167 155.38 L 167.06 156.69 L 167.19 157.56 L 167.38 158 L 167.63 158 L 167.81 157.56 L 167.94 156.69 L 168 155.38 L 168 153.63 L 167.94 152.31 L 167.81 151.44 Z" fill="#FFE998" fill-rule="evenodd"/>
</svg>
