<?xml version="1.0" encoding="UTF-8"?>
<svg viewBox="0 0 256 256" xmlns="http://www.w3.org/2000/svg" fill="none">
  <path d="M 110.63 26 L 112.38 26 L 113.69 26.06 L 114.56 26.19 L 115 26.38 L 115 26.63 L 115.06 26.81 L 115.19 26.94 L 115.38 27 L 115.63 27 L 115.81 27.06 L 115.94 27.19 L 116 27.38 L 116 27.63 L 116.06 27.81 L 116.19 27.94 L 116.38 28 L 116.63 28 L 116.81 28.06 L 116.94 28.19 L 117 28.38 L 117 28.63 L 117.06 28.81 L 117.19 28.94 L 117.38 29 L 117.63 29 L 117.81 29.19 L 117.94 29.56 L 118 30.13 L 118 30.88 L 118.56 31.44 L 119.69 31.81 L 121.38 32 L 123.63 32 L 125.31 32.06 L 126.44 32.19 L 127 32.38 L 127 32.63 L 127.06 32.81 L 127.19 32.94 L 127.38 33 L 127.63 33 L 127.81 33.06 L 127.94 33.19 L 128 33.38 L 128 33.63 L 128.19 33.81 L 128.56 33.94 L 129.13 34 L 129.88 34 L 130.44 34.06 L 130.81 34.19 L 131 34.38 L 131 34.63 L 131.06 34.81 L 131.19 34.94 L 131.38 35 L 131.63 35 L 131.81 35.06 L 131.94 35.19 L 132 35.38 L 132 35.63 L 132.13 35.81 L 132.38 35.94 L 132.75 36 L 133.25 36 L 133.63 36.06 L 133.88 36.19 L 134 36.38 L 134 36.63 L 134.06 36.81 L 134.19 36.94 L 134.38 37 L 134.63 37 L 134.81 37.06 L 134.94 37.19 L 135 37.38 L 135 37.63 L 135.06 37.81 L 135.19 37.94 L 135.38 38 L 135.63 38 L 135.81 38.06 L 135.94 38.19 L 136 38.38 L 136 38.63 L 136.06 38.81 L 136.19 38.94 L 136.38 39 L 136.63 39 L 136.81 39.13 L 136.94 39.38 L 137 39.75 L 137 40.25 L 137.06 40.63 L 137.19 40.88 L 137.38 41 L 137.63 41 L 137.81 41.13 L 137.94 41.38 L 138 41.75 L 138 42.25 L 138.06 42.63 L 138.19 42.88 L 138.38 43 L 138.63 43 L 138.81 43.19 L 138.94 43.56 L 139 44.13 L 139 44.88 L 139.06 45.44 L 139.19 45.81 L 139.38 46 L 139.63 46 L 139.81 46.5 L 139.94 47.5 L 140 49 L 140 51 L 139.94 52.5 L 139.81 53.5 L 139.63 54 L 139.38 54 L 139.19 54.19 L 139.06 54.56 L 139 55.13 L 139 55.88 L 138.94 56.44 L 138.81 56.81 L 138.63 57 L 138.38 57 L 138.19 57.13 L 138.06 57.38 L 138 57.75 L 138 58.25 L 137.94 58.63 L 137.81 58.88 L 137.63 59 L 137.38 59 L 137.19 59.06 L 137.06 59.19 L 137 59.38 L 137 59.63 L 136.94 59.81 L 136.81 59.94 L 136.63 60 L 136.38 60 L 136.19 60.13 L 136.06 60.38 L 136 60.75 L 136 61.25 L 135.94 61.63 L 135.81 61.88 L 135.63 62 L 135.38 62 L 135.19 62.06 L 135.06 62.19 L 135 62.38 L 135 62.63 L 134.94 62.81 L 134.81 62.94 L 134.63 63 L 134.38 63 L 134.19 63.06 L 134.06 63.19 L 134 63.38 L 134 63.63 L 133.88 63.81 L 133.63 63.94 L 133.25 64 L 132.75 64 L 132.38 64.06 L 132.13 64.19 L 132 64.38 L 132 64.63 L 131.94 64.81 L 131.81 64.94 L 131.63 65 L 131.38 65 L 131.19 65.06 L 131.06 65.19 L 131 65.38 L 131 65.63 L 130.88 65.81 L 130.63 65.94 L 130.25 66 L 129.75 66 L 129.38 66.06 L 129.13 66.19 L 129 66.38 L 129 66.63 L 128.69 66.81 L 128.06 66.94 L 127.13 67 L 125.88 67 L 124.94 67.06 L 124.31 67.19 L 124 67.38 L 124 67.63 L 123.81 67.81 L 123.44 67.94 L 122.88 68 L 122.13 68 L 121.56 67.94 L 121.19 67.81 L 121 67.63 L 121 67.38 L 120.63 67.19 L 119.88 67.06 L 118.75 67 L 117.25 67 L 116.13 67.06 L 115.38 67.19 L 115 67.38 L 115 67.63 L 115.06 67.81 L 115.19 67.94 L 115.38 68 L 115.63 68 L 115.81 68.06 L 115.94 68.19 L 116 68.38 L 116 68.63 L 116.06 68.81 L 116.19 68.94 L 116.38 69 L 116.63 69 L 116.81 69.06 L 116.94 69.19 L 117 69.38 L 117 69.63 L 117.06 69.81 L 117.19 69.94 L 117.38 70 L 117.63 70 L 117.81 70.13 L 117.94 70.38 L 118 70.75 L 118 71.25 L 118.06 71.63 L 118.19 71.88 L 118.38 72 L 118.63 72 L 118.81 72.06 L 118.94 72.19 L 119 72.38 L 119 72.63 L 119.06 72.81 L 119.19 72.94 L 119.38 73 L 119.63 73 L 119.81 73.13 L 119.94 73.38 L 120 73.75 L 120 74.25 L 120.06 74.63 L 120.19 74.88 L 120.38 75 L 120.63 75 L 120.81 75.06 L 120.94 75.19 L 121 75.38 L 121 75.63 L 121.06 75.81 L 121.19 75.94 L 121.38 76 L 121.63 76 L 121.81 76.13 L 121.94 76.38 L 122 76.75 L 122 77.25 L 122.06 77.63 L 122.19 77.88 L 122.38 78 L 122.63 78 L 122.81 78.06 L 122.94 78.19 L 123 78.38 L 123 78.63 L 123.06 78.81 L 123.19 78.94 L 123.38 79 L 123.63 79 L 123.81 79.13 L 123.94 79.38 L 124 79.75 L 124 80.25 L 124.06 80.63 L 124.19 80.88 L 124.38 81 L 124.63 81 L 124.81 81.06 L 124.94 81.19 L 125 81.38 L 125 81.63 L 125.06 81.81 L 125.19 81.94 L 125.38 82 L 125.63 82 L 125.81 82.06 L 125.94 82.19 L 126 82.38 L 126 82.63 L 126.63 82.81 L 127.88 82.94 L 129.75 83 L 132.25 83 L 134.13 82.94 L 135.38 82.81 L 136 82.63 L 136 82.38 L 135.94 82.19 L 135.81 82.06 L 135.63 82 L 135.38 82 L 135.19 81.94 L 135.06 81.81 L 135 81.63 L 135 81.38 L 134.94 81.19 L 134.81 81.06 L 134.63 81 L 134.38 81 L 134.19 80.94 L 134.06 80.81 L 134 80.63 L 134 80.38 L 133.94 80.19 L 133.81 80.06 L 133.63 80 L 133.38 80 L 133.19 79.88 L 133.06 79.63 L 133 79.25 L 133 78.75 L 133.06 78.38 L 133.19 78.13 L 133.38 78 L 133.63 78 L 133.81 77.94 L 133.94 77.81 L 134 77.63 L 134 77.38 L 134.06 77.19 L 134.19 77.06 L 134.38 77 L 134.63 77 L 134.81 76.94 L 134.94 76.81 L 135 76.63 L 135 76.38 L 135.31 76.19 L 135.94 76.06 L 136.88 76 L 138.13 76 L 139.06 75.94 L 139.69 75.81 L 140 75.63 L 140 75.38 L 140.25 75.19 L 140.75 75.06 L 141.5 75 L 142.5 75 L 143.25 74.94 L 143.75 74.81 L 144 74.63 L 144 74.38 L 144.88 74.19 L 146.63 74.06 L 149.25 74 L 152.75 74 L 155.38 74.06 L 157.13 74.19 L 158 74.38 L 158 74.63 L 158.25 74.81 L 158.75 74.94 L 159.5 75 L 160.5 75 L 161.25 75.06 L 161.75 75.19 L 162 75.38 L 162 75.63 L 162.31 75.81 L 162.94 75.94 L 163.88 76 L 165.13 76 L 166.06 76.06 L 166.69 76.19 L 167 76.38 L 167 76.63 L 167.06 76.81 L 167.19 76.94 L 167.38 77 L 167.63 77 L 167.81 77.25 L 167.94 77.75 L 168 78.5 L 168 79.5 L 167.94 80.25 L 167.81 80.75 L 167.63 81 L 167.38 81 L 167.19 81.06 L 167.06 81.19 L 167 81.38 L 167 81.63 L 166.88 81.81 L 166.63 81.94 L 166.25 82 L 165.75 82 L 165.38 82.06 L 165.13 82.19 L 165 82.38 L 165 82.63 L 164.94 82.81 L 164.81 82.94 L 164.63 83 L 164.38 83 L 164.19 83.06 L 164.06 83.19 L 164 83.38 L 164 83.63 L 163.88 83.81 L 163.63 83.94 L 163.25 84 L 162.75 84 L 162.38 84.06 L 162.13 84.19 L 162 84.38 L 162 84.63 L 161.88 84.81 L 161.63 84.94 L 161.25 85 L 160.75 85 L 160.38 85.06 L 160.13 85.19 L 160 85.38 L 160 85.63 L 159.81 85.81 L 159.44 85.94 L 158.88 86 L 158.13 86 L 157.56 86.06 L 157.19 86.19 L 157 86.38 L 157 86.63 L 156.88 86.81 L 156.63 86.94 L 156.25 87 L 155.75 87 L 155.38 87.25 L 155.13 87.75 L 155 88.5 L 155 89.5 L 154.88 90.25 L 154.63 90.75 L 154.25 91 L 153.75 91 L 153.38 91.06 L 153.13 91.19 L 153 91.38 L 153 91.63 L 152.88 91.81 L 152.63 91.94 L 152.25 92 L 151.75 92 L 151.38 92.06 L 151.13 92.19 L 151 92.38 L 151 92.63 L 150.31 92.81 L 148.94 92.94 L 146.88 93 L 144.13 93 L 142.06 93.06 L 140.69 93.19 L 140 93.38 L 140 93.63 L 139.63 93.81 L 138.88 93.94 L 137.75 94 L 136.25 94 L 135.13 94.06 L 134.38 94.19 L 134 94.38 L 134 94.63 L 133.19 94.81 L 131.56 94.94 L 129.13 95 L 125.88 95 L 123.44 94.94 L 121.81 94.81 L 121 94.63 L 121 94.38 L 120.94 94.19 L 120.81 94.06 L 120.63 94 L 120.38 94 L 120.19 93.94 L 120.06 93.81 L 120 93.63 L 120 93.38 L 119.94 93.19 L 119.81 93.06 L 119.63 93 L 119.38 93 L 119.19 92.94 L 119.06 92.81 L 119 92.63 L 119 92.38 L 118.94 92.19 L 118.81 92.06 L 118.63 92 L 118.38 92 L 118.19 91.94 L 118.06 91.81 L 118 91.63 L 118 91.38 L 117.94 91.19 L 117.81 91.06 L 117.63 91 L 117.38 91 L 117.19 90.88 L 117.06 90.63 L 117 90.25 L 117 89.75 L 116.94 89.38 L 116.81 89.13 L 116.63 89 L 116.38 89 L 116.19 88.94 L 116.06 88.81 L 116 88.63 L 116 88.38 L 115.94 88.19 L 115.81 88.06 L 115.63 88 L 115.38 88 L 115.19 87.94 L 115.06 87.81 L 115 87.63 L 115 87.38 L 114.94 87.19 L 114.81 87.06 L 114.63 87 L 114.38 87 L 114.19 86.94 L 114.06 86.81 L 114 86.63 L 114 86.38 L 113.81 86.19 L 113.44 86.06 L 112.88 86 L 112.13 86 L 111.56 86.25 L 111.19 86.75 L 111 87.5 L 111 88.5 L 111.06 89.25 L 111.19 89.75 L 111.38 90 L 111.63 90 L 111.81 90.19 L 111.94 90.56 L 112 91.13 L 112 91.88 L 112.06 92.44 L 112.19 92.81 L 112.38 93 L 112.63 93 L 112.81 93.31 L 112.94 93.94 L 113 94.88 L 113 96.13 L 113.06 97.06 L 113.19 97.69 L 113.38 98 L 113.63 98 L 113.81 98.06 L 113.94 98.19 L 114 98.38 L 114 98.63 L 114.25 98.81 L 114.75 98.94 L 115.5 99 L 116.5 99 L 117.25 99.06 L 117.75 99.19 L 118 99.38 L 118 99.63 L 118.5 99.81 L 119.5 99.94 L 121 100 L 123 100 L 124.5 100.06 L 125.5 100.19 L 126 100.38 L 126 100.63 L 126.25 100.81 L 126.75 100.94 L 127.5 101 L 128.5 101 L 129.25 101.06 L 129.75 101.19 L 130 101.38 L 130 101.63 L 130.19 101.81 L 130.56 101.94 L 131.13 102 L 131.88 102 L 132.44 102.06 L 132.81 102.19 L 133 102.38 L 133 102.63 L 133.13 102.81 L 133.38 102.94 L 133.75 103 L 134.25 103 L 134.63 103.06 L 134.88 103.19 L 135 103.38 L 135 103.63 L 135.13 103.81 L 135.38 103.94 L 135.75 104 L 136.25 104 L 136.63 104.06 L 136.88 104.19 L 137 104.38 L 137 104.63 L 137.13 104.81 L 137.38 104.94 L 137.75 105 L 138.25 105 L 138.63 105.06 L 138.88 105.19 L 139 105.38 L 139 105.63 L 139.06 105.81 L 139.19 105.94 L 139.38 106 L 139.63 106 L 139.81 106.06 L 139.94 106.19 L 140 106.38 L 140 106.63 L 140.06 106.81 L 140.19 106.94 L 140.38 107 L 140.63 107 L 140.81 107.06 L 140.94 107.19 L 141 107.38 L 141 107.63 L 141.06 107.81 L 141.19 107.94 L 141.38 108 L 141.63 108 L 141.81 108.13 L 141.94 108.38 L 142 108.75 L 142 109.25 L 142.06 109.63 L 142.19 109.88 L 142.38 110 L 142.63 110 L 142.81 110.38 L 142.94 111.13 L 143 112.25 L 143 113.75 L 142.94 114.88 L 142.81 115.63 L 142.63 116 L 142.38 116 L 142.19 116.13 L 142.06 116.38 L 142 116.75 L 142 117.25 L 141.94 117.63 L 141.81 117.88 L 141.63 118 L 141.38 118 L 141.19 118.06 L 141.06 118.19 L 141 118.38 L 141 118.63 L 140.81 118.81 L 140.44 118.94 L 139.88 119 L 139.13 119 L 138.56 119.06 L 138.19 119.19 L 138 119.38 L 138 119.63 L 137.94 119.81 L 137.81 119.94 L 137.63 120 L 137.38 120 L 137.19 119.94 L 137.06 119.81 L 137 119.63 L 137 119.38 L 136.81 119.19 L 136.44 119.06 L 135.88 119 L 135.13 119 L 134.56 118.94 L 134.19 118.81 L 134 118.63 L 134 118.38 L 133.94 118.19 L 133.81 118.06 L 133.63 118 L 133.38 118 L 133.19 117.88 L 133.06 117.63 L 133 117.25 L 133 116.75 L 132.94 116.38 L 132.81 116.13 L 132.63 116 L 132.38 116 L 132.19 115.94 L 132.06 115.81 L 132 115.63 L 132 115.38 L 131.94 115.19 L 131.81 115.06 L 131.63 115 L 131.38 115 L 131.19 114.94 L 131.06 114.81 L 131 114.63 L 131 114.38 L 130.94 114.19 L 130.81 114.06 L 130.63 114 L 130.38 114 L 130.19 113.94 L 130.06 113.81 L 130 113.63 L 130 113.38 L 129.75 113.19 L 129.25 113.06 L 128.5 113 L 127.5 113 L 126.75 112.94 L 126.25 112.81 L 126 112.63 L 126 112.38 L 125.81 112.19 L 125.44 112.06 L 124.88 112 L 124.13 112 L 123.56 111.94 L 123.19 111.81 L 123 111.63 L 123 111.38 L 122.31 111.19 L 120.94 111.06 L 118.88 111 L 116.13 111 L 114.06 110.94 L 112.69 110.81 L 112 110.63 L 112 110.38 L 111.69 110.19 L 111.06 110.06 L 110.13 110 L 108.88 110 L 107.94 109.94 L 107.31 109.81 L 107 109.63 L 107 109.38 L 106.88 109.19 L 106.63 109.06 L 106.25 109 L 105.75 109 L 105.38 108.88 L 105.13 108.63 L 105 108.25 L 105 107.75 L 104.94 107.38 L 104.81 107.13 L 104.63 107 L 104.38 107 L 104.19 106.94 L 104.06 106.81 L 104 106.63 L 104 106.38 L 103.94 106.19 L 103.81 106.06 L 103.63 106 L 103.38 106 L 103.19 105.69 L 103.06 105.06 L 103 104.13 L 103 102.88 L 102.94 101.94 L 102.81 101.31 L 102.63 101 L 102.38 101 L 102.19 100.88 L 102.06 100.63 L 102 100.25 L 102 99.75 L 101.88 99.38 L 101.63 99.13 L 101.25 99 L 100.75 99 L 100.38 99.13 L 100.13 99.38 L 100 99.75 L 100 100.25 L 99.94 100.63 L 99.81 100.88 L 99.63 101 L 99.38 101 L 99.19 101.06 L 99.06 101.19 L 99 101.38 L 99 101.63 L 98.94 101.81 L 98.81 101.94 L 98.63 102 L 98.38 102 L 98.19 102.13 L 98.06 102.38 L 98 102.75 L 98 103.25 L 97.94 103.63 L 97.81 103.88 L 97.63 104 L 97.38 104 L 97.19 104.13 L 97.06 104.38 L 97 104.75 L 97 105.25 L 96.94 105.63 L 96.81 105.88 L 96.63 106 L 96.38 106 L 96.19 106.13 L 96.06 106.38 L 96 106.75 L 96 107.25 L 95.94 107.63 L 95.81 107.88 L 95.63 108 L 95.38 108 L 95.19 108.06 L 95.06 108.19 L 95 108.38 L 95 108.63 L 94.94 108.81 L 94.81 108.94 L 94.63 109 L 94.38 109 L 94.19 109.13 L 94.06 109.38 L 94 109.75 L 94 110.25 L 93.94 110.63 L 93.81 110.88 L 93.63 111 L 93.38 111 L 93.19 111.13 L 93.06 111.38 L 93 111.75 L 93 112.25 L 92.94 112.63 L 92.81 112.88 L 92.63 113 L 92.38 113 L 92.19 113.13 L 92.06 113.38 L 92 113.75 L 92 114.25 L 91.94 114.63 L 91.81 114.88 L 91.63 115 L 91.38 115 L 91.19 115.19 L 91.06 115.56 L 91 116.13 L 91 116.88 L 90.94 117.44 L 90.81 117.81 L 90.63 118 L 90.38 118 L 90.19 118.13 L 90.06 118.38 L 90 118.75 L 90 119.25 L 89.94 119.63 L 89.81 119.88 L 89.63 120 L 89.38 120 L 89.19 120.25 L 89.06 120.75 L 89 121.5 L 89 122.5 L 89.06 123.25 L 89.19 123.75 L 89.38 124 L 89.63 124 L 89.81 124.06 L 89.94 124.19 L 90 124.38 L 90 124.63 L 90.06 124.81 L 90.19 124.94 L 90.38 125 L 90.63 125 L 90.81 125.13 L 90.94 125.38 L 91 125.75 L 91 126.25 L 91.06 126.63 L 91.19 126.88 L 91.38 127 L 91.63 127 L 91.81 127.06 L 91.94 127.19 L 92 127.38 L 92 127.63 L 92.06 127.81 L 92.19 127.94 L 92.38 128 L 92.63 128 L 92.81 128.06 L 92.94 128.19 L 93 128.38 L 93 128.63 L 93.13 128.81 L 93.38 128.94 L 93.75 129 L 94.25 129 L 94.63 129.06 L 94.88 129.19 L 95 129.38 L 95 129.63 L 95.75 129.81 L 97.25 129.94 L 99.5 130 L 102.5 130 L 104.75 129.94 L 106.25 129.81 L 107 129.63 L 107 129.38 L 107.06 129.19 L 107.19 129.06 L 107.38 129 L 107.63 129 L 107.81 129.06 L 107.94 129.19 L 108 129.38 L 108 129.63 L 108.13 129.81 L 108.38 129.94 L 108.75 130 L 109.25 130 L 109.63 129.94 L 109.88 129.81 L 110 129.63 L 110 129.38 L 110.13 129.19 L 110.38 129.06 L 110.75 129 L 111.25 129 L 111.63 128.94 L 111.88 128.81 L 112 128.63 L 112 128.38 L 112.06 128.19 L 112.19 128.06 L 112.38 128 L 112.63 128 L 112.81 127.94 L 112.94 127.81 L 113 127.63 L 113 127.38 L 113.06 127.19 L 113.19 127.06 L 113.38 127 L 113.63 127 L 113.81 126.94 L 113.94 126.81 L 114 126.63 L 114 126.38 L 114.13 126.19 L 114.38 126.06 L 114.75 126 L 115.25 126 L 115.63 125.94 L 115.88 125.81 L 116 125.63 L 116 125.38 L 116.19 125.19 L 116.56 125.06 L 117.13 125 L 117.88 125 L 118.44 124.94 L 118.81 124.81 L 119 124.63 L 119 124.38 L 119.63 124.19 L 120.88 124.06 L 122.75 124 L 125.25 124 L 127.13 124.06 L 128.38 124.19 L 129 124.38 L 129 124.63 L 129.19 124.81 L 129.56 124.94 L 130.13 125 L 130.88 125 L 131.44 125.06 L 131.81 125.19 L 132 125.38 L 132 125.63 L 132.06 125.81 L 132.19 125.94 L 132.38 126 L 132.63 126 L 132.81 126.06 L 132.94 126.19 L 133 126.38 L 133 126.63 L 133.06 126.81 L 133.19 126.94 L 133.38 127 L 133.63 127 L 133.81 127.06 L 133.94 127.19 L 134 127.38 L 134 127.63 L 134.25 127.81 L 134.75 127.94 L 135.5 128 L 136.5 128 L 137.25 128.06 L 137.75 128.19 L 138 128.38 L 138 128.63 L 138.25 128.81 L 138.75 128.94 L 139.5 129 L 140.5 129 L 141.25 128.94 L 141.75 128.81 L 142 128.63 L 142 128.38 L 141.81 128.19 L 141.44 128.06 L 140.88 128 L 140.13 128 L 139.56 127.94 L 139.19 127.81 L 139 127.63 L 139 127.38 L 138.94 127.19 L 138.81 127.06 L 138.63 127 L 138.38 127 L 138.19 126.94 L 138.06 126.81 L 138 126.63 L 138 126.38 L 137.94 126.19 L 137.81 126.06 L 137.63 126 L 137.38 126 L 137.19 125.81 L 137.06 125.44 L 137 124.88 L 137 124.13 L 137.06 123.56 L 137.19 123.19 L 137.38 123 L 137.63 123 L 137.81 122.94 L 137.94 122.81 L 138 122.63 L 138 122.38 L 138.5 122.19 L 139.5 122.06 L 141 122 L 143 122 L 144.5 122.06 L 145.5 122.19 L 146 122.38 L 146 122.63 L 146.13 122.81 L 146.38 122.94 L 146.75 123 L 147.25 123 L 147.63 123.06 L 147.88 123.19 L 148 123.38 L 148 123.63 L 148.06 123.81 L 148.19 123.94 L 148.38 124 L 148.63 124 L 148.81 124.06 L 148.94 124.19 L 149 124.38 L 149 124.63 L 149.13 124.81 L 149.38 124.94 L 149.75 125 L 150.25 125 L 150.63 125.19 L 150.88 125.56 L 151 126.13 L 151 126.88 L 150.94 127.44 L 150.81 127.81 L 150.63 128 L 150.38 128 L 150.19 128.06 L 150.06 128.19 L 150 128.38 L 150 128.63 L 149.75 128.81 L 149.25 128.94 L 148.5 129 L 147.5 129 L 146.75 129.13 L 146.25 129.38 L 146 129.75 L 146 130.25 L 146.25 130.63 L 146.75 130.88 L 147.5 131 L 148.5 131 L 149.25 131.06 L 149.75 131.19 L 150 131.38 L 150 131.63 L 150.25 131.81 L 150.75 131.94 L 151.5 132 L 152.5 132 L 153.25 132.06 L 153.75 132.19 L 154 132.38 L 154 132.63 L 154.38 132.81 L 155.13 132.94 L 156.25 133 L 157.75 133 L 158.88 132.94 L 159.63 132.81 L 160 132.63 L 160 132.38 L 159.88 132.19 L 159.63 132.06 L 159.25 132 L 158.75 132 L 158.38 131.94 L 158.13 131.81 L 158 131.63 L 158 131.38 L 157.81 131.19 L 157.44 131.06 L 156.88 131 L 156.13 131 L 155.56 130.75 L 155.19 130.25 L 155 129.5 L 155 128.5 L 155.19 127.75 L 155.56 127.25 L 156.13 127 L 156.88 127 L 157.44 126.94 L 157.81 126.81 L 158 126.63 L 158 126.38 L 158.5 126.19 L 159.5 126.06 L 161 126 L 163 126 L 164.5 126.06 L 165.5 126.19 L 166 126.38 L 166 126.63 L 166.13 126.81 L 166.38 126.94 L 166.75 127 L 167.25 127 L 167.63 127.06 L 167.88 127.19 L 168 127.38 L 168 127.63 L 168.06 127.81 L 168.19 127.94 L 168.38 128 L 168.63 128 L 168.81 128.19 L 168.94 128.56 L 169 129.13 L 169 129.88 L 168.88 130.44 L 168.63 130.81 L 168.25 131 L 167.75 131 L 167.38 131.06 L 167.13 131.19 L 167 131.38 L 167 131.63 L 166.88 131.81 L 166.63 131.94 L 166.25 132 L 165.75 132 L 165.38 132.06 L 165.13 132.19 L 165 132.38 L 165 132.63 L 164.88 132.81 L 164.63 132.94 L 164.25 133 L 163.75 133 L 163.38 133.06 L 163.13 133.19 L 163 133.38 L 163 133.63 L 163.25 133.81 L 163.75 133.94 L 164.5 134 L 165.5 134 L 166.25 133.94 L 166.75 133.81 L 167 133.63 L 167 133.38 L 167.5 133.19 L 168.5 133.06 L 170 133 L 172 133 L 173.5 132.94 L 174.5 132.81 L 175 132.63 L 175 132.38 L 175.19 132.19 L 175.56 132.06 L 176.13 132 L 176.88 132 L 177.44 131.94 L 177.81 131.81 L 178 131.63 L 178 131.38 L 177.94 131.19 L 177.81 131.06 L 177.63 131 L 177.38 131 L 177.19 130.94 L 177.06 130.81 L 177 130.63 L 177 130.38 L 176.88 130.19 L 176.63 130.06 L 176.25 130 L 175.75 130 L 175.38 129.94 L 175.13 129.81 L 175 129.63 L 175 129.38 L 174.94 129.19 L 174.81 129.06 L 174.63 129 L 174.38 129 L 174.19 128.81 L 174.06 128.44 L 174 127.88 L 174 127.13 L 174.06 126.56 L 174.19 126.19 L 174.38 126 L 174.63 126 L 174.81 125.94 L 174.94 125.81 L 175 125.63 L 175 125.38 L 175.19 125.19 L 175.56 125.06 L 176.13 125 L 176.88 125 L 177.44 124.94 L 177.81 124.81 L 178 124.63 L 178 124.38 L 178.31 124.19 L 178.94 124.06 L 179.88 124 L 181.13 124 L 182.06 124.06 L 182.69 124.19 L 183 124.38 L 183 124.63 L 183.25 124.81 L 183.75 124.94 L 184.5 125 L 185.5 125 L 186.25 125.06 L 186.75 125.19 L 187 125.38 L 187 125.63 L 187.06 125.81 L 187.19 125.94 L 187.38 126 L 187.63 126 L 187.81 126.19 L 187.94 126.56 L 188 127.13 L 188 127.88 L 187.94 128.44 L 187.81 128.81 L 187.63 129 L 187.38 129 L 187.19 129.06 L 187.06 129.19 L 187 129.38 L 187 129.63 L 186.88 129.81 L 186.63 129.94 L 186.25 130 L 185.75 130 L 185.38 130.13 L 185.13 130.38 L 185 130.75 L 185 131.25 L 185.13 131.63 L 185.38 131.88 L 185.75 132 L 186.25 132 L 186.63 132.06 L 186.88 132.19 L 187 132.38 L 187 132.63 L 187.13 132.81 L 187.38 132.94 L 187.75 133 L 188.25 133 L 188.63 133.06 L 188.88 133.19 L 189 133.38 L 189 133.63 L 189.06 133.81 L 189.19 133.94 L 189.38 134 L 189.63 134 L 189.81 134.06 L 189.94 134.19 L 190 134.38 L 190 134.63 L 190.06 134.81 L 190.19 134.94 L 190.38 135 L 190.63 135 L 190.81 135.06 L 190.94 135.19 L 191 135.38 L 191 135.63 L 191.06 135.81 L 191.19 135.94 L 191.38 136 L 191.63 136 L 191.81 136.13 L 191.94 136.38 L 192 136.75 L 192 137.25 L 192.06 137.63 L 192.19 137.88 L 192.38 138 L 192.63 138 L 192.81 137.94 L 192.94 137.81 L 193 137.63 L 193 137.38 L 193.06 137.19 L 193.19 137.06 L 193.38 137 L 193.63 137 L 193.81 136.94 L 193.94 136.81 L 194 136.63 L 194 136.38 L 194.06 136.19 L 194.19 136.06 L 194.38 136 L 194.63 136 L 194.81 136.38 L 194.94 137.13 L 195 138.25 L 195 139.75 L 195.06 140.88 L 195.19 141.63 L 195.38 142 L 195.63 142 L 195.81 141.56 L 195.94 140.69 L 196 139.38 L 196 137.63 L 196.06 136.31 L 196.19 135.44 L 196.38 135 L 196.63 135 L 196.81 134.81 L 196.94 134.44 L 197 133.88 L 197 133.13 L 197.06 132.56 L 197.19 132.19 L 197.38 132 L 197.63 132 L 197.81 131.88 L 197.94 131.63 L 198 131.25 L 198 130.75 L 198.06 130.38 L 198.19 130.13 L 198.38 130 L 198.63 130 L 198.81 129.94 L 198.94 129.81 L 199 129.63 L 199 129.38 L 199.06 129.19 L 199.19 129.06 L 199.38 129 L 199.63 129 L 199.81 128.88 L 199.94 128.63 L 200 128.25 L 200 127.75 L 200.06 127.38 L 200.19 127.13 L 200.38 127 L 200.63 127 L 200.81 126.94 L 200.94 126.81 L 201 126.63 L 201 126.38 L 201.06 126.19 L 201.19 126.06 L 201.38 126 L 201.63 126 L 201.81 125.94 L 201.94 125.81 L 202 125.63 L 202 125.38 L 202.13 125.19 L 202.38 125.06 L 202.75 125 L 203.25 125 L 203.63 124.94 L 203.88 124.81 L 204 124.63 L 204 124.38 L 204.06 124.19 L 204.19 124.06 L 204.38 124 L 204.63 124 L 204.81 123.94 L 204.94 123.81 L 205 123.63 L 205 123.38 L 205.13 123.19 L 205.38 123.06 L 205.75 123 L 206.25 123 L 206.63 122.94 L 206.88 122.81 L 207 122.63 L 207 122.38 L 207.31 122.19 L 207.94 122.06 L 208.88 122 L 210.13 122 L 211.06 121.94 L 211.69 121.81 L 212 121.63 L 212 121.38 L 212.19 121.19 L 212.56 121.06 L 213.13 121 L 213.88 121 L 214.44 121.06 L 214.81 121.19 L 215 121.38 L 215 121.63 L 215.38 121.81 L 216.13 121.94 L 217.25 122 L 218.75 122 L 219.88 122.06 L 220.63 122.19 L 221 122.38 L 221 122.63 L 221.06 122.81 L 221.19 122.94 L 221.38 123 L 221.63 123 L 221.81 123.06 L 221.94 123.19 L 222 123.38 L 222 123.63 L 222.13 123.81 L 222.38 123.94 L 222.75 124 L 223.25 124 L 223.63 124.06 L 223.88 124.19 L 224 124.38 L 224 124.63 L 224.06 124.81 L 224.19 124.94 L 224.38 125 L 224.63 125 L 224.81 125.06 L 224.94 125.19 L 225 125.38 L 225 125.63 L 225.06 125.81 L 225.19 125.94 L 225.38 126 L 225.63 126 L 225.81 126.06 L 225.94 126.19 L 226 126.38 L 226 126.63 L 226.06 126.81 L 226.19 126.94 L 226.38 127 L 226.63 127 L 226.81 127.06 L 226.94 127.19 L 227 127.38 L 227 127.63 L 227.06 127.81 L 227.19 127.94 L 227.38 128 L 227.63 128 L 227.81 128.06 L 227.94 128.19 L 228 128.38 L 228 128.63 L 228.06 128.81 L 228.19 128.94 L 228.38 129 L 228.63 129 L 228.81 129.13 L 228.94 129.38 L 229 129.75 L 229 130.25 L 229.06 130.63 L 229.19 130.88 L 229.38 131 L 229.63 131 L 229.81 131.19 L 229.94 131.56 L 230 132.13 L 230 132.88 L 230.06 133.44 L 230.19 133.81 L 230.38 134 L 230.63 134 L 230.81 134.13 L 230.94 134.38 L 231 134.75 L 231 135.25 L 231.06 135.63 L 231.19 135.88 L 231.38 136 L 231.63 136 L 231.81 136.38 L 231.94 137.13 L 232 138.25 L 232 139.75 L 231.94 140.88 L 231.81 141.63 L 231.63 142 L 231.38 142 L 231.19 142.13 L 231.06 142.38 L 231 142.75 L 231 143.25 L 230.94 143.63 L 230.81 143.88 L 230.63 144 L 230.38 144 L 230.19 144.19 L 230.06 144.56 L 230 145.13 L 230 145.88 L 229.94 146.44 L 229.81 146.81 L 229.63 147 L 229.38 147 L 229.19 147.13 L 229.06 147.38 L 229 147.75 L 229 148.25 L 228.94 148.63 L 228.81 148.88 L 228.63 149 L 228.38 149 L 228.19 149.06 L 228.06 149.19 L 228 149.38 L 228 149.63 L 227.94 149.81 L 227.81 149.94 L 227.63 150 L 227.38 150 L 227.19 150.06 L 227.06 150.19 L 227 150.38 L 227 150.63 L 226.94 150.81 L 226.81 150.94 L 226.63 151 L 226.38 151 L 226.19 151.06 L 226.06 151.19 L 226 151.38 L 226 151.63 L 225.94 151.81 L 225.81 151.94 L 225.63 152 L 225.38 152 L 225.19 152.06 L 225.06 152.19 L 225 152.38 L 225 152.63 L 226.31 152.81 L 228.94 152.94 L 232.88 153 L 238.13 153 L 242.06 153.06 L 244.69 153.19 L 246 153.38 L 246 153.63 L 246.06 153.81 L 246.19 153.94 L 246.38 154 L 246.63 154 L 246.81 154.06 L 246.94 154.19 L 247 154.38 L 247 154.63 L 247.06 154.81 L 247.19 154.94 L 247.38 155 L 247.63 155 L 247.81 155.69 L 247.94 157.06 L 248 159.13 L 248 161.88 L 247.94 163.94 L 247.81 165.31 L 247.63 166 L 247.38 166 L 247.19 166.06 L 247.06 166.19 L 247 166.38 L 247 166.63 L 246.94 166.81 L 246.81 166.94 L 246.63 167 L 246.38 167 L 246.19 167.06 L 246.06 167.19 L 246 167.38 L 246 167.63 L 245.13 167.81 L 243.38 167.94 L 240.75 168 L 237.25 168 L 234.63 170.38 L 232.88 175.13 L 232 182.25 L 232 191.75 L 231.5 198.88 L 230.5 203.63 L 229 206 L 227 206 L 225.5 203.63 L 224.5 198.88 L 224 191.75 L 224 182.25 L 218.69 175.13 L 208.06 170.38 L 192.13 168 L 170.88 168 L 154.94 168.13 L 144.31 168.38 L 139 168.75 L 139 169.25 L 138.94 169.63 L 138.81 169.88 L 138.63 170 L 138.38 170 L 138.19 170.06 L 138.06 170.19 L 138 170.38 L 138 170.63 L 137.88 170.81 L 137.63 170.94 L 137.25 171 L 136.75 171 L 136.38 171.06 L 136.13 171.19 L 136 171.38 L 136 171.63 L 135.94 171.81 L 135.81 171.94 L 135.63 172 L 135.38 172 L 135.19 171.94 L 135.06 171.81 L 135 171.63 L 135 171.38 L 134.94 171.19 L 134.81 171.06 L 134.63 171 L 134.38 171 L 134.19 170.94 L 134.06 170.81 L 134 170.63 L 134 170.38 L 133.88 170.19 L 133.63 170.06 L 133.25 170 L 132.75 170 L 132.38 169.94 L 132.13 169.81 L 132 169.63 L 132 169.38 L 131.94 169.19 L 131.81 169.06 L 131.63 169 L 131.38 169 L 131.19 168.94 L 131.06 168.81 L 131 168.63 L 131 168.38 L 130 168.19 L 128 168.06 L 125 168 L 121 168 L 118 168.06 L 116 168.19 L 115 168.38 L 115 168.63 L 114.81 168.81 L 114.44 168.94 L 113.88 169 L 113.13 169 L 112.56 169.06 L 112.19 169.19 L 112 169.38 L 112 169.63 L 111.56 169.81 L 110.69 169.94 L 109.38 170 L 107.63 170 L 106.31 170.81 L 105.44 172.44 L 105 174.88 L 105 178.13 L 104.94 180.56 L 104.81 182.19 L 104.63 183 L 104.38 183 L 104.19 184.13 L 104.06 186.38 L 104 189.75 L 104 194.25 L 103.94 197.63 L 103.81 199.88 L 103.63 201 L 103.38 201 L 103.19 201.06 L 103.06 201.19 L 103 201.38 L 103 201.63 L 102.94 201.81 L 102.81 201.94 L 102.63 202 L 102.38 202 L 102.19 202.13 L 102.06 202.38 L 102 202.75 L 102 203.25 L 101.94 203.63 L 101.81 203.88 L 101.63 204 L 101.38 204 L 101.19 204.06 L 101.06 204.19 L 101 204.38 L 101 204.63 L 100.88 204.81 L 100.63 204.94 L 100.25 205 L 99.75 205 L 99.38 205.06 L 99.13 205.19 L 99 205.38 L 99 205.63 L 98.5 205.81 L 97.5 205.94 L 96 206 L 94 206 L 92.5 205.94 L 91.5 205.81 L 91 205.63 L 91 205.38 L 90.94 205.19 L 90.81 205.06 L 90.63 205 L 90.38 205 L 90.19 204.94 L 90.06 204.81 L 90 204.63 L 90 204.38 L 89.94 204.19 L 89.81 204.06 L 89.63 204 L 89.38 204 L 89.19 203.94 L 89.06 203.81 L 89 203.63 L 89 203.38 L 88.94 203.19 L 88.81 203.06 L 88.63 203 L 88.38 203 L 88.19 202.88 L 88.06 202.63 L 88 202.25 L 88 201.75 L 87.94 201.38 L 87.81 201.13 L 87.63 201 L 87.38 201 L 87.19 199.25 L 87.06 195.75 L 87 190.5 L 87 183.5 L 87.06 178.25 L 87.19 174.75 L 87.38 173 L 87.63 173 L 87.81 172.81 L 87.94 172.44 L 88 171.88 L 88 171.13 L 87.56 170.56 L 86.69 170.19 L 85.38 170 L 83.63 170 L 82.31 170.06 L 81.44 170.19 L 81 170.38 L 81 170.63 L 80.75 170.81 L 80.25 170.94 L 79.5 171 L 78.5 171 L 77.75 171.06 L 77.25 171.19 L 77 171.38 L 77 171.63 L 76.44 171.81 L 75.31 171.94 L 73.63 172 L 71.38 172 L 69.69 171.94 L 68.56 171.81 L 68 171.63 L 68 171.38 L 67.94 171.19 L 67.81 171.06 L 67.63 171 L 67.38 171 L 67.19 170.94 L 67.06 170.81 L 67 170.63 L 67 170.38 L 66.88 170.19 L 66.63 170.06 L 66.25 170 L 65.75 170 L 65.38 169.88 L 65.13 169.63 L 65 169.25 L 65 168.75 L 63.75 168.38 L 61.25 168.13 L 57.5 168 L 52.5 168 L 48.75 170.38 L 46.25 175.13 L 45 182.25 L 45 191.75 L 44.5 198.88 L 43.5 203.63 L 42 206 L 40 206 L 38.5 203.63 L 37.5 198.88 L 37 191.75 L 37 182.25 L 36.13 175.13 L 34.38 170.38 L 31.75 168 L 28.25 168 L 25.63 167.94 L 23.88 167.81 L 23 167.63 L 23 167.38 L 22.94 167.19 L 22.81 167.06 L 22.63 167 L 22.38 167 L 22.19 166.94 L 22.06 166.81 L 22 166.63 L 22 166.38 L 21.94 166.19 L 21.81 166.06 L 21.63 166 L 21.38 166 L 21.19 165.31 L 21.06 163.94 L 21 161.88 L 21 159.13 L 21.06 157.06 L 21.19 155.69 L 21.38 155 L 21.63 155 L 21.81 154.94 L 21.94 154.81 L 22 154.63 L 22 154.38 L 22.06 154.19 L 22.19 154.06 L 22.38 154 L 22.63 154 L 22.81 153.94 L 22.94 153.81 L 23 153.63 L 23 153.38 L 25.06 153.19 L 29.19 153.06 L 35.38 153 L 43.63 153 L 49.81 152.88 L 53.94 152.63 L 56 152.25 L 56 151.75 L 55.94 151.38 L 55.81 151.13 L 55.63 151 L 55.38 151 L 55.19 150.94 L 55.06 150.81 L 55 150.63 L 55 150.38 L 54.94 150.19 L 54.81 150.06 L 54.63 150 L 54.38 150 L 54.19 149.81 L 54.06 149.44 L 54 148.88 L 54 148.13 L 53.94 147.56 L 53.81 147.19 L 53.63 147 L 53.38 147 L 53.19 146.81 L 53.06 146.44 L 53 145.88 L 53 145.13 L 53.06 144.56 L 53.19 144.19 L 53.38 144 L 53.63 144 L 53.81 143.81 L 53.94 143.44 L 54 142.88 L 54 142.13 L 54.06 141.56 L 54.19 141.19 L 54.38 141 L 54.63 141 L 54.81 140.94 L 54.94 140.81 L 55 140.63 L 55 140.38 L 55.06 140.19 L 55.19 140.06 L 55.38 140 L 55.63 140 L 55.81 139.94 L 55.94 139.81 L 56 139.63 L 56 139.38 L 56.06 139.19 L 56.19 139.06 L 56.38 139 L 56.63 139 L 56.81 138.94 L 56.94 138.81 L 57 138.63 L 57 138.38 L 57.19 138.19 L 57.56 138.06 L 58.13 138 L 58.88 138 L 59.44 137.94 L 59.81 137.81 L 60 137.63 L 60 137.38 L 60.38 137.19 L 61.13 137.06 L 62.25 137 L 63.75 137 L 64.88 136.69 L 65.63 136.06 L 66 135.13 L 66 133.88 L 66.06 132.94 L 66.19 132.31 L 66.38 132 L 66.63 132 L 66.81 131.94 L 66.94 131.81 L 67 131.63 L 67 131.38 L 67.06 131.19 L 67.19 131.06 L 67.38 131 L 67.63 131 L 67.81 130.94 L 67.94 130.81 L 68 130.63 L 68 130.38 L 68.25 130.19 L 68.75 130.06 L 69.5 130 L 70.5 130 L 71.25 129.88 L 71.75 129.63 L 72 129.25 L 72 128.75 L 71.94 128.38 L 71.81 128.13 L 71.63 128 L 71.38 128 L 71.19 127.94 L 71.06 127.81 L 71 127.63 L 71 127.38 L 70.94 127.19 L 70.81 127.06 L 70.63 127 L 70.38 127 L 70.19 126.88 L 70.06 126.63 L 70 126.25 L 70 125.75 L 69.94 125.38 L 69.81 125.13 L 69.63 125 L 69.38 125 L 69.19 124.94 L 69.06 124.81 L 69 124.63 L 69 124.38 L 68.94 124.19 L 68.81 124.06 L 68.63 124 L 68.38 124 L 68.19 123.88 L 68.06 123.63 L 68 123.25 L 68 122.75 L 67.94 122.38 L 67.81 122.13 L 67.63 122 L 67.38 122 L 67.19 121.94 L 67.06 121.81 L 67 121.63 L 67 121.38 L 66.94 121.19 L 66.81 121.06 L 66.63 121 L 66.38 121 L 66.19 120.88 L 66.06 120.63 L 66 120.25 L 66 119.75 L 65.94 119.38 L 65.81 119.13 L 65.63 119 L 65.38 119 L 65.19 118.88 L 65.06 118.63 L 65 118.25 L 65 117.75 L 64.94 117.38 L 64.81 117.13 L 64.63 117 L 64.38 117 L 64.19 116.94 L 64.06 116.81 L 64 116.63 L 64 116.38 L 63.94 116.19 L 63.81 116.06 L 63.63 116 L 63.38 116 L 63.19 115.56 L 63.06 114.69 L 63 113.38 L 63 111.63 L 63.06 110.31 L 63.19 109.44 L 63.38 109 L 63.63 109 L 63.81 108.88 L 63.94 108.63 L 64 108.25 L 64 107.75 L 64.06 107.38 L 64.19 107.13 L 64.38 107 L 64.63 107 L 64.81 106.88 L 64.94 106.63 L 65 106.25 L 65 105.75 L 65.06 105.38 L 65.19 105.13 L 65.38 105 L 65.63 105 L 65.81 104.94 L 65.94 104.81 L 66 104.63 L 66 104.38 L 66.06 104.19 L 66.19 104.06 L 66.38 104 L 66.63 104 L 66.81 103.94 L 66.94 103.81 L 67 103.63 L 67 103.38 L 67.06 103.19 L 67.19 103.06 L 67.38 103 L 67.63 103 L 67.81 102.94 L 67.94 102.81 L 68 102.63 L 68 102.38 L 68.06 102.19 L 68.19 102.06 L 68.38 102 L 68.63 102 L 68.81 101.94 L 68.94 101.81 L 69 101.63 L 69 101.38 L 69.06 101.19 L 69.19 101.06 L 69.38 101 L 69.63 101 L 69.81 100.94 L 69.94 100.81 L 70 100.63 L 70 100.38 L 70.06 100.19 L 70.19 100.06 L 70.38 100 L 70.63 100 L 70.81 99.94 L 70.94 99.81 L 71 99.63 L 71 99.38 L 71.06 99.19 L 71.19 99.06 L 71.38 99 L 71.63 99 L 71.81 98.94 L 71.94 98.81 L 72 98.63 L 72 98.38 L 72.06 98.19 L 72.19 98.06 L 72.38 98 L 72.63 98 L 72.81 97.94 L 72.94 97.81 L 73 97.63 L 73 97.38 L 73.06 97.19 L 73.19 97.06 L 73.38 97 L 73.63 97 L 73.81 96.94 L 73.94 96.81 L 74 96.63 L 74 96.38 L 74.06 96.19 L 74.19 96.06 L 74.38 96 L 74.63 96 L 74.81 95.94 L 74.94 95.81 L 75 95.63 L 75 95.38 L 75.06 95.19 L 75.19 95.06 L 75.38 95 L 75.63 95 L 75.81 94.94 L 75.94 94.81 L 76 94.63 L 76 94.38 L 76.06 94.19 L 76.19 94.06 L 76.38 94 L 76.63 94 L 76.81 93.94 L 76.94 93.81 L 77 93.63 L 77 93.38 L 77.06 93.19 L 77.19 93.06 L 77.38 93 L 77.63 93 L 77.81 92.94 L 77.94 92.81 L 78 92.63 L 78 92.38 L 78.06 92.19 L 78.19 92.06 L 78.38 92 L 78.63 92 L 78.81 91.88 L 78.94 91.63 L 79 91.25 L 79 90.75 L 79.06 90.38 L 79.19 90.13 L 79.38 90 L 79.63 90 L 79.81 89.94 L 79.94 89.81 L 80 89.63 L 80 89.38 L 80.06 89.19 L 80.19 89.06 L 80.38 89 L 80.63 89 L 80.81 88.88 L 80.94 88.63 L 81 88.25 L 81 87.75 L 81.06 87.38 L 81.19 87.13 L 81.38 87 L 81.63 87 L 81.81 86.94 L 81.94 86.81 L 82 86.63 L 82 86.38 L 82.06 86.19 L 82.19 86.06 L 82.38 86 L 82.63 86 L 82.81 85.88 L 82.94 85.63 L 83 85.25 L 83 84.75 L 83.06 84.38 L 83.19 84.13 L 83.38 84 L 83.63 84 L 83.81 83.88 L 83.94 83.63 L 84 83.25 L 84 82.75 L 84.06 82.38 L 84.19 82.13 L 84.38 82 L 84.63 82 L 84.81 81.75 L 84.94 81.25 L 85 80.5 L 85 79.5 L 85.06 78.75 L 85.19 78.25 L 85.38 78 L 85.63 78 L 85.81 77.88 L 85.94 77.63 L 86 77.25 L 86 76.75 L 86.06 76.38 L 86.19 76.13 L 86.38 76 L 86.63 76 L 86.81 75.69 L 86.94 75.06 L 87 74.13 L 87 72.88 L 87.06 71.94 L 87.19 71.31 L 87.38 71 L 87.63 71 L 87.81 70.88 L 87.94 70.63 L 88 70.25 L 88 69.75 L 88.06 69.38 L 88.19 69.13 L 88.38 69 L 88.63 69 L 88.81 68.88 L 88.94 68.63 L 89 68.25 L 89 67.75 L 89.06 67.38 L 89.19 67.13 L 89.38 67 L 89.63 67 L 89.81 66.88 L 89.94 66.63 L 90 66.25 L 90 65.75 L 90.13 65.38 L 90.38 65.13 L 90.75 65 L 91.25 65 L 91.63 64.88 L 91.88 64.63 L 92 64.25 L 92 63.75 L 92.13 63.38 L 92.38 63.13 L 92.75 63 L 93.25 63 L 93.63 62.94 L 93.88 62.81 L 94 62.63 L 94 62.38 L 94.06 62.19 L 94.19 62.06 L 94.38 62 L 94.63 62 L 94.81 61.94 L 94.94 61.81 L 95 61.63 L 95 61.38 L 95.06 61.19 L 95.19 61.06 L 95.38 61 L 95.63 61 L 95.81 60.94 L 95.94 60.81 L 96 60.63 L 96 60.38 L 96.13 60.19 L 96.38 60.06 L 96.75 60 L 97.25 60 L 97.63 59.94 L 97.88 59.81 L 98 59.63 L 98 59.38 L 98.5 59.19 L 99.5 59.06 L 101 59 L 103 59 L 104.5 59.06 L 105.5 59.19 L 106 59.38 L 106 59.63 L 106.06 59.81 L 106.19 59.94 L 106.38 60 L 106.63 60 L 106.81 60.06 L 106.94 60.19 L 107 60.38 L 107 60.63 L 107.06 60.81 L 107.19 60.94 L 107.38 61 L 107.63 61 L 107.81 60.94 L 107.94 60.81 L 108 60.63 L 108 60.38 L 107.94 60.19 L 107.81 60.06 L 107.63 60 L 107.38 60 L 107.19 59.88 L 107.06 59.63 L 107 59.25 L 107 58.75 L 106.94 58.38 L 106.81 58.13 L 106.63 58 L 106.38 58 L 106.19 57.88 L 106.06 57.63 L 106 57.25 L 106 56.75 L 105.94 56.38 L 105.81 56.13 L 105.63 56 L 105.38 56 L 105.19 55.31 L 105.06 53.94 L 105 51.88 L 105 49.13 L 104.94 47.06 L 104.81 45.69 L 104.63 45 L 104.38 45 L 104.19 45.06 L 104.06 45.19 L 104 45.38 L 104 45.63 L 103.81 45.81 L 103.44 45.94 L 102.88 46 L 102.13 46 L 101.56 45.94 L 101.19 45.81 L 101 45.63 L 101 45.38 L 100.94 45.19 L 100.81 45.06 L 100.63 45 L 100.38 45 L 100.19 44.94 L 100.06 44.81 L 100 44.63 L 100 44.38 L 99.94 44.19 L 99.81 44.06 L 99.63 44 L 99.38 44 L 99.19 43.94 L 99.06 43.81 L 99 43.63 L 99 43.38 L 98.94 43.19 L 98.81 43.06 L 98.63 43 L 98.38 43 L 98.19 42.56 L 98.06 41.69 L 98 40.38 L 98 38.63 L 98.06 37.31 L 98.19 36.44 L 98.38 36 L 98.63 36 L 98.81 35.88 L 98.94 35.63 L 99 35.25 L 99 34.75 L 99.06 34.38 L 99.19 34.13 L 99.38 34 L 99.63 34 L 99.81 33.94 L 99.94 33.81 L 100 33.63 L 100 33.38 L 100.06 33.19 L 100.19 33.06 L 100.38 33 L 100.63 33 L 100.81 32.94 L 100.94 32.81 L 101 32.63 L 101 32.38 L 101.06 32.19 L 101.19 32.06 L 101.38 32 L 101.63 32 L 101.81 31.94 L 101.94 31.81 L 102 31.63 L 102 31.38 L 102.06 31.19 L 102.19 31.06 L 102.38 31 L 102.63 31 L 102.81 30.94 L 102.94 30.81 L 103 30.63 L 103 30.38 L 103.06 30.19 L 103.19 30.06 L 103.38 30 L 103.63 30 L 103.81 29.94 L 103.94 29.81 L 104 29.63 L 104 29.38 L 104.06 29.19 L 104.19 29.06 L 104.38 29 L 104.63 29 L 104.81 28.94 L 104.94 28.81 L 105 28.63 L 105 28.38 L 105.13 28.19 L 105.38 28.06 L 105.75 28 L 106.25 28 L 106.63 27.94 L 106.88 27.81 L 107 27.63 L 107 27.38 L 107.06 27.19 L 107.19 27.06 L 107.38 27 L 107.63 27 L 107.81 26.94 L 107.94 26.81 L 108 26.63 L 108 26.38 L 108.44 26.19 L 109.31 26.06 Z M 139 78.38 L 139 78.63 L 139.19 78.81 L 139.56 78.94 L 140.13 79 L 140.88 79 L 141.44 79.06 L 141.81 79.19 L 142 79.38 L 142 79.63 L 142.5 79.81 L 143.5 79.94 L 145 80 L 147 80 L 148.5 79.94 L 149.5 79.81 L 150 79.63 L 150 79.38 L 150.06 79.19 L 150.19 79.06 L 150.38 79 L 150.63 79 L 150.81 78.94 L 150.94 78.81 L 151 78.63 L 151 78.38 L 150.25 78.19 L 148.75 78.06 L 146.5 78 L 143.5 78 L 141.25 78.06 L 139.75 78.19 Z M 158 78.38 L 158 78.63 L 158.25 78.81 L 158.75 78.94 L 159.5 79 L 160.5 79 L 161.25 78.94 L 161.75 78.81 L 162 78.63 L 162 78.38 L 161.75 78.19 L 161.25 78.06 L 160.5 78 L 159.5 78 L 158.75 78.06 L 158.25 78.19 Z M 118 128.38 L 118 128.63 L 117.88 128.81 L 117.63 128.94 L 117.25 129 L 116.75 129 L 116.38 129.06 L 116.13 129.19 L 116 129.38 L 116 129.63 L 115.94 129.81 L 115.81 129.94 L 115.63 130 L 115.38 130 L 115.19 130.06 L 115.06 130.19 L 115 130.38 L 115 130.63 L 114.94 130.81 L 114.81 130.94 L 114.63 131 L 114.38 131 L 114.19 131.06 L 114.06 131.19 L 114 131.38 L 114 131.63 L 113.94 131.81 L 113.81 131.94 L 113.63 132 L 113.38 132 L 113.19 132.06 L 113.06 132.19 L 113 132.38 L 113 132.63 L 110.38 132.81 L 105.13 132.94 L 97.25 133 L 86.75 133 L 78.88 133.06 L 73.63 133.19 L 71 133.38 L 71 133.63 L 70.94 133.81 L 70.81 133.94 L 70.63 134 L 70.38 134 L 70.19 134.19 L 70.06 134.56 L 70 135.13 L 70 135.88 L 69.94 136.44 L 69.81 136.81 L 69.63 137 L 69.38 137 L 69.19 137.63 L 69.06 138.88 L 69 140.75 L 69 143.25 L 68.94 145.13 L 68.81 146.38 L 68.63 147 L 68.38 147 L 68.19 147.38 L 68.06 148.13 L 68 149.25 L 68 150.75 L 67.94 151.88 L 67.81 152.63 L 67.63 153 L 67.38 153 L 67.19 153.81 L 67.06 155.44 L 67 157.88 L 67 161.13 L 67.06 163.56 L 67.19 165.19 L 67.38 166 L 67.63 166 L 67.81 166.06 L 67.94 166.19 L 68 166.38 L 68 166.63 L 68.06 166.81 L 68.19 166.94 L 68.38 167 L 68.63 167 L 68.81 167.06 L 68.94 167.19 L 69 167.38 L 69 167.63 L 69.5 167.81 L 70.5 167.94 L 72 168 L 74 168 L 75.5 167.94 L 76.5 167.81 L 77 167.63 L 77 167.38 L 77.38 167.19 L 78.13 167.06 L 79.25 167 L 80.75 167 L 81.88 166.94 L 82.63 166.81 L 83 166.63 L 83 166.38 L 83.56 166.19 L 84.69 166.06 L 86.38 166 L 88.63 166 L 90.31 165.94 L 91.44 165.81 L 92 165.63 L 92 165.38 L 92.19 165.19 L 92.56 165.06 L 93.13 165 L 93.88 165 L 94.44 165.06 L 94.81 165.19 L 95 165.38 L 95 165.63 L 95.31 165.81 L 95.94 165.94 L 96.88 166 L 98.13 166 L 99.06 166.06 L 99.69 166.19 L 100 166.38 L 100 166.63 L 100.38 166.81 L 101.13 166.94 L 102.25 167 L 103.75 167 L 104.88 166.94 L 105.63 166.81 L 106 166.63 L 106 166.38 L 106.44 166.19 L 107.31 166.06 L 108.63 166 L 110.38 166 L 111.69 165.94 L 112.56 165.81 L 113 165.63 L 113 165.38 L 113.25 165.19 L 113.75 165.06 L 114.5 165 L 115.5 165 L 116.25 164.94 L 116.75 164.81 L 117 164.63 L 117 164.38 L 117.88 164.19 L 119.63 164.06 L 122.25 164 L 125.75 164 L 128.38 164.06 L 130.13 164.19 L 131 164.38 L 131 164.63 L 131.13 164.81 L 131.38 164.94 L 131.75 165 L 132.25 165 L 132.63 165.06 L 132.88 165.19 L 133 165.38 L 133 165.63 L 133.06 165.81 L 133.19 165.94 L 133.38 166 L 133.63 166 L 133.81 166.06 L 133.94 166.19 L 134 166.38 L 134 166.63 L 134.13 166.81 L 134.38 166.94 L 134.75 167 L 135.25 167 L 135.63 166.88 L 135.88 166.63 L 136 166.25 L 136 165.75 L 136.06 165.38 L 136.19 165.13 L 136.38 165 L 136.63 165 L 136.81 164.5 L 136.94 163.5 L 137 162 L 137 160 L 137.06 158.5 L 137.19 157.5 L 137.38 157 L 137.63 157 L 137.81 156.94 L 137.94 156.81 L 138 156.63 L 138 156.38 L 137.94 156.19 L 137.81 156.06 L 137.63 156 L 137.38 156 L 137.19 155.44 L 137.06 154.31 L 137 152.63 L 137 150.38 L 136.94 148.69 L 136.81 147.56 L 136.63 147 L 136.38 147 L 136.19 146.56 L 136.06 145.69 L 136 144.38 L 136 142.63 L 135.94 141.31 L 135.81 140.44 L 135.63 140 L 135.38 140 L 135.19 139.81 L 135.06 139.44 L 135 138.88 L 135 138.13 L 134.94 137.56 L 134.81 137.19 L 134.63 137 L 134.38 137 L 134.19 136.81 L 134.06 136.44 L 134 135.88 L 134 135.13 L 133.94 134.56 L 133.81 134.19 L 133.63 134 L 133.38 134 L 133.19 133.88 L 133.06 133.63 L 133 133.25 L 133 132.75 L 132.94 132.38 L 132.81 132.13 L 132.63 132 L 132.38 132 L 132.19 131.88 L 132.06 131.63 L 132 131.25 L 132 130.75 L 131.94 130.38 L 131.81 130.13 L 131.63 130 L 131.38 130 L 131.19 129.94 L 131.06 129.81 L 131 129.63 L 131 129.38 L 130.94 129.19 L 130.81 129.06 L 130.63 129 L 130.38 129 L 130.19 128.94 L 130.06 128.81 L 130 128.63 L 130 128.38 L 129.25 128.19 L 127.75 128.06 L 125.5 128 L 122.5 128 L 120.25 128.06 L 118.75 128.19 Z M 190.63 140 L 190.38 140 L 190.19 140.19 L 190.06 140.56 L 190 141.13 L 190 141.88 L 190.06 142.44 L 190.19 142.81 L 190.38 143 L 190.63 143 L 190.81 142.81 L 190.94 142.44 L 191 141.88 L 191 141.13 L 190.94 140.56 L 190.81 140.19 Z M 188.63 147 L 188.38 147 L 188.19 147.19 L 188.06 147.56 L 188 148.13 L 188 148.88 L 188.06 149.44 L 188.19 149.81 L 188.38 150 L 188.63 150 L 188.81 149.81 L 188.94 149.44 L 189 148.88 L 189 148.13 L 188.94 147.56 L 188.81 147.19 Z M 199.63 150 L 199.38 150 L 199.19 150.25 L 199.06 150.75 L 199 151.5 L 199 152.5 L 199.06 153.25 L 199.19 153.75 L 199.38 154 L 199.63 154 L 199.81 153.94 L 199.94 153.81 L 200 153.63 L 200 153.38 L 200.13 153.19 L 200.38 153.06 L 200.75 153 L 201.25 153 L 201.63 152.94 L 201.88 152.81 L 202 152.63 L 202 152.38 L 201.94 152.19 L 201.81 152.06 L 201.63 152 L 201.38 152 L 201.19 151.94 L 201.06 151.81 L 201 151.63 L 201 151.38 L 200.94 151.19 L 200.81 151.06 L 200.63 151 L 200.38 151 L 200.19 150.94 L 200.06 150.81 L 200 150.63 L 200 150.38 L 199.94 150.19 L 199.81 150.06 Z M 177 160.13 L 177 160.88 L 177.06 161.44 L 177.19 161.81 L 177.38 162 L 177.63 162 L 177.81 161.88 L 177.94 161.63 L 178 161.25 L 178 160.75 L 178.06 160.38 L 178.19 160.13 L 178.38 160 L 178.63 160 L 178.81 159.94 L 178.94 159.81 L 179 159.63 L 179 159.38 L 178.88 159.19 L 178.63 159.06 L 178.25 159 L 177.75 159 L 177.38 159.19 L 177.13 159.56 Z" fill="#FFE998" fill-rule="evenodd"/>
</svg>
