<?xml version="1.0" encoding="UTF-8"?>
<svg viewBox="0 0 256 256" xmlns="http://www.w3.org/2000/svg" fill="none">
  <path d="M 189.75 32 L 190.25 32 L 190.63 32.06 L 190.88 32.19 L 191 32.38 L 191 32.63 L 191.06 32.81 L 191.19 32.94 L 191.38 33 L 191.63 33 L 191.81 33.13 L 191.94 33.38 L 192 33.75 L 192 34.25 L 192.06 34.63 L 192.19 34.88 L 192.38 35 L 192.63 35 L 192.81 35.38 L 192.94 36.13 L 193 37.25 L 193 38.75 L 193.06 39.88 L 193.19 40.63 L 193.38 41 L 193.63 41 L 193.81 41.13 L 193.94 41.38 L 194 41.75 L 194 42.25 L 194.06 42.63 L 194.19 42.88 L 194.38 43 L 194.63 43 L 194.81 43.06 L 194.94 43.19 L 195 43.38 L 195 43.63 L 195.13 43.81 L 195.38 43.94 L 195.75 44 L 196.25 44 L 196.63 44.06 L 196.88 44.19 L 197 44.38 L 197 44.63 L 197.13 44.81 L 197.38 44.94 L 197.75 45 L 198.25 45 L 198.63 45.06 L 198.88 45.19 L 199 45.38 L 199 45.63 L 199.25 45.81 L 199.75 45.94 L 200.5 46 L 201.5 46 L 202.25 46.06 L 202.75 46.19 L 203 46.38 L 203 46.63 L 203.06 46.81 L 203.19 46.94 L 203.38 47 L 203.63 47 L 203.81 47.19 L 203.94 47.56 L 204 48.13 L 204 48.88 L 203.94 49.44 L 203.81 49.81 L 203.63 50 L 203.38 50 L 203.19 50.06 L 203.06 50.19 L 203 50.38 L 203 50.63 L 202.94 50.81 L 202.81 50.94 L 202.63 51 L 202.38 51 L 202.19 51.06 L 202.06 51.19 L 202 51.38 L 202 51.63 L 201.69 51.81 L 201.06 51.94 L 200.13 52 L 198.88 52 L 197.94 52.06 L 197.31 52.19 L 197 52.38 L 197 52.63 L 196.94 52.81 L 196.81 52.94 L 196.63 53 L 196.38 53 L 196.19 53.06 L 196.06 53.19 L 196 53.38 L 196 53.63 L 195.94 53.81 L 195.81 53.94 L 195.63 54 L 195.38 54 L 195.19 54.06 L 195.06 54.19 L 195 54.38 L 195 54.63 L 194.94 54.81 L 194.81 54.94 L 194.63 55 L 194.38 55 L 194.19 55.13 L 194.06 55.38 L 194 55.75 L 194 56.25 L 193.94 56.63 L 193.81 56.88 L 193.63 57 L 193.38 57 L 193.19 57.38 L 193.06 58.13 L 193 59.25 L 193 60.75 L 192.94 61.88 L 192.81 62.63 L 192.63 63 L 192.38 63 L 192.19 63.06 L 192.06 63.19 L 192 63.38 L 192 63.63 L 191.94 63.81 L 191.81 63.94 L 191.63 64 L 191.38 64 L 191.19 64.06 L 191.06 64.19 L 191 64.38 L 191 64.63 L 190.81 64.81 L 190.44 64.94 L 189.88 65 L 189.13 65 L 188.56 64.94 L 188.19 64.81 L 188 64.63 L 188 64.38 L 187.94 64.19 L 187.81 64.06 L 187.63 64 L 187.38 64 L 187.19 63.94 L 187.06 63.81 L 187 63.63 L 187 63.38 L 186.94 63.19 L 186.81 63.06 L 186.63 63 L 186.38 63 L 186.19 62.81 L 186.06 62.44 L 186 61.88 L 186 61.13 L 185.94 60.56 L 185.81 60.19 L 185.63 60 L 185.38 60 L 185.19 59.69 L 185.06 59.06 L 185 58.13 L 185 56.88 L 184.94 55.94 L 184.81 55.31 L 184.63 55 L 184.38 55 L 184.19 54.94 L 184.06 54.81 L 184 54.63 L 184 54.38 L 183.88 54.19 L 183.63 54.06 L 183.25 54 L 182.75 54 L 182.38 53.94 L 182.13 53.81 L 182 53.63 L 182 53.38 L 181.88 53.19 L 181.63 53.06 L 181.25 53 L 180.75 53 L 180.38 52.94 L 180.13 52.81 L 180 52.63 L 180 52.38 L 179.81 52.19 L 179.44 52.06 L 178.88 52 L 178.13 52 L 177.56 51.94 L 177.19 51.81 L 177 51.63 L 177 51.38 L 176.94 51.19 L 176.81 51.06 L 176.63 51 L 176.38 51 L 176.19 50.94 L 176.06 50.81 L 176 50.63 L 176 50.38 L 175.94 50.19 L 175.81 50.06 L 175.63 50 L 175.38 50 L 175.19 49.88 L 175.06 49.63 L 175 49.25 L 175 48.75 L 175.06 48.38 L 175.19 48.13 L 175.38 48 L 175.63 48 L 175.81 47.88 L 175.94 47.63 L 176 47.25 L 176 46.75 L 176.25 46.38 L 176.75 46.13 L 177.5 46 L 178.5 46 L 179.25 45.94 L 179.75 45.81 L 180 45.63 L 180 45.38 L 180.13 45.19 L 180.38 45.06 L 180.75 45 L 181.25 45 L 181.63 44.94 L 181.88 44.81 L 182 44.63 L 182 44.38 L 182.13 44.19 L 182.38 44.06 L 182.75 44 L 183.25 44 L 183.63 43.88 L 183.88 43.63 L 184 43.25 L 184 42.75 L 184.06 42.38 L 184.19 42.13 L 184.38 42 L 184.63 42 L 184.81 41.81 L 184.94 41.44 L 185 40.88 L 185 40.13 L 185.06 39.56 L 185.19 39.19 L 185.38 39 L 185.63 39 L 185.81 38.81 L 185.94 38.44 L 186 37.88 L 186 37.13 L 186.06 36.56 L 186.19 36.19 L 186.38 36 L 186.63 36 L 186.81 35.88 L 186.94 35.63 L 187 35.25 L 187 34.75 L 187.06 34.38 L 187.19 34.13 L 187.38 34 L 187.63 34 L 187.81 33.94 L 187.94 33.81 L 188 33.63 L 188 33.38 L 188.06 33.19 L 188.19 33.06 L 188.38 33 L 188.63 33 L 188.81 32.94 L 188.94 32.81 L 189 32.63 L 189 32.38 L 189.13 32.19 L 189.38 32.06 Z M 172.13 37 L 172.88 37 L 173.44 37.06 L 173.81 37.19 L 174 37.38 L 174 37.63 L 174.06 37.81 L 174.19 37.94 L 174.38 38 L 174.63 38 L 174.81 38.13 L 174.94 38.38 L 175 38.75 L 175 39.25 L 175.13 39.63 L 175.38 39.88 L 175.75 40 L 176.25 40 L 176.63 40.06 L 176.88 40.19 L 177 40.38 L 177 40.63 L 177.06 40.81 L 177.19 40.94 L 177.38 41 L 177.63 41 L 177.81 41.06 L 177.94 41.19 L 178 41.38 L 178 41.63 L 178.06 41.81 L 178.19 41.94 L 178.38 42 L 178.63 42 L 178.81 42.13 L 178.94 42.38 L 179 42.75 L 179 43.25 L 178.88 43.63 L 178.63 43.88 L 178.25 44 L 177.75 44 L 177.38 44.06 L 177.13 44.19 L 177 44.38 L 177 44.63 L 176.88 44.81 L 176.63 44.94 L 176.25 45 L 175.75 45 L 175.38 45.19 L 175.13 45.56 L 175 46.13 L 175 46.88 L 174.75 47.44 L 174.25 47.81 L 173.5 48 L 172.5 48 L 171.75 47.88 L 171.25 47.63 L 171 47.25 L 171 46.75 L 170.94 46.38 L 170.81 46.13 L 170.63 46 L 170.38 46 L 170.19 45.94 L 170.06 45.81 L 170 45.63 L 170 45.38 L 169.94 45.19 L 169.81 45.06 L 169.63 45 L 169.38 45 L 169.19 44.94 L 169.06 44.81 L 169 44.63 L 169 44.38 L 168.88 44.19 L 168.63 44.06 L 168.25 44 L 167.75 44 L 167.38 43.81 L 167.13 43.44 L 167 42.88 L 167 42.13 L 167.06 41.56 L 167.19 41.19 L 167.38 41 L 167.63 41 L 167.81 40.94 L 167.94 40.81 L 168 40.63 L 168 40.38 L 168.13 40.19 L 168.38 40.06 L 168.75 40 L 169.25 40 L 169.63 39.94 L 169.88 39.81 L 170 39.63 L 170 39.38 L 170.06 39.19 L 170.19 39.06 L 170.38 39 L 170.63 39 L 170.81 38.88 L 170.94 38.63 L 171 38.25 L 171 37.75 L 171.19 37.38 L 171.56 37.13 Z M 130.63 38 L 134.38 38 L 137.19 38.06 L 139.06 38.19 L 140 38.38 L 140 38.63 L 140.31 38.81 L 140.94 38.94 L 141.88 39 L 143.13 39 L 144.06 39.06 L 144.69 39.19 L 145 39.38 L 145 39.63 L 145.31 39.81 L 145.94 39.94 L 146.88 40 L 148.13 40 L 149.06 40.06 L 149.69 40.19 L 150 40.38 L 150 40.63 L 150.13 40.81 L 150.38 40.94 L 150.75 41 L 151.25 41 L 151.63 41.06 L 151.88 41.19 L 152 41.38 L 152 41.63 L 152.25 41.81 L 152.75 41.94 L 153.5 42 L 154.5 42 L 155.25 42.06 L 155.75 42.19 L 156 42.38 L 156 42.63 L 156.06 42.81 L 156.19 42.94 L 156.38 43 L 156.63 43 L 156.81 43.06 L 156.94 43.19 L 157 43.38 L 157 43.63 L 157.19 43.81 L 157.56 43.94 L 158.13 44 L 158.88 44 L 159.44 44.06 L 159.81 44.19 L 160 44.38 L 160 44.63 L 160.06 44.81 L 160.19 44.94 L 160.38 45 L 160.63 45 L 160.81 45.06 L 160.94 45.19 L 161 45.38 L 161 45.63 L 161.13 45.81 L 161.38 45.94 L 161.75 46 L 162.25 46 L 162.63 46.06 L 162.88 46.19 L 163 46.38 L 163 46.63 L 163.06 46.81 L 163.19 46.94 L 163.38 47 L 163.63 47 L 163.81 47.06 L 163.94 47.19 L 164 47.38 L 164 47.63 L 164.13 47.81 L 164.38 47.94 L 164.75 48 L 165.25 48 L 165.63 48.06 L 165.88 48.19 L 166 48.38 L 166 48.63 L 166.06 48.81 L 166.19 48.94 L 166.38 49 L 166.63 49 L 166.81 49.06 L 166.94 49.19 L 167 49.38 L 167 49.63 L 167.13 49.81 L 167.38 49.94 L 167.75 50 L 168.25 50 L 168.63 50.13 L 168.88 50.38 L 169 50.75 L 169 51.25 L 169.13 51.63 L 169.38 51.88 L 169.75 52 L 170.25 52 L 170.63 52.13 L 170.88 52.38 L 171 52.75 L 171 53.25 L 171.38 53.63 L 172.13 53.88 L 173.25 54 L 174.75 54 L 175.88 54.19 L 176.63 54.56 L 177 55.13 L 177 55.88 L 177.06 56.44 L 177.19 56.81 L 177.38 57 L 177.63 57 L 177.81 57.19 L 177.94 57.56 L 178 58.13 L 178 58.88 L 178.06 59.44 L 178.19 59.81 L 178.38 60 L 178.63 60 L 178.81 60.06 L 178.94 60.19 L 179 60.38 L 179 60.63 L 179.06 60.81 L 179.19 60.94 L 179.38 61 L 179.63 61 L 179.81 61.06 L 179.94 61.19 L 180 61.38 L 180 61.63 L 180.25 61.81 L 180.75 61.94 L 181.5 62 L 182.5 62 L 183.25 62.06 L 183.75 62.19 L 184 62.38 L 184 62.63 L 184.06 62.81 L 184.19 62.94 L 184.38 63 L 184.63 63 L 184.81 63.19 L 184.94 63.56 L 185 64.13 L 185 64.88 L 184.94 65.44 L 184.81 65.81 L 184.63 66 L 184.38 66 L 184.19 66.06 L 184.06 66.19 L 184 66.38 L 184 66.63 L 183.88 66.81 L 183.63 66.94 L 183.25 67 L 182.75 67 L 182.38 67.13 L 182.13 67.38 L 182 67.75 L 182 68.25 L 182.06 68.63 L 182.19 68.88 L 182.38 69 L 182.63 69 L 182.81 69.25 L 182.94 69.75 L 183 70.5 L 183 71.5 L 183.06 72.25 L 183.19 72.75 L 183.38 73 L 183.63 73 L 183.81 73.13 L 183.94 73.38 L 184 73.75 L 184 74.25 L 184.06 74.63 L 184.19 74.88 L 184.38 75 L 184.63 75 L 184.81 75.25 L 184.94 75.75 L 185 76.5 L 185 77.5 L 185.06 78.25 L 185.19 78.75 L 185.38 79 L 185.63 79 L 185.81 79.19 L 185.94 79.56 L 186 80.13 L 186 80.88 L 186.06 81.44 L 186.19 81.81 L 186.38 82 L 186.63 82 L 186.81 82.5 L 186.94 83.5 L 187 85 L 187 87 L 187.06 88.5 L 187.19 89.5 L 187.38 90 L 187.63 90 L 187.81 90.44 L 187.94 91.31 L 188 92.63 L 188 94.38 L 188.06 95.69 L 188.19 96.56 L 188.38 97 L 188.63 97 L 188.81 97.88 L 188.94 99.63 L 189 102.25 L 189 105.75 L 188.94 108.38 L 188.81 110.13 L 188.63 111 L 188.38 111 L 188.19 111.38 L 188.06 112.13 L 188 113.25 L 188 114.75 L 187.94 115.88 L 187.81 116.63 L 187.63 117 L 187.38 117 L 187.19 117.5 L 187.06 118.5 L 187 120 L 187 122 L 186.94 123.5 L 186.81 124.5 L 186.63 125 L 186.38 125 L 186.19 125.13 L 186.06 125.38 L 186 125.75 L 186 126.25 L 185.94 126.63 L 185.81 126.88 L 185.63 127 L 185.38 127 L 185.19 127.31 L 185.06 127.94 L 185 128.88 L 185 130.13 L 184.94 131.06 L 184.81 131.69 L 184.63 132 L 184.38 132 L 184.19 132.13 L 184.06 132.38 L 184 132.75 L 184 133.25 L 183.94 133.63 L 183.81 133.88 L 183.63 134 L 183.38 134 L 183.19 134.25 L 183.06 134.75 L 183 135.5 L 183 136.5 L 182.94 137.25 L 182.81 137.75 L 182.63 138 L 182.38 138 L 182.19 138.06 L 182.06 138.19 L 182 138.38 L 182 138.63 L 181.94 138.81 L 181.81 138.94 L 181.63 139 L 181.38 139 L 181.19 139.19 L 181.06 139.56 L 181 140.13 L 181 140.88 L 180.94 141.44 L 180.81 141.81 L 180.63 142 L 180.38 142 L 180.19 142.13 L 180.06 142.38 L 180 142.75 L 180 143.25 L 179.94 143.63 L 179.81 143.88 L 179.63 144 L 179.38 144 L 179.19 144.13 L 179.06 144.38 L 179 144.75 L 179 145.25 L 178.94 145.63 L 178.81 145.88 L 178.63 146 L 178.38 146 L 178.19 146.06 L 178.06 146.19 L 178 146.38 L 178 146.63 L 177.94 146.81 L 177.81 146.94 L 177.63 147 L 177.38 147 L 177.19 147.19 L 177.06 147.56 L 177 148.13 L 177 148.88 L 176.94 149.44 L 176.81 149.81 L 176.63 150 L 176.38 150 L 176.19 150.06 L 176.06 150.19 L 176 150.38 L 176 150.63 L 175.94 150.81 L 175.81 150.94 L 175.63 151 L 175.38 151 L 175.19 151.13 L 175.06 151.38 L 175 151.75 L 175 152.25 L 174.94 152.63 L 174.81 152.88 L 174.63 153 L 174.38 153 L 174.19 153.06 L 174.06 153.19 L 174 153.38 L 174 153.63 L 173.94 153.81 L 173.81 153.94 L 173.63 154 L 173.38 154 L 173.19 154.13 L 173.06 154.38 L 173 154.75 L 173 155.25 L 172.94 155.63 L 172.81 155.88 L 172.63 156 L 172.38 156 L 172.19 156.06 L 172.06 156.19 L 172 156.38 L 172 156.63 L 171.94 156.81 L 171.81 156.94 L 171.63 157 L 171.38 157 L 171.19 157.13 L 171.06 157.38 L 171 157.75 L 171 158.25 L 170.94 158.63 L 170.81 158.88 L 170.63 159 L 170.38 159 L 170.19 159.06 L 170.06 159.19 L 170 159.38 L 170 159.63 L 169.94 159.81 L 169.81 159.94 L 169.63 160 L 169.38 160 L 169.19 160.13 L 169.06 160.38 L 169 160.75 L 169 161.25 L 168.94 161.63 L 168.81 161.88 L 168.63 162 L 168.38 162 L 168.19 162.06 L 168.06 162.19 L 168 162.38 L 168 162.63 L 167.94 162.81 L 167.81 162.94 L 167.63 163 L 167.38 163 L 167.19 163.06 L 167.06 163.19 L 167 163.38 L 167 163.63 L 166.94 163.81 L 166.81 163.94 L 166.63 164 L 166.38 164 L 166.19 164.06 L 166.06 164.19 L 166 164.38 L 166 164.63 L 165.94 164.81 L 165.81 164.94 L 165.63 165 L 165.38 165 L 165.19 165.13 L 165.06 165.38 L 165 165.75 L 165 166.25 L 164.94 166.63 L 164.81 166.88 L 164.63 167 L 164.38 167 L 164.19 167.06 L 164.06 167.19 L 164 167.38 L 164 167.63 L 163.94 167.81 L 163.81 167.94 L 163.63 168 L 163.38 168 L 163.19 168.06 L 163.06 168.19 L 163 168.38 L 163 168.63 L 162.94 168.81 L 162.81 168.94 L 162.63 169 L 162.38 169 L 162.19 169.06 L 162.06 169.19 L 162 169.38 L 162 169.63 L 161.94 169.81 L 161.81 169.94 L 161.63 170 L 161.38 170 L 161.19 170.13 L 161.06 170.38 L 161 170.75 L 161 171.25 L 160.94 171.63 L 160.81 171.88 L 160.63 172 L 160.38 172 L 160.19 172.06 L 160.06 172.19 L 160 172.38 L 160 172.63 L 159.94 172.81 L 159.81 172.94 L 159.63 173 L 159.38 173 L 159.19 173.13 L 159.06 173.38 L 159 173.75 L 159 174.25 L 158.88 174.63 L 158.63 174.88 L 158.25 175 L 157.75 175 L 157.38 175.13 L 157.13 175.38 L 157 175.75 L 157 176.25 L 156.94 176.63 L 156.81 176.88 L 156.63 177 L 156.38 177 L 156.19 177.06 L 156.06 177.19 L 156 177.38 L 156 177.63 L 155.94 177.81 L 155.81 177.94 L 155.63 178 L 155.38 178 L 155.19 178.06 L 155.06 178.19 L 155 178.38 L 155 178.63 L 154.94 178.81 L 154.81 178.94 L 154.63 179 L 154.38 179 L 154.19 179.06 L 154.06 179.19 L 154 179.38 L 154 179.63 L 153.94 179.81 L 153.81 179.94 L 153.63 180 L 153.38 180 L 153.19 180.06 L 153.06 180.19 L 153 180.38 L 153 180.63 L 152.94 180.81 L 152.81 180.94 L 152.63 181 L 152.38 181 L 152.19 181.13 L 152.06 181.38 L 152 181.75 L 152 182.25 L 151.94 182.63 L 151.81 182.88 L 151.63 183 L 151.38 183 L 151.19 183.06 L 151.06 183.19 L 151 183.38 L 151 183.63 L 150.94 183.81 L 150.81 183.94 L 150.63 184 L 150.38 184 L 150.19 184.06 L 150.06 184.19 L 150 184.38 L 150 184.63 L 149.94 184.81 L 149.81 184.94 L 149.63 185 L 149.38 185 L 149.19 185.06 L 149.06 185.19 L 149 185.38 L 149 185.63 L 148.94 185.81 L 148.81 185.94 L 148.63 186 L 148.38 186 L 148.19 186.06 L 148.06 186.19 L 148 186.38 L 148 186.63 L 147.94 186.81 L 147.81 186.94 L 147.63 187 L 147.38 187 L 147.19 187.06 L 147.06 187.19 L 147 187.38 L 147 187.63 L 146.94 187.81 L 146.81 187.94 L 146.63 188 L 146.38 188 L 146.19 188.06 L 146.06 188.19 L 146 188.38 L 146 188.63 L 145.94 188.81 L 145.81 188.94 L 145.63 189 L 145.38 189 L 145.19 189.06 L 145.06 189.19 L 145 189.38 L 145 189.63 L 144.94 189.81 L 144.81 189.94 L 144.63 190 L 144.38 190 L 144.19 190.06 L 144.06 190.19 L 144 190.38 L 144 190.63 L 143.94 190.81 L 143.81 190.94 L 143.63 191 L 143.38 191 L 143.19 191.06 L 143.06 191.19 L 143 191.38 L 143 191.63 L 142.94 191.81 L 142.81 191.94 L 142.63 192 L 142.38 192 L 142.19 192.06 L 142.06 192.19 L 142 192.38 L 142 192.63 L 141.94 192.81 L 141.81 192.94 L 141.63 193 L 141.38 193 L 141.19 193.06 L 141.06 193.19 L 141 193.38 L 141 193.63 L 140.94 193.81 L 140.81 193.94 L 140.63 194 L 140.38 194 L 140.19 194.06 L 140.06 194.19 L 140 194.38 L 140 194.63 L 139.94 194.81 L 139.81 194.94 L 139.63 195 L 139.38 195 L 139.19 195.06 L 139.06 195.19 L 139 195.38 L 139 195.63 L 138.88 195.81 L 138.63 195.94 L 138.25 196 L 137.75 196 L 137.38 196.06 L 137.13 196.19 L 137 196.38 L 137 196.63 L 136.94 196.81 L 136.81 196.94 L 136.63 197 L 136.38 197 L 136.19 197.06 L 136.06 197.19 L 136 197.38 L 136 197.63 L 135.94 197.81 L 135.81 197.94 L 135.63 198 L 135.38 198 L 135.19 198.06 L 135.06 198.19 L 135 198.38 L 135 198.63 L 134.88 198.81 L 134.63 198.94 L 134.25 199 L 133.75 199 L 133.38 199.06 L 133.13 199.19 L 133 199.38 L 133 199.63 L 132.94 199.81 L 132.81 199.94 L 132.63 200 L 132.38 200 L 132.19 200.06 L 132.06 200.19 L 132 200.38 L 132 200.63 L 131.81 200.81 L 131.44 200.94 L 130.88 201 L 130.13 201 L 129.56 201.06 L 129.19 201.19 L 129 201.38 L 129 201.63 L 128.94 201.81 L 128.81 201.94 L 128.63 202 L 128.38 202 L 128.19 202.06 L 128.06 202.19 L 128 202.38 L 128 202.63 L 127.75 202.81 L 127.25 202.94 L 126.5 203 L 125.5 203 L 124.75 203.06 L 124.25 203.19 L 124 203.38 L 124 203.63 L 123.25 203.81 L 121.75 203.94 L 119.5 204 L 116.5 204 L 114.25 203.94 L 112.75 203.81 L 112 203.63 L 112 203.38 L 111.75 203.19 L 111.25 203.06 L 110.5 203 L 109.5 203 L 108.75 202.94 L 108.25 202.81 L 108 202.63 L 108 202.38 L 107.88 202.19 L 107.63 202.06 L 107.25 202 L 106.75 202 L 106.38 201.94 L 106.13 201.81 L 106 201.63 L 106 201.38 L 105.88 201.19 L 105.63 201.06 L 105.25 201 L 104.75 201 L 104.38 200.94 L 104.13 200.81 L 104 200.63 L 104 200.38 L 103.94 200.19 L 103.81 200.06 L 103.63 200 L 103.38 200 L 103.19 199.94 L 103.06 199.81 L 103 199.63 L 103 199.38 L 102.88 199.19 L 102.63 199.06 L 102.25 199 L 101.75 199 L 101.38 198.94 L 101.13 198.81 L 101 198.63 L 101 198.38 L 100.94 198.19 L 100.81 198.06 L 100.63 198 L 100.38 198 L 100.19 197.94 L 100.06 197.81 L 100 197.63 L 100 197.38 L 99.94 197.19 L 99.81 197.06 L 99.63 197 L 99.38 197 L 99.19 196.94 L 99.06 196.81 L 99 196.63 L 99 196.38 L 98.94 196.19 L 98.81 196.06 L 98.63 196 L 98.38 196 L 98.19 195.94 L 98.06 195.81 L 98 195.63 L 98 195.38 L 97.94 195.19 L 97.81 195.06 L 97.63 195 L 97.38 195 L 97.19 194.94 L 97.06 194.81 L 97 194.63 L 97 194.38 L 96.94 194.19 L 96.81 194.06 L 96.63 194 L 96.38 194 L 96.19 193.94 L 96.06 193.81 L 96 193.63 L 96 193.38 L 95.94 193.19 L 95.81 193.06 L 95.63 193 L 95.38 193 L 95.19 192.88 L 95.06 192.63 L 95 192.25 L 95 191.75 L 94.94 191.38 L 94.81 191.13 L 94.63 191 L 94.38 191 L 94.19 190.88 L 94.06 190.63 L 94 190.25 L 94 189.75 L 93.94 189.38 L 93.81 189.13 L 93.63 189 L 93.38 189 L 93.19 188.88 L 93.06 188.63 L 93 188.25 L 93 187.75 L 92.94 187.38 L 92.81 187.13 L 92.63 187 L 92.38 187 L 92.19 186.88 L 92.06 186.63 L 92 186.25 L 92 185.75 L 91.94 185.38 L 91.81 185.13 L 91.63 185 L 91.38 185 L 91.19 184.63 L 91.06 183.88 L 91 182.75 L 91 181.25 L 90.94 180.13 L 90.81 179.38 L 90.63 179 L 90.38 179 L 90.19 178.81 L 90.06 178.44 L 90 177.88 L 90 177.13 L 90.06 176.56 L 90.19 176.19 L 90.38 176 L 90.63 176 L 90.81 175.56 L 90.94 174.69 L 91 173.38 L 91 171.63 L 91.06 170.31 L 91.19 169.44 L 91.38 169 L 91.63 169 L 91.81 168.88 L 91.94 168.63 L 92 168.25 L 92 167.75 L 92.06 167.38 L 92.19 167.13 L 92.38 167 L 92.63 167 L 92.81 166.88 L 92.94 166.63 L 93 166.25 L 93 165.75 L 93.06 165.38 L 93.19 165.13 L 93.38 165 L 93.63 165 L 93.81 164.94 L 93.94 164.81 L 94 164.63 L 94 164.38 L 94.06 164.19 L 94.19 164.06 L 94.38 164 L 94.63 164 L 94.81 163.88 L 94.94 163.63 L 95 163.25 L 95 162.75 L 95.06 162.38 L 95.19 162.13 L 95.38 162 L 95.63 162 L 95.81 161.94 L 95.94 161.81 L 96 161.63 L 96 161.38 L 96.06 161.19 L 96.19 161.06 L 96.38 161 L 96.63 161 L 96.81 160.94 L 96.94 160.81 L 97 160.63 L 97 160.38 L 97.13 160.19 L 97.38 160.06 L 97.75 160 L 98.25 160 L 98.63 159.94 L 98.88 159.81 L 99 159.63 L 99 159.38 L 99.06 159.19 L 99.19 159.06 L 99.38 159 L 99.63 159 L 99.81 158.94 L 99.94 158.81 L 100 158.63 L 100 158.38 L 100.06 158.19 L 100.19 158.06 L 100.38 158 L 100.63 158 L 100.81 157.94 L 100.94 157.81 L 101 157.63 L 101 157.38 L 101.19 157.19 L 101.56 157.06 L 102.13 157 L 102.88 157 L 103.44 156.94 L 103.81 156.81 L 104 156.63 L 104 156.38 L 104.06 156.19 L 104.19 156.06 L 104.38 156 L 104.63 156 L 104.81 155.94 L 104.94 155.81 L 105 155.63 L 105 155.38 L 105.19 155.19 L 105.56 155.06 L 106.13 155 L 106.88 155 L 107.44 154.94 L 107.81 154.81 L 108 154.63 L 108 154.38 L 108.13 154.19 L 108.38 154.06 L 108.75 154 L 109.25 154 L 109.63 153.94 L 109.88 153.81 L 110 153.63 L 110 153.38 L 110.31 153.19 L 110.94 153.06 L 111.88 153 L 113.13 153 L 114.06 152.94 L 114.69 152.81 L 115 152.63 L 115 152.38 L 115.19 152.19 L 115.56 152.06 L 116.13 152 L 116.88 152 L 117.44 151.94 L 117.81 151.81 L 118 151.63 L 118 151.38 L 118.31 151.19 L 118.94 151.06 L 119.88 151 L 121.13 151 L 122.06 150.94 L 122.69 150.81 L 123 150.63 L 123 150.38 L 123.25 150.19 L 123.75 150.06 L 124.5 150 L 125.5 150 L 126.25 149.94 L 126.75 149.81 L 127 149.63 L 127 149.38 L 127.25 149.19 L 127.75 149.06 L 128.5 149 L 129.5 149 L 130.25 148.94 L 130.75 148.81 L 131 148.63 L 131 148.38 L 131.13 148.19 L 131.38 148.06 L 131.75 148 L 132.25 148 L 132.63 147.94 L 132.88 147.81 L 133 147.63 L 133 147.38 L 133.19 147.19 L 133.56 147.06 L 134.13 147 L 134.88 147 L 135.44 146.94 L 135.81 146.81 L 136 146.63 L 136 146.38 L 136.06 146.19 L 136.19 146.06 L 136.38 146 L 136.63 146 L 136.81 145.94 L 136.94 145.81 L 137 145.63 L 137 145.38 L 137.13 145.19 L 137.38 145.06 L 137.75 145 L 138.25 145 L 138.63 144.94 L 138.88 144.81 L 139 144.63 L 139 144.38 L 139.06 144.19 L 139.19 144.06 L 139.38 144 L 139.63 144 L 139.81 143.94 L 139.94 143.81 L 140 143.63 L 140 143.38 L 140.13 143.19 L 140.38 143.06 L 140.75 143 L 141.25 143 L 141.63 142.94 L 141.88 142.81 L 142 142.63 L 142 142.38 L 142.06 142.19 L 142.19 142.06 L 142.38 142 L 142.63 142 L 142.81 141.94 L 142.94 141.81 L 143 141.63 L 143 141.38 L 143.13 141.19 L 143.38 141.06 L 143.75 141 L 144.25 141 L 144.63 140.88 L 144.88 140.63 L 145 140.25 L 145 139.75 L 145.13 139.38 L 145.38 139.13 L 145.75 139 L 146.25 139 L 146.63 138.88 L 146.88 138.63 L 147 138.25 L 147 137.75 L 147.06 137.38 L 147.19 137.13 L 147.38 137 L 147.63 137 L 147.81 136.94 L 147.94 136.81 L 148 136.63 L 148 136.38 L 148.06 136.19 L 148.19 136.06 L 148.38 136 L 148.63 136 L 148.81 135.94 L 148.94 135.81 L 149 135.63 L 149 135.38 L 149.06 135.19 L 149.19 135.06 L 149.38 135 L 149.63 135 L 149.81 134.88 L 149.94 134.63 L 150 134.25 L 150 133.75 L 150.06 133.38 L 150.19 133.13 L 150.38 133 L 150.63 133 L 150.81 132.88 L 150.94 132.63 L 151 132.25 L 151 131.75 L 151.06 131.38 L 151.19 131.13 L 151.38 131 L 151.63 131 L 151.81 130.88 L 151.94 130.63 L 152 130.25 L 152 129.75 L 152.06 129.38 L 152.19 129.13 L 152.38 129 L 152.63 129 L 152.81 128.88 L 152.94 128.63 L 153 128.25 L 153 127.75 L 153.06 127.38 L 153.19 127.13 L 153.38 127 L 153.63 127 L 153.81 126.81 L 153.94 126.44 L 154 125.88 L 154 125.13 L 154.06 124.56 L 154.19 124.19 L 154.38 124 L 154.63 124 L 154.81 123.69 L 154.94 123.06 L 155 122.13 L 155 120.88 L 155.06 119.94 L 155.19 119.31 L 155.38 119 L 155.63 119 L 155.81 118.63 L 155.94 117.88 L 156 116.75 L 156 115.25 L 155.94 114.13 L 155.81 113.38 L 155.63 113 L 155.38 113 L 155.19 112.63 L 155.06 111.88 L 155 110.75 L 155 109.25 L 154.94 108.13 L 154.81 107.38 L 154.63 107 L 154.38 107 L 154.19 106.88 L 154.06 106.63 L 154 106.25 L 154 105.75 L 153.94 105.38 L 153.81 105.13 L 153.63 105 L 153.38 105 L 153.19 104.81 L 153.06 104.44 L 153 103.88 L 153 103.13 L 152.94 102.56 L 152.81 102.19 L 152.63 102 L 152.38 102 L 152.19 101.94 L 152.06 101.81 L 152 101.63 L 152 101.38 L 151.94 101.19 L 151.81 101.06 L 151.63 101 L 151.38 101 L 151.19 100.88 L 151.06 100.63 L 151 100.25 L 151 99.75 L 150.94 99.38 L 150.81 99.13 L 150.63 99 L 150.38 99 L 150.19 98.94 L 150.06 98.81 L 150 98.63 L 150 98.38 L 149.94 98.19 L 149.81 98.06 L 149.63 98 L 149.38 98 L 149.19 97.88 L 149.06 97.63 L 149 97.25 L 149 96.75 L 148.94 96.38 L 148.81 96.13 L 148.63 96 L 148.38 96 L 148.19 95.94 L 148.06 95.81 L 148 95.63 L 148 95.38 L 147.94 95.19 L 147.81 95.06 L 147.63 95 L 147.38 95 L 147.19 94.94 L 147.06 94.81 L 147 94.63 L 147 94.38 L 146.94 94.19 L 146.81 94.06 L 146.63 94 L 146.38 94 L 146.19 93.94 L 146.06 93.81 L 146 93.63 L 146 93.38 L 145.94 93.19 L 145.81 93.06 L 145.63 93 L 145.38 93 L 145.19 92.94 L 145.06 92.81 L 145 92.63 L 145 92.38 L 144.94 92.19 L 144.81 92.06 L 144.63 92 L 144.38 92 L 144.19 91.94 L 144.06 91.81 L 144 91.63 L 144 91.38 L 143.94 91.19 L 143.81 91.06 L 143.63 91 L 143.38 91 L 143.19 90.94 L 143.06 90.81 L 143 90.63 L 143 90.38 L 142.88 90.19 L 142.63 90.06 L 142.25 90 L 141.75 90 L 141.38 89.94 L 141.13 89.81 L 141 89.63 L 141 89.38 L 140.94 89.19 L 140.81 89.06 L 140.63 89 L 140.38 89 L 140.19 88.94 L 140.06 88.81 L 140 88.63 L 140 88.38 L 139.88 88.19 L 139.63 88.06 L 139.25 88 L 138.75 88 L 138.38 87.94 L 138.13 87.81 L 138 87.63 L 138 87.38 L 137.88 87.19 L 137.63 87.06 L 137.25 87 L 136.75 87 L 136.38 86.94 L 136.13 86.81 L 136 86.63 L 136 86.38 L 135.81 86.19 L 135.44 86.06 L 134.88 86 L 134.13 86 L 133.56 85.94 L 133.19 85.81 L 133 85.63 L 133 85.38 L 132.88 85.19 L 132.63 85.06 L 132.25 85 L 131.75 85 L 131.38 84.94 L 131.13 84.81 L 131 84.63 L 131 84.38 L 130.75 84.19 L 130.25 84.06 L 129.5 84 L 128.5 84 L 127.75 83.94 L 127.25 83.81 L 127 83.63 L 127 83.38 L 126.81 83.19 L 126.44 83.06 L 125.88 83 L 125.13 83 L 124.56 82.94 L 124.19 82.81 L 124 82.63 L 124 82.38 L 123.25 82.19 L 121.75 82.06 L 119.5 82 L 116.5 82 L 114.25 81.94 L 112.75 81.81 L 112 81.63 L 112 81.38 L 111.94 81.19 L 111.81 81.06 L 111.63 81 L 111.38 81 L 111.19 80.94 L 111.06 80.81 L 111 80.63 L 111 80.38 L 111.06 80.19 L 111.19 80.06 L 111.38 80 L 111.63 80 L 111.81 79.81 L 111.94 79.44 L 112 78.88 L 112 78.13 L 112.06 77.56 L 112.19 77.19 L 112.38 77 L 112.63 77 L 112.81 76.81 L 112.94 76.44 L 113 75.88 L 113 75.13 L 113.06 74.56 L 113.19 74.19 L 113.38 74 L 113.63 74 L 113.81 73.88 L 113.94 73.63 L 114 73.25 L 114 72.75 L 114.06 72.38 L 114.19 72.13 L 114.38 72 L 114.63 72 L 114.81 71.88 L 114.94 71.63 L 115 71.25 L 115 70.75 L 115.06 70.38 L 115.19 70.13 L 115.38 70 L 115.63 70 L 115.81 69.94 L 115.94 69.81 L 116 69.63 L 116 69.38 L 116.06 69.19 L 116.19 69.06 L 116.38 69 L 116.63 69 L 116.81 68.94 L 116.94 68.81 L 117 68.63 L 117 68.38 L 117.06 68.19 L 117.19 68.06 L 117.38 68 L 117.63 68 L 117.81 67.94 L 117.94 67.81 L 118 67.63 L 118 67.38 L 118.06 67.19 L 118.19 67.06 L 118.38 67 L 118.63 67 L 118.81 66.94 L 118.94 66.81 L 119 66.63 L 119 66.38 L 119.06 66.19 L 119.19 66.06 L 119.38 66 L 119.63 66 L 119.81 65.94 L 119.94 65.81 L 120 65.63 L 120 65.38 L 120.06 65.19 L 120.19 65.06 L 120.38 65 L 120.63 65 L 120.81 64.94 L 120.94 64.81 L 121 64.63 L 121 64.38 L 121.13 64.19 L 121.38 64.06 L 121.75 64 L 122.25 64 L 122.63 63.94 L 122.88 63.81 L 123 63.63 L 123 63.38 L 123.13 63.19 L 123.38 63.06 L 123.75 63 L 124.25 63 L 124.63 62.94 L 124.88 62.81 L 125 62.63 L 125 62.38 L 125.19 62.19 L 125.56 62.06 L 126.13 62 L 126.88 62 L 127.44 61.94 L 127.81 61.81 L 128 61.63 L 128 61.38 L 128.13 61.19 L 128.38 61.06 L 128.75 61 L 129.25 61 L 129.63 60.94 L 129.88 60.81 L 130 60.63 L 130 60.38 L 130.69 60.19 L 132.06 60.06 L 134.13 60 L 136.88 60 L 138.94 60.06 L 140.31 60.19 L 141 60.38 L 141 60.63 L 141.13 60.81 L 141.38 60.94 L 141.75 61 L 142.25 61 L 142.63 61.06 L 142.88 61.19 L 143 61.38 L 143 61.63 L 143.19 61.81 L 143.56 61.94 L 144.13 62 L 144.88 62 L 145.44 62.06 L 145.81 62.19 L 146 62.38 L 146 62.63 L 146.13 62.81 L 146.38 62.94 L 146.75 63 L 147.25 63 L 147.63 63.06 L 147.88 63.19 L 148 63.38 L 148 63.63 L 148.13 63.81 L 148.38 63.94 L 148.75 64 L 149.25 64 L 149.63 64.06 L 149.88 64.19 L 150 64.38 L 150 64.63 L 150.06 64.81 L 150.19 64.94 L 150.38 65 L 150.63 65 L 150.81 65.06 L 150.94 65.19 L 151 65.38 L 151 65.63 L 151.06 65.81 L 151.19 65.94 L 151.38 66 L 151.63 66 L 151.81 66.06 L 151.94 66.19 L 152 66.38 L 152 66.63 L 152.06 66.81 L 152.19 66.94 L 152.38 67 L 152.63 67 L 152.81 67.06 L 152.94 67.19 L 153 67.38 L 153 67.63 L 153.13 67.81 L 153.38 67.94 L 153.75 68 L 154.25 68 L 154.63 68.13 L 154.88 68.38 L 155 68.75 L 155 69.25 L 155.06 69.63 L 155.19 69.88 L 155.38 70 L 155.63 70 L 155.81 70.06 L 155.94 70.19 L 156 70.38 L 156 70.63 L 156.06 70.81 L 156.19 70.94 L 156.38 71 L 156.63 71 L 156.81 71.06 L 156.94 71.19 L 157 71.38 L 157 71.63 L 157.06 71.81 L 157.19 71.94 L 157.38 72 L 157.63 72 L 157.81 72.13 L 157.94 72.38 L 158 72.75 L 158 73.25 L 158.06 73.63 L 158.19 73.88 L 158.38 74 L 158.63 74 L 158.81 74.13 L 158.94 74.38 L 159 74.75 L 159 75.25 L 159.06 75.63 L 159.19 75.88 L 159.38 76 L 159.63 76 L 159.81 76.06 L 159.94 76.19 L 160 76.38 L 160 76.63 L 160.06 76.81 L 160.19 76.94 L 160.38 77 L 160.63 77 L 160.81 77.19 L 160.94 77.56 L 161 78.13 L 161 78.88 L 161.06 79.44 L 161.19 79.81 L 161.38 80 L 161.63 80 L 161.81 80.06 L 161.94 80.19 L 162 80.38 L 162 80.63 L 162.06 80.81 L 162.19 80.94 L 162.38 81 L 162.63 81 L 162.81 81.25 L 162.94 81.75 L 163 82.5 L 163 83.5 L 163.06 84.25 L 163.19 84.75 L 163.38 85 L 163.63 85 L 163.81 85.13 L 163.94 85.38 L 164 85.75 L 164 86.25 L 164.06 86.63 L 164.19 86.88 L 164.38 87 L 164.63 87 L 164.81 87.38 L 164.94 88.13 L 165 89.25 L 165 90.75 L 165.06 91.88 L 165.19 92.63 L 165.38 93 L 165.63 93 L 165.81 93.19 L 165.94 93.56 L 166 94.13 L 166 94.88 L 166.06 95.44 L 166.19 95.81 L 166.38 96 L 166.63 96 L 166.81 97.88 L 166.94 101.63 L 167 107.25 L 167 114.75 L 166.94 120.38 L 166.81 124.13 L 166.63 126 L 166.38 126 L 166.19 126.19 L 166.06 126.56 L 166 127.13 L 166 127.88 L 165.94 128.44 L 165.81 128.81 L 165.63 129 L 165.38 129 L 165.19 129.31 L 165.06 129.94 L 165 130.88 L 165 132.13 L 164.94 133.06 L 164.81 133.69 L 164.63 134 L 164.38 134 L 164.19 134.13 L 164.06 134.38 L 164 134.75 L 164 135.25 L 163.94 135.63 L 163.81 135.88 L 163.63 136 L 163.38 136 L 163.19 136.25 L 163.06 136.75 L 163 137.5 L 163 138.5 L 162.94 139.25 L 162.81 139.75 L 162.63 140 L 162.38 140 L 162.19 140.06 L 162.06 140.19 L 162 140.38 L 162 140.63 L 161.94 140.81 L 161.81 140.94 L 161.63 141 L 161.38 141 L 161.19 141.19 L 161.06 141.56 L 161 142.13 L 161 142.88 L 160.94 143.44 L 160.81 143.81 L 160.63 144 L 160.38 144 L 160.19 144.13 L 160.06 144.38 L 160 144.75 L 160 145.25 L 159.94 145.63 L 159.81 145.88 L 159.63 146 L 159.38 146 L 159.19 146.13 L 159.06 146.38 L 159 146.75 L 159 147.25 L 158.94 147.63 L 158.81 147.88 L 158.63 148 L 158.38 148 L 158.19 148.06 L 158.06 148.19 L 158 148.38 L 158 148.63 L 157.94 148.81 L 157.81 148.94 L 157.63 149 L 157.38 149 L 157.19 149.19 L 157.06 149.56 L 157 150.13 L 157 150.88 L 156.94 151.44 L 156.81 151.81 L 156.63 152 L 156.38 152 L 156.19 152.06 L 156.06 152.19 L 156 152.38 L 156 152.63 L 155.94 152.81 L 155.81 152.94 L 155.63 153 L 155.38 153 L 155.19 153.13 L 155.06 153.38 L 155 153.75 L 155 154.25 L 155.06 154.63 L 155.19 154.88 L 155.38 155 L 155.63 155 L 155.81 154.94 L 155.94 154.81 L 156 154.63 L 156 154.38 L 156.06 154.19 L 156.19 154.06 L 156.38 154 L 156.63 154 L 156.81 153.94 L 156.94 153.81 L 157 153.63 L 157 153.38 L 157.06 153.19 L 157.19 153.06 L 157.38 153 L 157.63 153 L 157.81 152.94 L 157.94 152.81 L 158 152.63 L 158 152.38 L 158.06 152.19 L 158.19 152.06 L 158.38 152 L 158.63 152 L 158.81 151.94 L 158.94 151.81 L 159 151.63 L 159 151.38 L 159.06 151.19 L 159.19 151.06 L 159.38 151 L 159.63 151 L 159.81 150.88 L 159.94 150.63 L 160 150.25 L 160 149.75 L 160.06 149.38 L 160.19 149.13 L 160.38 149 L 160.63 149 L 160.81 148.94 L 160.94 148.81 L 161 148.63 L 161 148.38 L 161.06 148.19 L 161.19 148.06 L 161.38 148 L 161.63 148 L 161.81 147.88 L 161.94 147.63 L 162 147.25 L 162 146.75 L 162.06 146.38 L 162.19 146.13 L 162.38 146 L 162.63 146 L 162.81 145.94 L 162.94 145.81 L 163 145.63 L 163 145.38 L 163.06 145.19 L 163.19 145.06 L 163.38 145 L 163.63 145 L 163.81 144.88 L 163.94 144.63 L 164 144.25 L 164 143.75 L 164.06 143.38 L 164.19 143.13 L 164.38 143 L 164.63 143 L 164.81 142.88 L 164.94 142.63 L 165 142.25 L 165 141.75 L 165.06 141.38 L 165.19 141.13 L 165.38 141 L 165.63 141 L 165.81 140.94 L 165.94 140.81 L 166 140.63 L 166 140.38 L 166.06 140.19 L 166.19 140.06 L 166.38 140 L 166.63 140 L 166.81 139.88 L 166.94 139.63 L 167 139.25 L 167 138.75 L 167.06 138.38 L 167.19 138.13 L 167.38 138 L 167.63 138 L 167.81 137.81 L 167.94 137.44 L 168 136.88 L 168 136.13 L 168.06 135.56 L 168.19 135.19 L 168.38 135 L 168.63 135 L 168.81 134.88 L 168.94 134.63 L 169 134.25 L 169 133.75 L 169.06 133.38 L 169.19 133.13 L 169.38 133 L 169.63 133 L 169.81 132.81 L 169.94 132.44 L 170 131.88 L 170 131.13 L 170.06 130.56 L 170.19 130.19 L 170.38 130 L 170.63 130 L 170.81 129.81 L 170.94 129.44 L 171 128.88 L 171 128.13 L 171.06 127.56 L 171.19 127.19 L 171.38 127 L 171.63 127 L 171.81 126.75 L 171.94 126.25 L 172 125.5 L 172 124.5 L 172.06 123.75 L 172.19 123.25 L 172.38 123 L 172.63 123 L 172.81 122.69 L 172.94 122.06 L 173 121.13 L 173 119.88 L 173.06 118.94 L 173.19 118.31 L 173.38 118 L 173.63 118 L 173.81 116.31 L 173.94 112.94 L 174 107.88 L 174 101.13 L 173.94 96.06 L 173.81 92.69 L 173.63 91 L 173.38 91 L 173.19 90.75 L 173.06 90.25 L 173 89.5 L 173 88.5 L 172.94 87.75 L 172.81 87.25 L 172.63 87 L 172.38 87 L 172.19 86.69 L 172.06 86.06 L 172 85.13 L 172 83.88 L 171.94 82.94 L 171.81 82.31 L 171.63 82 L 171.38 82 L 171.19 81.81 L 171.06 81.44 L 171 80.88 L 171 80.13 L 170.94 79.56 L 170.81 79.19 L 170.63 79 L 170.38 79 L 170.19 78.81 L 170.06 78.44 L 170 77.88 L 170 77.13 L 169.94 76.56 L 169.81 76.19 L 169.63 76 L 169.38 76 L 169.19 75.94 L 169.06 75.81 L 169 75.63 L 169 75.38 L 168.94 75.19 L 168.81 75.06 L 168.63 75 L 168.38 75 L 168.19 74.81 L 168.06 74.44 L 168 73.88 L 168 73.13 L 167.94 72.56 L 167.81 72.19 L 167.63 72 L 167.38 72 L 167.19 71.88 L 167.06 71.63 L 167 71.25 L 167 70.75 L 166.94 70.38 L 166.81 70.13 L 166.63 70 L 166.38 70 L 166.19 69.94 L 166.06 69.81 L 166 69.63 L 166 69.38 L 165.94 69.19 L 165.81 69.06 L 165.63 69 L 165.38 69 L 165.19 68.88 L 165.06 68.63 L 165 68.25 L 165 67.75 L 164.94 67.38 L 164.81 67.13 L 164.63 67 L 164.38 67 L 164.19 66.94 L 164.06 66.81 L 164 66.63 L 164 66.38 L 163.94 66.19 L 163.81 66.06 L 163.63 66 L 163.38 66 L 163.19 65.94 L 163.06 65.81 L 163 65.63 L 163 65.38 L 162.94 65.19 L 162.81 65.06 L 162.63 65 L 162.38 65 L 162.19 64.88 L 162.06 64.63 L 162 64.25 L 162 63.75 L 161.94 63.38 L 161.81 63.13 L 161.63 63 L 161.38 63 L 161.19 62.94 L 161.06 62.81 L 161 62.63 L 161 62.38 L 160.94 62.19 L 160.81 62.06 L 160.63 62 L 160.38 62 L 160.19 61.94 L 160.06 61.81 L 160 61.63 L 160 61.38 L 159.94 61.19 L 159.81 61.06 L 159.63 61 L 159.38 61 L 159.19 60.94 L 159.06 60.81 L 159 60.63 L 159 60.38 L 158.88 60.19 L 158.63 60.06 L 158.25 60 L 157.75 60 L 157.38 59.94 L 157.13 59.81 L 157 59.63 L 157 59.38 L 156.94 59.19 L 156.81 59.06 L 156.63 59 L 156.38 59 L 156.19 58.94 L 156.06 58.81 L 156 58.63 L 156 58.38 L 155.88 58.19 L 155.63 58.06 L 155.25 58 L 154.75 58 L 154.38 57.94 L 154.13 57.81 L 154 57.63 L 154 57.38 L 153.94 57.19 L 153.81 57.06 L 153.63 57 L 153.38 57 L 153.19 56.94 L 153.06 56.81 L 153 56.63 L 153 56.38 L 152.88 56.19 L 152.63 56.06 L 152.25 56 L 151.75 56 L 151.38 55.94 L 151.13 55.81 L 151 55.63 L 151 55.38 L 150.88 55.19 L 150.63 55.06 L 150.25 55 L 149.75 55 L 149.38 54.94 L 149.13 54.81 L 149 54.63 L 149 54.38 L 148.81 54.19 L 148.44 54.06 L 147.88 54 L 147.13 54 L 146.56 53.94 L 146.19 53.81 L 146 53.63 L 146 53.38 L 145.75 53.19 L 145.25 53.06 L 144.5 53 L 143.5 53 L 142.75 52.94 L 142.25 52.81 L 142 52.63 L 142 52.38 L 141.25 52.19 L 139.75 52.06 L 137.5 52 L 134.5 52 L 132.25 52.06 L 130.75 52.19 L 130 52.38 L 130 52.63 L 129.75 52.81 L 129.25 52.94 L 128.5 53 L 127.5 53 L 126.75 53.06 L 126.25 53.19 L 126 53.38 L 126 53.63 L 125.88 53.81 L 125.63 53.94 L 125.25 54 L 124.75 54 L 124.38 54.06 L 124.13 54.19 L 124 54.38 L 124 54.63 L 123.88 54.81 L 123.63 54.94 L 123.25 55 L 122.75 55 L 122.38 55.06 L 122.13 55.19 L 122 55.38 L 122 55.63 L 121.88 55.81 L 121.63 55.94 L 121.25 56 L 120.75 56 L 120.38 56.06 L 120.13 56.19 L 120 56.38 L 120 56.63 L 119.88 56.81 L 119.63 56.94 L 119.25 57 L 118.75 57 L 118.38 57.06 L 118.13 57.19 L 118 57.38 L 118 57.63 L 117.94 57.81 L 117.81 57.94 L 117.63 58 L 117.38 58 L 117.19 58.06 L 117.06 58.19 L 117 58.38 L 117 58.63 L 116.94 58.81 L 116.81 58.94 L 116.63 59 L 116.38 59 L 116.19 59.06 L 116.06 59.19 L 116 59.38 L 116 59.63 L 115.94 59.81 L 115.81 59.94 L 115.63 60 L 115.38 60 L 115.19 60.06 L 115.06 60.19 L 115 60.38 L 115 60.63 L 114.94 60.81 L 114.81 60.94 L 114.63 61 L 114.38 61 L 114.19 61.06 L 114.06 61.19 L 114 61.38 L 114 61.63 L 113.94 61.81 L 113.81 61.94 L 113.63 62 L 113.38 62 L 113.19 62.06 L 113.06 62.19 L 113 62.38 L 113 62.63 L 112.94 62.81 L 112.81 62.94 L 112.63 63 L 112.38 63 L 112.19 63.13 L 112.06 63.38 L 112 63.75 L 112 64.25 L 111.94 64.63 L 111.81 64.88 L 111.63 65 L 111.38 65 L 111.19 65.06 L 111.06 65.19 L 111 65.38 L 111 65.63 L 110.94 65.81 L 110.81 65.94 L 110.63 66 L 110.38 66 L 110.19 66.13 L 110.06 66.38 L 110 66.75 L 110 67.25 L 109.94 67.63 L 109.81 67.88 L 109.63 68 L 109.38 68 L 109.19 68.13 L 109.06 68.38 L 109 68.75 L 109 69.25 L 108.94 69.63 L 108.81 69.88 L 108.63 70 L 108.38 70 L 108.19 70.19 L 108.06 70.56 L 108 71.13 L 108 71.88 L 107.94 72.44 L 107.81 72.81 L 107.63 73 L 107.38 73 L 107.19 73.25 L 107.06 73.75 L 107 74.5 L 107 75.5 L 106.94 76.25 L 106.81 76.75 L 106.63 77 L 106.38 77 L 106.19 77.63 L 106.06 78.88 L 106 80.75 L 106 83.25 L 106.06 85.13 L 106.19 86.38 L 106.38 87 L 106.63 87 L 106.81 87.25 L 106.94 87.75 L 107 88.5 L 107 89.5 L 107.06 90.25 L 107.19 90.75 L 107.38 91 L 107.63 91 L 107.81 91.19 L 107.94 91.56 L 108 92.13 L 108 92.88 L 108.06 93.44 L 108.19 93.81 L 108.38 94 L 108.63 94 L 108.81 94.19 L 108.94 94.56 L 109 95.13 L 109 95.88 L 109.06 96.44 L 109.19 96.81 L 109.38 97 L 109.63 97 L 109.81 97.13 L 109.94 97.38 L 110 97.75 L 110 98.25 L 110.06 98.63 L 110.19 98.88 L 110.38 99 L 110.63 99 L 110.81 99.06 L 110.94 99.19 L 111 99.38 L 111 99.63 L 111.06 99.81 L 111.19 99.94 L 111.38 100 L 111.63 100 L 111.81 100.13 L 111.94 100.38 L 112 100.75 L 112 101.25 L 112.06 101.63 L 112.19 101.88 L 112.38 102 L 112.63 102 L 112.81 102.06 L 112.94 102.19 L 113 102.38 L 113 102.63 L 113.06 102.81 L 113.19 102.94 L 113.38 103 L 113.63 103 L 113.81 103.06 L 113.94 103.19 L 114 103.38 L 114 103.63 L 114.06 103.81 L 114.19 103.94 L 114.38 104 L 114.63 104 L 114.81 104.06 L 114.94 104.19 L 115 104.38 L 115 104.63 L 115.06 104.81 L 115.19 104.94 L 115.38 105 L 115.63 105 L 115.81 105.06 L 115.94 105.19 L 116 105.38 L 116 105.63 L 116.06 105.81 L 116.19 105.94 L 116.38 106 L 116.63 106 L 116.81 106.06 L 116.94 106.19 L 117 106.38 L 117 106.63 L 117.06 106.81 L 117.19 106.94 L 117.38 107 L 117.63 107 L 117.81 107.06 L 117.94 107.19 L 118 107.38 L 118 107.63 L 118.06 107.81 L 118.19 107.94 L 118.38 108 L 118.63 108 L 118.81 108.06 L 118.94 108.19 L 119 108.38 L 119 108.63 L 119.06 108.81 L 119.19 108.94 L 119.38 109 L 119.63 109 L 119.81 109.06 L 119.94 109.19 L 120 109.38 L 120 109.63 L 120.06 109.81 L 120.19 109.94 L 120.38 110 L 120.63 110 L 120.81 110.06 L 120.94 110.19 L 121 110.38 L 121 110.63 L 121.13 110.81 L 121.38 110.94 L 121.75 111 L 122.25 111 L 122.63 111.06 L 122.88 111.19 L 123 111.38 L 123 111.63 L 123.13 111.81 L 123.38 111.94 L 123.75 112 L 124.25 112 L 124.63 112.06 L 124.88 112.19 L 125 112.38 L 125 112.63 L 125.13 112.81 L 125.38 112.94 L 125.75 113 L 126.25 113 L 126.63 112.94 L 126.88 112.81 L 127 112.63 L 127 112.38 L 126.88 112.19 L 126.63 112.06 L 126.25 112 L 125.75 112 L 125.38 111.94 L 125.13 111.81 L 125 111.63 L 125 111.38 L 124.94 111.19 L 124.81 111.06 L 124.63 111 L 124.38 111 L 124.19 110.94 L 124.06 110.81 L 124 110.63 L 124 110.38 L 123.94 110.19 L 123.81 110.06 L 123.63 110 L 123.38 110 L 123.19 109.94 L 123.06 109.81 L 123 109.63 L 123 109.38 L 122.94 109.19 L 122.81 109.06 L 122.63 109 L 122.38 109 L 122.19 108.94 L 122.06 108.81 L 122 108.63 L 122 108.38 L 121.94 108.19 L 121.81 108.06 L 121.63 108 L 121.38 108 L 121.19 107.94 L 121.06 107.81 L 121 107.63 L 121 107.38 L 120.94 107.19 L 120.81 107.06 L 120.63 107 L 120.38 107 L 120.19 106.94 L 120.06 106.81 L 120 106.63 L 120 106.38 L 119.94 106.19 L 119.81 106.06 L 119.63 106 L 119.38 106 L 119.19 105.88 L 119.06 105.63 L 119 105.25 L 119 104.75 L 118.88 104.38 L 118.63 104.13 L 118.25 104 L 117.75 104 L 117.38 103.88 L 117.13 103.63 L 117 103.25 L 117 102.75 L 116.94 102.38 L 116.81 102.13 L 116.63 102 L 116.38 102 L 116.19 101.88 L 116.06 101.63 L 116 101.25 L 116 100.75 L 115.94 100.38 L 115.81 100.13 L 115.63 100 L 115.38 100 L 115.19 99.88 L 115.06 99.63 L 115 99.25 L 115 98.75 L 114.94 98.38 L 114.81 98.13 L 114.63 98 L 114.38 98 L 114.19 97.94 L 114.06 97.81 L 114 97.63 L 114 97.38 L 113.94 97.19 L 113.81 97.06 L 113.63 97 L 113.38 97 L 113.19 96.75 L 113.06 96.25 L 113 95.5 L 113 94.5 L 113.13 93.75 L 113.38 93.25 L 113.75 93 L 114.25 93 L 114.63 92.94 L 114.88 92.81 L 115 92.63 L 115 92.38 L 115.25 92.19 L 115.75 92.06 L 116.5 92 L 117.5 92 L 118.25 92.06 L 118.75 92.19 L 119 92.38 L 119 92.63 L 119.31 92.81 L 119.94 92.94 L 120.88 93 L 122.13 93 L 123.06 93.06 L 123.69 93.19 L 124 93.38 L 124 93.63 L 124.19 93.81 L 124.56 93.94 L 125.13 94 L 125.88 94 L 126.44 94.06 L 126.81 94.19 L 127 94.38 L 127 94.63 L 127.13 94.81 L 127.38 94.94 L 127.75 95 L 128.25 95 L 128.63 95.06 L 128.88 95.19 L 129 95.38 L 129 95.63 L 129.13 95.81 L 129.38 95.94 L 129.75 96 L 130.25 96 L 130.63 96.06 L 130.88 96.19 L 131 96.38 L 131 96.63 L 131.06 96.81 L 131.19 96.94 L 131.38 97 L 131.63 97 L 131.81 97.06 L 131.94 97.19 L 132 97.38 L 132 97.63 L 132.13 97.81 L 132.38 97.94 L 132.75 98 L 133.25 98 L 133.63 98.06 L 133.88 98.19 L 134 98.38 L 134 98.63 L 134.06 98.81 L 134.19 98.94 L 134.38 99 L 134.63 99 L 134.81 99.06 L 134.94 99.19 L 135 99.38 L 135 99.63 L 135.06 99.81 L 135.19 99.94 L 135.38 100 L 135.63 100 L 135.81 100.06 L 135.94 100.19 L 136 100.38 L 136 100.63 L 136.06 100.81 L 136.19 100.94 L 136.38 101 L 136.63 101 L 136.81 101.06 L 136.94 101.19 L 137 101.38 L 137 101.63 L 137.06 101.81 L 137.19 101.94 L 137.38 102 L 137.63 102 L 137.81 102.06 L 137.94 102.19 L 138 102.38 L 138 102.63 L 138.06 102.81 L 138.19 102.94 L 138.38 103 L 138.63 103 L 138.81 103.06 L 138.94 103.19 L 139 103.38 L 139 103.63 L 139.06 103.81 L 139.19 103.94 L 139.38 104 L 139.63 104 L 139.81 104.06 L 139.94 104.19 L 140 104.38 L 140 104.63 L 140.06 104.81 L 140.19 104.94 L 140.38 105 L 140.63 105 L 140.81 105.13 L 140.94 105.38 L 141 105.75 L 141 106.25 L 141.06 106.63 L 141.19 106.88 L 141.38 107 L 141.63 107 L 141.81 107.13 L 141.94 107.38 L 142 107.75 L 142 108.25 L 142.06 108.63 L 142.19 108.88 L 142.38 109 L 142.63 109 L 142.81 109.31 L 142.94 109.94 L 143 110.88 L 143 112.13 L 143.06 113.06 L 143.19 113.69 L 143.38 114 L 143.63 114 L 143.81 114.25 L 143.94 114.75 L 144 115.5 L 144 116.5 L 143.94 117.25 L 143.81 117.75 L 143.63 118 L 143.38 118 L 143.19 118.31 L 143.06 118.94 L 143 119.88 L 143 121.13 L 142.94 122.06 L 142.81 122.69 L 142.63 123 L 142.38 123 L 142.19 123.06 L 142.06 123.19 L 142 123.38 L 142 123.63 L 141.94 123.81 L 141.81 123.94 L 141.63 124 L 141.38 124 L 141.19 124.13 L 141.06 124.38 L 141 124.75 L 141 125.25 L 140.94 125.63 L 140.81 125.88 L 140.63 126 L 140.38 126 L 140.19 126.13 L 140.06 126.38 L 140 126.75 L 140 127.25 L 139.94 127.63 L 139.81 127.88 L 139.63 128 L 139.38 128 L 139.19 128.06 L 139.06 128.19 L 139 128.38 L 139 128.63 L 138.94 128.81 L 138.81 128.94 L 138.63 129 L 138.38 129 L 138.19 129.06 L 138.06 129.19 L 138 129.38 L 138 129.63 L 137.94 129.81 L 137.81 129.94 L 137.63 130 L 137.38 130 L 137.19 130.13 L 137.06 130.38 L 137 130.75 L 137 131.25 L 136.88 131.63 L 136.63 131.88 L 136.25 132 L 135.75 132 L 135.38 132.06 L 135.13 132.19 L 135 132.38 L 135 132.63 L 134.94 132.81 L 134.81 132.94 L 134.63 133 L 134.38 133 L 134.19 133.06 L 134.06 133.19 L 134 133.38 L 134 133.63 L 133.94 133.81 L 133.81 133.94 L 133.63 134 L 133.38 134 L 133.19 134.06 L 133.06 134.19 L 133 134.38 L 133 134.63 L 132.88 134.81 L 132.63 134.94 L 132.25 135 L 131.75 135 L 131.38 135.06 L 131.13 135.19 L 131 135.38 L 131 135.63 L 130.88 135.81 L 130.63 135.94 L 130.25 136 L 129.75 136 L 129.38 136.06 L 129.13 136.19 L 129 136.38 L 129 136.63 L 128.88 136.81 L 128.63 136.94 L 128.25 137 L 127.75 137 L 127.38 137.06 L 127.13 137.19 L 127 137.38 L 127 137.63 L 126.69 137.81 L 126.06 137.94 L 125.13 138 L 123.88 138 L 122.94 138.06 L 122.31 138.19 L 122 138.38 L 122 138.63 L 121.88 138.81 L 121.63 138.94 L 121.25 139 L 120.75 139 L 120.38 139.06 L 120.13 139.19 L 120 139.38 L 120 139.63 L 119.88 139.81 L 119.63 139.94 L 119.25 140 L 118.75 140 L 118.38 140.06 L 118.13 140.19 L 118 140.38 L 118 140.63 L 117.88 140.81 L 117.63 140.94 L 117.25 141 L 116.75 141 L 116.38 141.06 L 116.13 141.19 L 116 141.38 L 116 141.63 L 115.81 141.81 L 115.44 141.94 L 114.88 142 L 114.13 142 L 113.56 142.06 L 113.19 142.19 L 113 142.38 L 113 142.63 L 112.94 142.81 L 112.81 142.94 L 112.63 143 L 112.38 143 L 112.19 143.06 L 112.06 143.19 L 112 143.38 L 112 143.63 L 111.69 143.81 L 111.06 143.94 L 110.13 144 L 108.88 144 L 107.94 143.94 L 107.31 143.81 L 107 143.63 L 107 143.38 L 106.88 143.19 L 106.63 143.06 L 106.25 143 L 105.75 143 L 105.38 142.94 L 105.13 142.81 L 105 142.63 L 105 142.38 L 104.94 142.19 L 104.81 142.06 L 104.63 142 L 104.38 142 L 104.19 141.94 L 104.06 141.81 L 104 141.63 L 104 141.38 L 103.94 141.19 L 103.81 141.06 L 103.63 141 L 103.38 141 L 103.19 140.94 L 103.06 140.81 L 103 140.63 L 103 140.38 L 102.94 140.19 L 102.81 140.06 L 102.63 140 L 102.38 140 L 102.19 139.94 L 102.06 139.81 L 102 139.63 L 102 139.38 L 101.94 139.19 L 101.81 139.06 L 101.63 139 L 101.38 139 L 101.19 138.69 L 101.06 138.06 L 101 137.13 L 101 135.88 L 101.06 134.94 L 101.19 134.31 L 101.38 134 L 101.63 134 L 101.81 133.94 L 101.94 133.81 L 102 133.63 L 102 133.38 L 102.06 133.19 L 102.19 133.06 L 102.38 133 L 102.63 133 L 102.81 132.94 L 102.94 132.81 L 103 132.63 L 103 132.38 L 103.06 132.19 L 103.19 132.06 L 103.38 132 L 103.63 132 L 103.81 131.94 L 103.94 131.81 L 104 131.63 L 104 131.38 L 104.06 131.19 L 104.19 131.06 L 104.38 131 L 104.63 131 L 104.81 130.88 L 104.94 130.63 L 105 130.25 L 105 129.75 L 105.06 129.38 L 105.19 129.13 L 105.38 129 L 105.63 129 L 105.81 128.94 L 105.94 128.81 L 106 128.63 L 106 128.38 L 106.06 128.19 L 106.19 128.06 L 106.38 128 L 106.63 128 L 106.81 127.81 L 106.94 127.44 L 107 126.88 L 107 126.13 L 107.06 125.56 L 107.19 125.19 L 107.38 125 L 107.63 125 L 107.81 124.88 L 107.94 124.63 L 108 124.25 L 108 123.75 L 108.06 123.38 L 108.19 123.13 L 108.38 123 L 108.63 123 L 108.81 122.69 L 108.94 122.06 L 109 121.13 L 109 119.88 L 108.94 118.94 L 108.81 118.31 L 108.63 118 L 108.38 118 L 108.19 117.94 L 108.06 117.81 L 108 117.63 L 108 117.38 L 107.94 117.19 L 107.81 117.06 L 107.63 117 L 107.38 117 L 107.19 116.94 L 107.06 116.81 L 107 116.63 L 107 116.38 L 106.94 116.19 L 106.81 116.06 L 106.63 116 L 106.38 116 L 106.19 115.94 L 106.06 115.81 L 106 115.63 L 106 115.38 L 105.94 115.19 L 105.81 115.06 L 105.63 115 L 105.38 115 L 105.19 114.88 L 105.06 114.63 L 105 114.25 L 105 113.75 L 104.94 113.38 L 104.81 113.13 L 104.63 113 L 104.38 113 L 104.19 112.94 L 104.06 112.81 L 104 112.63 L 104 112.38 L 103.94 112.19 L 103.81 112.06 L 103.63 112 L 103.38 112 L 103.19 111.94 L 103.06 111.81 L 103 111.63 L 103 111.38 L 102.94 111.19 L 102.81 111.06 L 102.63 111 L 102.38 111 L 102.19 110.94 L 102.06 110.81 L 102 110.63 L 102 110.38 L 101.94 110.19 L 101.81 110.06 L 101.63 110 L 101.38 110 L 101.19 109.88 L 101.06 109.63 L 101 109.25 L 101 108.75 L 100.94 108.38 L 100.81 108.13 L 100.63 108 L 100.38 108 L 100.19 107.94 L 100.06 107.81 L 100 107.63 L 100 107.38 L 99.94 107.19 L 99.81 107.06 L 99.63 107 L 99.38 107 L 99.19 106.94 L 99.06 106.81 L 99 106.63 L 99 106.38 L 98.94 106.19 L 98.81 106.06 L 98.63 106 L 98.38 106 L 98.19 105.88 L 98.06 105.63 L 98 105.25 L 98 104.75 L 97.94 104.38 L 97.81 104.13 L 97.63 104 L 97.38 104 L 97.19 103.88 L 97.06 103.63 L 97 103.25 L 97 102.75 L 96.94 102.38 L 96.81 102.13 L 96.63 102 L 96.38 102 L 96.19 101.94 L 96.06 101.81 L 96 101.63 L 96 101.38 L 95.94 101.19 L 95.81 101.06 L 95.63 101 L 95.38 101 L 95.19 100.81 L 95.06 100.44 L 95 99.88 L 95 99.13 L 94.94 98.56 L 94.81 98.19 L 94.63 98 L 94.38 98 L 94.19 97.88 L 94.06 97.63 L 94 97.25 L 94 96.75 L 93.94 96.38 L 93.81 96.13 L 93.63 96 L 93.38 96 L 93.19 95.75 L 93.06 95.25 L 93 94.5 L 93 93.5 L 92.94 92.75 L 92.81 92.25 L 92.63 92 L 92.38 92 L 92.19 91.81 L 92.06 91.44 L 92 90.88 L 92 90.13 L 91.94 89.56 L 91.81 89.19 L 91.63 89 L 91.38 89 L 91.19 88 L 91.06 86 L 91 83 L 91 79 L 91.06 76 L 91.19 74 L 91.38 73 L 91.63 73 L 91.81 72.81 L 91.94 72.44 L 92 71.88 L 92 71.13 L 92.06 70.56 L 92.19 70.19 L 92.38 70 L 92.63 70 L 92.81 69.75 L 92.94 69.25 L 93 68.5 L 93 67.5 L 93.06 66.75 L 93.19 66.25 L 93.38 66 L 93.63 66 L 93.81 65.88 L 93.94 65.63 L 94 65.25 L 94 64.75 L 94.06 64.38 L 94.19 64.13 L 94.38 64 L 94.63 64 L 94.81 63.81 L 94.94 63.44 L 95 62.88 L 95 62.13 L 95.06 61.56 L 95.19 61.19 L 95.38 61 L 95.63 61 L 95.81 60.88 L 95.94 60.63 L 96 60.25 L 96 59.75 L 96.06 59.38 L 96.19 59.13 L 96.38 59 L 96.63 59 L 96.81 58.88 L 96.94 58.63 L 97 58.25 L 97 57.75 L 97.06 57.38 L 97.19 57.13 L 97.38 57 L 97.63 57 L 97.81 56.94 L 97.94 56.81 L 98 56.63 L 98 56.38 L 98.06 56.19 L 98.19 56.06 L 98.38 56 L 98.63 56 L 98.81 55.88 L 98.94 55.63 L 99 55.25 L 99 54.75 L 99.06 54.38 L 99.19 54.13 L 99.38 54 L 99.63 54 L 99.81 53.94 L 99.94 53.81 L 100 53.63 L 100 53.38 L 100.06 53.19 L 100.19 53.06 L 100.38 53 L 100.63 53 L 100.81 52.94 L 100.94 52.81 L 101 52.63 L 101 52.38 L 101.06 52.19 L 101.19 52.06 L 101.38 52 L 101.63 52 L 101.81 51.94 L 101.94 51.81 L 102 51.63 L 102 51.38 L 102.06 51.19 L 102.19 51.06 L 102.38 51 L 102.63 51 L 102.81 50.94 L 102.94 50.81 L 103 50.63 L 103 50.38 L 103.06 50.19 L 103.19 50.06 L 103.38 50 L 103.63 50 L 103.81 49.88 L 103.94 49.63 L 104 49.25 L 104 48.75 L 104.13 48.38 L 104.38 48.13 L 104.75 48 L 105.25 48 L 105.63 47.94 L 105.88 47.81 L 106 47.63 L 106 47.38 L 106.06 47.19 L 106.19 47.06 L 106.38 47 L 106.63 47 L 106.81 46.94 L 106.94 46.81 L 107 46.63 L 107 46.38 L 107.06 46.19 L 107.19 46.06 L 107.38 46 L 107.63 46 L 107.81 45.94 L 107.94 45.81 L 108 45.63 L 108 45.38 L 108.06 45.19 L 108.19 45.06 L 108.38 45 L 108.63 45 L 108.81 44.94 L 108.94 44.81 L 109 44.63 L 109 44.38 L 109.13 44.19 L 109.38 44.06 L 109.75 44 L 110.25 44 L 110.63 43.94 L 110.88 43.81 L 111 43.63 L 111 43.38 L 111.13 43.19 L 111.38 43.06 L 111.75 43 L 112.25 43 L 112.63 42.94 L 112.88 42.81 L 113 42.63 L 113 42.38 L 113.19 42.19 L 113.56 42.06 L 114.13 42 L 114.88 42 L 115.44 41.94 L 115.81 41.81 L 116 41.63 L 116 41.38 L 116.13 41.19 L 116.38 41.06 L 116.75 41 L 117.25 41 L 117.63 40.94 L 117.88 40.81 L 118 40.63 L 118 40.38 L 118.25 40.19 L 118.75 40.06 L 119.5 40 L 120.5 40 L 121.25 39.94 L 121.75 39.81 L 122 39.63 L 122 39.38 L 122.19 39.19 L 122.56 39.06 L 123.13 39 L 123.88 39 L 124.44 38.94 L 124.81 38.81 L 125 38.63 L 125 38.38 L 125.94 38.19 L 127.81 38.06 Z M 189.63 41 L 189.38 41 L 189.19 41.13 L 189.06 41.38 L 189 41.75 L 189 42.25 L 188.94 42.63 L 188.81 42.88 L 188.63 43 L 188.38 43 L 188.19 43.06 L 188.06 43.19 L 188 43.38 L 188 43.63 L 187.94 43.81 L 187.81 43.94 L 187.63 44 L 187.38 44 L 187.19 44.13 L 187.06 44.38 L 187 44.75 L 187 45.25 L 186.94 45.63 L 186.81 45.88 L 186.63 46 L 186.38 46 L 186.19 46.06 L 186.06 46.19 L 186 46.38 L 186 46.63 L 185.94 46.81 L 185.81 46.94 L 185.63 47 L 185.38 47 L 185.19 47.06 L 185.06 47.19 L 185 47.38 L 185 47.63 L 184.88 47.81 L 184.63 47.94 L 184.25 48 L 183.75 48 L 183.38 48.13 L 183.13 48.38 L 183 48.75 L 183 49.25 L 183.13 49.63 L 183.38 49.88 L 183.75 50 L 184.25 50 L 184.63 50.06 L 184.88 50.19 L 185 50.38 L 185 50.63 L 185.06 50.81 L 185.19 50.94 L 185.38 51 L 185.63 51 L 185.81 51.06 L 185.94 51.19 L 186 51.38 L 186 51.63 L 186.06 51.81 L 186.19 51.94 L 186.38 52 L 186.63 52 L 186.81 52.13 L 186.94 52.38 L 187 52.75 L 187 53.25 L 187.06 53.63 L 187.19 53.88 L 187.38 54 L 187.63 54 L 187.81 54.13 L 187.94 54.38 L 188 54.75 L 188 55.25 L 188.06 55.63 L 188.19 55.88 L 188.38 56 L 188.63 56 L 188.81 56.13 L 188.94 56.38 L 189 56.75 L 189 57.25 L 189.06 57.63 L 189.19 57.88 L 189.38 58 L 189.63 58 L 189.81 57.75 L 189.94 57.25 L 190 56.5 L 190 55.5 L 190.06 54.75 L 190.19 54.25 L 190.38 54 L 190.63 54 L 190.81 53.88 L 190.94 53.63 L 191 53.25 L 191 52.75 L 191.06 52.38 L 191.19 52.13 L 191.38 52 L 191.63 52 L 191.81 51.94 L 191.94 51.81 L 192 51.63 L 192 51.38 L 192.06 51.19 L 192.19 51.06 L 192.38 51 L 192.63 51 L 192.81 50.94 L 192.94 50.81 L 193 50.63 L 193 50.38 L 193.13 50.19 L 193.38 50.06 L 193.75 50 L 194.25 50 L 194.63 49.88 L 194.88 49.63 L 195 49.25 L 195 48.75 L 194.94 48.38 L 194.81 48.13 L 194.63 48 L 194.38 48 L 194.19 47.94 L 194.06 47.81 L 194 47.63 L 194 47.38 L 193.94 47.19 L 193.81 47.06 L 193.63 47 L 193.38 47 L 193.19 46.94 L 193.06 46.81 L 193 46.63 L 193 46.38 L 192.94 46.19 L 192.81 46.06 L 192.63 46 L 192.38 46 L 192.19 45.94 L 192.06 45.81 L 192 45.63 L 192 45.38 L 191.94 45.19 L 191.81 45.06 L 191.63 45 L 191.38 45 L 191.19 44.88 L 191.06 44.63 L 191 44.25 L 191 43.75 L 190.94 43.38 L 190.81 43.13 L 190.63 43 L 190.38 43 L 190.19 42.88 L 190.06 42.63 L 190 42.25 L 190 41.75 L 189.94 41.38 L 189.81 41.13 Z M 200.13 64 L 200.88 64 L 201.44 64.13 L 201.81 64.38 L 202 64.75 L 202 65.25 L 202.06 65.63 L 202.19 65.88 L 202.38 66 L 202.63 66 L 202.81 66.13 L 202.94 66.38 L 203 66.75 L 203 67.25 L 203.19 67.63 L 203.56 67.88 L 204.13 68 L 204.88 68 L 205.44 68.25 L 205.81 68.75 L 206 69.5 L 206 70.5 L 205.81 71.25 L 205.44 71.75 L 204.88 72 L 204.13 72 L 203.56 72.13 L 203.19 72.38 L 203 72.75 L 203 73.25 L 202.94 73.63 L 202.81 73.88 L 202.63 74 L 202.38 74 L 202.19 74.06 L 202.06 74.19 L 202 74.38 L 202 74.63 L 201.81 74.81 L 201.44 74.94 L 200.88 75 L 200.13 75 L 199.56 74.94 L 199.19 74.81 L 199 74.63 L 199 74.38 L 198.94 74.19 L 198.81 74.06 L 198.63 74 L 198.38 74 L 198.19 73.88 L 198.06 73.63 L 198 73.25 L 198 72.75 L 197.81 72.38 L 197.44 72.13 L 196.88 72 L 196.13 72 L 195.56 71.75 L 195.19 71.25 L 195 70.5 L 195 69.5 L 195.19 68.75 L 195.56 68.25 L 196.13 68 L 196.88 68 L 197.44 67.88 L 197.81 67.63 L 198 67.25 L 198 66.75 L 198.06 66.38 L 198.19 66.13 L 198.38 66 L 198.63 66 L 198.81 65.88 L 198.94 65.63 L 199 65.25 L 199 64.75 L 199.19 64.38 L 199.56 64.13 Z M 93.63 114 L 95.38 114 L 96.69 114.06 L 97.56 114.19 L 98 114.38 L 98 114.63 L 98.13 114.81 L 98.38 114.94 L 98.75 115 L 99.25 115 L 99.63 115.06 L 99.88 115.19 L 100 115.38 L 100 115.63 L 100.06 115.81 L 100.19 115.94 L 100.38 116 L 100.63 116 L 100.81 116.06 L 100.94 116.19 L 101 116.38 L 101 116.63 L 101.06 116.81 L 101.19 116.94 L 101.38 117 L 101.63 117 L 101.81 117.06 L 101.94 117.19 L 102 117.38 L 102 117.63 L 102.06 117.81 L 102.19 117.94 L 102.38 118 L 102.63 118 L 102.81 118.13 L 102.94 118.38 L 103 118.75 L 103 119.25 L 103.06 119.63 L 103.19 119.88 L 103.38 120 L 103.63 120 L 103.81 120.38 L 103.94 121.13 L 104 122.25 L 104 123.75 L 103.94 124.88 L 103.81 125.63 L 103.63 126 L 103.38 126 L 103.19 126.13 L 103.06 126.38 L 103 126.75 L 103 127.25 L 102.94 127.63 L 102.81 127.88 L 102.63 128 L 102.38 128 L 102.19 128.06 L 102.06 128.19 L 102 128.38 L 102 128.63 L 101.94 128.81 L 101.81 128.94 L 101.63 129 L 101.38 129 L 101.19 129.06 L 101.06 129.19 L 101 129.38 L 101 129.63 L 100.94 129.81 L 100.81 129.94 L 100.63 130 L 100.38 130 L 100.19 130.06 L 100.06 130.19 L 100 130.38 L 100 130.63 L 99.94 130.81 L 99.81 130.94 L 99.63 131 L 99.38 131 L 99.19 131.06 L 99.06 131.19 L 99 131.38 L 99 131.63 L 98.69 131.81 L 98.06 131.94 L 97.13 132 L 95.88 132 L 94.94 132.06 L 94.31 132.19 L 94 132.38 L 94 132.63 L 93.94 132.81 L 93.81 132.94 L 93.63 133 L 93.38 133 L 93.19 133.06 L 93.06 133.19 L 93 133.38 L 93 133.63 L 92.94 133.81 L 92.81 133.94 L 92.63 134 L 92.38 134 L 92.19 134.13 L 92.06 134.38 L 92 134.75 L 92 135.25 L 91.94 135.63 L 91.81 135.88 L 91.63 136 L 91.38 136 L 91.19 136.06 L 91.06 136.19 L 91 136.38 L 91 136.63 L 90.94 136.81 L 90.81 136.94 L 90.63 137 L 90.38 137 L 90.19 137.13 L 90.06 137.38 L 90 137.75 L 90 138.25 L 89.94 138.63 L 89.81 138.88 L 89.63 139 L 89.38 139 L 89.19 139.13 L 89.06 139.38 L 89 139.75 L 89 140.25 L 88.94 140.63 L 88.81 140.88 L 88.63 141 L 88.38 141 L 88.19 141.13 L 88.06 141.38 L 88 141.75 L 88 142.25 L 87.94 142.63 L 87.81 142.88 L 87.63 143 L 87.38 143 L 87.19 143.13 L 87.06 143.38 L 87 143.75 L 87 144.25 L 86.94 144.63 L 86.81 144.88 L 86.63 145 L 86.38 145 L 86.19 145.06 L 86.06 145.19 L 86 145.38 L 86 145.63 L 85.94 145.81 L 85.81 145.94 L 85.63 146 L 85.38 146 L 85.19 146.13 L 85.06 146.38 L 85 146.75 L 85 147.25 L 84.94 147.63 L 84.81 147.88 L 84.63 148 L 84.38 148 L 84.19 148.19 L 84.06 148.56 L 84 149.13 L 84 149.88 L 83.94 150.44 L 83.81 150.81 L 83.63 151 L 83.38 151 L 83.19 151.13 L 83.06 151.38 L 83 151.75 L 83 152.25 L 82.94 152.63 L 82.81 152.88 L 82.63 153 L 82.38 153 L 82.19 153.13 L 82.06 153.38 L 82 153.75 L 82 154.25 L 81.94 154.63 L 81.81 154.88 L 81.63 155 L 81.38 155 L 81.19 155.5 L 81.06 156.5 L 81 158 L 81 160 L 80.94 161.5 L 80.81 162.5 L 80.63 163 L 80.38 163 L 80.19 163.25 L 80.06 163.75 L 80 164.5 L 80 165.5 L 79.94 166.25 L 79.81 166.75 L 79.63 167 L 79.38 167 L 79.19 167.13 L 79.06 167.38 L 79 167.75 L 79 168.25 L 78.94 168.63 L 78.81 168.88 L 78.63 169 L 78.38 169 L 78.19 169.13 L 78.06 169.38 L 78 169.75 L 78 170.25 L 77.94 170.63 L 77.81 170.88 L 77.63 171 L 77.38 171 L 77.19 171.13 L 77.06 171.38 L 77 171.75 L 77 172.25 L 76.94 172.63 L 76.81 172.88 L 76.63 173 L 76.38 173 L 76.19 173.13 L 76.06 173.38 L 76 173.75 L 76 174.25 L 75.94 174.63 L 75.81 174.88 L 75.63 175 L 75.38 175 L 75.19 175.13 L 75.06 175.38 L 75 175.75 L 75 176.25 L 74.94 176.63 L 74.81 176.88 L 74.63 177 L 74.38 177 L 74.19 177.13 L 74.06 177.38 L 74 177.75 L 74 178.25 L 73.94 178.63 L 73.81 178.88 L 73.63 179 L 73.38 179 L 73.19 179.06 L 73.06 179.19 L 73 179.38 L 73 179.63 L 72.94 179.81 L 72.81 179.94 L 72.63 180 L 72.38 180 L 72.19 180.13 L 72.06 180.38 L 72 180.75 L 72 181.25 L 71.94 181.63 L 71.81 181.88 L 71.63 182 L 71.38 182 L 71.19 182.13 L 71.06 182.38 L 71 182.75 L 71 183.25 L 70.94 183.63 L 70.81 183.88 L 70.63 184 L 70.38 184 L 70.19 184.13 L 70.06 184.38 L 70 184.75 L 70 185.25 L 69.94 185.63 L 69.81 185.88 L 69.63 186 L 69.38 186 L 69.19 186.13 L 69.06 186.38 L 69 186.75 L 69 187.25 L 68.94 187.63 L 68.81 187.88 L 68.63 188 L 68.38 188 L 68.19 188.13 L 68.06 188.38 L 68 188.75 L 68 189.25 L 67.94 189.63 L 67.81 189.88 L 67.63 190 L 67.38 190 L 67.19 190.06 L 67.06 190.19 L 67 190.38 L 67 190.63 L 66.94 190.81 L 66.81 190.94 L 66.63 191 L 66.38 191 L 66.19 191.19 L 66.06 191.56 L 66 192.13 L 66 192.88 L 65.94 193.44 L 65.81 193.81 L 65.63 194 L 65.38 194 L 65.19 194.06 L 65.06 194.19 L 65 194.38 L 65 194.63 L 64.94 194.81 L 64.81 194.94 L 64.63 195 L 64.38 195 L 64.19 195.19 L 64.06 195.56 L 64 196.13 L 64 196.88 L 63.94 197.44 L 63.81 197.81 L 63.63 198 L 63.38 198 L 63.19 198.06 L 63.06 198.19 L 63 198.38 L 63 198.63 L 62.94 198.81 L 62.81 198.94 L 62.63 199 L 62.38 199 L 62.19 199.13 L 62.06 199.38 L 62 199.75 L 62 200.25 L 61.94 200.63 L 61.81 200.88 L 61.63 201 L 61.38 201 L 61.19 201.13 L 61.06 201.38 L 61 201.75 L 61 202.25 L 60.94 202.63 L 60.81 202.88 L 60.63 203 L 60.38 203 L 60.19 203.13 L 60.06 203.38 L 60 203.75 L 60 204.25 L 59.94 204.63 L 59.81 204.88 L 59.63 205 L 59.38 205 L 59.19 205.06 L 59.06 205.19 L 59 205.38 L 59 205.63 L 58.94 205.81 L 58.81 205.94 L 58.63 206 L 58.38 206 L 58.19 206.13 L 58.06 206.38 L 58 206.75 L 58 207.25 L 57.94 207.63 L 57.81 207.88 L 57.63 208 L 57.38 208 L 57.19 208.06 L 57.06 208.19 L 57 208.38 L 57 208.63 L 56.94 208.81 L 56.81 208.94 L 56.63 209 L 56.38 209 L 56.19 209.13 L 56.06 209.38 L 56 209.75 L 56 210.25 L 55.94 210.63 L 55.81 210.88 L 55.63 211 L 55.38 211 L 55.19 211.06 L 55.06 211.19 L 55 211.38 L 55 211.63 L 54.94 211.81 L 54.81 211.94 L 54.63 212 L 54.38 212 L 54.19 212.13 L 54.06 212.38 L 54 212.75 L 54 213.25 L 53.94 213.63 L 53.81 213.88 L 53.63 214 L 53.38 214 L 53.19 214.06 L 53.06 214.19 L 53 214.38 L 53 214.63 L 52.81 214.81 L 52.44 214.94 L 51.88 215 L 51.13 215 L 50.56 215.06 L 50.19 215.19 L 50 215.38 L 50 215.63 L 49.81 215.81 L 49.44 215.94 L 48.88 216 L 48.13 216 L 47.56 215.94 L 47.19 215.81 L 47 215.63 L 47 215.38 L 46.81 215.19 L 46.44 215.06 L 45.88 215 L 45.13 215 L 44.56 214.88 L 44.19 214.63 L 44 214.25 L 44 213.75 L 43.94 213.38 L 43.81 213.13 L 43.63 213 L 43.38 213 L 43.19 212.56 L 43.06 211.69 L 43 210.38 L 43 208.63 L 43.06 207.31 L 43.19 206.44 L 43.38 206 L 43.63 206 L 43.81 205.88 L 43.94 205.63 L 44 205.25 L 44 204.75 L 44.06 204.38 L 44.19 204.13 L 44.38 204 L 44.63 204 L 44.81 203.81 L 44.94 203.44 L 45 202.88 L 45 202.13 L 45.06 201.56 L 45.19 201.19 L 45.38 201 L 45.63 201 L 45.81 200.88 L 45.94 200.63 L 46 200.25 L 46 199.75 L 46.06 199.38 L 46.19 199.13 L 46.38 199 L 46.63 199 L 46.81 198.88 L 46.94 198.63 L 47 198.25 L 47 197.75 L 47.06 197.38 L 47.19 197.13 L 47.38 197 L 47.63 197 L 47.81 196.88 L 47.94 196.63 L 48 196.25 L 48 195.75 L 48.06 195.38 L 48.19 195.13 L 48.38 195 L 48.63 195 L 48.81 194.94 L 48.94 194.81 L 49 194.63 L 49 194.38 L 49.06 194.19 L 49.19 194.06 L 49.38 194 L 49.63 194 L 49.81 193.88 L 49.94 193.63 L 50 193.25 L 50 192.75 L 50.06 192.38 L 50.19 192.13 L 50.38 192 L 50.63 192 L 50.81 191.88 L 50.94 191.63 L 51 191.25 L 51 190.75 L 51.06 190.38 L 51.19 190.13 L 51.38 190 L 51.63 190 L 51.81 189.88 L 51.94 189.63 L 52 189.25 L 52 188.75 L 52.06 188.38 L 52.19 188.13 L 52.38 188 L 52.63 188 L 52.81 187.88 L 52.94 187.63 L 53 187.25 L 53 186.75 L 53.06 186.38 L 53.19 186.13 L 53.38 186 L 53.63 186 L 53.81 185.94 L 53.94 185.81 L 54 185.63 L 54 185.38 L 54.06 185.19 L 54.19 185.06 L 54.38 185 L 54.63 185 L 54.81 184.88 L 54.94 184.63 L 55 184.25 L 55 183.75 L 55.06 183.38 L 55.19 183.13 L 55.38 183 L 55.63 183 L 55.81 182.88 L 55.94 182.63 L 56 182.25 L 56 181.75 L 56.06 181.38 L 56.19 181.13 L 56.38 181 L 56.63 181 L 56.81 180.88 L 56.94 180.63 L 57 180.25 L 57 179.75 L 57.06 179.38 L 57.19 179.13 L 57.38 179 L 57.63 179 L 57.81 178.88 L 57.94 178.63 L 58 178.25 L 58 177.75 L 58.06 177.38 L 58.19 177.13 L 58.38 177 L 58.63 177 L 58.81 176.88 L 58.94 176.63 L 59 176.25 L 59 175.75 L 59.06 175.38 L 59.19 175.13 L 59.38 175 L 59.63 175 L 59.81 174.88 L 59.94 174.63 L 60 174.25 L 60 173.75 L 60.06 173.38 L 60.19 173.13 L 60.38 173 L 60.63 173 L 60.81 172.88 L 60.94 172.63 L 61 172.25 L 61 171.75 L 61.06 171.38 L 61.19 171.13 L 61.38 171 L 61.63 171 L 61.81 170.94 L 61.94 170.81 L 62 170.63 L 62 170.38 L 62.06 170.19 L 62.19 170.06 L 62.38 170 L 62.63 170 L 62.81 169.88 L 62.94 169.63 L 63 169.25 L 63 168.75 L 63.06 168.38 L 63.19 168.13 L 63.38 168 L 63.63 168 L 63.81 167.88 L 63.94 167.63 L 64 167.25 L 64 166.75 L 64.06 166.38 L 64.19 166.13 L 64.38 166 L 64.63 166 L 64.81 165.81 L 64.94 165.44 L 65 164.88 L 65 164.13 L 65.06 163.56 L 65.19 163.19 L 65.38 163 L 65.63 163 L 65.81 162.94 L 65.94 162.81 L 66 162.63 L 66 162.38 L 66.06 162.19 L 66.19 162.06 L 66.38 162 L 66.63 162 L 66.81 161.88 L 66.94 161.63 L 67 161.25 L 67 160.75 L 67.06 160.38 L 67.19 160.13 L 67.38 160 L 67.63 160 L 67.81 159.94 L 67.94 159.81 L 68 159.63 L 68 159.38 L 68.06 159.19 L 68.19 159.06 L 68.38 159 L 68.63 159 L 68.81 158.94 L 68.94 158.81 L 69 158.63 L 69 158.38 L 69.06 158.19 L 69.19 158.06 L 69.38 158 L 69.63 158 L 69.81 157.94 L 69.94 157.81 L 70 157.63 L 70 157.38 L 70.06 157.19 L 70.19 157.06 L 70.38 157 L 70.63 157 L 70.81 156.94 L 70.94 156.81 L 71 156.63 L 71 156.38 L 71.06 156.19 L 71.19 156.06 L 71.38 156 L 71.63 156 L 71.81 155.94 L 71.94 155.81 L 72 155.63 L 72 155.38 L 72.06 155.19 L 72.19 155.06 L 72.38 155 L 72.63 155 L 72.81 154.94 L 72.94 154.81 L 73 154.63 L 73 154.38 L 73.06 154.19 L 73.19 154.06 L 73.38 154 L 73.63 154 L 73.81 153.94 L 73.94 153.81 L 74 153.63 L 74 153.38 L 74.06 153.19 L 74.19 153.06 L 74.38 153 L 74.63 153 L 74.81 152.94 L 74.94 152.81 L 75 152.63 L 75 152.38 L 75.06 152.19 L 75.19 152.06 L 75.38 152 L 75.63 152 L 75.81 151.88 L 75.94 151.63 L 76 151.25 L 76 150.75 L 76.06 150.38 L 76.19 150.13 L 76.38 150 L 76.63 150 L 76.81 149.88 L 76.94 149.63 L 77 149.25 L 77 148.75 L 77.06 148.38 L 77.19 148.13 L 77.38 148 L 77.63 148 L 77.81 147.94 L 77.94 147.81 L 78 147.63 L 78 147.38 L 78.06 147.19 L 78.19 147.06 L 78.38 147 L 78.63 147 L 78.81 146.81 L 78.94 146.44 L 79 145.88 L 79 145.13 L 79.06 144.56 L 79.19 144.19 L 79.38 144 L 79.63 144 L 79.81 143.94 L 79.94 143.81 L 80 143.63 L 80 143.38 L 80.06 143.19 L 80.19 143.06 L 80.38 143 L 80.63 143 L 80.81 142.88 L 80.94 142.63 L 81 142.25 L 81 141.75 L 81.06 141.38 L 81.19 141.13 L 81.38 141 L 81.63 141 L 81.81 140.88 L 81.94 140.63 L 82 140.25 L 82 139.75 L 82.06 139.38 L 82.19 139.13 L 82.38 139 L 82.63 139 L 82.81 138.88 L 82.94 138.63 L 83 138.25 L 83 137.75 L 83.06 137.38 L 83.19 137.13 L 83.38 137 L 83.63 137 L 83.81 136.88 L 83.94 136.63 L 84 136.25 L 84 135.75 L 84.06 135.38 L 84.19 135.13 L 84.38 135 L 84.63 135 L 84.81 134.88 L 84.94 134.63 L 85 134.25 L 85 133.75 L 85.06 133.38 L 85.19 133.13 L 85.38 133 L 85.63 133 L 85.81 132.94 L 85.94 132.81 L 86 132.63 L 86 132.38 L 86.06 132.19 L 86.19 132.06 L 86.38 132 L 86.63 132 L 86.81 131.69 L 86.94 131.06 L 87 130.13 L 87 128.88 L 86.94 127.94 L 86.81 127.31 L 86.63 127 L 86.38 127 L 86.19 126.88 L 86.06 126.63 L 86 126.25 L 86 125.75 L 85.94 125.38 L 85.81 125.13 L 85.63 125 L 85.38 125 L 85.19 124.75 L 85.06 124.25 L 85 123.5 L 85 122.5 L 85.06 121.75 L 85.19 121.25 L 85.38 121 L 85.63 121 L 85.81 120.88 L 85.94 120.63 L 86 120.25 L 86 119.75 L 86.06 119.38 L 86.19 119.13 L 86.38 119 L 86.63 119 L 86.81 118.88 L 86.94 118.63 L 87 118.25 L 87 117.75 L 87.06 117.38 L 87.19 117.13 L 87.38 117 L 87.63 117 L 87.81 116.94 L 87.94 116.81 L 88 116.63 L 88 116.38 L 88.06 116.19 L 88.19 116.06 L 88.38 116 L 88.63 116 L 88.81 115.94 L 88.94 115.81 L 89 115.63 L 89 115.38 L 89.13 115.19 L 89.38 115.06 L 89.75 115 L 90.25 115 L 90.63 114.94 L 90.88 114.81 L 91 114.63 L 91 114.38 L 91.44 114.19 L 92.31 114.06 Z M 93 120.38 L 93 120.63 L 92.94 120.81 L 92.81 120.94 L 92.63 121 L 92.38 121 L 92.19 121.25 L 92.06 121.75 L 92 122.5 L 92 123.5 L 92.06 124.25 L 92.19 124.75 L 92.38 125 L 92.63 125 L 92.81 125.06 L 92.94 125.19 L 93 125.38 L 93 125.63 L 93.19 125.81 L 93.56 125.94 L 94.13 126 L 94.88 126 L 95.44 125.94 L 95.81 125.81 L 96 125.63 L 96 125.38 L 96.06 125.19 L 96.19 125.06 L 96.38 125 L 96.63 125 L 96.81 124.94 L 96.94 124.81 L 97 124.63 L 97 124.38 L 97.06 124.19 L 97.19 124.06 L 97.38 124 L 97.63 124 L 97.81 123.88 L 97.94 123.63 L 98 123.25 L 98 122.75 L 97.94 122.38 L 97.81 122.13 L 97.63 122 L 97.38 122 L 97.19 121.88 L 97.06 121.63 L 97 121.25 L 97 120.75 L 96.75 120.38 L 96.25 120.13 L 95.5 120 L 94.5 120 L 93.75 120.06 L 93.25 120.19 Z M 37.13 151 L 37.88 151 L 38.44 151.06 L 38.81 151.19 L 39 151.38 L 39 151.63 L 39.06 151.81 L 39.19 151.94 L 39.38 152 L 39.63 152 L 39.81 152.31 L 39.94 152.94 L 40 153.88 L 40 155.13 L 40.06 156.06 L 40.19 156.69 L 40.38 157 L 40.63 157 L 40.81 157.06 L 40.94 157.19 L 41 157.38 L 41 157.63 L 41.06 157.81 L 41.19 157.94 L 41.38 158 L 41.63 158 L 41.81 158.06 L 41.94 158.19 L 42 158.38 L 42 158.63 L 42.25 158.81 L 42.75 158.94 L 43.5 159 L 44.5 159 L 45.25 159.06 L 45.75 159.19 L 46 159.38 L 46 159.63 L 46.06 159.81 L 46.19 159.94 L 46.38 160 L 46.63 160 L 46.81 160.19 L 46.94 160.56 L 47 161.13 L 47 161.88 L 46.94 162.44 L 46.81 162.81 L 46.63 163 L 46.38 163 L 46.19 163.06 L 46.06 163.19 L 46 163.38 L 46 163.63 L 45.81 163.81 L 45.44 163.94 L 44.88 164 L 44.13 164 L 43.56 164.06 L 43.19 164.19 L 43 164.38 L 43 164.63 L 42.88 164.81 L 42.63 164.94 L 42.25 165 L 41.75 165 L 41.38 165.06 L 41.13 165.19 L 41 165.38 L 41 165.63 L 40.94 165.81 L 40.81 165.94 L 40.63 166 L 40.38 166 L 40.19 166.31 L 40.06 166.94 L 40 167.88 L 40 169.13 L 39.94 170.06 L 39.81 170.69 L 39.63 171 L 39.38 171 L 39.19 171.06 L 39.06 171.19 L 39 171.38 L 39 171.63 L 38.94 171.81 L 38.81 171.94 L 38.63 172 L 38.38 172 L 38.19 172.06 L 38.06 172.19 L 38 172.38 L 38 172.63 L 37.88 172.81 L 37.63 172.94 L 37.25 173 L 36.75 173 L 36.38 172.94 L 36.13 172.81 L 36 172.63 L 36 172.38 L 35.94 172.19 L 35.81 172.06 L 35.63 172 L 35.38 172 L 35.19 171.81 L 35.06 171.44 L 35 170.88 L 35 170.13 L 34.94 169.56 L 34.81 169.19 L 34.63 169 L 34.38 169 L 34.19 168.81 L 34.06 168.44 L 34 167.88 L 34 167.13 L 33.94 166.56 L 33.81 166.19 L 33.63 166 L 33.38 166 L 33.19 165.94 L 33.06 165.81 L 33 165.63 L 33 165.38 L 32.75 165.19 L 32.25 165.06 L 31.5 165 L 30.5 165 L 29.75 165.06 L 29.25 165.19 L 29 165.38 L 29 165.63 L 29.06 165.81 L 29.19 165.94 L 29.38 166 L 29.63 166 L 29.81 166.19 L 29.94 166.56 L 30 167.13 L 30 167.88 L 30.06 168.44 L 30.19 168.81 L 30.38 169 L 30.63 169 L 30.81 169.06 L 30.94 169.19 L 31 169.38 L 31 169.63 L 31.06 169.81 L 31.19 169.94 L 31.38 170 L 31.63 170 L 31.81 170.06 L 31.94 170.19 L 32 170.38 L 32 170.63 L 32.13 170.81 L 32.38 170.94 L 32.75 171 L 33.25 171 L 33.63 171.13 L 33.88 171.38 L 34 171.75 L 34 172.25 L 33.94 172.63 L 33.81 172.88 L 33.63 173 L 33.38 173 L 33.19 173.06 L 33.06 173.19 L 33 173.38 L 33 173.63 L 32.94 173.81 L 32.81 173.94 L 32.63 174 L 32.38 174 L 32.19 174.06 L 32.06 174.19 L 32 174.38 L 32 174.63 L 31.88 174.81 L 31.63 174.94 L 31.25 175 L 30.75 175 L 30.38 175.19 L 30.13 175.56 L 30 176.13 L 30 176.88 L 29.94 177.44 L 29.81 177.81 L 29.63 178 L 29.38 178 L 29.19 178.06 L 29.06 178.19 L 29 178.38 L 29 178.63 L 28.81 178.81 L 28.44 178.94 L 27.88 179 L 27.13 179 L 26.56 178.94 L 26.19 178.81 L 26 178.63 L 26 178.38 L 25.94 178.19 L 25.81 178.06 L 25.63 178 L 25.38 178 L 25.19 177.88 L 25.06 177.63 L 25 177.25 L 25 176.75 L 24.94 176.38 L 24.81 176.13 L 24.63 176 L 24.38 176 L 24.19 175.94 L 24.06 175.81 L 24 175.63 L 24 175.38 L 23.94 175.19 L 23.81 175.06 L 23.63 175 L 23.38 175 L 23.19 174.94 L 23.06 174.81 L 23 174.63 L 23 174.38 L 22.94 174.19 L 22.81 174.06 L 22.63 174 L 22.38 174 L 22.19 173.94 L 22.06 173.81 L 22 173.63 L 22 173.38 L 21.94 173.19 L 21.81 173.06 L 21.63 173 L 21.38 173 L 21.19 172.88 L 21.06 172.63 L 21 172.25 L 21 171.75 L 21.13 171.38 L 21.38 171.13 L 21.75 171 L 22.25 171 L 22.63 170.94 L 22.88 170.81 L 23 170.63 L 23 170.38 L 23.06 170.19 L 23.19 170.06 L 23.38 170 L 23.63 170 L 23.81 169.94 L 23.94 169.81 L 24 169.63 L 24 169.38 L 24.06 169.19 L 24.19 169.06 L 24.38 169 L 24.63 169 L 24.81 168.88 L 24.94 168.63 L 25 168.25 L 25 167.75 L 25.06 167.38 L 25.19 167.13 L 25.38 167 L 25.63 167 L 25.81 166.88 L 25.94 166.63 L 26 166.25 L 26 165.75 L 26.19 165.38 L 26.56 165.13 L 27.13 165 L 27.88 165 L 28.44 164.94 L 28.81 164.81 L 29 164.63 L 29 164.38 L 28.94 164.19 L 28.81 164.06 L 28.63 164 L 28.38 164 L 28.19 163.88 L 28.06 163.63 L 28 163.25 L 28 162.75 L 27.94 162.38 L 27.81 162.13 L 27.63 162 L 27.38 162 L 27.19 161.94 L 27.06 161.81 L 27 161.63 L 27 161.38 L 26.88 161.19 L 26.63 161.06 L 26.25 161 L 25.75 161 L 25.38 160.94 L 25.13 160.81 L 25 160.63 L 25 160.38 L 24.94 160.19 L 24.81 160.06 L 24.63 160 L 24.38 160 L 24.19 159.94 L 24.06 159.81 L 24 159.63 L 24 159.38 L 23.94 159.19 L 23.81 159.06 L 23.63 159 L 23.38 159 L 23.19 158.81 L 23.06 158.44 L 23 157.88 L 23 157.13 L 23.06 156.56 L 23.19 156.19 L 23.38 156 L 23.63 156 L 23.81 155.94 L 23.94 155.81 L 24 155.63 L 24 155.38 L 24.06 155.19 L 24.19 155.06 L 24.38 155 L 24.63 155 L 24.81 154.94 L 24.94 154.81 L 25 154.63 L 25 154.38 L 25.19 154.19 L 25.56 154.06 L 26.13 154 L 26.88 154 L 27.44 154.13 L 27.81 154.38 L 28 154.75 L 28 155.25 L 28.06 155.63 L 28.19 155.88 L 28.38 156 L 28.63 156 L 28.81 156.06 L 28.94 156.19 L 29 156.38 L 29 156.63 L 29.06 156.81 L 29.19 156.94 L 29.38 157 L 29.63 157 L 29.81 157.13 L 29.94 157.38 L 30 157.75 L 30 158.25 L 30.19 158.63 L 30.56 158.88 L 31.13 159 L 31.88 159 L 32.44 158.88 L 32.81 158.63 L 33 158.25 L 33 157.75 L 33.06 157.38 L 33.19 157.13 L 33.38 157 L 33.63 157 L 33.81 156.88 L 33.94 156.63 L 34 156.25 L 34 155.75 L 34.06 155.38 L 34.19 155.13 L 34.38 155 L 34.63 155 L 34.81 154.81 L 34.94 154.44 L 35 153.88 L 35 153.13 L 35.06 152.56 L 35.19 152.19 L 35.38 152 L 35.63 152 L 35.81 151.94 L 35.94 151.81 L 36 151.63 L 36 151.38 L 36.19 151.19 L 36.56 151.06 Z M 154.63 155 L 154.38 155 L 154.19 155.06 L 154.06 155.19 L 154 155.38 L 154 155.63 L 153.94 155.81 L 153.81 155.94 L 153.63 156 L 153.38 156 L 153.19 156.06 L 153.06 156.19 L 153 156.38 L 153 156.63 L 153.13 156.81 L 153.38 156.94 L 153.75 157 L 154.25 157 L 154.63 156.88 L 154.88 156.63 L 155 156.25 L 155 155.75 L 154.94 155.38 L 154.81 155.13 Z M 36.63 159 L 36.38 159 L 36.19 159.13 L 36.06 159.38 L 36 159.75 L 36 160.25 L 35.94 160.63 L 35.81 160.88 L 35.63 161 L 35.38 161 L 35.19 161.13 L 35.06 161.38 L 35 161.75 L 35 162.25 L 35.06 162.63 L 35.19 162.88 L 35.38 163 L 35.63 163 L 35.81 163.06 L 35.94 163.19 L 36 163.38 L 36 163.63 L 36.13 163.81 L 36.38 163.94 L 36.75 164 L 37.25 164 L 37.63 163.94 L 37.88 163.81 L 38 163.63 L 38 163.38 L 38.06 163.19 L 38.19 163.06 L 38.38 163 L 38.63 163 L 38.81 162.81 L 38.94 162.44 L 39 161.88 L 39 161.13 L 38.88 160.56 L 38.63 160.19 L 38.25 160 L 37.75 160 L 37.38 159.94 L 37.13 159.81 L 37 159.63 L 37 159.38 L 36.94 159.19 L 36.81 159.06 Z M 72.63 163 L 72.38 163 L 72.19 163.19 L 72.06 163.56 L 72 164.13 L 72 164.88 L 71.94 165.44 L 71.81 165.81 L 71.63 166 L 71.38 166 L 71.19 166.06 L 71.06 166.19 L 71 166.38 L 71 166.63 L 70.94 166.81 L 70.81 166.94 L 70.63 167 L 70.38 167 L 70.19 167.13 L 70.06 167.38 L 70 167.75 L 70 168.25 L 69.94 168.63 L 69.81 168.88 L 69.63 169 L 69.38 169 L 69.19 169.13 L 69.06 169.38 L 69 169.75 L 69 170.25 L 68.94 170.63 L 68.81 170.88 L 68.63 171 L 68.38 171 L 68.19 171.13 L 68.06 171.38 L 68 171.75 L 68 172.25 L 67.94 172.63 L 67.81 172.88 L 67.63 173 L 67.38 173 L 67.19 173.06 L 67.06 173.19 L 67 173.38 L 67 173.63 L 66.94 173.81 L 66.81 173.94 L 66.63 174 L 66.38 174 L 66.19 174.19 L 66.06 174.56 L 66 175.13 L 66 175.88 L 65.94 176.44 L 65.81 176.81 L 65.63 177 L 65.38 177 L 65.19 177.06 L 65.06 177.19 L 65 177.38 L 65 177.63 L 64.94 177.81 L 64.81 177.94 L 64.63 178 L 64.38 178 L 64.19 178.19 L 64.06 178.56 L 64 179.13 L 64 179.88 L 63.94 180.44 L 63.81 180.81 L 63.63 181 L 63.38 181 L 63.19 181.06 L 63.06 181.19 L 63 181.38 L 63 181.63 L 62.94 181.81 L 62.81 181.94 L 62.63 182 L 62.38 182 L 62.19 182.13 L 62.06 182.38 L 62 182.75 L 62 183.25 L 61.94 183.63 L 61.81 183.88 L 61.63 184 L 61.38 184 L 61.19 184.06 L 61.06 184.19 L 61 184.38 L 61 184.63 L 60.94 184.81 L 60.81 184.94 L 60.63 185 L 60.38 185 L 60.19 185.19 L 60.06 185.56 L 60 186.13 L 60 186.88 L 59.94 187.44 L 59.81 187.81 L 59.63 188 L 59.38 188 L 59.19 188.06 L 59.06 188.19 L 59 188.38 L 59 188.63 L 58.94 188.81 L 58.81 188.94 L 58.63 189 L 58.38 189 L 58.19 189.13 L 58.06 189.38 L 58 189.75 L 58 190.25 L 57.94 190.63 L 57.81 190.88 L 57.63 191 L 57.38 191 L 57.19 191.13 L 57.06 191.38 L 57 191.75 L 57 192.25 L 56.94 192.63 L 56.81 192.88 L 56.63 193 L 56.38 193 L 56.19 193.13 L 56.06 193.38 L 56 193.75 L 56 194.25 L 55.94 194.63 L 55.81 194.88 L 55.63 195 L 55.38 195 L 55.19 195.13 L 55.06 195.38 L 55 195.75 L 55 196.25 L 54.94 196.63 L 54.81 196.88 L 54.63 197 L 54.38 197 L 54.19 197.13 L 54.06 197.38 L 54 197.75 L 54 198.25 L 53.94 198.63 L 53.81 198.88 L 53.63 199 L 53.38 199 L 53.19 199.06 L 53.06 199.19 L 53 199.38 L 53 199.63 L 52.94 199.81 L 52.81 199.94 L 52.63 200 L 52.38 200 L 52.19 200.19 L 52.06 200.56 L 52 201.13 L 52 201.88 L 51.94 202.44 L 51.81 202.81 L 51.63 203 L 51.38 203 L 51.19 203.13 L 51.06 203.38 L 51 203.75 L 51 204.25 L 50.94 204.63 L 50.81 204.88 L 50.63 205 L 50.38 205 L 50.19 205.19 L 50.06 205.56 L 50 206.13 L 50 206.88 L 50.06 207.44 L 50.19 207.81 L 50.38 208 L 50.63 208 L 50.81 207.88 L 50.94 207.63 L 51 207.25 L 51 206.75 L 51.06 206.38 L 51.19 206.13 L 51.38 206 L 51.63 206 L 51.81 205.94 L 51.94 205.81 L 52 205.63 L 52 205.38 L 52.06 205.19 L 52.19 205.06 L 52.38 205 L 52.63 205 L 52.81 204.88 L 52.94 204.63 L 53 204.25 L 53 203.75 L 53.06 203.38 L 53.19 203.13 L 53.38 203 L 53.63 203 L 53.81 202.94 L 53.94 202.81 L 54 202.63 L 54 202.38 L 54.06 202.19 L 54.19 202.06 L 54.38 202 L 54.63 202 L 54.81 201.88 L 54.94 201.63 L 55 201.25 L 55 200.75 L 55.06 200.38 L 55.19 200.13 L 55.38 200 L 55.63 200 L 55.81 199.88 L 55.94 199.63 L 56 199.25 L 56 198.75 L 56.06 198.38 L 56.19 198.13 L 56.38 198 L 56.63 198 L 56.81 197.88 L 56.94 197.63 L 57 197.25 L 57 196.75 L 57.06 196.38 L 57.19 196.13 L 57.38 196 L 57.63 196 L 57.81 195.88 L 57.94 195.63 L 58 195.25 L 58 194.75 L 58.06 194.38 L 58.19 194.13 L 58.38 194 L 58.63 194 L 58.81 193.88 L 58.94 193.63 L 59 193.25 L 59 192.75 L 59.06 192.38 L 59.19 192.13 L 59.38 192 L 59.63 192 L 59.81 191.88 L 59.94 191.63 L 60 191.25 L 60 190.75 L 60.06 190.38 L 60.19 190.13 L 60.38 190 L 60.63 190 L 60.81 189.88 L 60.94 189.63 L 61 189.25 L 61 188.75 L 61.06 188.38 L 61.19 188.13 L 61.38 188 L 61.63 188 L 61.81 187.94 L 61.94 187.81 L 62 187.63 L 62 187.38 L 62.06 187.19 L 62.19 187.06 L 62.38 187 L 62.63 187 L 62.81 186.88 L 62.94 186.63 L 63 186.25 L 63 185.75 L 63.06 185.38 L 63.19 185.13 L 63.38 185 L 63.63 185 L 63.81 184.88 L 63.94 184.63 L 64 184.25 L 64 183.75 L 64.06 183.38 L 64.19 183.13 L 64.38 183 L 64.63 183 L 64.81 182.88 L 64.94 182.63 L 65 182.25 L 65 181.75 L 65.06 181.38 L 65.19 181.13 L 65.38 181 L 65.63 181 L 65.81 180.88 L 65.94 180.63 L 66 180.25 L 66 179.75 L 66.06 179.38 L 66.19 179.13 L 66.38 179 L 66.63 179 L 66.81 178.88 L 66.94 178.63 L 67 178.25 L 67 177.75 L 67.06 177.38 L 67.19 177.13 L 67.38 177 L 67.63 177 L 67.81 176.94 L 67.94 176.81 L 68 176.63 L 68 176.38 L 68.06 176.19 L 68.19 176.06 L 68.38 176 L 68.63 176 L 68.81 175.81 L 68.94 175.44 L 69 174.88 L 69 174.13 L 69.06 173.56 L 69.19 173.19 L 69.38 173 L 69.63 173 L 69.81 172.94 L 69.94 172.81 L 70 172.63 L 70 172.38 L 70.06 172.19 L 70.19 172.06 L 70.38 172 L 70.63 172 L 70.81 171.88 L 70.94 171.63 L 71 171.25 L 71 170.75 L 71.06 170.38 L 71.19 170.13 L 71.38 170 L 71.63 170 L 71.81 169.88 L 71.94 169.63 L 72 169.25 L 72 168.75 L 72.06 168.38 L 72.19 168.13 L 72.38 168 L 72.63 168 L 72.81 167.69 L 72.94 167.06 L 73 166.13 L 73 164.88 L 72.94 163.94 L 72.81 163.31 Z M 44.38 172 L 44.63 172 L 44.81 172.06 L 44.94 172.19 L 45 172.38 L 45 172.63 L 45.13 172.81 L 45.38 172.94 L 45.75 173 L 46.25 173 L 46.63 173.13 L 46.88 173.38 L 47 173.75 L 47 174.25 L 47.06 174.63 L 47.19 174.88 L 47.38 175 L 47.63 175 L 47.81 175.13 L 47.94 175.38 L 48 175.75 L 48 176.25 L 47.94 176.63 L 47.81 176.88 L 47.63 177 L 47.38 177 L 47.19 177.06 L 47.06 177.19 L 47 177.38 L 47 177.63 L 46.94 177.81 L 46.81 177.94 L 46.63 178 L 46.38 178 L 46.19 178.06 L 46.06 178.19 L 46 178.38 L 46 178.63 L 45.81 178.81 L 45.44 178.94 L 44.88 179 L 44.13 179 L 43.56 178.94 L 43.19 178.81 L 43 178.63 L 43 178.38 L 42.94 178.19 L 42.81 178.06 L 42.63 178 L 42.38 178 L 42.19 177.94 L 42.06 177.81 L 42 177.63 L 42 177.38 L 41.94 177.19 L 41.81 177.06 L 41.63 177 L 41.38 177 L 41.19 176.88 L 41.06 176.63 L 41 176.25 L 41 175.75 L 41.06 175.38 L 41.19 175.13 L 41.38 175 L 41.63 175 L 41.81 174.94 L 41.94 174.81 L 42 174.63 L 42 174.38 L 42.06 174.19 L 42.19 174.06 L 42.38 174 L 42.63 174 L 42.81 173.94 L 42.94 173.81 L 43 173.63 L 43 173.38 L 43.06 173.19 L 43.19 173.06 L 43.38 173 L 43.63 173 L 43.81 172.94 L 43.94 172.81 L 44 172.63 L 44 172.38 L 44.06 172.19 L 44.19 172.06 Z" fill="#FFE998" fill-rule="evenodd"/>
</svg>
