<?xml version="1.0" encoding="UTF-8"?>
<svg viewBox="0 0 256 256" xmlns="http://www.w3.org/2000/svg" fill="none">
  <path d="M 92 35 L 96 35 L 99 35.06 L 101 35.19 L 102 35.38 L 102 35.63 L 102.25 35.81 L 102.75 35.94 L 103.5 36 L 104.5 36 L 105.25 36.06 L 105.75 36.19 L 106 36.38 L 106 36.63 L 106.25 36.81 L 106.75 36.94 L 107.5 37 L 108.5 37 L 109.25 37.06 L 109.75 37.19 L 110 37.38 L 110 37.63 L 110.19 37.81 L 110.56 37.94 L 111.13 38 L 111.88 38 L 112.44 38.06 L 112.81 38.19 L 113 38.38 L 113 38.63 L 113.13 38.81 L 113.38 38.94 L 113.75 39 L 114.25 39 L 114.63 39.06 L 114.88 39.19 L 115 39.38 L 115 39.63 L 115.13 39.81 L 115.38 39.94 L 115.75 40 L 116.25 40 L 116.63 40.06 L 116.88 40.19 L 117 40.38 L 117 40.63 L 117.13 40.81 L 117.38 40.94 L 117.75 41 L 118.25 41 L 118.63 41.06 L 118.88 41.19 L 119 41.38 L 119 41.63 L 119.13 41.81 L 119.38 41.94 L 119.75 42 L 120.25 42 L 120.63 42.06 L 120.88 42.19 L 121 42.38 L 121 42.63 L 121.06 42.81 L 121.19 42.94 L 121.38 43 L 121.63 43 L 121.81 43.06 L 121.94 43.19 L 122 43.38 L 122 43.63 L 122.06 43.81 L 122.19 43.94 L 122.38 44 L 122.63 44 L 122.81 44.06 L 122.94 44.19 L 123 44.38 L 123 44.63 L 123.13 44.81 L 123.38 44.94 L 123.75 45 L 124.25 45 L 124.63 45.06 L 124.88 45.19 L 125 45.38 L 125 45.63 L 125.06 45.81 L 125.19 45.94 L 125.38 46 L 125.63 46 L 125.81 46.06 L 125.94 46.19 L 126 46.38 L 126 46.63 L 126.06 46.81 L 126.19 46.94 L 126.38 47 L 126.63 47 L 126.81 47.06 L 126.94 47.19 L 127 47.38 L 127 47.63 L 127.06 47.81 L 127.19 47.94 L 127.38 48 L 127.63 48 L 127.81 48.06 L 127.94 48.19 L 128 48.38 L 128 48.63 L 128.06 48.81 L 128.19 48.94 L 128.38 49 L 128.63 49 L 128.81 49.06 L 128.94 49.19 L 129 49.38 L 129 49.63 L 129.06 49.81 L 129.19 49.94 L 129.38 50 L 129.63 50 L 129.81 50.06 L 129.94 50.19 L 130 50.38 L 130 50.63 L 130.06 50.81 L 130.19 50.94 L 130.38 51 L 130.63 51 L 130.81 51.06 L 130.94 51.19 L 131 51.38 L 131 51.63 L 131.06 51.81 L 131.19 51.94 L 131.38 52 L 131.63 52 L 131.81 52.13 L 131.94 52.38 L 132 52.75 L 132 53.25 L 132.06 53.63 L 132.19 53.88 L 132.38 54 L 132.63 54 L 132.81 54.06 L 132.94 54.19 L 133 54.38 L 133 54.63 L 133.06 54.81 L 133.19 54.94 L 133.38 55 L 133.63 55 L 133.81 55.13 L 133.94 55.38 L 134 55.75 L 134 56.25 L 134.06 56.63 L 134.19 56.88 L 134.38 57 L 134.63 57 L 134.81 57.13 L 134.94 57.38 L 135 57.75 L 135 58.25 L 135.06 58.63 L 135.19 58.88 L 135.38 59 L 135.63 59 L 135.81 59.19 L 135.94 59.56 L 136 60.13 L 136 60.88 L 136.06 61.44 L 136.19 61.81 L 136.38 62 L 136.63 62 L 136.81 62.13 L 136.94 62.38 L 137 62.75 L 137 63.25 L 137.06 63.63 L 137.19 63.88 L 137.38 64 L 137.63 64 L 137.81 64.19 L 137.94 64.56 L 138 65.13 L 138 65.88 L 138.06 66.44 L 138.19 66.81 L 138.38 67 L 138.63 67 L 138.81 67.13 L 138.94 67.38 L 139 67.75 L 139 68.25 L 138.94 68.63 L 138.81 68.88 L 138.63 69 L 138.38 69 L 138.19 69.13 L 138.06 69.38 L 138 69.75 L 138 70.25 L 137.94 70.63 L 137.81 70.88 L 137.63 71 L 137.38 71 L 137.19 71.06 L 137.06 71.19 L 137 71.38 L 137 71.63 L 136.94 71.81 L 136.81 71.94 L 136.63 72 L 136.38 72 L 136.19 72.13 L 136.06 72.38 L 136 72.75 L 136 73.25 L 136.06 73.63 L 136.19 73.88 L 136.38 74 L 136.63 74 L 136.81 74.06 L 136.94 74.19 L 137 74.38 L 137 74.63 L 137.06 74.81 L 137.19 74.94 L 137.38 75 L 137.63 75 L 137.81 75.06 L 137.94 75.19 L 138 75.38 L 138 75.63 L 138.06 75.81 L 138.19 75.94 L 138.38 76 L 138.63 76 L 138.81 76.06 L 138.94 76.19 L 139 76.38 L 139 76.63 L 139.06 76.81 L 139.19 76.94 L 139.38 77 L 139.63 77 L 139.81 77.06 L 139.94 77.19 L 140 77.38 L 140 77.63 L 140.06 77.81 L 140.19 77.94 L 140.38 78 L 140.63 78 L 140.81 78.06 L 140.94 78.19 L 141 78.38 L 141 78.63 L 141.06 78.81 L 141.19 78.94 L 141.38 79 L 141.63 79 L 141.81 79.06 L 141.94 79.19 L 142 79.38 L 142 79.63 L 142.06 79.81 L 142.19 79.94 L 142.38 80 L 142.63 80 L 142.81 80.06 L 142.94 80.19 L 143 80.38 L 143 80.63 L 143.06 80.81 L 143.19 80.94 L 143.38 81 L 143.63 81 L 143.81 81.13 L 143.94 81.38 L 144 81.75 L 144 82.25 L 144.06 82.63 L 144.19 82.88 L 144.38 83 L 144.63 83 L 144.81 83.06 L 144.94 83.19 L 145 83.38 L 145 83.63 L 145.06 83.81 L 145.19 83.94 L 145.38 84 L 145.63 84 L 145.81 84.13 L 145.94 84.38 L 146 84.75 L 146 85.25 L 146.06 85.63 L 146.19 85.88 L 146.38 86 L 146.63 86 L 146.81 86.06 L 146.94 86.19 L 147 86.38 L 147 86.63 L 147.06 86.81 L 147.19 86.94 L 147.38 87 L 147.63 87 L 147.81 87.13 L 147.94 87.38 L 148 87.75 L 148 88.25 L 148.06 88.63 L 148.19 88.88 L 148.38 89 L 148.63 89 L 148.81 89.19 L 148.94 89.56 L 149 90.13 L 149 90.88 L 149.06 91.44 L 149.19 91.81 L 149.38 92 L 149.63 92 L 149.81 92.13 L 149.94 92.38 L 150 92.75 L 150 93.25 L 150.06 93.63 L 150.19 93.88 L 150.38 94 L 150.63 94 L 150.81 94.13 L 150.94 94.38 L 151 94.75 L 151 95.25 L 151.06 95.63 L 151.19 95.88 L 151.38 96 L 151.63 96 L 151.81 96.06 L 151.94 96.19 L 152 96.38 L 152 96.63 L 152.13 96.81 L 152.38 96.94 L 152.75 97 L 153.25 97 L 153.63 96.94 L 153.88 96.81 L 154 96.63 L 154 96.38 L 154.19 96.19 L 154.56 96.06 L 155.13 96 L 155.88 96 L 156.44 95.94 L 156.81 95.81 L 157 95.63 L 157 95.38 L 157.13 95.19 L 157.38 95.06 L 157.75 95 L 158.25 95 L 158.63 94.94 L 158.88 94.81 L 159 94.63 L 159 94.38 L 160.44 94.19 L 163.31 94.06 L 167.63 94 L 173.38 94 L 177.69 94.06 L 180.56 94.19 L 182 94.38 L 182 94.63 L 182.19 94.81 L 182.56 94.94 L 183.13 95 L 183.88 95 L 184.44 95.06 L 184.81 95.19 L 185 95.38 L 185 95.63 L 185.25 95.81 L 185.75 95.94 L 186.5 96 L 187.5 96 L 188.25 96.06 L 188.75 96.19 L 189 96.38 L 189 96.63 L 189.13 96.81 L 189.38 96.94 L 189.75 97 L 190.25 97 L 190.63 97.06 L 190.88 97.19 L 191 97.38 L 191 97.63 L 191.19 97.81 L 191.56 97.94 L 192.13 98 L 192.88 98 L 193.44 98.06 L 193.81 98.19 L 194 98.38 L 194 98.63 L 194.06 98.81 L 194.19 98.94 L 194.38 99 L 194.63 99 L 194.81 99.06 L 194.94 99.19 L 195 99.38 L 195 99.63 L 195.13 99.81 L 195.38 99.94 L 195.75 100 L 196.25 100 L 196.63 100.06 L 196.88 100.19 L 197 100.38 L 197 100.63 L 197.13 100.81 L 197.38 100.94 L 197.75 101 L 198.25 101 L 198.63 101.06 L 198.88 101.19 L 199 101.38 L 199 101.63 L 199.06 101.81 L 199.19 101.94 L 199.38 102 L 199.63 102 L 199.81 102.06 L 199.94 102.19 L 200 102.38 L 200 102.63 L 200.06 102.81 L 200.19 102.94 L 200.38 103 L 200.63 103 L 200.81 103.06 L 200.94 103.19 L 201 103.38 L 201 103.63 L 201.06 103.81 L 201.19 103.94 L 201.38 104 L 201.63 104 L 201.81 104.06 L 201.94 104.19 L 202 104.38 L 202 104.63 L 202.06 104.81 L 202.19 104.94 L 202.38 105 L 202.63 105 L 202.81 105.06 L 202.94 105.19 L 203 105.38 L 203 105.63 L 203.06 105.81 L 203.19 105.94 L 203.38 106 L 203.63 106 L 203.81 106.06 L 203.94 106.19 L 204 106.38 L 204 106.63 L 204.06 106.81 L 204.19 106.94 L 204.38 107 L 204.63 107 L 204.81 107.06 L 204.94 107.19 L 205 107.38 L 205 107.63 L 205.06 107.81 L 205.19 107.94 L 205.38 108 L 205.63 108 L 205.81 108.06 L 205.94 108.19 L 206 108.38 L 206 108.63 L 206.06 108.81 L 206.19 108.94 L 206.38 109 L 206.63 109 L 206.81 109.13 L 206.94 109.38 L 207 109.75 L 207 110.25 L 207.06 110.63 L 207.19 110.88 L 207.38 111 L 207.63 111 L 207.81 111.06 L 207.94 111.19 L 208 111.38 L 208 111.63 L 208.06 111.81 L 208.19 111.94 L 208.38 112 L 208.63 112 L 208.81 112.13 L 208.94 112.38 L 209 112.75 L 209 113.25 L 209.06 113.63 L 209.19 113.88 L 209.38 114 L 209.63 114 L 209.81 114.06 L 209.94 114.19 L 210 114.38 L 210 114.63 L 210.06 114.81 L 210.19 114.94 L 210.38 115 L 210.63 115 L 210.81 115.19 L 210.94 115.56 L 211 116.13 L 211 116.88 L 211.06 117.44 L 211.19 117.81 L 211.38 118 L 211.63 118 L 211.81 118.06 L 211.94 118.19 L 212 118.38 L 212 118.63 L 212.06 118.81 L 212.19 118.94 L 212.38 119 L 212.63 119 L 212.81 119.25 L 212.94 119.75 L 213 120.5 L 213 121.5 L 213.06 122.25 L 213.19 122.75 L 213.38 123 L 213.63 123 L 213.81 123.13 L 213.94 123.38 L 214 123.75 L 214 124.25 L 214.06 124.63 L 214.19 124.88 L 214.38 125 L 214.63 125 L 214.81 125.31 L 214.94 125.94 L 215 126.88 L 215 128.13 L 215.06 129.06 L 215.19 129.69 L 215.38 130 L 215.63 130 L 215.81 130.38 L 215.94 131.13 L 216 132.25 L 216 133.75 L 216.06 134.88 L 216.19 135.63 L 216.38 136 L 216.63 136 L 216.81 136.5 L 216.94 137.5 L 217 139 L 217 141 L 217.06 142.5 L 217.19 143.5 L 217.38 144 L 217.63 144 L 217.81 144.44 L 217.94 145.31 L 218 146.63 L 218 148.38 L 217.94 149.69 L 217.81 150.56 L 217.63 151 L 217.38 151 L 217.19 151.44 L 217.06 152.31 L 217 153.63 L 217 155.38 L 216.94 156.69 L 216.81 157.56 L 216.63 158 L 216.38 158 L 216.19 158.44 L 216.06 159.31 L 216 160.63 L 216 162.38 L 215.94 163.69 L 215.81 164.56 L 215.63 165 L 215.38 165 L 215.19 165.25 L 215.06 165.75 L 215 166.5 L 215 167.5 L 214.94 168.25 L 214.81 168.75 L 214.63 169 L 214.38 169 L 214.19 169.13 L 214.06 169.38 L 214 169.75 L 214 170.25 L 213.94 170.63 L 213.81 170.88 L 213.63 171 L 213.38 171 L 213.19 171.25 L 213.06 171.75 L 213 172.5 L 213 173.5 L 212.94 174.25 L 212.81 174.75 L 212.63 175 L 212.38 175 L 212.19 175.13 L 212.06 175.38 L 212 175.75 L 212 176.25 L 211.94 176.63 L 211.81 176.88 L 211.63 177 L 211.38 177 L 211.19 177.13 L 211.06 177.38 L 211 177.75 L 211 178.25 L 210.94 178.63 L 210.81 178.88 L 210.63 179 L 210.38 179 L 210.19 179.13 L 210.06 179.38 L 210 179.75 L 210 180.25 L 209.94 180.63 L 209.81 180.88 L 209.63 181 L 209.38 181 L 209.19 181.13 L 209.06 181.38 L 209 181.75 L 209 182.25 L 208.94 182.63 L 208.81 182.88 L 208.63 183 L 208.38 183 L 208.19 183.06 L 208.06 183.19 L 208 183.38 L 208 183.63 L 207.94 183.81 L 207.81 183.94 L 207.63 184 L 207.38 184 L 207.19 184.13 L 207.06 184.38 L 207 184.75 L 207 185.25 L 206.94 185.63 L 206.81 185.88 L 206.63 186 L 206.38 186 L 206.19 186.06 L 206.06 186.19 L 206 186.38 L 206 186.63 L 205.94 186.81 L 205.81 186.94 L 205.63 187 L 205.38 187 L 205.19 187.13 L 205.06 187.38 L 205 187.75 L 205 188.25 L 204.94 188.63 L 204.81 188.88 L 204.63 189 L 204.38 189 L 204.19 189.06 L 204.06 189.19 L 204 189.38 L 204 189.63 L 203.94 189.81 L 203.81 189.94 L 203.63 190 L 203.38 190 L 203.19 190.13 L 203.06 190.38 L 203 190.75 L 203 191.25 L 202.94 191.63 L 202.81 191.88 L 202.63 192 L 202.38 192 L 202.19 192.06 L 202.06 192.19 L 202 192.38 L 202 192.63 L 201.94 192.81 L 201.81 192.94 L 201.63 193 L 201.38 193 L 201.19 193.06 L 201.06 193.19 L 201 193.38 L 201 193.63 L 200.94 193.81 L 200.81 193.94 L 200.63 194 L 200.38 194 L 200.19 194.06 L 200.06 194.19 L 200 194.38 L 200 194.63 L 199.94 194.81 L 199.81 194.94 L 199.63 195 L 199.38 195 L 199.19 195.06 L 199.06 195.19 L 199 195.38 L 199 195.63 L 198.94 195.81 L 198.81 195.94 L 198.63 196 L 198.38 196 L 198.19 196.06 L 198.06 196.19 L 198 196.38 L 198 196.63 L 197.94 196.81 L 197.81 196.94 L 197.63 197 L 197.38 197 L 197.19 197.06 L 197.06 197.19 L 197 197.38 L 197 197.63 L 196.94 197.81 L 196.81 197.94 L 196.63 198 L 196.38 198 L 196.19 198.06 L 196.06 198.19 L 196 198.38 L 196 198.63 L 195.94 198.81 L 195.81 198.94 L 195.63 199 L 195.38 199 L 195.19 199.06 L 195.06 199.19 L 195 199.38 L 195 199.63 L 194.94 199.81 L 194.81 199.94 L 194.63 200 L 194.38 200 L 194.19 200.06 L 194.06 200.19 L 194 200.38 L 194 200.63 L 193.94 200.81 L 193.81 200.94 L 193.63 201 L 193.38 201 L 193.19 201.06 L 193.06 201.19 L 193 201.38 L 193 201.63 L 192.94 201.81 L 192.81 201.94 L 192.63 202 L 192.38 202 L 192.19 202.06 L 192.06 202.19 L 192 202.38 L 192 202.63 L 191.94 202.81 L 191.81 202.94 L 191.63 203 L 191.38 203 L 191.19 203.06 L 191.06 203.19 L 191 203.38 L 191 203.63 L 190.94 203.81 L 190.81 203.94 L 190.63 204 L 190.38 204 L 190.19 204.06 L 190.06 204.19 L 190 204.38 L 190 204.63 L 189.88 204.81 L 189.63 204.94 L 189.25 205 L 188.75 205 L 188.38 205.06 L 188.13 205.19 L 188 205.38 L 188 205.63 L 187.94 205.81 L 187.81 205.94 L 187.63 206 L 187.38 206 L 187.19 206.06 L 187.06 206.19 L 187 206.38 L 187 206.63 L 186.88 206.81 L 186.63 206.94 L 186.25 207 L 185.75 207 L 185.38 207.06 L 185.13 207.19 L 185 207.38 L 185 207.63 L 184.88 207.81 L 184.63 207.94 L 184.25 208 L 183.75 208 L 183.38 208.06 L 183.13 208.19 L 183 208.38 L 183 208.63 L 182.88 208.81 L 182.63 208.94 L 182.25 209 L 181.75 209 L 181.38 209.06 L 181.13 209.19 L 181 209.38 L 181 209.63 L 180.81 209.81 L 180.44 209.94 L 179.88 210 L 179.13 210 L 178.56 210.06 L 178.19 210.19 L 178 210.38 L 178 210.63 L 177.75 210.81 L 177.25 210.94 L 176.5 211 L 175.5 211 L 174.75 211.06 L 174.25 211.19 L 174 211.38 L 174 211.63 L 173.69 211.81 L 173.06 211.94 L 172.13 212 L 170.88 212 L 169.94 211.94 L 169.31 211.81 L 169 211.63 L 169 211.38 L 168.75 211.19 L 168.25 211.06 L 167.5 211 L 166.5 211 L 165.75 210.94 L 165.25 210.81 L 165 210.63 L 165 210.38 L 164.81 210.19 L 164.44 210.06 L 163.88 210 L 163.13 210 L 162.56 209.94 L 162.19 209.81 L 162 209.63 L 162 209.38 L 161.94 209.19 L 161.81 209.06 L 161.63 209 L 161.38 209 L 161.19 208.94 L 161.06 208.81 L 161 208.63 L 161 208.38 L 160.88 208.19 L 160.63 208.06 L 160.25 208 L 159.75 208 L 159.38 207.94 L 159.13 207.81 L 159 207.63 L 159 207.38 L 158.94 207.19 L 158.81 207.06 L 158.63 207 L 158.38 207 L 158.19 206.94 L 158.06 206.81 L 158 206.63 L 158 206.38 L 157.94 206.19 L 157.81 206.06 L 157.63 206 L 157.38 206 L 157.19 205.94 L 157.06 205.81 L 157 205.63 L 157 205.38 L 156.94 205.19 L 156.81 205.06 L 156.63 205 L 156.38 205 L 156.19 204.81 L 156.06 204.44 L 156 203.88 L 156 203.13 L 155.88 202.56 L 155.63 202.19 L 155.25 202 L 154.75 202 L 154.38 201.94 L 154.13 201.81 L 154 201.63 L 154 201.38 L 153.69 201.19 L 153.06 201.06 L 152.13 201 L 150.88 201 L 149.94 200.94 L 149.31 200.81 L 149 200.63 L 149 200.38 L 148.94 200.19 L 148.81 200.06 L 148.63 200 L 148.38 200 L 148.19 199.94 L 148.06 199.81 L 148 199.63 L 148 199.38 L 147.88 199.19 L 147.63 199.06 L 147.25 199 L 146.75 199 L 146.38 198.94 L 146.13 198.81 L 146 198.63 L 146 198.38 L 145.94 198.19 L 145.81 198.06 L 145.63 198 L 145.38 198 L 145.19 197.94 L 145.06 197.81 L 145 197.63 L 145 197.38 L 144.94 197.19 L 144.81 197.06 L 144.63 197 L 144.38 197 L 144.19 196.94 L 144.06 196.81 L 144 196.63 L 144 196.38 L 143.94 196.19 L 143.81 196.06 L 143.63 196 L 143.38 196 L 143.19 195.94 L 143.06 195.81 L 143 195.63 L 143 195.38 L 142.94 195.19 L 142.81 195.06 L 142.63 195 L 142.38 195 L 142.19 194.94 L 142.06 194.81 L 142 194.63 L 142 194.38 L 141.94 194.19 L 141.81 194.06 L 141.63 194 L 141.38 194 L 141.19 193.88 L 141.06 193.63 L 141 193.25 L 141 192.75 L 140.94 192.38 L 140.81 192.13 L 140.63 192 L 140.38 192 L 140.19 191.94 L 140.06 191.81 L 140 191.63 L 140 191.38 L 139.94 191.19 L 139.81 191.06 L 139.63 191 L 139.38 191 L 139.19 190.94 L 139.06 190.81 L 139 190.63 L 139 190.38 L 138.94 190.19 L 138.81 190.06 L 138.63 190 L 138.38 190 L 138.19 189.94 L 138.06 189.81 L 138 189.63 L 138 189.38 L 137.94 189.19 L 137.81 189.06 L 137.63 189 L 137.38 189 L 137.19 188.88 L 137.06 188.63 L 137 188.25 L 137 187.75 L 136.94 187.38 L 136.81 187.13 L 136.63 187 L 136.38 187 L 136.19 186.94 L 136.06 186.81 L 136 186.63 L 136 186.38 L 135.88 186.19 L 135.63 186.06 L 135.25 186 L 134.75 186 L 134.38 186.06 L 134.13 186.19 L 134 186.38 L 134 186.63 L 133.94 186.81 L 133.81 186.94 L 133.63 187 L 133.38 187 L 133.19 187.06 L 133.06 187.19 L 133 187.38 L 133 187.63 L 132.94 187.81 L 132.81 187.94 L 132.63 188 L 132.38 188 L 132.19 188.06 L 132.06 188.19 L 132 188.38 L 132 188.63 L 131.88 188.81 L 131.63 188.94 L 131.25 189 L 130.75 189 L 130.38 189.13 L 130.13 189.38 L 130 189.75 L 130 190.25 L 129.94 190.63 L 129.81 190.88 L 129.63 191 L 129.38 191 L 129.19 191.06 L 129.06 191.19 L 129 191.38 L 129 191.63 L 128.94 191.81 L 128.81 191.94 L 128.63 192 L 128.38 192 L 128.19 192.06 L 128.06 192.19 L 128 192.38 L 128 192.63 L 127.94 192.81 L 127.81 192.94 L 127.63 193 L 127.38 193 L 127.19 193.06 L 127.06 193.19 L 127 193.38 L 127 193.63 L 126.94 193.81 L 126.81 193.94 L 126.63 194 L 126.38 194 L 126.19 194.06 L 126.06 194.19 L 126 194.38 L 126 194.63 L 125.94 194.81 L 125.81 194.94 L 125.63 195 L 125.38 195 L 125.19 195.06 L 125.06 195.19 L 125 195.38 L 125 195.63 L 124.94 195.81 L 124.81 195.94 L 124.63 196 L 124.38 196 L 124.19 196.06 L 124.06 196.19 L 124 196.38 L 124 196.63 L 123.88 196.81 L 123.63 196.94 L 123.25 197 L 122.75 197 L 122.38 197.06 L 122.13 197.19 L 122 197.38 L 122 197.63 L 121.94 197.81 L 121.81 197.94 L 121.63 198 L 121.38 198 L 121.19 198.06 L 121.06 198.19 L 121 198.38 L 121 198.63 L 120.94 198.81 L 120.81 198.94 L 120.63 199 L 120.38 199 L 120.19 199.06 L 120.06 199.19 L 120 199.38 L 120 199.63 L 119.94 199.81 L 119.81 199.94 L 119.63 200 L 119.38 200 L 119.19 200.06 L 119.06 200.19 L 119 200.38 L 119 200.63 L 118.88 200.81 L 118.63 200.94 L 118.25 201 L 117.75 201 L 117.38 201.06 L 117.13 201.19 L 117 201.38 L 117 201.63 L 116.94 201.81 L 116.81 201.94 L 116.63 202 L 116.38 202 L 116.19 202.06 L 116.06 202.19 L 116 202.38 L 116 202.63 L 115.94 202.81 L 115.81 202.94 L 115.63 203 L 115.38 203 L 115.19 203.06 L 115.06 203.19 L 115 203.38 L 115 203.63 L 114.88 203.81 L 114.63 203.94 L 114.25 204 L 113.75 204 L 113.38 204.06 L 113.13 204.19 L 113 204.38 L 113 204.63 L 112.94 204.81 L 112.81 204.94 L 112.63 205 L 112.38 205 L 112.19 205.06 L 112.06 205.19 L 112 205.38 L 112 205.63 L 111.88 205.81 L 111.63 205.94 L 111.25 206 L 110.75 206 L 110.38 206.06 L 110.13 206.19 L 110 206.38 L 110 206.63 L 109.94 206.81 L 109.81 206.94 L 109.63 207 L 109.38 207 L 109.19 207.06 L 109.06 207.19 L 109 207.38 L 109 207.63 L 108.88 207.81 L 108.63 207.94 L 108.25 208 L 107.75 208 L 107.38 208.06 L 107.13 208.19 L 107 208.38 L 107 208.63 L 106.88 208.81 L 106.63 208.94 L 106.25 209 L 105.75 209 L 105.38 209.06 L 105.13 209.19 L 105 209.38 L 105 209.63 L 104.88 209.81 L 104.63 209.94 L 104.25 210 L 103.75 210 L 103.38 210.06 L 103.13 210.19 L 103 210.38 L 103 210.63 L 102.88 210.81 L 102.63 210.94 L 102.25 211 L 101.75 211 L 101.38 211.06 L 101.13 211.19 L 101 211.38 L 101 211.63 L 100.38 211.81 L 99.13 211.94 L 97.25 212 L 94.75 212 L 92.88 211.94 L 91.63 211.81 L 91 211.63 L 91 211.38 L 90.88 211.19 L 90.63 211.06 L 90.25 211 L 89.75 211 L 89.38 210.94 L 89.13 210.81 L 89 210.63 L 89 210.38 L 88.81 210.19 L 88.44 210.06 L 87.88 210 L 87.13 210 L 86.56 209.94 L 86.19 209.81 L 86 209.63 L 86 209.38 L 85.94 209.19 L 85.81 209.06 L 85.63 209 L 85.38 209 L 85.19 208.94 L 85.06 208.81 L 85 208.63 L 85 208.38 L 84.88 208.19 L 84.63 208.06 L 84.25 208 L 83.75 208 L 83.38 207.94 L 83.13 207.81 L 83 207.63 L 83 207.38 L 82.94 207.19 L 82.81 207.06 L 82.63 207 L 82.38 207 L 82.19 206.94 L 82.06 206.81 L 82 206.63 L 82 206.38 L 81.88 206.19 L 81.63 206.06 L 81.25 206 L 80.75 206 L 80.38 205.94 L 80.13 205.81 L 80 205.63 L 80 205.38 L 79.94 205.19 L 79.81 205.06 L 79.63 205 L 79.38 205 L 79.19 204.94 L 79.06 204.81 L 79 204.63 L 79 204.38 L 78.88 204.19 L 78.63 204.06 L 78.25 204 L 77.75 204 L 77.38 203.94 L 77.13 203.81 L 77 203.63 L 77 203.38 L 76.94 203.19 L 76.81 203.06 L 76.63 203 L 76.38 203 L 76.19 202.94 L 76.06 202.81 L 76 202.63 L 76 202.38 L 75.94 202.19 L 75.81 202.06 L 75.63 202 L 75.38 202 L 75.19 201.94 L 75.06 201.81 L 75 201.63 L 75 201.38 L 74.88 201.19 L 74.63 201.06 L 74.25 201 L 73.75 201 L 73.38 200.94 L 73.13 200.81 L 73 200.63 L 73 200.38 L 72.94 200.19 L 72.81 200.06 L 72.63 200 L 72.38 200 L 72.19 199.94 L 72.06 199.81 L 72 199.63 L 72 199.38 L 71.94 199.19 L 71.81 199.06 L 71.63 199 L 71.38 199 L 71.19 198.94 L 71.06 198.81 L 71 198.63 L 71 198.38 L 70.94 198.19 L 70.81 198.06 L 70.63 198 L 70.38 198 L 70.19 197.94 L 70.06 197.81 L 70 197.63 L 70 197.38 L 69.94 197.19 L 69.81 197.06 L 69.63 197 L 69.38 197 L 69.19 196.94 L 69.06 196.81 L 69 196.63 L 69 196.38 L 68.94 196.19 L 68.81 196.06 L 68.63 196 L 68.38 196 L 68.19 195.94 L 68.06 195.81 L 68 195.63 L 68 195.38 L 67.88 195.19 L 67.63 195.06 L 67.25 195 L 66.75 195 L 66.38 194.88 L 66.13 194.63 L 66 194.25 L 66 193.75 L 65.88 193.38 L 65.63 193.13 L 65.25 193 L 64.75 193 L 64.38 192.94 L 64.13 192.81 L 64 192.63 L 64 192.38 L 63.94 192.19 L 63.81 192.06 L 63.63 192 L 63.38 192 L 63.19 191.88 L 63.06 191.63 L 63 191.25 L 63 190.75 L 62.94 190.38 L 62.81 190.13 L 62.63 190 L 62.38 190 L 62.19 189.94 L 62.06 189.81 L 62 189.63 L 62 189.38 L 61.94 189.19 L 61.81 189.06 L 61.63 189 L 61.38 189 L 61.19 188.94 L 61.06 188.81 L 61 188.63 L 61 188.38 L 60.94 188.19 L 60.81 188.06 L 60.63 188 L 60.38 188 L 60.19 187.94 L 60.06 187.81 L 60 187.63 L 60 187.38 L 59.94 187.19 L 59.81 187.06 L 59.63 187 L 59.38 187 L 59.19 186.94 L 59.06 186.81 L 59 186.63 L 59 186.38 L 58.94 186.19 L 58.81 186.06 L 58.63 186 L 58.38 186 L 58.19 185.94 L 58.06 185.81 L 58 185.63 L 58 185.38 L 57.94 185.19 L 57.81 185.06 L 57.63 185 L 57.38 185 L 57.19 184.88 L 57.06 184.63 L 57 184.25 L 57 183.75 L 56.94 183.38 L 56.81 183.13 L 56.63 183 L 56.38 183 L 56.19 182.94 L 56.06 182.81 L 56 182.63 L 56 182.38 L 55.94 182.19 L 55.81 182.06 L 55.63 182 L 55.38 182 L 55.19 181.94 L 55.06 181.81 L 55 181.63 L 55 181.38 L 54.94 181.19 L 54.81 181.06 L 54.63 181 L 54.38 181 L 54.19 180.88 L 54.06 180.63 L 54 180.25 L 54 179.75 L 53.94 179.38 L 53.81 179.13 L 53.63 179 L 53.38 179 L 53.19 178.94 L 53.06 178.81 L 53 178.63 L 53 178.38 L 52.94 178.19 L 52.81 178.06 L 52.63 178 L 52.38 178 L 52.19 177.88 L 52.06 177.63 L 52 177.25 L 52 176.75 L 51.94 176.38 L 51.81 176.13 L 51.63 176 L 51.38 176 L 51.19 175.88 L 51.06 175.63 L 51 175.25 L 51 174.75 L 50.94 174.38 L 50.81 174.13 L 50.63 174 L 50.38 174 L 50.19 173.88 L 50.06 173.63 L 50 173.25 L 50 172.75 L 49.94 172.38 L 49.81 172.13 L 49.63 172 L 49.38 172 L 49.19 171.81 L 49.06 171.44 L 49 170.88 L 49 170.13 L 48.94 169.56 L 48.81 169.19 L 48.63 169 L 48.38 169 L 48.19 168.88 L 48.06 168.63 L 48 168.25 L 48 167.75 L 47.94 167.38 L 47.81 167.13 L 47.63 167 L 47.38 167 L 47.19 166.63 L 47.06 165.88 L 47 164.75 L 47 163.25 L 46.94 162.13 L 46.81 161.38 L 46.63 161 L 46.38 161 L 46.19 160.75 L 46.06 160.25 L 46 159.5 L 46 158.5 L 45.94 157.75 L 45.81 157.25 L 45.63 157 L 45.38 157 L 45.19 155.25 L 45.06 151.75 L 45 146.5 L 45 139.5 L 44.94 134.25 L 44.81 130.75 L 44.63 129 L 44.38 129 L 44.19 128.88 L 44.06 128.63 L 44 128.25 L 44 127.75 L 43.94 127.38 L 43.81 127.13 L 43.63 127 L 43.38 127 L 43.19 126.81 L 43.06 126.44 L 43 125.88 L 43 125.13 L 42.94 124.56 L 42.81 124.19 L 42.63 124 L 42.38 124 L 42.19 123.88 L 42.06 123.63 L 42 123.25 L 42 122.75 L 41.94 122.38 L 41.81 122.13 L 41.63 122 L 41.38 122 L 41.19 121.63 L 41.06 120.88 L 41 119.75 L 41 118.25 L 40.94 117.13 L 40.81 116.38 L 40.63 116 L 40.38 116 L 40.19 115.06 L 40.06 113.19 L 40 110.38 L 40 106.63 L 40.06 103.81 L 40.19 101.94 L 40.38 101 L 40.63 101 L 40.81 100.56 L 40.94 99.69 L 41 98.38 L 41 96.63 L 41.06 95.31 L 41.19 94.44 L 41.38 94 L 41.63 94 L 41.81 93.81 L 41.94 93.44 L 42 92.88 L 42 92.13 L 42.06 91.56 L 42.19 91.19 L 42.38 91 L 42.63 91 L 42.81 90.88 L 42.94 90.63 L 43 90.25 L 43 89.75 L 43.06 89.38 L 43.19 89.13 L 43.38 89 L 43.63 89 L 43.81 88.94 L 43.94 88.81 L 44 88.63 L 44 88.38 L 44.06 88.19 L 44.19 88.06 L 44.38 88 L 44.63 88 L 44.81 87.88 L 44.94 87.63 L 45 87.25 L 45 86.75 L 45.06 86.38 L 45.19 86.13 L 45.38 86 L 45.63 86 L 45.81 85.94 L 45.94 85.81 L 46 85.63 L 46 85.38 L 46.06 85.19 L 46.19 85.06 L 46.38 85 L 46.63 85 L 46.81 84.88 L 46.94 84.63 L 47 84.25 L 47 83.75 L 47.06 83.38 L 47.19 83.13 L 47.38 83 L 47.63 83 L 47.81 82.94 L 47.94 82.81 L 48 82.63 L 48 82.38 L 48.06 82.19 L 48.19 82.06 L 48.38 82 L 48.63 82 L 48.81 81.94 L 48.94 81.81 L 49 81.63 L 49 81.38 L 49.06 81.19 L 49.19 81.06 L 49.38 81 L 49.63 81 L 49.81 80.94 L 49.94 80.81 L 50 80.63 L 50 80.38 L 50.06 80.19 L 50.19 80.06 L 50.38 80 L 50.63 80 L 50.81 79.88 L 50.94 79.63 L 51 79.25 L 51 78.75 L 51.13 78.38 L 51.38 78.13 L 51.75 78 L 52.25 78 L 52.63 77.88 L 52.88 77.63 L 53 77.25 L 53 76.75 L 53.13 76.38 L 53.38 76.13 L 53.75 76 L 54.25 76 L 54.63 75.88 L 54.88 75.63 L 55 75.25 L 55 74.75 L 55.13 74.38 L 55.38 74.13 L 55.75 74 L 56.25 74 L 56.63 73.94 L 56.88 73.81 L 57 73.63 L 57 73.38 L 57.06 73.19 L 57.19 73.06 L 57.38 73 L 57.63 73 L 57.81 72.94 L 57.94 72.81 L 58 72.63 L 58 72.38 L 58.06 72.19 L 58.19 72.06 L 58.38 72 L 58.63 72 L 58.81 71.94 L 58.94 71.81 L 59 71.63 L 59 71.38 L 59.06 71.19 L 59.19 71.06 L 59.38 71 L 59.63 71 L 59.81 70.94 L 59.94 70.81 L 60 70.63 L 60 70.38 L 60.06 70.19 L 60.19 70.06 L 60.38 70 L 60.63 70 L 60.81 69.94 L 60.94 69.81 L 61 69.63 L 61 69.38 L 61.13 69.19 L 61.38 69.06 L 61.75 69 L 62.25 69 L 62.63 68.94 L 62.88 68.81 L 63 68.63 L 63 68.38 L 63.06 68.19 L 63.19 68.06 L 63.38 68 L 63.63 68 L 63.81 67.94 L 63.94 67.81 L 64 67.63 L 64 67.38 L 64.06 67.19 L 64.19 67.06 L 64.38 67 L 64.63 67 L 64.81 66.94 L 64.94 66.81 L 65 66.63 L 65 66.38 L 65.13 66.19 L 65.38 66.06 L 65.75 66 L 66.25 66 L 66.63 65.94 L 66.88 65.81 L 67 65.63 L 67 65.38 L 67.06 65.19 L 67.19 65.06 L 67.38 65 L 67.63 65 L 67.81 64.94 L 67.94 64.81 L 68 64.63 L 68 64.38 L 68.06 64.19 L 68.19 64.06 L 68.38 64 L 68.63 64 L 68.81 63.88 L 68.94 63.63 L 69 63.25 L 69 62.75 L 69.06 62.38 L 69.19 62.13 L 69.38 62 L 69.63 62 L 69.81 61.81 L 69.94 61.44 L 70 60.88 L 70 60.13 L 70.06 59.56 L 70.19 59.19 L 70.38 59 L 70.63 59 L 70.81 58.88 L 70.94 58.63 L 71 58.25 L 71 57.75 L 71.06 57.38 L 71.19 57.13 L 71.38 57 L 71.63 57 L 71.81 56.94 L 71.94 56.81 L 72 56.63 L 72 56.38 L 72.06 56.19 L 72.19 56.06 L 72.38 56 L 72.63 56 L 72.81 55.88 L 72.94 55.63 L 73 55.25 L 73 54.75 L 73.06 54.38 L 73.19 54.13 L 73.38 54 L 73.63 54 L 73.81 53.94 L 73.94 53.81 L 74 53.63 L 74 53.38 L 74.13 53.19 L 74.38 53.06 L 74.75 53 L 75.25 53 L 75.63 52.94 L 75.88 52.81 L 76 52.63 L 76 52.38 L 76.06 52.19 L 76.19 52.06 L 76.38 52 L 76.63 52 L 76.81 51.94 L 76.94 51.81 L 77 51.63 L 77 51.38 L 77.06 51.19 L 77.19 51.06 L 77.38 51 L 77.63 51 L 77.81 50.94 L 77.94 50.81 L 78 50.63 L 78 50.38 L 78.13 50.19 L 78.38 50.06 L 78.75 50 L 79.25 50 L 79.63 49.94 L 79.88 49.81 L 80 49.63 L 80 49.38 L 80.25 49.19 L 80.75 49.06 L 81.5 49 L 82.5 49 L 83.25 48.94 L 83.75 48.81 L 84 48.63 L 84 48.38 L 84.5 48.19 L 85.5 48.06 L 87 48 L 89 48 L 90.5 48.06 L 91.5 48.19 L 92 48.38 L 92 48.63 L 92.31 48.81 L 92.94 48.94 L 93.88 49 L 95.13 49 L 96.06 49.06 L 96.69 49.19 L 97 49.38 L 97 49.63 L 97.13 49.81 L 97.38 49.94 L 97.75 50 L 98.25 50 L 98.63 50.06 L 98.88 50.19 L 99 50.38 L 99 50.63 L 99.19 50.81 L 99.56 50.94 L 100.13 51 L 100.88 51 L 101.44 51.06 L 101.81 51.19 L 102 51.38 L 102 51.63 L 102.13 51.81 L 102.38 51.94 L 102.75 52 L 103.25 52 L 103.63 52.06 L 103.88 52.19 L 104 52.38 L 104 52.63 L 104.13 52.81 L 104.38 52.94 L 104.75 53 L 105.25 53 L 105.63 53.06 L 105.88 53.19 L 106 53.38 L 106 53.63 L 106.13 53.81 L 106.38 53.94 L 106.75 54 L 107.25 54 L 107.63 54.06 L 107.88 54.19 L 108 54.38 L 108 54.63 L 108.13 54.81 L 108.38 54.94 L 108.75 55 L 109.25 55 L 109.63 55.06 L 109.88 55.19 L 110 55.38 L 110 55.63 L 110.06 55.81 L 110.19 55.94 L 110.38 56 L 110.63 56 L 110.81 56.06 L 110.94 56.19 L 111 56.38 L 111 56.63 L 111.13 56.81 L 111.38 56.94 L 111.75 57 L 112.25 57 L 112.63 57.06 L 112.88 57.19 L 113 57.38 L 113 57.63 L 113.13 57.81 L 113.38 57.94 L 113.75 58 L 114.25 58 L 114.63 58.06 L 114.88 58.19 L 115 58.38 L 115 58.63 L 115.13 58.81 L 115.38 58.94 L 115.75 59 L 116.25 59 L 116.63 59.06 L 116.88 59.19 L 117 59.38 L 117 59.63 L 117.06 59.81 L 117.19 59.94 L 117.38 60 L 117.63 60 L 117.81 60.06 L 117.94 60.19 L 118 60.38 L 118 60.63 L 118.06 60.81 L 118.19 60.94 L 118.38 61 L 118.63 61 L 118.81 61.06 L 118.94 61.19 L 119 61.38 L 119 61.63 L 119.13 61.81 L 119.38 61.94 L 119.75 62 L 120.25 62 L 120.63 62.06 L 120.88 62.19 L 121 62.38 L 121 62.63 L 121.06 62.81 L 121.19 62.94 L 121.38 63 L 121.63 63 L 121.81 63.06 L 121.94 63.19 L 122 63.38 L 122 63.63 L 122.13 63.81 L 122.38 63.94 L 122.75 64 L 123.25 64 L 123.63 64.06 L 123.88 64.19 L 124 64.38 L 124 64.63 L 124.06 64.81 L 124.19 64.94 L 124.38 65 L 124.63 65 L 124.81 65.06 L 124.94 65.19 L 125 65.38 L 125 65.63 L 125.13 65.81 L 125.38 65.94 L 125.75 66 L 126.25 66 L 126.63 66.06 L 126.88 66.19 L 127 66.38 L 127 66.63 L 127.06 66.81 L 127.19 66.94 L 127.38 67 L 127.63 67 L 127.81 67.06 L 127.94 67.19 L 128 67.38 L 128 67.63 L 128.13 67.81 L 128.38 67.94 L 128.75 68 L 129.25 68 L 129.63 68.06 L 129.88 68.19 L 130 68.38 L 130 68.63 L 130.06 68.81 L 130.19 68.94 L 130.38 69 L 130.63 69 L 130.81 69.06 L 130.94 69.19 L 131 69.38 L 131 69.63 L 131.06 69.81 L 131.19 69.94 L 131.38 70 L 131.63 70 L 131.81 69.75 L 131.94 69.25 L 132 68.5 L 132 67.5 L 131.94 66.75 L 131.81 66.25 L 131.63 66 L 131.38 66 L 131.19 65.81 L 131.06 65.44 L 131 64.88 L 131 64.13 L 130.94 63.56 L 130.81 63.19 L 130.63 63 L 130.38 63 L 130.19 62.88 L 130.06 62.63 L 130 62.25 L 130 61.75 L 129.94 61.38 L 129.81 61.13 L 129.63 61 L 129.38 61 L 129.19 60.88 L 129.06 60.63 L 129 60.25 L 129 59.75 L 128.94 59.38 L 128.81 59.13 L 128.63 59 L 128.38 59 L 128.19 58.94 L 128.06 58.81 L 128 58.63 L 128 58.38 L 127.94 58.19 L 127.81 58.06 L 127.63 58 L 127.38 58 L 127.19 57.88 L 127.06 57.63 L 127 57.25 L 127 56.75 L 126.94 56.38 L 126.81 56.13 L 126.63 56 L 126.38 56 L 126.19 55.94 L 126.06 55.81 L 126 55.63 L 126 55.38 L 125.94 55.19 L 125.81 55.06 L 125.63 55 L 125.38 55 L 125.19 54.94 L 125.06 54.81 L 125 54.63 L 125 54.38 L 124.94 54.19 L 124.81 54.06 L 124.63 54 L 124.38 54 L 124.19 53.94 L 124.06 53.81 L 124 53.63 L 124 53.38 L 123.94 53.19 L 123.81 53.06 L 123.63 53 L 123.38 53 L 123.19 52.94 L 123.06 52.81 L 123 52.63 L 123 52.38 L 122.94 52.19 L 122.81 52.06 L 122.63 52 L 122.38 52 L 122.19 51.94 L 122.06 51.81 L 122 51.63 L 122 51.38 L 121.94 51.19 L 121.81 51.06 L 121.63 51 L 121.38 51 L 121.19 50.94 L 121.06 50.81 L 121 50.63 L 121 50.38 L 120.88 50.19 L 120.63 50.06 L 120.25 50 L 119.75 50 L 119.38 49.94 L 119.13 49.81 L 119 49.63 L 119 49.38 L 118.94 49.19 L 118.81 49.06 L 118.63 49 L 118.38 49 L 118.19 48.94 L 118.06 48.81 L 118 48.63 L 118 48.38 L 117.88 48.19 L 117.63 48.06 L 117.25 48 L 116.75 48 L 116.38 47.94 L 116.13 47.81 L 116 47.63 L 116 47.38 L 115.94 47.19 L 115.81 47.06 L 115.63 47 L 115.38 47 L 115.19 46.94 L 115.06 46.81 L 115 46.63 L 115 46.38 L 114.81 46.19 L 114.44 46.06 L 113.88 46 L 113.13 46 L 112.56 45.94 L 112.19 45.81 L 112 45.63 L 112 45.38 L 111.94 45.19 L 111.81 45.06 L 111.63 45 L 111.38 45 L 111.19 44.94 L 111.06 44.81 L 111 44.63 L 111 44.38 L 110.81 44.19 L 110.44 44.06 L 109.88 44 L 109.13 44 L 108.56 43.94 L 108.19 43.81 L 108 43.63 L 108 43.38 L 107.88 43.19 L 107.63 43.06 L 107.25 43 L 106.75 43 L 106.38 42.94 L 106.13 42.81 L 106 42.63 L 106 42.38 L 105.63 42.19 L 104.88 42.06 L 103.75 42 L 102.25 42 L 101.13 41.94 L 100.38 41.81 L 100 41.63 L 100 41.38 L 99.25 41.19 L 97.75 41.06 L 95.5 41 L 92.5 41 L 90.25 41.06 L 88.75 41.19 L 88 41.38 L 88 41.63 L 87.69 41.81 L 87.06 41.94 L 86.13 42 L 84.88 42 L 83.94 42.06 L 83.31 42.19 L 83 42.38 L 83 42.63 L 82.88 42.81 L 82.63 42.94 L 82.25 43 L 81.75 43 L 81.38 43.06 L 81.13 43.19 L 81 43.38 L 81 43.63 L 80.88 43.81 L 80.63 43.94 L 80.25 44 L 79.75 44 L 79.38 44.06 L 79.13 44.19 L 79 44.38 L 79 44.63 L 78.88 44.81 L 78.63 44.94 L 78.25 45 L 77.75 45 L 77.38 45.06 L 77.13 45.19 L 77 45.38 L 77 45.63 L 76.88 45.81 L 76.63 45.94 L 76.25 46 L 75.75 46 L 75.38 46.06 L 75.13 46.19 L 75 46.38 L 75 46.63 L 74.94 46.81 L 74.81 46.94 L 74.63 47 L 74.38 47 L 74.19 47.06 L 74.06 47.19 L 74 47.38 L 74 47.63 L 73.88 47.81 L 73.63 47.94 L 73.25 48 L 72.75 48 L 72.38 48.13 L 72.13 48.38 L 72 48.75 L 72 49.25 L 71.88 49.63 L 71.63 49.88 L 71.25 50 L 70.75 50 L 70.38 50.13 L 70.13 50.38 L 70 50.75 L 70 51.25 L 69.88 51.63 L 69.63 51.88 L 69.25 52 L 68.75 52 L 68.38 52.13 L 68.13 52.38 L 68 52.75 L 68 53.25 L 67.94 53.63 L 67.81 53.88 L 67.63 54 L 67.38 54 L 67.19 54.13 L 67.06 54.38 L 67 54.75 L 67 55.25 L 66.94 55.63 L 66.81 55.88 L 66.63 56 L 66.38 56 L 66.19 56.13 L 66.06 56.38 L 66 56.75 L 66 57.25 L 65.94 57.63 L 65.81 57.88 L 65.63 58 L 65.38 58 L 65.19 58.13 L 65.06 58.38 L 65 58.75 L 65 59.25 L 64.94 59.63 L 64.81 59.88 L 64.63 60 L 64.38 60 L 64.19 60.31 L 64.06 60.94 L 64 61.88 L 64 63.13 L 63.94 64.06 L 63.81 64.69 L 63.63 65 L 63.38 65 L 63.19 65.13 L 63.06 65.38 L 63 65.75 L 63 66.25 L 62.94 66.63 L 62.81 66.88 L 62.63 67 L 62.38 67 L 62.19 67.06 L 62.06 67.19 L 62 67.38 L 62 67.63 L 61.81 67.81 L 61.44 67.94 L 60.88 68 L 60.13 68 L 59.56 67.94 L 59.19 67.81 L 59 67.63 L 59 67.38 L 58.94 67.19 L 58.81 67.06 L 58.63 67 L 58.38 67 L 58.19 66.94 L 58.06 66.81 L 58 66.63 L 58 66.38 L 57.94 66.19 L 57.81 66.06 L 57.63 66 L 57.38 66 L 57.19 65.75 L 57.06 65.25 L 57 64.5 L 57 63.5 L 57.06 62.75 L 57.19 62.25 L 57.38 62 L 57.63 62 L 57.81 61.75 L 57.94 61.25 L 58 60.5 L 58 59.5 L 58.06 58.75 L 58.19 58.25 L 58.38 58 L 58.63 58 L 58.81 57.81 L 58.94 57.44 L 59 56.88 L 59 56.13 L 59.06 55.56 L 59.19 55.19 L 59.38 55 L 59.63 55 L 59.81 54.88 L 59.94 54.63 L 60 54.25 L 60 53.75 L 60.06 53.38 L 60.19 53.13 L 60.38 53 L 60.63 53 L 60.81 52.94 L 60.94 52.81 L 61 52.63 L 61 52.38 L 61.06 52.19 L 61.19 52.06 L 61.38 52 L 61.63 52 L 61.81 51.94 L 61.94 51.81 L 62 51.63 L 62 51.38 L 62.06 51.19 L 62.19 51.06 L 62.38 51 L 62.63 51 L 62.81 50.88 L 62.94 50.63 L 63 50.25 L 63 49.75 L 63.06 49.38 L 63.19 49.13 L 63.38 49 L 63.63 49 L 63.81 48.94 L 63.94 48.81 L 64 48.63 L 64 48.38 L 64.06 48.19 L 64.19 48.06 L 64.38 48 L 64.63 48 L 64.81 47.88 L 64.94 47.63 L 65 47.25 L 65 46.75 L 65.06 46.38 L 65.19 46.13 L 65.38 46 L 65.63 46 L 65.81 45.94 L 65.94 45.81 L 66 45.63 L 66 45.38 L 66.06 45.19 L 66.19 45.06 L 66.38 45 L 66.63 45 L 66.81 44.94 L 66.94 44.81 L 67 44.63 L 67 44.38 L 67.06 44.19 L 67.19 44.06 L 67.38 44 L 67.63 44 L 67.81 43.94 L 67.94 43.81 L 68 43.63 L 68 43.38 L 68.13 43.19 L 68.38 43.06 L 68.75 43 L 69.25 43 L 69.63 42.94 L 69.88 42.81 L 70 42.63 L 70 42.38 L 70.06 42.19 L 70.19 42.06 L 70.38 42 L 70.63 42 L 70.81 41.94 L 70.94 41.81 L 71 41.63 L 71 41.38 L 71.13 41.19 L 71.38 41.06 L 71.75 41 L 72.25 41 L 72.63 40.94 L 72.88 40.81 L 73 40.63 L 73 40.38 L 73.06 40.19 L 73.19 40.06 L 73.38 40 L 73.63 40 L 73.81 39.94 L 73.94 39.81 L 74 39.63 L 74 39.38 L 74.19 39.19 L 74.56 39.06 L 75.13 39 L 75.88 39 L 76.44 38.94 L 76.81 38.81 L 77 38.63 L 77 38.38 L 77.13 38.19 L 77.38 38.06 L 77.75 38 L 78.25 38 L 78.63 37.94 L 78.88 37.81 L 79 37.63 L 79 37.38 L 79.25 37.19 L 79.75 37.06 L 80.5 37 L 81.5 37 L 82.25 36.94 L 82.75 36.81 L 83 36.63 L 83 36.38 L 83.19 36.19 L 83.56 36.06 L 84.13 36 L 84.88 36 L 85.44 35.94 L 85.81 35.81 L 86 35.63 L 86 35.38 L 87 35.19 L 89 35.06 Z M 165.75 49 L 166.25 49 L 166.63 49.06 L 166.88 49.19 L 167 49.38 L 167 49.63 L 167.06 49.81 L 167.19 49.94 L 167.38 50 L 167.63 50 L 167.81 50.13 L 167.94 50.38 L 168 50.75 L 168 51.25 L 168.06 51.63 L 168.19 51.88 L 168.38 52 L 168.63 52 L 168.81 52.06 L 168.94 52.19 L 169 52.38 L 169 52.63 L 169.06 52.81 L 169.19 52.94 L 169.38 53 L 169.63 53 L 169.81 53.13 L 169.94 53.38 L 170 53.75 L 170 54.25 L 170.06 54.63 L 170.19 54.88 L 170.38 55 L 170.63 55 L 170.81 55.06 L 170.94 55.19 L 171 55.38 L 171 55.63 L 171.06 55.81 L 171.19 55.94 L 171.38 56 L 171.63 56 L 171.81 56.13 L 171.94 56.38 L 172 56.75 L 172 57.25 L 172.06 57.63 L 172.19 57.88 L 172.38 58 L 172.63 58 L 172.81 58.06 L 172.94 58.19 L 173 58.38 L 173 58.63 L 173.06 58.81 L 173.19 58.94 L 173.38 59 L 173.63 59 L 173.81 59.06 L 173.94 59.19 L 174 59.38 L 174 59.63 L 174.06 59.81 L 174.19 59.94 L 174.38 60 L 174.63 60 L 174.81 60.06 L 174.94 60.19 L 175 60.38 L 175 60.63 L 175.06 60.81 L 175.19 60.94 L 175.38 61 L 175.63 61 L 175.81 61.06 L 175.94 61.19 L 176 61.38 L 176 61.63 L 176.13 61.81 L 176.38 61.94 L 176.75 62 L 177.25 62 L 177.63 62.06 L 177.88 62.19 L 178 62.38 L 178 62.63 L 178.06 62.81 L 178.19 62.94 L 178.38 63 L 178.63 63 L 178.81 63.06 L 178.94 63.19 L 179 63.38 L 179 63.63 L 179.06 63.81 L 179.19 63.94 L 179.38 64 L 179.63 64 L 179.81 64.25 L 179.94 64.75 L 180 65.5 L 180 66.5 L 179.94 67.25 L 179.81 67.75 L 179.63 68 L 179.38 68 L 179.19 68.06 L 179.06 68.19 L 179 68.38 L 179 68.63 L 178.94 68.81 L 178.81 68.94 L 178.63 69 L 178.38 69 L 178.19 69.06 L 178.06 69.19 L 178 69.38 L 178 69.63 L 177.88 69.81 L 177.63 69.94 L 177.25 70 L 176.75 70 L 176.38 70.06 L 176.13 70.19 L 176 70.38 L 176 70.63 L 175.94 70.81 L 175.81 70.94 L 175.63 71 L 175.38 71 L 175.19 71.06 L 175.06 71.19 L 175 71.38 L 175 71.63 L 174.94 71.81 L 174.81 71.94 L 174.63 72 L 174.38 72 L 174.19 72.06 L 174.06 72.19 L 174 72.38 L 174 72.63 L 173.94 72.81 L 173.81 72.94 L 173.63 73 L 173.38 73 L 173.19 73.06 L 173.06 73.19 L 173 73.38 L 173 73.63 L 172.94 73.81 L 172.81 73.94 L 172.63 74 L 172.38 74 L 172.19 74.13 L 172.06 74.38 L 172 74.75 L 172 75.25 L 171.94 75.63 L 171.81 75.88 L 171.63 76 L 171.38 76 L 171.19 76.06 L 171.06 76.19 L 171 76.38 L 171 76.63 L 170.94 76.81 L 170.81 76.94 L 170.63 77 L 170.38 77 L 170.19 77.13 L 170.06 77.38 L 170 77.75 L 170 78.25 L 169.94 78.63 L 169.81 78.88 L 169.63 79 L 169.38 79 L 169.19 79.06 L 169.06 79.19 L 169 79.38 L 169 79.63 L 168.94 79.81 L 168.81 79.94 L 168.63 80 L 168.38 80 L 168.19 80.13 L 168.06 80.38 L 168 80.75 L 168 81.25 L 167.81 81.63 L 167.44 81.88 L 166.88 82 L 166.13 82 L 165.56 81.94 L 165.19 81.81 L 165 81.63 L 165 81.38 L 164.94 81.19 L 164.81 81.06 L 164.63 81 L 164.38 81 L 164.19 80.94 L 164.06 80.81 L 164 80.63 L 164 80.38 L 163.94 80.19 L 163.81 80.06 L 163.63 80 L 163.38 80 L 163.19 79.94 L 163.06 79.81 L 163 79.63 L 163 79.38 L 162.94 79.19 L 162.81 79.06 L 162.63 79 L 162.38 79 L 162.19 78.88 L 162.06 78.63 L 162 78.25 L 162 77.75 L 161.94 77.38 L 161.81 77.13 L 161.63 77 L 161.38 77 L 161.19 76.88 L 161.06 76.63 L 161 76.25 L 161 75.75 L 160.94 75.38 L 160.81 75.13 L 160.63 75 L 160.38 75 L 160.19 74.94 L 160.06 74.81 L 160 74.63 L 160 74.38 L 159.94 74.19 L 159.81 74.06 L 159.63 74 L 159.38 74 L 159.19 73.94 L 159.06 73.81 L 159 73.63 L 159 73.38 L 158.94 73.19 L 158.81 73.06 L 158.63 73 L 158.38 73 L 158.19 72.94 L 158.06 72.81 L 158 72.63 L 158 72.38 L 157.94 72.19 L 157.81 72.06 L 157.63 72 L 157.38 72 L 157.19 71.94 L 157.06 71.81 L 157 71.63 L 157 71.38 L 156.94 71.19 L 156.81 71.06 L 156.63 71 L 156.38 71 L 156.19 70.94 L 156.06 70.81 L 156 70.63 L 156 70.38 L 155.94 70.19 L 155.81 70.06 L 155.63 70 L 155.38 70 L 155.19 69.94 L 155.06 69.81 L 155 69.63 L 155 69.38 L 154.88 69.19 L 154.63 69.06 L 154.25 69 L 153.75 69 L 153.38 68.94 L 153.13 68.81 L 153 68.63 L 153 68.38 L 152.94 68.19 L 152.81 68.06 L 152.63 68 L 152.38 68 L 152.19 67.75 L 152.06 67.25 L 152 66.5 L 152 65.5 L 152.06 64.75 L 152.19 64.25 L 152.38 64 L 152.63 64 L 152.81 63.94 L 152.94 63.81 L 153 63.63 L 153 63.38 L 153.06 63.19 L 153.19 63.06 L 153.38 63 L 153.63 63 L 153.81 62.94 L 153.94 62.81 L 154 62.63 L 154 62.38 L 154.13 62.19 L 154.38 62.06 L 154.75 62 L 155.25 62 L 155.63 61.94 L 155.88 61.81 L 156 61.63 L 156 61.38 L 156.06 61.19 L 156.19 61.06 L 156.38 61 L 156.63 61 L 156.81 60.94 L 156.94 60.81 L 157 60.63 L 157 60.38 L 157.06 60.19 L 157.19 60.06 L 157.38 60 L 157.63 60 L 157.81 59.94 L 157.94 59.81 L 158 59.63 L 158 59.38 L 158.06 59.19 L 158.19 59.06 L 158.38 59 L 158.63 59 L 158.81 58.88 L 158.94 58.63 L 159 58.25 L 159 57.75 L 159.06 57.38 L 159.19 57.13 L 159.38 57 L 159.63 57 L 159.81 56.94 L 159.94 56.81 L 160 56.63 L 160 56.38 L 160.06 56.19 L 160.19 56.06 L 160.38 56 L 160.63 56 L 160.81 55.88 L 160.94 55.63 L 161 55.25 L 161 54.75 L 161.06 54.38 L 161.19 54.13 L 161.38 54 L 161.63 54 L 161.81 53.94 L 161.94 53.81 L 162 53.63 L 162 53.38 L 162.06 53.19 L 162.19 53.06 L 162.38 53 L 162.63 53 L 162.81 52.88 L 162.94 52.63 L 163 52.25 L 163 51.75 L 163.06 51.38 L 163.19 51.13 L 163.38 51 L 163.63 51 L 163.81 50.94 L 163.94 50.81 L 164 50.63 L 164 50.38 L 164.06 50.19 L 164.19 50.06 L 164.38 50 L 164.63 50 L 164.81 49.94 L 164.94 49.81 L 165 49.63 L 165 49.38 L 165.13 49.19 L 165.38 49.06 Z M 164 61.75 L 164 62.25 L 163.94 62.63 L 163.81 62.88 L 163.63 63 L 163.38 63 L 163.19 63.06 L 163.06 63.19 L 163 63.38 L 163 63.63 L 162.88 63.81 L 162.63 63.94 L 162.25 64 L 161.75 64 L 161.38 64.19 L 161.13 64.56 L 161 65.13 L 161 65.88 L 161.06 66.44 L 161.19 66.81 L 161.38 67 L 161.63 67 L 161.81 67.06 L 161.94 67.19 L 162 67.38 L 162 67.63 L 162.06 67.81 L 162.19 67.94 L 162.38 68 L 162.63 68 L 162.81 68.06 L 162.94 68.19 L 163 68.38 L 163 68.63 L 163.06 68.81 L 163.19 68.94 L 163.38 69 L 163.63 69 L 163.81 69.06 L 163.94 69.19 L 164 69.38 L 164 69.63 L 164.06 69.81 L 164.19 69.94 L 164.38 70 L 164.63 70 L 164.81 70.06 L 164.94 70.19 L 165 70.38 L 165 70.63 L 165.13 70.81 L 165.38 70.94 L 165.75 71 L 166.25 71 L 166.63 70.94 L 166.88 70.81 L 167 70.63 L 167 70.38 L 167.06 70.19 L 167.19 70.06 L 167.38 70 L 167.63 70 L 167.81 69.94 L 167.94 69.81 L 168 69.63 L 168 69.38 L 168.06 69.19 L 168.19 69.06 L 168.38 69 L 168.63 69 L 168.81 68.94 L 168.94 68.81 L 169 68.63 L 169 68.38 L 169.06 68.19 L 169.19 68.06 L 169.38 68 L 169.63 68 L 169.81 67.94 L 169.94 67.81 L 170 67.63 L 170 67.38 L 170.06 67.19 L 170.19 67.06 L 170.38 67 L 170.63 67 L 170.81 66.88 L 170.94 66.63 L 171 66.25 L 171 65.75 L 170.94 65.38 L 170.81 65.13 L 170.63 65 L 170.38 65 L 170.19 64.94 L 170.06 64.81 L 170 64.63 L 170 64.38 L 169.94 64.19 L 169.81 64.06 L 169.63 64 L 169.38 64 L 169.19 63.94 L 169.06 63.81 L 169 63.63 L 169 63.38 L 168.94 63.19 L 168.81 63.06 L 168.63 63 L 168.38 63 L 168.19 62.94 L 168.06 62.81 L 168 62.63 L 168 62.38 L 167.94 62.19 L 167.81 62.06 L 167.63 62 L 167.38 62 L 167.19 61.94 L 167.06 61.81 L 167 61.63 L 167 61.38 L 166.81 61.19 L 166.44 61.06 L 165.88 61 L 165.13 61 L 164.56 61.13 L 164.19 61.38 Z M 185.13 72 L 185.88 72 L 186.44 72.06 L 186.81 72.19 L 187 72.38 L 187 72.63 L 187.06 72.81 L 187.19 72.94 L 187.38 73 L 187.63 73 L 187.81 73.13 L 187.94 73.38 L 188 73.75 L 188 74.25 L 188.06 74.63 L 188.19 74.88 L 188.38 75 L 188.63 75 L 188.81 75.19 L 188.94 75.56 L 189 76.13 L 189 76.88 L 189.19 77.44 L 189.56 77.81 L 190.13 78 L 190.88 78 L 191.44 78.06 L 191.81 78.19 L 192 78.38 L 192 78.63 L 192.06 78.81 L 192.19 78.94 L 192.38 79 L 192.63 79 L 192.81 79.06 L 192.94 79.19 L 193 79.38 L 193 79.63 L 193.06 79.81 L 193.19 79.94 L 193.38 80 L 193.63 80 L 193.81 80.25 L 193.94 80.75 L 194 81.5 L 194 82.5 L 193.88 83.25 L 193.63 83.75 L 193.25 84 L 192.75 84 L 192.38 84.06 L 192.13 84.19 L 192 84.38 L 192 84.63 L 191.81 84.81 L 191.44 84.94 L 190.88 85 L 190.13 85 L 189.56 85.19 L 189.19 85.56 L 189 86.13 L 189 86.88 L 188.94 87.44 L 188.81 87.81 L 188.63 88 L 188.38 88 L 188.19 88.13 L 188.06 88.38 L 188 88.75 L 188 89.25 L 187.88 89.63 L 187.63 89.88 L 187.25 90 L 186.75 90 L 186.38 90.06 L 186.13 90.19 L 186 90.38 L 186 90.63 L 185.94 90.81 L 185.81 90.94 L 185.63 91 L 185.38 91 L 185.19 90.94 L 185.06 90.81 L 185 90.63 L 185 90.38 L 184.88 90.19 L 184.63 90.06 L 184.25 90 L 183.75 90 L 183.38 89.88 L 183.13 89.63 L 183 89.25 L 183 88.75 L 182.94 88.38 L 182.81 88.13 L 182.63 88 L 182.38 88 L 182.19 87.81 L 182.06 87.44 L 182 86.88 L 182 86.13 L 181.81 85.56 L 181.44 85.19 L 180.88 85 L 180.13 85 L 179.56 84.94 L 179.19 84.81 L 179 84.63 L 179 84.38 L 178.88 84.19 L 178.63 84.06 L 178.25 84 L 177.75 84 L 177.38 83.94 L 177.13 83.81 L 177 83.63 L 177 83.38 L 176.94 83.19 L 176.81 83.06 L 176.63 83 L 176.38 83 L 176.19 82.81 L 176.06 82.44 L 176 81.88 L 176 81.13 L 176.06 80.56 L 176.19 80.19 L 176.38 80 L 176.63 80 L 176.81 79.94 L 176.94 79.81 L 177 79.63 L 177 79.38 L 177.13 79.19 L 177.38 79.06 L 177.75 79 L 178.25 79 L 178.63 78.94 L 178.88 78.81 L 179 78.63 L 179 78.38 L 179.19 78.19 L 179.56 78.06 L 180.13 78 L 180.88 78 L 181.44 77.81 L 181.81 77.44 L 182 76.88 L 182 76.13 L 182.06 75.56 L 182.19 75.19 L 182.38 75 L 182.63 75 L 182.81 74.88 L 182.94 74.63 L 183 74.25 L 183 73.75 L 183.06 73.38 L 183.19 73.13 L 183.38 73 L 183.63 73 L 183.81 72.94 L 183.94 72.81 L 184 72.63 L 184 72.38 L 184.19 72.19 L 184.56 72.06 Z M 95 99.38 L 95 99.63 L 94.88 99.81 L 94.63 99.94 L 94.25 100 L 93.75 100 L 93.38 100.06 L 93.13 100.19 L 93 100.38 L 93 100.63 L 92.88 100.81 L 92.63 100.94 L 92.25 101 L 91.75 101 L 91.38 101.06 L 91.13 101.19 L 91 101.38 L 91 101.63 L 90.88 101.81 L 90.63 101.94 L 90.25 102 L 89.75 102 L 89.38 102.06 L 89.13 102.19 L 89 102.38 L 89 102.63 L 88.88 102.81 L 88.63 102.94 L 88.25 103 L 87.75 103 L 87.38 103.06 L 87.13 103.19 L 87 103.38 L 87 103.63 L 86.88 103.81 L 86.63 103.94 L 86.25 104 L 85.75 104 L 85.38 104.06 L 85.13 104.19 L 85 104.38 L 85 104.63 L 84.88 104.81 L 84.63 104.94 L 84.25 105 L 83.75 105 L 83.38 105.06 L 83.13 105.19 L 83 105.38 L 83 105.63 L 82.94 105.81 L 82.81 105.94 L 82.63 106 L 82.38 106 L 82.19 106.06 L 82.06 106.19 L 82 106.38 L 82 106.63 L 81.75 106.81 L 81.25 106.94 L 80.5 107 L 79.5 107 L 78.75 107.06 L 78.25 107.19 L 78 107.38 L 78 107.63 L 77.88 107.81 L 77.63 107.94 L 77.25 108 L 76.75 108 L 76.38 108.06 L 76.13 108.19 L 76 108.38 L 76 108.63 L 75.88 108.81 L 75.63 108.94 L 75.25 109 L 74.75 109 L 74.38 109.06 L 74.13 109.19 L 74 109.38 L 74 109.63 L 73.88 109.81 L 73.63 109.94 L 73.25 110 L 72.75 110 L 72.38 110.06 L 72.13 110.19 L 72 110.38 L 72 110.63 L 71.88 110.81 L 71.63 110.94 L 71.25 111 L 70.75 111 L 70.38 111.06 L 70.13 111.19 L 70 111.38 L 70 111.63 L 69.88 111.81 L 69.63 111.94 L 69.25 112 L 68.75 112 L 68.38 112.06 L 68.13 112.19 L 68 112.38 L 68 112.63 L 67.88 112.81 L 67.63 112.94 L 67.25 113 L 66.75 113 L 66.38 113.06 L 66.13 113.19 L 66 113.38 L 66 113.63 L 65.94 113.81 L 65.81 113.94 L 65.63 114 L 65.38 114 L 65.19 114.06 L 65.06 114.19 L 65 114.38 L 65 114.63 L 64.88 114.81 L 64.63 114.94 L 64.25 115 L 63.75 115 L 63.38 115.06 L 63.13 115.19 L 63 115.38 L 63 115.63 L 62.94 115.81 L 62.81 115.94 L 62.63 116 L 62.38 116 L 62.19 116.06 L 62.06 116.19 L 62 116.38 L 62 116.63 L 61.88 116.81 L 61.63 116.94 L 61.25 117 L 60.75 117 L 60.38 117.06 L 60.13 117.19 L 60 117.38 L 60 117.63 L 59.94 117.81 L 59.81 117.94 L 59.63 118 L 59.38 118 L 59.19 118.06 L 59.06 118.19 L 59 118.38 L 59 118.63 L 58.94 118.81 L 58.81 118.94 L 58.63 119 L 58.38 119 L 58.19 119.06 L 58.06 119.19 L 58 119.38 L 58 119.63 L 57.94 119.81 L 57.81 119.94 L 57.63 120 L 57.38 120 L 57.19 120.06 L 57.06 120.19 L 57 120.38 L 57 120.63 L 56.94 120.81 L 56.81 120.94 L 56.63 121 L 56.38 121 L 56.19 121.13 L 56.06 121.38 L 56 121.75 L 56 122.25 L 55.94 122.63 L 55.81 122.88 L 55.63 123 L 55.38 123 L 55.19 123.13 L 55.06 123.38 L 55 123.75 L 55 124.25 L 54.94 124.63 L 54.81 124.88 L 54.63 125 L 54.38 125 L 54.19 125.13 L 54.06 125.38 L 54 125.75 L 54 126.25 L 53.94 126.63 L 53.81 126.88 L 53.63 127 L 53.38 127 L 53.19 127.19 L 53.06 127.56 L 53 128.13 L 53 128.88 L 52.94 129.44 L 52.81 129.81 L 52.63 130 L 52.38 130 L 52.19 130.38 L 52.06 131.13 L 52 132.25 L 52 133.75 L 51.94 134.88 L 51.81 135.63 L 51.63 136 L 51.38 136 L 51.19 136.94 L 51.06 138.81 L 51 141.63 L 51 145.38 L 51.06 148.19 L 51.19 150.06 L 51.38 151 L 51.63 151 L 51.81 151.5 L 51.94 152.5 L 52 154 L 52 156 L 52.06 157.5 L 52.19 158.5 L 52.38 159 L 52.63 159 L 52.81 159.31 L 52.94 159.94 L 53 160.88 L 53 162.13 L 53.06 163.06 L 53.19 163.69 L 53.38 164 L 53.63 164 L 53.81 164.19 L 53.94 164.56 L 54 165.13 L 54 165.88 L 54.06 166.44 L 54.19 166.81 L 54.38 167 L 54.63 167 L 54.81 167.19 L 54.94 167.56 L 55 168.13 L 55 168.88 L 55.06 169.44 L 55.19 169.81 L 55.38 170 L 55.63 170 L 55.81 170.13 L 55.94 170.38 L 56 170.75 L 56 171.25 L 56.06 171.63 L 56.19 171.88 L 56.38 172 L 56.63 172 L 56.81 172.13 L 56.94 172.38 L 57 172.75 L 57 173.25 L 57.06 173.63 L 57.19 173.88 L 57.38 174 L 57.63 174 L 57.81 174.06 L 57.94 174.19 L 58 174.38 L 58 174.63 L 58.06 174.81 L 58.19 174.94 L 58.38 175 L 58.63 175 L 58.81 175.13 L 58.94 175.38 L 59 175.75 L 59 176.25 L 59.06 176.63 L 59.19 176.88 L 59.38 177 L 59.63 177 L 59.81 177.13 L 59.94 177.38 L 60 177.75 L 60 178.25 L 60.06 178.63 L 60.19 178.88 L 60.38 179 L 60.63 179 L 60.81 179.06 L 60.94 179.19 L 61 179.38 L 61 179.63 L 61.06 179.81 L 61.19 179.94 L 61.38 180 L 61.63 180 L 61.81 180.06 L 61.94 180.19 L 62 180.38 L 62 180.63 L 62.06 180.81 L 62.19 180.94 L 62.38 181 L 62.63 181 L 62.81 181.06 L 62.94 181.19 L 63 181.38 L 63 181.63 L 63.06 181.81 L 63.19 181.94 L 63.38 182 L 63.63 182 L 63.81 182.13 L 63.94 182.38 L 64 182.75 L 64 183.25 L 64.13 183.63 L 64.38 183.88 L 64.75 184 L 65.25 184 L 65.63 184.13 L 65.88 184.38 L 66 184.75 L 66 185.25 L 66.13 185.63 L 66.38 185.88 L 66.75 186 L 67.25 186 L 67.63 186.13 L 67.88 186.38 L 68 186.75 L 68 187.25 L 68.06 187.63 L 68.19 187.88 L 68.38 188 L 68.63 188 L 68.81 188.06 L 68.94 188.19 L 69 188.38 L 69 188.63 L 69.06 188.81 L 69.19 188.94 L 69.38 189 L 69.63 189 L 69.81 189.06 L 69.94 189.19 L 70 189.38 L 70 189.63 L 70.06 189.81 L 70.19 189.94 L 70.38 190 L 70.63 190 L 70.81 190.06 L 70.94 190.19 L 71 190.38 L 71 190.63 L 71.06 190.81 L 71.19 190.94 L 71.38 191 L 71.63 191 L 71.81 191.06 L 71.94 191.19 L 72 191.38 L 72 191.63 L 72.06 191.81 L 72.19 191.94 L 72.38 192 L 72.63 192 L 72.81 192.06 L 72.94 192.19 L 73 192.38 L 73 192.63 L 73.06 192.81 L 73.19 192.94 L 73.38 193 L 73.63 193 L 73.81 193.06 L 73.94 193.19 L 74 193.38 L 74 193.63 L 74.13 193.81 L 74.38 193.94 L 74.75 194 L 75.25 194 L 75.63 194.06 L 75.88 194.19 L 76 194.38 L 76 194.63 L 76.06 194.81 L 76.19 194.94 L 76.38 195 L 76.63 195 L 76.81 195.06 L 76.94 195.19 L 77 195.38 L 77 195.63 L 77.06 195.81 L 77.19 195.94 L 77.38 196 L 77.63 196 L 77.81 196.06 L 77.94 196.19 L 78 196.38 L 78 196.63 L 78.13 196.81 L 78.38 196.94 L 78.75 197 L 79.25 197 L 79.63 197.06 L 79.88 197.19 L 80 197.38 L 80 197.63 L 80.06 197.81 L 80.19 197.94 L 80.38 198 L 80.63 198 L 80.81 198.06 L 80.94 198.19 L 81 198.38 L 81 198.63 L 81.13 198.81 L 81.38 198.94 L 81.75 199 L 82.25 199 L 82.63 199.06 L 82.88 199.19 L 83 199.38 L 83 199.63 L 83.06 199.81 L 83.19 199.94 L 83.38 200 L 83.63 200 L 83.81 200.06 L 83.94 200.19 L 84 200.38 L 84 200.63 L 84.13 200.81 L 84.38 200.94 L 84.75 201 L 85.25 201 L 85.63 201.06 L 85.88 201.19 L 86 201.38 L 86 201.63 L 86.06 201.81 L 86.19 201.94 L 86.38 202 L 86.63 202 L 86.81 202.06 L 86.94 202.19 L 87 202.38 L 87 202.63 L 87.13 202.81 L 87.38 202.94 L 87.75 203 L 88.25 203 L 88.63 203.06 L 88.88 203.19 L 89 203.38 L 89 203.63 L 89.13 203.81 L 89.38 203.94 L 89.75 204 L 90.25 204 L 90.63 204.06 L 90.88 204.19 L 91 204.38 L 91 204.63 L 91.19 204.81 L 91.56 204.94 L 92.13 205 L 92.88 205 L 93.44 205.06 L 93.81 205.19 L 94 205.38 L 94 205.63 L 94.25 205.81 L 94.75 205.94 L 95.5 206 L 96.5 206 L 97.25 205.94 L 97.75 205.81 L 98 205.63 L 98 205.38 L 98.19 205.19 L 98.56 205.06 L 99.13 205 L 99.88 205 L 100.44 204.94 L 100.81 204.81 L 101 204.63 L 101 204.38 L 101.13 204.19 L 101.38 204.06 L 101.75 204 L 102.25 204 L 102.63 203.94 L 102.88 203.81 L 103 203.63 L 103 203.38 L 103.13 203.19 L 103.38 203.06 L 103.75 203 L 104.25 203 L 104.63 202.94 L 104.88 202.81 L 105 202.63 L 105 202.38 L 105.06 202.19 L 105.19 202.06 L 105.38 202 L 105.63 202 L 105.81 201.94 L 105.94 201.81 L 106 201.63 L 106 201.38 L 106.13 201.19 L 106.38 201.06 L 106.75 201 L 107.25 201 L 107.63 200.94 L 107.88 200.81 L 108 200.63 L 108 200.38 L 108.06 200.19 L 108.19 200.06 L 108.38 200 L 108.63 200 L 108.81 199.94 L 108.94 199.81 L 109 199.63 L 109 199.38 L 109.13 199.19 L 109.38 199.06 L 109.75 199 L 110.25 199 L 110.63 198.94 L 110.88 198.81 L 111 198.63 L 111 198.38 L 111.06 198.19 L 111.19 198.06 L 111.38 198 L 111.63 198 L 111.81 197.94 L 111.94 197.81 L 112 197.63 L 112 197.38 L 112.06 197.19 L 112.19 197.06 L 112.38 197 L 112.63 197 L 112.81 196.94 L 112.94 196.81 L 113 196.63 L 113 196.38 L 113.13 196.19 L 113.38 196.06 L 113.75 196 L 114.25 196 L 114.63 195.94 L 114.88 195.81 L 115 195.63 L 115 195.38 L 115.06 195.19 L 115.19 195.06 L 115.38 195 L 115.63 195 L 115.81 194.94 L 115.94 194.81 L 116 194.63 L 116 194.38 L 116.06 194.19 L 116.19 194.06 L 116.38 194 L 116.63 194 L 116.81 193.94 L 116.94 193.81 L 117 193.63 L 117 193.38 L 117.06 193.19 L 117.19 193.06 L 117.38 193 L 117.63 193 L 117.81 192.94 L 117.94 192.81 L 118 192.63 L 118 192.38 L 118.13 192.19 L 118.38 192.06 L 118.75 192 L 119.25 192 L 119.63 191.94 L 119.88 191.81 L 120 191.63 L 120 191.38 L 120.06 191.19 L 120.19 191.06 L 120.38 191 L 120.63 191 L 120.81 190.94 L 120.94 190.81 L 121 190.63 L 121 190.38 L 121.06 190.19 L 121.19 190.06 L 121.38 190 L 121.63 190 L 121.81 189.94 L 121.94 189.81 L 122 189.63 L 122 189.38 L 122.06 189.19 L 122.19 189.06 L 122.38 189 L 122.63 189 L 122.81 188.94 L 122.94 188.81 L 123 188.63 L 123 188.38 L 123.06 188.19 L 123.19 188.06 L 123.38 188 L 123.63 188 L 123.81 187.94 L 123.94 187.81 L 124 187.63 L 124 187.38 L 124.06 187.19 L 124.19 187.06 L 124.38 187 L 124.63 187 L 124.81 186.94 L 124.94 186.81 L 125 186.63 L 125 186.38 L 125.06 186.19 L 125.19 186.06 L 125.38 186 L 125.63 186 L 125.81 185.94 L 125.94 185.81 L 126 185.63 L 126 185.38 L 126.06 185.19 L 126.19 185.06 L 126.38 185 L 126.63 185 L 126.81 184.94 L 126.94 184.81 L 127 184.63 L 127 184.38 L 127.06 184.19 L 127.19 184.06 L 127.38 184 L 127.63 184 L 127.81 183.94 L 127.94 183.81 L 128 183.63 L 128 183.38 L 128.06 183.19 L 128.19 183.06 L 128.38 183 L 128.63 183 L 128.81 182.88 L 128.94 182.63 L 129 182.25 L 129 181.75 L 129.06 181.38 L 129.19 181.13 L 129.38 181 L 129.63 181 L 129.81 180.94 L 129.94 180.81 L 130 180.63 L 130 180.38 L 130.06 180.19 L 130.19 180.06 L 130.38 180 L 130.63 180 L 130.81 179.69 L 130.94 179.06 L 131 178.13 L 131 176.88 L 130.94 175.94 L 130.81 175.31 L 130.63 175 L 130.38 175 L 130.19 174.81 L 130.06 174.44 L 130 173.88 L 130 173.13 L 129.94 172.56 L 129.81 172.19 L 129.63 172 L 129.38 172 L 129.19 171.75 L 129.06 171.25 L 129 170.5 L 129 169.5 L 128.94 168.75 L 128.81 168.25 L 128.63 168 L 128.38 168 L 128.19 167.5 L 128.06 166.5 L 128 165 L 128 163 L 127.94 161.5 L 127.81 160.5 L 127.63 160 L 127.38 160 L 127.19 158.81 L 127.06 156.44 L 127 152.88 L 127 148.13 L 127.06 144.56 L 127.19 142.19 L 127.38 141 L 127.63 141 L 127.81 140.5 L 127.94 139.5 L 128 138 L 128 136 L 128.06 134.5 L 128.19 133.5 L 128.38 133 L 128.63 133 L 128.81 132.69 L 128.94 132.06 L 129 131.13 L 129 129.88 L 129.06 128.94 L 129.19 128.31 L 129.38 128 L 129.63 128 L 129.81 127.81 L 129.94 127.44 L 130 126.88 L 130 126.13 L 130.06 125.56 L 130.19 125.19 L 130.38 125 L 130.63 125 L 130.81 124.81 L 130.94 124.44 L 131 123.88 L 131 123.13 L 131.06 122.56 L 131.19 122.19 L 131.38 122 L 131.63 122 L 131.81 121.75 L 131.94 121.25 L 132 120.5 L 132 119.5 L 131.94 118.75 L 131.81 118.25 L 131.63 118 L 131.38 118 L 131.19 117.94 L 131.06 117.81 L 131 117.63 L 131 117.38 L 130.88 117.19 L 130.63 117.06 L 130.25 117 L 129.75 117 L 129.38 116.94 L 129.13 116.81 L 129 116.63 L 129 116.38 L 128.88 116.19 L 128.63 116.06 L 128.25 116 L 127.75 116 L 127.38 115.94 L 127.13 115.81 L 127 115.63 L 127 115.38 L 126.94 115.19 L 126.81 115.06 L 126.63 115 L 126.38 115 L 126.19 114.94 L 126.06 114.81 L 126 114.63 L 126 114.38 L 125.88 114.19 L 125.63 114.06 L 125.25 114 L 124.75 114 L 124.38 113.94 L 124.13 113.81 L 124 113.63 L 124 113.38 L 123.88 113.19 L 123.63 113.06 L 123.25 113 L 122.75 113 L 122.38 112.94 L 122.13 112.81 L 122 112.63 L 122 112.38 L 121.88 112.19 L 121.63 112.06 L 121.25 112 L 120.75 112 L 120.38 111.94 L 120.13 111.81 L 120 111.63 L 120 111.38 L 119.94 111.19 L 119.81 111.06 L 119.63 111 L 119.38 111 L 119.19 110.94 L 119.06 110.81 L 119 110.63 L 119 110.38 L 118.94 110.19 L 118.81 110.06 L 118.63 110 L 118.38 110 L 118.19 109.94 L 118.06 109.81 L 118 109.63 L 118 109.38 L 117.94 109.19 L 117.81 109.06 L 117.63 109 L 117.38 109 L 117.19 108.94 L 117.06 108.81 L 117 108.63 L 117 108.38 L 116.94 108.19 L 116.81 108.06 L 116.63 108 L 116.38 108 L 116.19 107.94 L 116.06 107.81 L 116 107.63 L 116 107.38 L 115.88 107.19 L 115.63 107.06 L 115.25 107 L 114.75 107 L 114.38 106.94 L 114.13 106.81 L 114 106.63 L 114 106.38 L 113.75 106.19 L 113.25 106.06 L 112.5 106 L 111.5 106 L 110.75 105.94 L 110.25 105.81 L 110 105.63 L 110 105.38 L 109.81 105.19 L 109.44 105.06 L 108.88 105 L 108.13 105 L 107.56 104.94 L 107.19 104.81 L 107 104.63 L 107 104.38 L 106.81 104.19 L 106.44 104.06 L 105.88 104 L 105.13 104 L 104.56 103.94 L 104.19 103.81 L 104 103.63 L 104 103.38 L 103.88 103.19 L 103.63 103.06 L 103.25 103 L 102.75 103 L 102.38 102.94 L 102.13 102.81 L 102 102.63 L 102 102.38 L 101.94 102.19 L 101.81 102.06 L 101.63 102 L 101.38 102 L 101.19 101.94 L 101.06 101.81 L 101 101.63 L 101 101.38 L 100.88 101.19 L 100.63 101.06 L 100.25 101 L 99.75 101 L 99.38 100.94 L 99.13 100.81 L 99 100.63 L 99 100.38 L 98.88 100.19 L 98.63 100.06 L 98.25 100 L 97.75 100 L 97.38 99.94 L 97.13 99.81 L 97 99.63 L 97 99.38 L 96.88 99.19 L 96.63 99.06 L 96.25 99 L 95.75 99 L 95.38 99.06 L 95.13 99.19 Z M 74.63 130 L 76.38 130 L 77.69 130.06 L 78.56 130.19 L 79 130.38 L 79 130.63 L 79.25 130.81 L 79.75 130.94 L 80.5 131 L 81.5 131 L 82.25 131.06 L 82.75 131.19 L 83 131.38 L 83 131.63 L 83.06 131.81 L 83.19 131.94 L 83.38 132 L 83.63 132 L 83.81 132.06 L 83.94 132.19 L 84 132.38 L 84 132.63 L 84.13 132.81 L 84.38 132.94 L 84.75 133 L 85.25 133 L 85.63 133.31 L 85.88 133.94 L 86 134.88 L 86 136.13 L 85.94 137.06 L 85.81 137.69 L 85.63 138 L 85.38 138 L 85.19 138.06 L 85.06 138.19 L 85 138.38 L 85 138.63 L 84.81 138.81 L 84.44 138.94 L 83.88 139 L 83.13 139 L 82.56 138.94 L 82.19 138.81 L 82 138.63 L 82 138.38 L 81.81 138.19 L 81.44 138.06 L 80.88 138 L 80.13 138 L 79.56 137.94 L 79.19 137.81 L 79 137.63 L 79 137.38 L 78.56 137.19 L 77.69 137.06 L 76.38 137 L 74.63 137 L 73.31 137.06 L 72.44 137.19 L 72 137.38 L 72 137.63 L 71.81 137.81 L 71.44 137.94 L 70.88 138 L 70.13 138 L 69.56 138.06 L 69.19 138.19 L 69 138.38 L 69 138.63 L 68.81 138.81 L 68.44 138.94 L 67.88 139 L 67.13 139 L 66.56 138.94 L 66.19 138.81 L 66 138.63 L 66 138.38 L 65.94 138.19 L 65.81 138.06 L 65.63 138 L 65.38 138 L 65.19 137.75 L 65.06 137.25 L 65 136.5 L 65 135.5 L 65.06 134.75 L 65.19 134.25 L 65.38 134 L 65.63 134 L 65.81 133.94 L 65.94 133.81 L 66 133.63 L 66 133.38 L 66.06 133.19 L 66.19 133.06 L 66.38 133 L 66.63 133 L 66.81 132.94 L 66.94 132.81 L 67 132.63 L 67 132.38 L 67.06 132.19 L 67.19 132.06 L 67.38 132 L 67.63 132 L 67.81 131.94 L 67.94 131.81 L 68 131.63 L 68 131.38 L 68.25 131.19 L 68.75 131.06 L 69.5 131 L 70.5 131 L 71.25 130.94 L 71.75 130.81 L 72 130.63 L 72 130.38 L 72.44 130.19 L 73.31 130.06 Z M 114 130 L 116 130 L 117.5 130.06 L 118.5 130.19 L 119 130.38 L 119 130.63 L 119.25 130.81 L 119.75 130.94 L 120.5 131 L 121.5 131 L 122.25 131.06 L 122.75 131.19 L 123 131.38 L 123 131.63 L 123.13 131.81 L 123.38 131.94 L 123.75 132 L 124.25 132 L 124.63 132.13 L 124.88 132.38 L 125 132.75 L 125 133.25 L 125.06 133.63 L 125.19 133.88 L 125.38 134 L 125.63 134 L 125.81 134.25 L 125.94 134.75 L 126 135.5 L 126 136.5 L 125.94 137.25 L 125.81 137.75 L 125.63 138 L 125.38 138 L 125.19 138.06 L 125.06 138.19 L 125 138.38 L 125 138.63 L 124.75 138.81 L 124.25 138.94 L 123.5 139 L 122.5 139 L 121.75 138.94 L 121.25 138.81 L 121 138.63 L 121 138.38 L 120.94 138.19 L 120.81 138.06 L 120.63 138 L 120.38 138 L 120.19 137.94 L 120.06 137.81 L 120 137.63 L 120 137.38 L 119.44 137.19 L 118.31 137.06 L 116.63 137 L 114.38 137 L 112.69 137.06 L 111.56 137.19 L 111 137.38 L 111 137.63 L 110.88 137.81 L 110.63 137.94 L 110.25 138 L 109.75 138 L 109.38 138.06 L 109.13 138.19 L 109 138.38 L 109 138.63 L 108.81 138.81 L 108.44 138.94 L 107.88 139 L 107.13 139 L 106.56 138.94 L 106.19 138.81 L 106 138.63 L 106 138.38 L 105.94 138.19 L 105.81 138.06 L 105.63 138 L 105.38 138 L 105.19 137.94 L 105.06 137.81 L 105 137.63 L 105 137.38 L 104.94 137.19 L 104.81 137.06 L 104.63 137 L 104.38 137 L 104.19 136.88 L 104.06 136.63 L 104 136.25 L 104 135.75 L 104.06 135.38 L 104.19 135.13 L 104.38 135 L 104.63 135 L 104.81 134.88 L 104.94 134.63 L 105 134.25 L 105 133.75 L 105.06 133.38 L 105.19 133.13 L 105.38 133 L 105.63 133 L 105.81 132.94 L 105.94 132.81 L 106 132.63 L 106 132.38 L 106.13 132.19 L 106.38 132.06 L 106.75 132 L 107.25 132 L 107.63 131.94 L 107.88 131.81 L 108 131.63 L 108 131.38 L 108.19 131.19 L 108.56 131.06 L 109.13 131 L 109.88 131 L 110.44 130.94 L 110.81 130.81 L 111 130.63 L 111 130.38 L 111.5 130.19 L 112.5 130.06 Z M 151 134.38 L 151 134.63 L 150.75 134.81 L 150.25 134.94 L 149.5 135 L 148.5 135 L 147.75 135.06 L 147.25 135.19 L 147 135.38 L 147 135.63 L 146.88 135.81 L 146.63 135.94 L 146.25 136 L 145.75 136 L 145.38 136.06 L 145.13 136.19 L 145 136.38 L 145 136.63 L 144.94 136.81 L 144.81 136.94 L 144.63 137 L 144.38 137 L 144.19 137.06 L 144.06 137.19 L 144 137.38 L 144 137.63 L 143.94 137.81 L 143.81 137.94 L 143.63 138 L 143.38 138 L 143.19 138.06 L 143.06 138.19 L 143 138.38 L 143 138.63 L 142.94 138.81 L 142.81 138.94 L 142.63 139 L 142.38 139 L 142.19 139.19 L 142.06 139.56 L 142 140.13 L 142 140.88 L 142.06 141.44 L 142.19 141.81 L 142.38 142 L 142.63 142 L 142.81 142.06 L 142.94 142.19 L 143 142.38 L 143 142.63 L 143.06 142.81 L 143.19 142.94 L 143.38 143 L 143.63 143 L 143.81 143.06 L 143.94 143.19 L 144 143.38 L 144 143.63 L 144.06 143.81 L 144.19 143.94 L 144.38 144 L 144.63 144 L 144.81 144.06 L 144.94 144.19 L 145 144.38 L 145 144.63 L 145.13 144.81 L 145.38 144.94 L 145.75 145 L 146.25 145 L 146.63 145.06 L 146.88 145.19 L 147 145.38 L 147 145.63 L 147.25 145.81 L 147.75 145.94 L 148.5 146 L 149.5 146 L 150.25 146.06 L 150.75 146.19 L 151 146.38 L 151 146.63 L 151.38 146.81 L 152.13 146.94 L 153.25 147 L 154.75 147 L 155.88 146.94 L 156.63 146.81 L 157 146.63 L 157 146.38 L 157.19 146.19 L 157.56 146.06 L 158.13 146 L 158.88 146 L 159.44 145.94 L 159.81 145.81 L 160 145.63 L 160 145.38 L 160.06 145.19 L 160.19 145.06 L 160.38 145 L 160.63 145 L 160.81 144.94 L 160.94 144.81 L 161 144.63 L 161 144.38 L 161.06 144.19 L 161.19 144.06 L 161.38 144 L 161.63 144 L 161.81 143.81 L 161.94 143.44 L 162 142.88 L 162 142.13 L 162.06 141.56 L 162.19 141.19 L 162.38 141 L 162.63 141 L 162.81 140.94 L 162.94 140.81 L 163 140.63 L 163 140.38 L 162.94 140.19 L 162.81 140.06 L 162.63 140 L 162.38 140 L 162.19 139.81 L 162.06 139.44 L 162 138.88 L 162 138.13 L 161.94 137.56 L 161.81 137.19 L 161.63 137 L 161.38 137 L 161.19 136.94 L 161.06 136.81 L 161 136.63 L 161 136.38 L 160.94 136.19 L 160.81 136.06 L 160.63 136 L 160.38 136 L 160.19 135.94 L 160.06 135.81 L 160 135.63 L 160 135.38 L 159.81 135.19 L 159.44 135.06 L 158.88 135 L 158.13 135 L 157.56 134.94 L 157.19 134.81 L 157 134.63 L 157 134.38 L 156.63 134.19 L 155.88 134.06 L 154.75 134 L 153.25 134 L 152.13 134.06 L 151.38 134.19 Z M 187 134.38 L 187 134.63 L 186.81 134.81 L 186.44 134.94 L 185.88 135 L 185.13 135 L 184.56 135.06 L 184.19 135.19 L 184 135.38 L 184 135.63 L 183.88 135.81 L 183.63 135.94 L 183.25 136 L 182.75 136 L 182.38 136.13 L 182.13 136.38 L 182 136.75 L 182 137.25 L 181.94 137.63 L 181.81 137.88 L 181.63 138 L 181.38 138 L 181.19 138.31 L 181.06 138.94 L 181 139.88 L 181 141.13 L 181.06 142.06 L 181.19 142.69 L 181.38 143 L 181.63 143 L 181.81 143.13 L 181.94 143.38 L 182 143.75 L 182 144.25 L 182.06 144.63 L 182.19 144.88 L 182.38 145 L 182.63 145 L 182.81 145.06 L 182.94 145.19 L 183 145.38 L 183 145.63 L 183.25 145.81 L 183.75 145.94 L 184.5 146 L 185.5 146 L 186.25 146.06 L 186.75 146.19 L 187 146.38 L 187 146.63 L 187.38 146.81 L 188.13 146.94 L 189.25 147 L 190.75 147 L 191.88 146.94 L 192.63 146.81 L 193 146.63 L 193 146.38 L 193.31 146.19 L 193.94 146.06 L 194.88 146 L 196.13 146 L 197.06 145.94 L 197.69 145.81 L 198 145.63 L 198 145.38 L 198.06 145.19 L 198.19 145.06 L 198.38 145 L 198.63 145 L 198.81 144.94 L 198.94 144.81 L 199 144.63 L 199 144.38 L 199.06 144.19 L 199.19 144.06 L 199.38 144 L 199.63 144 L 199.81 143.94 L 199.94 143.81 L 200 143.63 L 200 143.38 L 200.06 143.19 L 200.19 143.06 L 200.38 143 L 200.63 143 L 200.81 142.69 L 200.94 142.06 L 201 141.13 L 201 139.88 L 200.94 138.94 L 200.81 138.31 L 200.63 138 L 200.38 138 L 200.19 137.94 L 200.06 137.81 L 200 137.63 L 200 137.38 L 199.94 137.19 L 199.81 137.06 L 199.63 137 L 199.38 137 L 199.19 136.94 L 199.06 136.81 L 199 136.63 L 199 136.38 L 198.81 136.19 L 198.44 136.06 L 197.88 136 L 197.13 136 L 196.56 135.94 L 196.19 135.81 L 196 135.63 L 196 135.38 L 195.81 135.19 L 195.44 135.06 L 194.88 135 L 194.13 135 L 193.56 134.94 L 193.19 134.81 L 193 134.63 L 193 134.38 L 192.63 134.19 L 191.88 134.06 L 190.75 134 L 189.25 134 L 188.13 134.06 L 187.38 134.19 Z M 75.13 142 L 75.88 142 L 76.44 142.06 L 76.81 142.19 L 77 142.38 L 77 142.63 L 77.06 142.81 L 77.19 142.94 L 77.38 143 L 77.63 143 L 77.81 143.06 L 77.94 143.19 L 78 143.38 L 78 143.63 L 78.06 143.81 L 78.19 143.94 L 78.38 144 L 78.63 144 L 78.81 144.44 L 78.94 145.31 L 79 146.63 L 79 148.38 L 78.94 149.69 L 78.81 150.56 L 78.63 151 L 78.38 151 L 78.19 151.06 L 78.06 151.19 L 78 151.38 L 78 151.63 L 77.88 151.81 L 77.63 151.94 L 77.25 152 L 76.75 152 L 76.38 152.06 L 76.13 152.19 L 76 152.38 L 76 152.63 L 75.94 152.81 L 75.81 152.94 L 75.63 153 L 75.38 153 L 75.19 152.94 L 75.06 152.81 L 75 152.63 L 75 152.38 L 74.88 152.19 L 74.63 152.06 L 74.25 152 L 73.75 152 L 73.38 151.88 L 73.13 151.63 L 73 151.25 L 73 150.75 L 72.94 150.38 L 72.81 150.13 L 72.63 150 L 72.38 150 L 72.19 149.63 L 72.06 148.88 L 72 147.75 L 72 146.25 L 72.06 145.13 L 72.19 144.38 L 72.38 144 L 72.63 144 L 72.81 143.94 L 72.94 143.81 L 73 143.63 L 73 143.38 L 73.06 143.19 L 73.19 143.06 L 73.38 143 L 73.63 143 L 73.81 142.94 L 73.94 142.81 L 74 142.63 L 74 142.38 L 74.19 142.19 L 74.56 142.06 Z M 115.75 142 L 116.25 142 L 116.63 142.06 L 116.88 142.19 L 117 142.38 L 117 142.63 L 117.13 142.81 L 117.38 142.94 L 117.75 143 L 118.25 143 L 118.63 143.13 L 118.88 143.38 L 119 143.75 L 119 144.25 L 119.06 144.63 L 119.19 144.88 L 119.38 145 L 119.63 145 L 119.81 145.31 L 119.94 145.94 L 120 146.88 L 120 148.13 L 119.94 149.06 L 119.81 149.69 L 119.63 150 L 119.38 150 L 119.19 150.13 L 119.06 150.38 L 119 150.75 L 119 151.25 L 118.88 151.63 L 118.63 151.88 L 118.25 152 L 117.75 152 L 117.38 152.06 L 117.13 152.19 L 117 152.38 L 117 152.63 L 116.88 152.81 L 116.63 152.94 L 116.25 153 L 115.75 153 L 115.38 152.94 L 115.13 152.81 L 115 152.63 L 115 152.38 L 114.94 152.19 L 114.81 152.06 L 114.63 152 L 114.38 152 L 114.19 151.94 L 114.06 151.81 L 114 151.63 L 114 151.38 L 113.94 151.19 L 113.81 151.06 L 113.63 151 L 113.38 151 L 113.19 150.94 L 113.06 150.81 L 113 150.63 L 113 150.38 L 112.94 150.19 L 112.81 150.06 L 112.63 150 L 112.38 150 L 112.19 149.69 L 112.06 149.06 L 112 148.13 L 112 146.88 L 112.06 145.94 L 112.19 145.31 L 112.38 145 L 112.63 145 L 112.81 144.94 L 112.94 144.81 L 113 144.63 L 113 144.38 L 113.06 144.19 L 113.19 144.06 L 113.38 144 L 113.63 144 L 113.81 143.94 L 113.94 143.81 L 114 143.63 L 114 143.38 L 114.06 143.19 L 114.19 143.06 L 114.38 143 L 114.63 143 L 114.81 142.94 L 114.94 142.81 L 115 142.63 L 115 142.38 L 115.13 142.19 L 115.38 142.06 Z M 82.13 169 L 82.88 169 L 83.44 169.06 L 83.81 169.19 L 84 169.38 L 84 169.63 L 84.13 169.81 L 84.38 169.94 L 84.75 170 L 85.25 170 L 85.63 170.13 L 85.88 170.38 L 86 170.75 L 86 171.25 L 86.13 171.63 L 86.38 171.88 L 86.75 172 L 87.25 172 L 87.63 172.06 L 87.88 172.19 L 88 172.38 L 88 172.63 L 88.13 172.81 L 88.38 172.94 L 88.75 173 L 89.25 173 L 89.63 173.06 L 89.88 173.19 L 90 173.38 L 90 173.63 L 90.19 173.81 L 90.56 173.94 L 91.13 174 L 91.88 174 L 92.44 174.06 L 92.81 174.19 L 93 174.38 L 93 174.63 L 93.38 174.81 L 94.13 174.94 L 95.25 175 L 96.75 175 L 97.88 174.94 L 98.63 174.81 L 99 174.63 L 99 174.38 L 99.19 174.19 L 99.56 174.06 L 100.13 174 L 100.88 174 L 101.44 173.94 L 101.81 173.81 L 102 173.63 L 102 173.38 L 102.13 173.19 L 102.38 173.06 L 102.75 173 L 103.25 173 L 103.63 172.94 L 103.88 172.81 L 104 172.63 L 104 172.38 L 104.06 172.19 L 104.19 172.06 L 104.38 172 L 104.63 172 L 104.81 171.94 L 104.94 171.81 L 105 171.63 L 105 171.38 L 105.06 171.19 L 105.19 171.06 L 105.38 171 L 105.63 171 L 105.81 170.94 L 105.94 170.81 L 106 170.63 L 106 170.38 L 106.06 170.19 L 106.19 170.06 L 106.38 170 L 106.63 170 L 106.81 169.94 L 106.94 169.81 L 107 169.63 L 107 169.38 L 107.25 169.19 L 107.75 169.06 L 108.5 169 L 109.5 169 L 110.25 169.06 L 110.75 169.19 L 111 169.38 L 111 169.63 L 111.06 169.81 L 111.19 169.94 L 111.38 170 L 111.63 170 L 111.81 170.19 L 111.94 170.56 L 112 171.13 L 112 171.88 L 111.94 172.44 L 111.81 172.81 L 111.63 173 L 111.38 173 L 111.19 173.13 L 111.06 173.38 L 111 173.75 L 111 174.25 L 110.94 174.63 L 110.81 174.88 L 110.63 175 L 110.38 175 L 110.19 175.06 L 110.06 175.19 L 110 175.38 L 110 175.63 L 109.94 175.81 L 109.81 175.94 L 109.63 176 L 109.38 176 L 109.19 176.06 L 109.06 176.19 L 109 176.38 L 109 176.63 L 108.94 176.81 L 108.81 176.94 L 108.63 177 L 108.38 177 L 108.19 177.06 L 108.06 177.19 L 108 177.38 L 108 177.63 L 107.88 177.81 L 107.63 177.94 L 107.25 178 L 106.75 178 L 106.38 178.06 L 106.13 178.19 L 106 178.38 L 106 178.63 L 105.88 178.81 L 105.63 178.94 L 105.25 179 L 104.75 179 L 104.38 179.06 L 104.13 179.19 L 104 179.38 L 104 179.63 L 103.88 179.81 L 103.63 179.94 L 103.25 180 L 102.75 180 L 102.38 180.06 L 102.13 180.19 L 102 180.38 L 102 180.63 L 101.25 180.81 L 99.75 180.94 L 97.5 181 L 94.5 181 L 92.25 180.94 L 90.75 180.81 L 90 180.63 L 90 180.38 L 89.88 180.19 L 89.63 180.06 L 89.25 180 L 88.75 180 L 88.38 179.94 L 88.13 179.81 L 88 179.63 L 88 179.38 L 87.88 179.19 L 87.63 179.06 L 87.25 179 L 86.75 179 L 86.38 178.94 L 86.13 178.81 L 86 178.63 L 86 178.38 L 85.88 178.19 L 85.63 178.06 L 85.25 178 L 84.75 178 L 84.38 177.94 L 84.13 177.81 L 84 177.63 L 84 177.38 L 83.94 177.19 L 83.81 177.06 L 83.63 177 L 83.38 177 L 83.19 176.94 L 83.06 176.81 L 83 176.63 L 83 176.38 L 82.94 176.19 L 82.81 176.06 L 82.63 176 L 82.38 176 L 82.19 175.94 L 82.06 175.81 L 82 175.63 L 82 175.38 L 81.94 175.19 L 81.81 175.06 L 81.63 175 L 81.38 175 L 81.19 174.94 L 81.06 174.81 L 81 174.63 L 81 174.38 L 80.94 174.19 L 80.81 174.06 L 80.63 174 L 80.38 174 L 80.19 173.75 L 80.06 173.25 L 80 172.5 L 80 171.5 L 80.06 170.75 L 80.19 170.25 L 80.38 170 L 80.63 170 L 80.81 169.94 L 80.94 169.81 L 81 169.63 L 81 169.38 L 81.19 169.19 L 81.56 169.06 Z M 158.63 172 L 158.38 172 L 158.19 172.06 L 158.06 172.19 L 158 172.38 L 158 172.63 L 157.94 172.81 L 157.81 172.94 L 157.63 173 L 157.38 173 L 157.19 173.06 L 157.06 173.19 L 157 173.38 L 157 173.63 L 157.06 173.81 L 157.19 173.94 L 157.38 174 L 157.63 174 L 157.81 174.13 L 157.94 174.38 L 158 174.75 L 158 175.25 L 158.06 175.63 L 158.19 175.88 L 158.38 176 L 158.63 176 L 158.81 176.13 L 158.94 176.38 L 159 176.75 L 159 177.25 L 159.06 177.63 L 159.19 177.88 L 159.38 178 L 159.63 178 L 159.81 178.06 L 159.94 178.19 L 160 178.38 L 160 178.63 L 160.06 178.81 L 160.19 178.94 L 160.38 179 L 160.63 179 L 160.81 179.06 L 160.94 179.19 L 161 179.38 L 161 179.63 L 161.06 179.81 L 161.19 179.94 L 161.38 180 L 161.63 180 L 161.81 180.06 L 161.94 180.19 L 162 180.38 L 162 180.63 L 162.06 180.81 L 162.19 180.94 L 162.38 181 L 162.63 181 L 162.81 181.06 L 162.94 181.19 L 163 181.38 L 163 181.63 L 163.19 181.81 L 163.56 181.94 L 164.13 182 L 164.88 182 L 165.44 182.06 L 165.81 182.19 L 166 182.38 L 166 182.63 L 166.13 182.81 L 166.38 182.94 L 166.75 183 L 167.25 183 L 167.63 183.06 L 167.88 183.19 L 168 183.38 L 168 183.63 L 168.5 183.81 L 169.5 183.94 L 171 184 L 173 184 L 174.5 183.94 L 175.5 183.81 L 176 183.63 L 176 183.38 L 176.13 183.19 L 176.38 183.06 L 176.75 183 L 177.25 183 L 177.63 182.94 L 177.88 182.81 L 178 182.63 L 178 182.38 L 178.13 182.19 L 178.38 182.06 L 178.75 182 L 179.25 182 L 179.63 181.94 L 179.88 181.81 L 180 181.63 L 180 181.38 L 180.06 181.19 L 180.19 181.06 L 180.38 181 L 180.63 181 L 180.81 180.94 L 180.94 180.81 L 181 180.63 L 181 180.38 L 181.06 180.19 L 181.19 180.06 L 181.38 180 L 181.63 180 L 181.81 179.94 L 181.94 179.81 L 182 179.63 L 182 179.38 L 182.06 179.19 L 182.19 179.06 L 182.38 179 L 182.63 179 L 182.81 178.94 L 182.94 178.81 L 183 178.63 L 183 178.38 L 183.06 178.19 L 183.19 178.06 L 183.38 178 L 183.63 178 L 183.81 177.88 L 183.94 177.63 L 184 177.25 L 184 176.75 L 184.06 176.38 L 184.19 176.13 L 184.38 176 L 184.63 176 L 184.81 175.94 L 184.94 175.81 L 185 175.63 L 185 175.38 L 185.06 175.19 L 185.19 175.06 L 185.38 175 L 185.63 175 L 185.81 174.81 L 185.94 174.44 L 186 173.88 L 186 173.13 L 185.88 172.56 L 185.63 172.19 L 185.25 172 L 184.75 172 L 184.38 172.06 L 184.13 172.19 L 184 172.38 L 184 172.63 L 183.88 172.81 L 183.63 172.94 L 183.25 173 L 182.75 173 L 182.38 173.06 L 182.13 173.19 L 182 173.38 L 182 173.63 L 181.88 173.81 L 181.63 173.94 L 181.25 174 L 180.75 174 L 180.38 174.06 L 180.13 174.19 L 180 174.38 L 180 174.63 L 179.69 174.81 L 179.06 174.94 L 178.13 175 L 176.88 175 L 175.94 175.06 L 175.31 175.19 L 175 175.38 L 175 175.63 L 174.63 175.81 L 173.88 175.94 L 172.75 176 L 171.25 176 L 170.13 175.94 L 169.38 175.81 L 169 175.63 L 169 175.38 L 168.69 175.19 L 168.06 175.06 L 167.13 175 L 165.88 175 L 164.94 174.94 L 164.31 174.81 L 164 174.63 L 164 174.38 L 163.88 174.19 L 163.63 174.06 L 163.25 174 L 162.75 174 L 162.38 173.94 L 162.13 173.81 L 162 173.63 L 162 173.38 L 161.81 173.19 L 161.44 173.06 L 160.88 173 L 160.13 173 L 159.56 172.94 L 159.19 172.81 L 159 172.63 L 159 172.38 L 158.94 172.19 L 158.81 172.06 Z" fill="#FFE998" fill-rule="evenodd"/>
</svg>
