<?xml version="1.0" encoding="UTF-8"?>
<svg viewBox="0 0 256 256" xmlns="http://www.w3.org/2000/svg" fill="none">
  <path d="M 107 33 L 109 33 L 110.5 33.06 L 111.5 33.19 L 112 33.38 L 112 33.63 L 112.06 33.81 L 112.19 33.94 L 112.38 34 L 112.63 34 L 112.81 34.06 L 112.94 34.19 L 113 34.38 L 113 34.63 L 113.06 34.81 L 113.19 34.94 L 113.38 35 L 113.63 35 L 113.81 35.06 L 113.94 35.19 L 114 35.38 L 114 35.63 L 114.06 35.81 L 114.19 35.94 L 114.38 36 L 114.63 36 L 114.81 36.06 L 114.94 36.19 L 115 36.38 L 115 36.63 L 115.06 36.81 L 115.19 36.94 L 115.38 37 L 115.63 37 L 115.81 37.19 L 115.94 37.56 L 116 38.13 L 116 38.88 L 115.94 39.44 L 115.81 39.81 L 115.63 40 L 115.38 40 L 115.19 40.13 L 115.06 40.38 L 115 40.75 L 115 41.25 L 114.94 41.63 L 114.81 41.88 L 114.63 42 L 114.38 42 L 114.19 42.19 L 114.06 42.56 L 114 43.13 L 114 43.88 L 113.94 44.44 L 113.81 44.81 L 113.63 45 L 113.38 45 L 113.19 45.06 L 113.06 45.19 L 113 45.38 L 113 45.63 L 112.94 45.81 L 112.81 45.94 L 112.63 46 L 112.38 46 L 112.19 46.13 L 112.06 46.38 L 112 46.75 L 112 47.25 L 112.06 47.63 L 112.19 47.88 L 112.38 48 L 112.63 48 L 112.81 48.06 L 112.94 48.19 L 113 48.38 L 113 48.63 L 113.06 48.81 L 113.19 48.94 L 113.38 49 L 113.63 49 L 113.81 49.06 L 113.94 49.19 L 114 49.38 L 114 49.63 L 114.06 49.81 L 114.19 49.94 L 114.38 50 L 114.63 50 L 114.81 49.94 L 114.94 49.81 L 115 49.63 L 115 49.38 L 115.06 49.19 L 115.19 49.06 L 115.38 49 L 115.63 49 L 115.81 48.88 L 115.94 48.63 L 116 48.25 L 116 47.75 L 116.06 47.38 L 116.19 47.13 L 116.38 47 L 116.63 47 L 116.81 46.88 L 116.94 46.63 L 117 46.25 L 117 45.75 L 117.06 45.38 L 117.19 45.13 L 117.38 45 L 117.63 45 L 117.81 44.81 L 117.94 44.44 L 118 43.88 L 118 43.13 L 118.06 42.56 L 118.19 42.19 L 118.38 42 L 118.63 42 L 118.81 41.94 L 118.94 41.81 L 119 41.63 L 119 41.38 L 119.06 41.19 L 119.19 41.06 L 119.38 41 L 119.63 41 L 119.81 40.94 L 119.94 40.81 L 120 40.63 L 120 40.38 L 120.06 40.19 L 120.19 40.06 L 120.38 40 L 120.63 40 L 120.81 39.94 L 120.94 39.81 L 121 39.63 L 121 39.38 L 121.31 39.19 L 121.94 39.06 L 122.88 39 L 124.13 39 L 125.06 39.06 L 125.69 39.19 L 126 39.38 L 126 39.63 L 126.13 39.81 L 126.38 39.94 L 126.75 40 L 127.25 40 L 127.63 40.13 L 127.88 40.38 L 128 40.75 L 128 41.25 L 128.06 41.63 L 128.19 41.88 L 128.38 42 L 128.63 42 L 128.81 42.06 L 128.94 42.19 L 129 42.38 L 129 42.63 L 129.06 42.81 L 129.19 42.94 L 129.38 43 L 129.63 43 L 129.81 43.38 L 129.94 44.13 L 130 45.25 L 130 46.75 L 129.94 47.88 L 129.81 48.63 L 129.63 49 L 129.38 49 L 129.19 49.13 L 129.06 49.38 L 129 49.75 L 129 50.25 L 128.94 50.63 L 128.81 50.88 L 128.63 51 L 128.38 51 L 128.19 51.19 L 128.06 51.56 L 128 52.13 L 128 52.88 L 128.25 53.44 L 128.75 53.81 L 129.5 54 L 130.5 54 L 131.25 53.88 L 131.75 53.63 L 132 53.25 L 132 52.75 L 132.06 52.38 L 132.19 52.13 L 132.38 52 L 132.63 52 L 132.81 51.94 L 132.94 51.81 L 133 51.63 L 133 51.38 L 133.06 51.19 L 133.19 51.06 L 133.38 51 L 133.63 51 L 133.81 50.94 L 133.94 50.81 L 134 50.63 L 134 50.38 L 134.13 50.19 L 134.38 50.06 L 134.75 50 L 135.25 50 L 135.63 49.94 L 135.88 49.81 L 136 49.63 L 136 49.38 L 136.13 49.19 L 136.38 49.06 L 136.75 49 L 137.25 49 L 137.63 49.06 L 137.88 49.19 L 138 49.38 L 138 49.63 L 138.13 49.81 L 138.38 49.94 L 138.75 50 L 139.25 50 L 139.63 50.06 L 139.88 50.19 L 140 50.38 L 140 50.63 L 140.06 50.81 L 140.19 50.94 L 140.38 51 L 140.63 51 L 140.81 51.06 L 140.94 51.19 L 141 51.38 L 141 51.63 L 141.06 51.81 L 141.19 51.94 L 141.38 52 L 141.63 52 L 141.81 52.13 L 141.94 52.38 L 142 52.75 L 142 53.25 L 142.06 53.63 L 142.19 53.88 L 142.38 54 L 142.63 54 L 142.81 54.06 L 142.94 54.19 L 143 54.38 L 143 54.63 L 142.94 54.81 L 142.81 54.94 L 142.63 55 L 142.38 55 L 142.19 55.19 L 142.06 55.56 L 142 56.13 L 142 56.88 L 141.94 57.44 L 141.81 57.81 L 141.63 58 L 141.38 58 L 141.19 58.06 L 141.06 58.19 L 141 58.38 L 141 58.63 L 140.94 58.81 L 140.81 58.94 L 140.63 59 L 140.38 59 L 140.19 59.13 L 140.06 59.38 L 140 59.75 L 140 60.25 L 140.06 60.63 L 140.19 60.88 L 140.38 61 L 140.63 61 L 140.81 61.06 L 140.94 61.19 L 141 61.38 L 141 61.63 L 141.19 61.81 L 141.56 61.94 L 142.13 62 L 142.88 62 L 143.44 61.88 L 143.81 61.63 L 144 61.25 L 144 60.75 L 144.19 60.38 L 144.56 60.13 L 145.13 60 L 145.88 60 L 146.44 59.94 L 146.81 59.81 L 147 59.63 L 147 59.38 L 147.06 59.19 L 147.19 59.06 L 147.38 59 L 147.63 59 L 147.81 59.06 L 147.94 59.19 L 148 59.38 L 148 59.63 L 148.19 59.81 L 148.56 59.94 L 149.13 60 L 149.88 60 L 150.44 60.13 L 150.81 60.38 L 151 60.75 L 151 61.25 L 151.06 61.63 L 151.19 61.88 L 151.38 62 L 151.63 62 L 151.81 62.25 L 151.94 62.75 L 152 63.5 L 152 64.5 L 151.94 65.25 L 151.81 65.75 L 151.63 66 L 151.38 66 L 151.19 66.19 L 151.06 66.56 L 151 67.13 L 151 67.88 L 150.94 68.44 L 150.81 68.81 L 150.63 69 L 150.38 69 L 150.19 69.06 L 150.06 69.19 L 150 69.38 L 150 69.63 L 149.94 69.81 L 149.81 69.94 L 149.63 70 L 149.38 70 L 149.19 70.13 L 149.06 70.38 L 149 70.75 L 149 71.25 L 149.06 71.63 L 149.19 71.88 L 149.38 72 L 149.63 72 L 149.81 72.06 L 149.94 72.19 L 150 72.38 L 150 72.63 L 150.13 72.81 L 150.38 72.94 L 150.75 73 L 151.25 73 L 151.63 72.94 L 151.88 72.81 L 152 72.63 L 152 72.38 L 152.25 72.19 L 152.75 72.06 L 153.5 72 L 154.5 72 L 155.25 72.06 L 155.75 72.19 L 156 72.38 L 156 72.63 L 156.06 72.81 L 156.19 72.94 L 156.38 73 L 156.63 73 L 156.81 73.56 L 156.94 74.69 L 157 76.38 L 157 78.63 L 156.94 80.31 L 156.81 81.44 L 156.63 82 L 156.38 82 L 156.19 82.06 L 156.06 82.19 L 156 82.38 L 156 82.63 L 155.94 82.81 L 155.81 82.94 L 155.63 83 L 155.38 83 L 155.19 83.13 L 155.06 83.38 L 155 83.75 L 155 84.25 L 154.94 84.63 L 154.81 84.88 L 154.63 85 L 154.38 85 L 154.19 85.13 L 154.06 85.38 L 154 85.75 L 154 86.25 L 153.94 86.63 L 153.81 86.88 L 153.63 87 L 153.38 87 L 153.19 87.31 L 153.06 87.94 L 153 88.88 L 153 90.13 L 153.06 91.06 L 153.19 91.69 L 153.38 92 L 153.63 92 L 153.81 92.13 L 153.94 92.38 L 154 92.75 L 154 93.25 L 154.06 93.63 L 154.19 93.88 L 154.38 94 L 154.63 94 L 154.81 94.31 L 154.94 94.94 L 155 95.88 L 155 97.13 L 155.06 98.06 L 155.19 98.69 L 155.38 99 L 155.63 99 L 155.81 99.13 L 155.94 99.38 L 156 99.75 L 156 100.25 L 156.06 100.63 L 156.19 100.88 L 156.38 101 L 156.63 101 L 156.81 101.69 L 156.94 103.06 L 157 105.13 L 157 107.88 L 156.94 109.94 L 156.81 111.31 L 156.63 112 L 156.38 112 L 156.19 112.25 L 156.06 112.75 L 156 113.5 L 156 114.5 L 155.94 115.25 L 155.81 115.75 L 155.63 116 L 155.38 116 L 155.19 116.06 L 155.06 116.19 L 155 116.38 L 155 116.63 L 154.81 116.81 L 154.44 116.94 L 153.88 117 L 153.13 117 L 152.56 116.81 L 152.19 116.44 L 152 115.88 L 152 115.13 L 151.94 114.56 L 151.81 114.19 L 151.63 114 L 151.38 114 L 151.19 113.88 L 151.06 113.63 L 151 113.25 L 151 112.75 L 150.94 112.38 L 150.81 112.13 L 150.63 112 L 150.38 112 L 150.19 111.81 L 150.06 111.44 L 150 110.88 L 150 110.13 L 149.94 109.56 L 149.81 109.19 L 149.63 109 L 149.38 109 L 149.19 108.94 L 149.06 108.81 L 149 108.63 L 149 108.38 L 148.94 108.19 L 148.81 108.06 L 148.63 108 L 148.38 108 L 148.19 107.81 L 148.06 107.44 L 148 106.88 L 148 106.13 L 147.94 105.56 L 147.81 105.19 L 147.63 105 L 147.38 105 L 147.19 104.88 L 147.06 104.63 L 147 104.25 L 147 103.75 L 146.94 103.38 L 146.81 103.13 L 146.63 103 L 146.38 103 L 146.19 102.81 L 146.06 102.44 L 146 101.88 L 146 101.13 L 145.94 100.56 L 145.81 100.19 L 145.63 100 L 145.38 100 L 145.19 99.94 L 145.06 99.81 L 145 99.63 L 145 99.38 L 144.94 99.19 L 144.81 99.06 L 144.63 99 L 144.38 99 L 144.19 98.81 L 144.06 98.44 L 144 97.88 L 144 97.13 L 143.94 96.56 L 143.81 96.19 L 143.63 96 L 143.38 96 L 143.19 95.94 L 143.06 95.81 L 143 95.63 L 143 95.38 L 142.94 95.19 L 142.81 95.06 L 142.63 95 L 142.38 95 L 142.19 94.88 L 142.06 94.63 L 142 94.25 L 142 93.75 L 141.88 93.38 L 141.63 93.13 L 141.25 93 L 140.75 93 L 140.38 92.94 L 140.13 92.81 L 140 92.63 L 140 92.38 L 139.94 92.19 L 139.81 92.06 L 139.63 92 L 139.38 92 L 139.19 91.94 L 139.06 91.81 L 139 91.63 L 139 91.38 L 138.44 91.19 L 137.31 91.06 L 135.63 91 L 133.38 91 L 131.69 91.06 L 130.56 91.19 L 130 91.38 L 130 91.63 L 129.94 91.81 L 129.81 91.94 L 129.63 92 L 129.38 92 L 129.19 92.06 L 129.06 92.19 L 129 92.38 L 129 92.63 L 128.94 92.81 L 128.81 92.94 L 128.63 93 L 128.38 93 L 128.19 93.06 L 128.06 93.19 L 128 93.38 L 128 93.63 L 127.94 93.81 L 127.81 93.94 L 127.63 94 L 127.38 94 L 127.19 94.06 L 127.06 94.19 L 127 94.38 L 127 94.63 L 126.94 94.81 L 126.81 94.94 L 126.63 95 L 126.38 95 L 126.19 95.19 L 126.06 95.56 L 126 96.13 L 126 96.88 L 125.94 97.44 L 125.81 97.81 L 125.63 98 L 125.38 98 L 125.19 98.25 L 125.06 98.75 L 125 99.5 L 125 100.5 L 124.94 101.25 L 124.81 101.75 L 124.63 102 L 124.38 102 L 124.19 102.25 L 124.06 102.75 L 124 103.5 L 124 104.5 L 124.06 105.25 L 124.19 105.75 L 124.38 106 L 124.63 106 L 124.81 106.19 L 124.94 106.56 L 125 107.13 L 125 107.88 L 125.06 108.44 L 125.19 108.81 L 125.38 109 L 125.63 109 L 125.81 109.25 L 125.94 109.75 L 126 110.5 L 126 111.5 L 126.06 112.25 L 126.19 112.75 L 126.38 113 L 126.63 113 L 126.81 113.13 L 126.94 113.38 L 127 113.75 L 127 114.25 L 127.06 114.63 L 127.19 114.88 L 127.38 115 L 127.63 115 L 127.81 115.06 L 127.94 115.19 L 128 115.38 L 128 115.63 L 128.06 115.81 L 128.19 115.94 L 128.38 116 L 128.63 116 L 128.81 116.13 L 128.94 116.38 L 129 116.75 L 129 117.25 L 129.06 117.63 L 129.19 117.88 L 129.38 118 L 129.63 118 L 129.81 118.06 L 129.94 118.19 L 130 118.38 L 130 118.63 L 130.06 118.81 L 130.19 118.94 L 130.38 119 L 130.63 119 L 130.81 119.13 L 130.94 119.38 L 131 119.75 L 131 120.25 L 131.06 120.63 L 131.19 120.88 L 131.38 121 L 131.63 121 L 131.81 121.06 L 131.94 121.19 L 132 121.38 L 132 121.63 L 132.06 121.81 L 132.19 121.94 L 132.38 122 L 132.63 122 L 132.81 122.13 L 132.94 122.38 L 133 122.75 L 133 123.25 L 133.06 123.63 L 133.19 123.88 L 133.38 124 L 133.63 124 L 133.81 124.13 L 133.94 124.38 L 134 124.75 L 134 125.25 L 134.06 125.63 L 134.19 125.88 L 134.38 126 L 134.63 126 L 134.81 126.19 L 134.94 126.56 L 135 127.13 L 135 127.88 L 135.06 128.44 L 135.19 128.81 L 135.38 129 L 135.63 129 L 135.81 129.25 L 135.94 129.75 L 136 130.5 L 136 131.5 L 136.06 132.25 L 136.19 132.75 L 136.38 133 L 136.63 133 L 136.81 133.31 L 136.94 133.94 L 137 134.88 L 137 136.13 L 137.06 137.06 L 137.19 137.69 L 137.38 138 L 137.63 138 L 137.81 138.81 L 137.94 140.44 L 138 142.88 L 138 146.13 L 138.06 148.56 L 138.19 150.19 L 138.38 151 L 138.63 151 L 138.81 151.25 L 138.94 151.75 L 139 152.5 L 139 153.5 L 138.94 154.25 L 138.81 154.75 L 138.63 155 L 138.38 155 L 138.19 155.25 L 138.06 155.75 L 138 156.5 L 138 157.5 L 137.94 158.25 L 137.81 158.75 L 137.63 159 L 137.38 159 L 137.19 159.13 L 137.06 159.38 L 137 159.75 L 137 160.25 L 136.94 160.63 L 136.81 160.88 L 136.63 161 L 136.38 161 L 136.19 161.13 L 136.06 161.38 L 136 161.75 L 136 162.25 L 135.94 162.63 L 135.81 162.88 L 135.63 163 L 135.38 163 L 135.19 163.19 L 135.06 163.56 L 135 164.13 L 135 164.88 L 134.94 165.44 L 134.81 165.81 L 134.63 166 L 134.38 166 L 134.19 166.13 L 134.06 166.38 L 134 166.75 L 134 167.25 L 133.94 167.63 L 133.81 167.88 L 133.63 168 L 133.38 168 L 133.19 168.19 L 133.06 168.56 L 133 169.13 L 133 169.88 L 132.94 170.44 L 132.81 170.81 L 132.63 171 L 132.38 171 L 132.19 171.19 L 132.06 171.56 L 132 172.13 L 132 172.88 L 131.94 173.44 L 131.81 173.81 L 131.63 174 L 131.38 174 L 131.19 174.19 L 131.06 174.56 L 131 175.13 L 131 175.88 L 130.94 176.44 L 130.81 176.81 L 130.63 177 L 130.38 177 L 130.19 177.38 L 130.06 178.13 L 130 179.25 L 130 180.75 L 129.94 181.88 L 129.81 182.63 L 129.63 183 L 129.38 183 L 129.19 183.25 L 129.06 183.75 L 129 184.5 L 129 185.5 L 128.94 186.25 L 128.81 186.75 L 128.63 187 L 128.38 187 L 128.19 187.25 L 128.06 187.75 L 128 188.5 L 128 189.5 L 127.94 190.25 L 127.81 190.75 L 127.63 191 L 127.38 191 L 127.19 191.13 L 127.06 191.38 L 127 191.75 L 127 192.25 L 126.94 192.63 L 126.81 192.88 L 126.63 193 L 126.38 193 L 126.19 193.13 L 126.06 193.38 L 126 193.75 L 126 194.25 L 125.94 194.63 L 125.81 194.88 L 125.63 195 L 125.38 195 L 125.19 195.06 L 125.06 195.19 L 125 195.38 L 125 195.63 L 124.94 195.81 L 124.81 195.94 L 124.63 196 L 124.38 196 L 124.19 196.13 L 124.06 196.38 L 124 196.75 L 124 197.25 L 123.94 197.63 L 123.81 197.88 L 123.63 198 L 123.38 198 L 123.19 198.06 L 123.06 198.19 L 123 198.38 L 123 198.63 L 122.88 198.81 L 122.63 198.94 L 122.25 199 L 121.75 199 L 121.38 199.06 L 121.13 199.19 L 121 199.38 L 121 199.63 L 120.94 199.81 L 120.81 199.94 L 120.63 200 L 120.38 200 L 120.19 200.06 L 120.06 200.19 L 120 200.38 L 120 200.63 L 119.88 200.81 L 119.63 200.94 L 119.25 201 L 118.75 201 L 118.38 201.06 L 118.13 201.19 L 118 201.38 L 118 201.63 L 117.94 201.81 L 117.81 201.94 L 117.63 202 L 117.38 202 L 117.19 202.06 L 117.06 202.19 L 117 202.38 L 117 202.63 L 116.38 202.81 L 115.13 202.94 L 113.25 203 L 110.75 203 L 108.88 202.94 L 107.63 202.81 L 107 202.63 L 107 202.38 L 106.94 202.19 L 106.81 202.06 L 106.63 202 L 106.38 202 L 106.19 201.88 L 106.06 201.63 L 106 201.25 L 106 200.75 L 106.06 200.38 L 106.19 200.13 L 106.38 200 L 106.63 200 L 106.81 199.88 L 106.94 199.63 L 107 199.25 L 107 198.75 L 107.06 198.38 L 107.19 198.13 L 107.38 198 L 107.63 198 L 107.81 197.88 L 107.94 197.63 L 108 197.25 L 108 196.75 L 108.06 196.38 L 108.19 196.13 L 108.38 196 L 108.63 196 L 108.81 195.88 L 108.94 195.63 L 109 195.25 L 109 194.75 L 109.06 194.38 L 109.19 194.13 L 109.38 194 L 109.63 194 L 109.81 193.88 L 109.94 193.63 L 110 193.25 L 110 192.75 L 110.06 192.38 L 110.19 192.13 L 110.38 192 L 110.63 192 L 110.81 191.88 L 110.94 191.63 L 111 191.25 L 111 190.75 L 111.06 190.38 L 111.19 190.13 L 111.38 190 L 111.63 190 L 111.81 189.75 L 111.94 189.25 L 112 188.5 L 112 187.5 L 112.06 186.75 L 112.19 186.25 L 112.38 186 L 112.63 186 L 112.81 185.63 L 112.94 184.88 L 113 183.75 L 113 182.25 L 113.06 181.13 L 113.19 180.38 L 113.38 180 L 113.63 180 L 113.81 178.56 L 113.94 175.69 L 114 171.38 L 114 165.63 L 114.06 161.31 L 114.19 158.44 L 114.38 157 L 114.63 157 L 114.81 156.38 L 114.94 155.13 L 115 153.25 L 115 150.75 L 115.06 148.88 L 115.19 147.63 L 115.38 147 L 115.63 147 L 115.81 146.56 L 115.94 145.69 L 116 144.38 L 116 142.63 L 116.06 141.31 L 116.19 140.44 L 116.38 140 L 116.63 140 L 116.81 139.63 L 116.94 138.88 L 117 137.75 L 117 136.25 L 117.06 135.13 L 117.19 134.38 L 117.38 134 L 117.63 134 L 117.81 133.31 L 117.94 131.94 L 118 129.88 L 118 127.13 L 117.94 125.06 L 117.81 123.69 L 117.63 123 L 117.38 123 L 117.19 122.81 L 117.06 122.44 L 117 121.88 L 117 121.13 L 116.94 120.56 L 116.81 120.19 L 116.63 120 L 116.38 120 L 116.19 119.88 L 116.06 119.63 L 116 119.25 L 116 118.75 L 115.94 118.38 L 115.81 118.13 L 115.63 118 L 115.38 118 L 115.19 117.94 L 115.06 117.81 L 115 117.63 L 115 117.38 L 114.94 117.19 L 114.81 117.06 L 114.63 117 L 114.38 117 L 114.19 116.94 L 114.06 116.81 L 114 116.63 L 114 116.38 L 113.94 116.19 L 113.81 116.06 L 113.63 116 L 113.38 116 L 113.19 115.94 L 113.06 115.81 L 113 115.63 L 113 115.38 L 112.44 115.19 L 111.31 115.06 L 109.63 115 L 107.38 115 L 105.69 115.13 L 104.56 115.38 L 104 115.75 L 104 116.25 L 103.88 116.63 L 103.63 116.88 L 103.25 117 L 102.75 117 L 102.38 117.06 L 102.13 117.19 L 102 117.38 L 102 117.63 L 101.94 117.81 L 101.81 117.94 L 101.63 118 L 101.38 118 L 101.19 118.06 L 101.06 118.19 L 101 118.38 L 101 118.63 L 100.81 118.81 L 100.44 118.94 L 99.88 119 L 99.13 119 L 98.56 118.94 L 98.19 118.81 L 98 118.63 L 98 118.38 L 97.88 118.19 L 97.63 118.06 L 97.25 118 L 96.75 118 L 96.38 117.94 L 96.13 117.81 L 96 117.63 L 96 117.38 L 95.94 117.19 L 95.81 117.06 L 95.63 117 L 95.38 117 L 95.19 116.88 L 95.06 116.63 L 95 116.25 L 95 115.75 L 94.94 115.38 L 94.81 115.13 L 94.63 115 L 94.38 115 L 94.19 114.94 L 94.06 114.81 L 94 114.63 L 94 114.38 L 93.94 114.19 L 93.81 114.06 L 93.63 114 L 93.38 114 L 93.19 113.81 L 93.06 113.44 L 93 112.88 L 93 112.13 L 92.94 111.56 L 92.81 111.19 L 92.63 111 L 92.38 111 L 92.19 110.88 L 92.06 110.63 L 92 110.25 L 92 109.75 L 91.94 109.38 L 91.81 109.13 L 91.63 109 L 91.38 109 L 91.19 108.81 L 91.06 108.44 L 91 107.88 L 91 107.13 L 90.94 106.56 L 90.81 106.19 L 90.63 106 L 90.38 106 L 90.19 105.88 L 90.06 105.63 L 90 105.25 L 90 104.75 L 89.94 104.38 L 89.81 104.13 L 89.63 104 L 89.38 104 L 89.19 103.75 L 89.06 103.25 L 89 102.5 L 89 101.5 L 88.94 100.75 L 88.81 100.25 L 88.63 100 L 88.38 100 L 88.19 99.88 L 88.06 99.63 L 88 99.25 L 88 98.75 L 87.94 98.38 L 87.81 98.13 L 87.63 98 L 87.38 98 L 87.19 97.69 L 87.06 97.06 L 87 96.13 L 87 94.88 L 86.94 93.94 L 86.81 93.31 L 86.63 93 L 86.38 93 L 86.19 92.81 L 86.06 92.44 L 86 91.88 L 86 91.13 L 85.94 90.56 L 85.81 90.19 L 85.63 90 L 85.38 90 L 85.19 89.31 L 85.06 87.94 L 85 85.88 L 85 83.13 L 85.06 81.06 L 85.19 79.69 L 85.38 79 L 85.63 79 L 85.81 78.88 L 85.94 78.63 L 86 78.25 L 86 77.75 L 86.06 77.38 L 86.19 77.13 L 86.38 77 L 86.63 77 L 86.81 76.81 L 86.94 76.44 L 87 75.88 L 87 75.13 L 87.06 74.56 L 87.19 74.19 L 87.38 74 L 87.63 74 L 87.81 73.94 L 87.94 73.81 L 88 73.63 L 88 73.38 L 88.06 73.19 L 88.19 73.06 L 88.38 73 L 88.63 73 L 88.81 72.88 L 88.94 72.63 L 89 72.25 L 89 71.75 L 89.06 71.38 L 89.19 71.13 L 89.38 71 L 89.63 71 L 89.81 70.94 L 89.94 70.81 L 90 70.63 L 90 70.38 L 90.06 70.19 L 90.19 70.06 L 90.38 70 L 90.63 70 L 90.81 69.94 L 90.94 69.81 L 91 69.63 L 91 69.38 L 91.06 69.19 L 91.19 69.06 L 91.38 69 L 91.63 69 L 91.81 68.88 L 91.94 68.63 L 92 68.25 L 92 67.75 L 92.06 67.38 L 92.19 67.13 L 92.38 67 L 92.63 67 L 92.81 66.88 L 92.94 66.63 L 93 66.25 L 93 65.75 L 93.06 65.38 L 93.19 65.13 L 93.38 65 L 93.63 65 L 93.81 64.81 L 93.94 64.44 L 94 63.88 L 94 63.13 L 94.06 62.56 L 94.19 62.19 L 94.38 62 L 94.63 62 L 94.81 61.31 L 94.94 59.94 L 95 57.88 L 95 55.13 L 95.06 53.06 L 95.19 51.69 L 95.38 51 L 95.63 51 L 95.81 50.69 L 95.94 50.06 L 96 49.13 L 96 47.88 L 96.06 46.94 L 96.19 46.31 L 96.38 46 L 96.63 46 L 96.81 45.69 L 96.94 45.06 L 97 44.13 L 97 42.88 L 97.06 41.94 L 97.19 41.31 L 97.38 41 L 97.63 41 L 97.81 40.88 L 97.94 40.63 L 98 40.25 L 98 39.75 L 98.06 39.38 L 98.19 39.13 L 98.38 39 L 98.63 39 L 98.81 38.88 L 98.94 38.63 L 99 38.25 L 99 37.75 L 99.06 37.38 L 99.19 37.13 L 99.38 37 L 99.63 37 L 99.81 36.94 L 99.94 36.81 L 100 36.63 L 100 36.38 L 100.06 36.19 L 100.19 36.06 L 100.38 36 L 100.63 36 L 100.81 35.94 L 100.94 35.81 L 101 35.63 L 101 35.38 L 101.06 35.19 L 101.19 35.06 L 101.38 35 L 101.63 35 L 101.81 34.94 L 101.94 34.81 L 102 34.63 L 102 34.38 L 102.13 34.19 L 102.38 34.06 L 102.75 34 L 103.25 34 L 103.63 33.94 L 103.88 33.81 L 104 33.63 L 104 33.38 L 104.5 33.19 L 105.5 33.06 Z M 105 66.38 L 105 66.63 L 104.94 66.81 L 104.81 66.94 L 104.63 67 L 104.38 67 L 104.19 67.13 L 104.06 67.38 L 104 67.75 L 104 68.25 L 104.06 68.63 L 104.19 68.88 L 104.38 69 L 104.63 69 L 104.81 69.06 L 104.94 69.19 L 105 69.38 L 105 69.63 L 105.69 69.81 L 107.06 69.94 L 109.13 70 L 111.88 70 L 113.94 70.06 L 115.31 70.19 L 116 70.38 L 116 70.63 L 116.13 70.81 L 116.38 70.94 L 116.75 71 L 117.25 71 L 117.63 71.06 L 117.88 71.19 L 118 71.38 L 118 71.63 L 118.19 71.81 L 118.56 71.94 L 119.13 72 L 119.88 72 L 120.44 72.06 L 120.81 72.19 L 121 72.38 L 121 72.63 L 121.06 72.81 L 121.19 72.94 L 121.38 73 L 121.63 73 L 121.81 73.06 L 121.94 73.19 L 122 73.38 L 122 73.63 L 122.19 73.81 L 122.56 73.94 L 123.13 74 L 123.88 74 L 124.44 74.06 L 124.81 74.19 L 125 74.38 L 125 74.63 L 125.06 74.81 L 125.19 74.94 L 125.38 75 L 125.63 75 L 125.81 75.06 L 125.94 75.19 L 126 75.38 L 126 75.63 L 126.25 75.81 L 126.75 75.94 L 127.5 76 L 128.5 76 L 129.25 75.88 L 129.75 75.63 L 130 75.25 L 130 74.75 L 129.94 74.38 L 129.81 74.13 L 129.63 74 L 129.38 74 L 129.19 73.94 L 129.06 73.81 L 129 73.63 L 129 73.38 L 128.94 73.19 L 128.81 73.06 L 128.63 73 L 128.38 73 L 128.19 72.94 L 128.06 72.81 L 128 72.63 L 128 72.38 L 127.94 72.19 L 127.81 72.06 L 127.63 72 L 127.38 72 L 127.19 71.94 L 127.06 71.81 L 127 71.63 L 127 71.38 L 126.88 71.19 L 126.63 71.06 L 126.25 71 L 125.75 71 L 125.38 70.94 L 125.13 70.81 L 125 70.63 L 125 70.38 L 124.88 70.19 L 124.63 70.06 L 124.25 70 L 123.75 70 L 123.38 69.94 L 123.13 69.81 L 123 69.63 L 123 69.38 L 122.88 69.19 L 122.63 69.06 L 122.25 69 L 121.75 69 L 121.38 68.94 L 121.13 68.81 L 121 68.63 L 121 68.38 L 120.81 68.19 L 120.44 68.06 L 119.88 68 L 119.13 68 L 118.56 67.94 L 118.19 67.81 L 118 67.63 L 118 67.38 L 117.75 67.19 L 117.25 67.06 L 116.5 67 L 115.5 67 L 114.75 66.94 L 114.25 66.81 L 114 66.63 L 114 66.38 L 113.44 66.19 L 112.31 66.06 L 110.63 66 L 108.38 66 L 106.69 66.06 L 105.56 66.19 Z M 133.5 94 L 134.5 94 L 135.25 94.06 L 135.75 94.19 L 136 94.38 L 136 94.63 L 136.13 94.81 L 136.38 94.94 L 136.75 95 L 137.25 95 L 137.63 95.06 L 137.88 95.19 L 138 95.38 L 138 95.63 L 138.06 95.81 L 138.19 95.94 L 138.38 96 L 138.63 96 L 138.81 96.06 L 138.94 96.19 L 139 96.38 L 139 96.63 L 139.06 96.81 L 139.19 96.94 L 139.38 97 L 139.63 97 L 139.81 97.13 L 139.94 97.38 L 140 97.75 L 140 98.25 L 140.06 98.63 L 140.19 98.88 L 140.38 99 L 140.63 99 L 140.81 99.13 L 140.94 99.38 L 141 99.75 L 141 100.25 L 141.06 100.63 L 141.19 100.88 L 141.38 101 L 141.63 101 L 141.81 101.13 L 141.94 101.38 L 142 101.75 L 142 102.25 L 142.06 102.63 L 142.19 102.88 L 142.38 103 L 142.63 103 L 142.81 103.13 L 142.94 103.38 L 143 103.75 L 143 104.25 L 143.06 104.63 L 143.19 104.88 L 143.38 105 L 143.63 105 L 143.81 105.19 L 143.94 105.56 L 144 106.13 L 144 106.88 L 144.06 107.44 L 144.19 107.81 L 144.38 108 L 144.63 108 L 144.81 108.13 L 144.94 108.38 L 145 108.75 L 145 109.25 L 145.06 109.63 L 145.19 109.88 L 145.38 110 L 145.63 110 L 145.81 110.13 L 145.94 110.38 L 146 110.75 L 146 111.25 L 146.06 111.63 L 146.19 111.88 L 146.38 112 L 146.63 112 L 146.81 112.19 L 146.94 112.56 L 147 113.13 L 147 113.88 L 147.06 114.44 L 147.19 114.81 L 147.38 115 L 147.63 115 L 147.81 115.06 L 147.94 115.19 L 148 115.38 L 148 115.63 L 148.06 115.81 L 148.19 115.94 L 148.38 116 L 148.63 116 L 148.81 116.19 L 148.94 116.56 L 149 117.13 L 149 117.88 L 149.06 118.44 L 149.19 118.81 L 149.38 119 L 149.63 119 L 149.81 119.13 L 149.94 119.38 L 150 119.75 L 150 120.25 L 150.06 120.63 L 150.19 120.88 L 150.38 121 L 150.63 121 L 150.81 121.19 L 150.94 121.56 L 151 122.13 L 151 122.88 L 151.06 123.44 L 151.19 123.81 L 151.38 124 L 151.63 124 L 151.81 124.06 L 151.94 124.19 L 152 124.38 L 152 124.63 L 152.06 124.81 L 152.19 124.94 L 152.38 125 L 152.63 125 L 152.81 125.19 L 152.94 125.56 L 153 126.13 L 153 126.88 L 153.06 127.44 L 153.19 127.81 L 153.38 128 L 153.63 128 L 153.81 128.13 L 153.94 128.38 L 154 128.75 L 154 129.25 L 154.06 129.63 L 154.19 129.88 L 154.38 130 L 154.63 130 L 154.81 130.19 L 154.94 130.56 L 155 131.13 L 155 131.88 L 155.06 132.44 L 155.19 132.81 L 155.38 133 L 155.63 133 L 155.81 133.06 L 155.94 133.19 L 156 133.38 L 156 133.63 L 156.06 133.81 L 156.19 133.94 L 156.38 134 L 156.63 134 L 156.81 134.06 L 156.94 134.19 L 157 134.38 L 157 134.63 L 157.06 134.81 L 157.19 134.94 L 157.38 135 L 157.63 135 L 157.81 134.94 L 157.94 134.81 L 158 134.63 L 158 134.38 L 158.06 134.19 L 158.19 134.06 L 158.38 134 L 158.63 134 L 158.81 133.75 L 158.94 133.25 L 159 132.5 L 159 131.5 L 158.94 130.75 L 158.81 130.25 L 158.63 130 L 158.38 130 L 158.19 129.81 L 158.06 129.44 L 158 128.88 L 158 128.13 L 157.94 127.56 L 157.81 127.19 L 157.63 127 L 157.38 127 L 157.19 126.88 L 157.06 126.63 L 157 126.25 L 157 125.75 L 156.94 125.38 L 156.81 125.13 L 156.63 125 L 156.38 125 L 156.19 124.88 L 156.06 124.63 L 156 124.25 L 156 123.75 L 156.06 123.38 L 156.19 123.13 L 156.38 123 L 156.63 123 L 156.81 122.94 L 156.94 122.81 L 157 122.63 L 157 122.38 L 157.06 122.19 L 157.19 122.06 L 157.38 122 L 157.63 122 L 157.81 121.81 L 157.94 121.44 L 158 120.88 L 158 120.13 L 158.06 119.56 L 158.19 119.19 L 158.38 119 L 158.63 119 L 158.81 118.81 L 158.94 118.44 L 159 117.88 L 159 117.13 L 159.06 116.56 L 159.19 116.19 L 159.38 116 L 159.63 116 L 159.81 115.88 L 159.94 115.63 L 160 115.25 L 160 114.75 L 160.19 114.38 L 160.56 114.13 L 161.13 114 L 161.88 114 L 162.44 114.06 L 162.81 114.19 L 163 114.38 L 163 114.63 L 163.06 114.81 L 163.19 114.94 L 163.38 115 L 163.63 115 L 163.81 115.06 L 163.94 115.19 L 164 115.38 L 164 115.63 L 164.06 115.81 L 164.19 115.94 L 164.38 116 L 164.63 116 L 164.81 116.06 L 164.94 116.19 L 165 116.38 L 165 116.63 L 165.13 116.81 L 165.38 116.94 L 165.75 117 L 166.25 117 L 166.63 117.06 L 166.88 117.19 L 167 117.38 L 167 117.63 L 167.13 117.81 L 167.38 117.94 L 167.75 118 L 168.25 118 L 168.63 118.06 L 168.88 118.19 L 169 118.38 L 169 118.63 L 169.06 118.81 L 169.19 118.94 L 169.38 119 L 169.63 119 L 169.81 119.06 L 169.94 119.19 L 170 119.38 L 170 119.63 L 170.06 119.81 L 170.19 119.94 L 170.38 120 L 170.63 120 L 170.81 120.06 L 170.94 120.19 L 171 120.38 L 171 120.63 L 171.13 120.81 L 171.38 120.94 L 171.75 121 L 172.25 121 L 172.63 121.13 L 172.88 121.38 L 173 121.75 L 173 122.25 L 173.13 122.63 L 173.38 122.88 L 173.75 123 L 174.25 123 L 174.63 123.13 L 174.88 123.38 L 175 123.75 L 175 124.25 L 175.06 124.63 L 175.19 124.88 L 175.38 125 L 175.63 125 L 175.81 125.13 L 175.94 125.38 L 176 125.75 L 176 126.25 L 176.06 126.63 L 176.19 126.88 L 176.38 127 L 176.63 127 L 176.81 129.31 L 176.94 133.94 L 177 140.88 L 177 150.13 L 177.06 157.06 L 177.19 161.69 L 177.38 164 L 177.63 164 L 177.81 164.13 L 177.94 164.38 L 178 164.75 L 178 165.25 L 178.06 165.63 L 178.19 165.88 L 178.38 166 L 178.63 166 L 178.81 166.31 L 178.94 166.94 L 179 167.88 L 179 169.13 L 179.06 170.06 L 179.19 170.69 L 179.38 171 L 179.63 171 L 179.81 171.06 L 179.94 171.19 L 180 171.38 L 180 171.63 L 180.06 171.81 L 180.19 171.94 L 180.38 172 L 180.63 172 L 180.81 172.13 L 180.94 172.38 L 181 172.75 L 181 173.25 L 181.06 173.63 L 181.19 173.88 L 181.38 174 L 181.63 174 L 181.81 174.13 L 181.94 174.38 L 182 174.75 L 182 175.25 L 182.06 175.63 L 182.19 175.88 L 182.38 176 L 182.63 176 L 182.81 176.06 L 182.94 176.19 L 183 176.38 L 183 176.63 L 183.06 176.81 L 183.19 176.94 L 183.38 177 L 183.63 177 L 183.81 177.06 L 183.94 177.19 L 184 177.38 L 184 177.63 L 184.06 177.81 L 184.19 177.94 L 184.38 178 L 184.63 178 L 184.81 178.06 L 184.94 178.19 L 185 178.38 L 185 178.63 L 185.06 178.81 L 185.19 178.94 L 185.38 179 L 185.63 179 L 185.81 179.06 L 185.94 179.19 L 186 179.38 L 186 179.63 L 186.06 179.81 L 186.19 179.94 L 186.38 180 L 186.63 180 L 186.81 180.06 L 186.94 180.19 L 187 180.38 L 187 180.63 L 187.06 180.81 L 187.19 180.94 L 187.38 181 L 187.63 181 L 187.81 181.19 L 187.94 181.56 L 188 182.13 L 188 182.88 L 187.94 183.44 L 187.81 183.81 L 187.63 184 L 187.38 184 L 187.19 184.13 L 187.06 184.38 L 187 184.75 L 187 185.25 L 186.94 185.63 L 186.81 185.88 L 186.63 186 L 186.38 186 L 186.19 186.06 L 186.06 186.19 L 186 186.38 L 186 186.63 L 185.94 186.81 L 185.81 186.94 L 185.63 187 L 185.38 187 L 185.19 187.13 L 185.06 187.38 L 185 187.75 L 185 188.25 L 184.94 188.63 L 184.81 188.88 L 184.63 189 L 184.38 189 L 184.19 189.06 L 184.06 189.19 L 184 189.38 L 184 189.63 L 183.94 189.81 L 183.81 189.94 L 183.63 190 L 183.38 190 L 183.19 190.19 L 183.06 190.56 L 183 191.13 L 183 191.88 L 182.94 192.44 L 182.81 192.81 L 182.63 193 L 182.38 193 L 182.19 193.06 L 182.06 193.19 L 182 193.38 L 182 193.63 L 181.94 193.81 L 181.81 193.94 L 181.63 194 L 181.38 194 L 181.19 194.13 L 181.06 194.38 L 181 194.75 L 181 195.25 L 180.94 195.63 L 180.81 195.88 L 180.63 196 L 180.38 196 L 180.19 196.13 L 180.06 196.38 L 180 196.75 L 180 197.25 L 179.94 197.63 L 179.81 197.88 L 179.63 198 L 179.38 198 L 179.19 198.13 L 179.06 198.38 L 179 198.75 L 179 199.25 L 178.94 199.63 L 178.81 199.88 L 178.63 200 L 178.38 200 L 178.19 200.06 L 178.06 200.19 L 178 200.38 L 178 200.63 L 177.94 200.81 L 177.81 200.94 L 177.63 201 L 177.38 201 L 177.19 201.19 L 177.06 201.56 L 177 202.13 L 177 202.88 L 176.94 203.44 L 176.81 203.81 L 176.63 204 L 176.38 204 L 176.19 204.06 L 176.06 204.19 L 176 204.38 L 176 204.63 L 175.94 204.81 L 175.81 204.94 L 175.63 205 L 175.38 205 L 175.19 205.13 L 175.06 205.38 L 175 205.75 L 175 206.25 L 174.94 206.63 L 174.81 206.88 L 174.63 207 L 174.38 207 L 174.19 207.13 L 174.06 207.38 L 174 207.75 L 174 208.25 L 173.94 208.63 L 173.81 208.88 L 173.63 209 L 173.38 209 L 173.19 209.13 L 173.06 209.38 L 173 209.75 L 173 210.25 L 172.69 210.63 L 172.06 210.88 L 171.13 211 L 169.88 211 L 168.94 210.94 L 168.31 210.81 L 168 210.63 L 168 210.38 L 167.88 210.19 L 167.63 210.06 L 167.25 210 L 166.75 210 L 166.38 209.94 L 166.13 209.81 L 166 209.63 L 166 209.38 L 165.88 209.19 L 165.63 209.06 L 165.25 209 L 164.75 209 L 164.38 208.94 L 164.13 208.81 L 164 208.63 L 164 208.38 L 163.88 208.19 L 163.63 208.06 L 163.25 208 L 162.75 208 L 162.38 207.94 L 162.13 207.81 L 162 207.63 L 162 207.38 L 161.94 207.19 L 161.81 207.06 L 161.63 207 L 161.38 207 L 161.19 206.94 L 161.06 206.81 L 161 206.63 L 161 206.38 L 160.94 206.19 L 160.81 206.06 L 160.63 206 L 160.38 206 L 160.19 205.94 L 160.06 205.81 L 160 205.63 L 160 205.38 L 159.88 205.19 L 159.63 205.06 L 159.25 205 L 158.75 205 L 158.38 204.94 L 158.13 204.81 L 158 204.63 L 158 204.38 L 157.94 204.19 L 157.81 204.06 L 157.63 204 L 157.38 204 L 157.19 203.94 L 157.06 203.81 L 157 203.63 L 157 203.38 L 156.94 203.19 L 156.81 203.06 L 156.63 203 L 156.38 203 L 156.19 202.94 L 156.06 202.81 L 156 202.63 L 156 202.38 L 155.94 202.19 L 155.81 202.06 L 155.63 202 L 155.38 202 L 155.19 201.94 L 155.06 201.81 L 155 201.63 L 155 201.38 L 154.94 201.19 L 154.81 201.06 L 154.63 201 L 154.38 201 L 154.19 200.88 L 154.06 200.63 L 154 200.25 L 154 199.75 L 153.88 199.38 L 153.63 199.13 L 153.25 199 L 152.75 199 L 152.38 198.88 L 152.13 198.63 L 152 198.25 L 152 197.75 L 151.94 197.38 L 151.81 197.13 L 151.63 197 L 151.38 197 L 151.19 196.94 L 151.06 196.81 L 151 196.63 L 151 196.38 L 150.94 196.19 L 150.81 196.06 L 150.63 196 L 150.38 196 L 150.19 195.88 L 150.06 195.63 L 150 195.25 L 150 194.75 L 149.94 194.38 L 149.81 194.13 L 149.63 194 L 149.38 194 L 149.19 193.94 L 149.06 193.81 L 149 193.63 L 149 193.38 L 148.94 193.19 L 148.81 193.06 L 148.63 193 L 148.38 193 L 148.19 192.81 L 148.06 192.44 L 148 191.88 L 148 191.13 L 147.94 190.56 L 147.81 190.19 L 147.63 190 L 147.38 190 L 147.19 189.94 L 147.06 189.81 L 147 189.63 L 147 189.38 L 146.94 189.19 L 146.81 189.06 L 146.63 189 L 146.38 189 L 146.19 188.81 L 146.06 188.44 L 146 187.88 L 146 187.13 L 145.94 186.56 L 145.81 186.19 L 145.63 186 L 145.38 186 L 145.19 185.88 L 145.06 185.63 L 145 185.25 L 145 184.75 L 144.94 184.38 L 144.81 184.13 L 144.63 184 L 144.38 184 L 144.19 183.69 L 144.06 183.06 L 144 182.13 L 144 180.88 L 143.94 179.94 L 143.81 179.31 L 143.63 179 L 143.38 179 L 143.19 178.81 L 143.06 178.44 L 143 177.88 L 143 177.13 L 142.94 176.56 L 142.81 176.19 L 142.63 176 L 142.38 176 L 142.19 173.63 L 142.06 168.88 L 142 161.75 L 142 152.25 L 141.94 145.13 L 141.81 140.38 L 141.63 138 L 141.38 138 L 141.19 137.75 L 141.06 137.25 L 141 136.5 L 141 135.5 L 140.94 134.75 L 140.81 134.25 L 140.63 134 L 140.38 134 L 140.19 133.69 L 140.06 133.06 L 140 132.13 L 140 130.88 L 139.94 129.94 L 139.81 129.31 L 139.63 129 L 139.38 129 L 139.19 128.88 L 139.06 128.63 L 139 128.25 L 139 127.75 L 138.94 127.38 L 138.81 127.13 L 138.63 127 L 138.38 127 L 138.19 126.75 L 138.06 126.25 L 138 125.5 L 138 124.5 L 137.94 123.75 L 137.81 123.25 L 137.63 123 L 137.38 123 L 137.19 122.94 L 137.06 122.81 L 137 122.63 L 137 122.38 L 136.94 122.19 L 136.81 122.06 L 136.63 122 L 136.38 122 L 136.19 121.81 L 136.06 121.44 L 136 120.88 L 136 120.13 L 135.94 119.56 L 135.81 119.19 L 135.63 119 L 135.38 119 L 135.19 118.94 L 135.06 118.81 L 135 118.63 L 135 118.38 L 134.94 118.19 L 134.81 118.06 L 134.63 118 L 134.38 118 L 134.19 117.88 L 134.06 117.63 L 134 117.25 L 134 116.75 L 133.94 116.38 L 133.81 116.13 L 133.63 116 L 133.38 116 L 133.19 115.94 L 133.06 115.81 L 133 115.63 L 133 115.38 L 132.94 115.19 L 132.81 115.06 L 132.63 115 L 132.38 115 L 132.19 114.94 L 132.06 114.81 L 132 114.63 L 132 114.38 L 131.94 114.19 L 131.81 114.06 L 131.63 114 L 131.38 114 L 131.19 113.88 L 131.06 113.63 L 131 113.25 L 131 112.75 L 130.94 112.38 L 130.81 112.13 L 130.63 112 L 130.38 112 L 130.19 111.81 L 130.06 111.44 L 130 110.88 L 130 110.13 L 129.94 109.56 L 129.81 109.19 L 129.63 109 L 129.38 109 L 129.19 108.88 L 129.06 108.63 L 129 108.25 L 129 107.75 L 128.94 107.38 L 128.81 107.13 L 128.63 107 L 128.38 107 L 128.19 106.63 L 128.06 105.88 L 128 104.75 L 128 103.25 L 128.06 102.13 L 128.19 101.38 L 128.38 101 L 128.63 101 L 128.81 100.81 L 128.94 100.44 L 129 99.88 L 129 99.13 L 129.06 98.56 L 129.19 98.19 L 129.38 98 L 129.63 98 L 129.81 97.88 L 129.94 97.63 L 130 97.25 L 130 96.75 L 130.06 96.38 L 130.19 96.13 L 130.38 96 L 130.63 96 L 130.81 95.94 L 130.94 95.81 L 131 95.63 L 131 95.38 L 131.06 95.19 L 131.19 95.06 L 131.38 95 L 131.63 95 L 131.81 94.94 L 131.94 94.81 L 132 94.63 L 132 94.38 L 132.25 94.19 L 132.75 94.06 Z M 83.75 104 L 84.25 104 L 84.63 104.06 L 84.88 104.19 L 85 104.38 L 85 104.63 L 85.06 104.81 L 85.19 104.94 L 85.38 105 L 85.63 105 L 85.81 105.13 L 85.94 105.38 L 86 105.75 L 86 106.25 L 86.06 106.63 L 86.19 106.88 L 86.38 107 L 86.63 107 L 86.81 107.13 L 86.94 107.38 L 87 107.75 L 87 108.25 L 87.06 108.63 L 87.19 108.88 L 87.38 109 L 87.63 109 L 87.81 109.19 L 87.94 109.56 L 88 110.13 L 88 110.88 L 88.06 111.44 L 88.19 111.81 L 88.38 112 L 88.63 112 L 88.81 112.13 L 88.94 112.38 L 89 112.75 L 89 113.25 L 89.06 113.63 L 89.19 113.88 L 89.38 114 L 89.63 114 L 89.81 114.13 L 89.94 114.38 L 90 114.75 L 90 115.25 L 90.06 115.63 L 90.19 115.88 L 90.38 116 L 90.63 116 L 90.81 116.13 L 90.94 116.38 L 91 116.75 L 91 117.25 L 91.06 117.63 L 91.19 117.88 L 91.38 118 L 91.63 118 L 91.81 118.13 L 91.94 118.38 L 92 118.75 L 92 119.25 L 92.13 119.63 L 92.38 119.88 L 92.75 120 L 93.25 120 L 93.63 120.06 L 93.88 120.19 L 94 120.38 L 94 120.63 L 94.13 120.81 L 94.38 120.94 L 94.75 121 L 95.25 121 L 95.63 121.06 L 95.88 121.19 L 96 121.38 L 96 121.63 L 96.06 121.81 L 96.19 121.94 L 96.38 122 L 96.63 122 L 96.81 122.06 L 96.94 122.19 L 97 122.38 L 97 122.63 L 97.06 122.81 L 97.19 122.94 L 97.38 123 L 97.63 123 L 97.81 123.06 L 97.94 123.19 L 98 123.38 L 98 123.63 L 98.06 123.81 L 98.19 123.94 L 98.38 124 L 98.63 124 L 98.81 124.06 L 98.94 124.19 L 99 124.38 L 99 124.63 L 98.94 124.81 L 98.81 124.94 L 98.63 125 L 98.38 125 L 98.19 126 L 98.06 128 L 98 131 L 98 135 L 97.94 138 L 97.81 140 L 97.63 141 L 97.38 141 L 97.19 141.38 L 97.06 142.13 L 97 143.25 L 97 144.75 L 97.06 145.88 L 97.19 146.63 L 97.38 147 L 97.63 147 L 97.81 147.06 L 97.94 147.19 L 98 147.38 L 98 147.63 L 98.06 147.81 L 98.19 147.94 L 98.38 148 L 98.63 148 L 98.81 147.94 L 98.94 147.81 L 99 147.63 L 99 147.38 L 99.13 147.19 L 99.38 147.06 L 99.75 147 L 100.25 147 L 100.63 146.25 L 100.88 144.75 L 101 142.5 L 101 139.5 L 101.06 137.25 L 101.19 135.75 L 101.38 135 L 101.63 135 L 101.81 134.44 L 101.94 133.31 L 102 131.63 L 102 129.38 L 102.06 127.69 L 102.19 126.56 L 102.38 126 L 102.63 126 L 102.81 125.75 L 102.94 125.25 L 103 124.5 L 103 123.5 L 103.06 122.75 L 103.19 122.25 L 103.38 122 L 103.63 122 L 103.81 121.94 L 103.94 121.81 L 104 121.63 L 104 121.38 L 104.06 121.19 L 104.19 121.06 L 104.38 121 L 104.63 121 L 104.81 120.94 L 104.94 120.81 L 105 120.63 L 105 120.38 L 105.06 120.19 L 105.19 120.06 L 105.38 120 L 105.63 120 L 105.81 119.94 L 105.94 119.81 L 106 119.63 L 106 119.38 L 106.38 119.19 L 107.13 119.06 L 108.25 119 L 109.75 119 L 110.88 119.06 L 111.63 119.19 L 112 119.38 L 112 119.63 L 112.06 119.81 L 112.19 119.94 L 112.38 120 L 112.63 120 L 112.81 120.13 L 112.94 120.38 L 113 120.75 L 113 121.25 L 113.06 121.63 L 113.19 121.88 L 113.38 122 L 113.63 122 L 113.81 122.88 L 113.94 124.63 L 114 127.25 L 114 130.75 L 113.94 133.38 L 113.81 135.13 L 113.63 136 L 113.38 136 L 113.19 136.25 L 113.06 136.75 L 113 137.5 L 113 138.5 L 112.94 139.25 L 112.81 139.75 L 112.63 140 L 112.38 140 L 112.19 140.63 L 112.06 141.88 L 112 143.75 L 112 146.25 L 111.94 148.13 L 111.81 149.38 L 111.63 150 L 111.38 150 L 111.19 150.63 L 111.06 151.88 L 111 153.75 L 111 156.25 L 110.94 158.13 L 110.81 159.38 L 110.63 160 L 110.38 160 L 110.19 161.44 L 110.06 164.31 L 110 168.63 L 110 174.38 L 109.94 178.69 L 109.81 181.56 L 109.63 183 L 109.38 183 L 109.19 183.19 L 109.06 183.56 L 109 184.13 L 109 184.88 L 108.94 185.44 L 108.81 185.81 L 108.63 186 L 108.38 186 L 108.19 186.25 L 108.06 186.75 L 108 187.5 L 108 188.5 L 107.94 189.25 L 107.81 189.75 L 107.63 190 L 107.38 190 L 107.19 190.06 L 107.06 190.19 L 107 190.38 L 107 190.63 L 106.94 190.81 L 106.81 190.94 L 106.63 191 L 106.38 191 L 106.19 191.19 L 106.06 191.56 L 106 192.13 L 106 192.88 L 105.94 193.44 L 105.81 193.81 L 105.63 194 L 105.38 194 L 105.19 194.06 L 105.06 194.19 L 105 194.38 L 105 194.63 L 104.94 194.81 L 104.81 194.94 L 104.63 195 L 104.38 195 L 104.19 195.19 L 104.06 195.56 L 104 196.13 L 104 196.88 L 103.94 197.44 L 103.81 197.81 L 103.63 198 L 103.38 198 L 103.19 198.06 L 103.06 198.19 L 103 198.38 L 103 198.63 L 102.94 198.81 L 102.81 198.94 L 102.63 199 L 102.38 199 L 102.19 199.19 L 102.06 199.56 L 102 200.13 L 102 200.88 L 101.94 201.44 L 101.81 201.81 L 101.63 202 L 101.38 202 L 101.19 202.06 L 101.06 202.19 L 101 202.38 L 101 202.63 L 100.94 202.81 L 100.81 202.94 L 100.63 203 L 100.38 203 L 100.19 203.25 L 100.06 203.75 L 100 204.5 L 100 205.5 L 99.94 206.25 L 99.81 206.75 L 99.63 207 L 99.38 207 L 99.19 207.06 L 99.06 207.19 L 99 207.38 L 99 207.63 L 98.94 207.81 L 98.81 207.94 L 98.63 208 L 98.38 208 L 98.19 208.25 L 98.06 208.75 L 98 209.5 L 98 210.5 L 97.94 211.25 L 97.81 211.75 L 97.63 212 L 97.38 212 L 97.19 212.06 L 97.06 212.19 L 97 212.38 L 97 212.63 L 96.94 212.81 L 96.81 212.94 L 96.63 213 L 96.38 213 L 96.19 213.31 L 96.06 213.94 L 96 214.88 L 96 216.13 L 95.94 217.06 L 95.81 217.69 L 95.63 218 L 95.38 218 L 95.19 218.19 L 95.06 218.56 L 95 219.13 L 95 219.88 L 94.94 220.44 L 94.81 220.81 L 94.63 221 L 94.38 221 L 94.19 221.13 L 94.06 221.38 L 94 221.75 L 94 222.25 L 93.75 222.63 L 93.25 222.88 L 92.5 223 L 91.5 223 L 90.75 222.94 L 90.25 222.81 L 90 222.63 L 90 222.38 L 89.94 222.19 L 89.81 222.06 L 89.63 222 L 89.38 222 L 89.19 221.94 L 89.06 221.81 L 89 221.63 L 89 221.38 L 88.88 221.19 L 88.63 221.06 L 88.25 221 L 87.75 221 L 87.38 220.94 L 87.13 220.81 L 87 220.63 L 87 220.38 L 86.88 220.19 L 86.63 220.06 L 86.25 220 L 85.75 220 L 85.38 219.94 L 85.13 219.81 L 85 219.63 L 85 219.38 L 84.81 219.19 L 84.44 219.06 L 83.88 219 L 83.13 219 L 82.56 218.94 L 82.19 218.81 L 82 218.63 L 82 218.38 L 81.94 218.19 L 81.81 218.06 L 81.63 218 L 81.38 218 L 81.19 217.94 L 81.06 217.81 L 81 217.63 L 81 217.38 L 80.88 217.19 L 80.63 217.06 L 80.25 217 L 79.75 217 L 79.38 216.94 L 79.13 216.81 L 79 216.63 L 79 216.38 L 78.88 216.19 L 78.63 216.06 L 78.25 216 L 77.75 216 L 77.38 215.94 L 77.13 215.81 L 77 215.63 L 77 215.38 L 76.88 215.19 L 76.63 215.06 L 76.25 215 L 75.75 215 L 75.38 214.94 L 75.13 214.81 L 75 214.63 L 75 214.38 L 74.88 214.19 L 74.63 214.06 L 74.25 214 L 73.75 214 L 73.38 213.94 L 73.13 213.81 L 73 213.63 L 73 213.38 L 72.88 213.19 L 72.63 213.06 L 72.25 213 L 71.75 213 L 71.38 212.94 L 71.13 212.81 L 71 212.63 L 71 212.38 L 70.94 212.19 L 70.81 212.06 L 70.63 212 L 70.38 212 L 70.19 211.94 L 70.06 211.81 L 70 211.63 L 70 211.38 L 69.81 211.19 L 69.44 211.06 L 68.88 211 L 68.13 211 L 67.56 210.94 L 67.19 210.81 L 67 210.63 L 67 210.38 L 66.94 210.19 L 66.81 210.06 L 66.63 210 L 66.38 210 L 66.19 209.94 L 66.06 209.81 L 66 209.63 L 66 209.38 L 65.88 209.19 L 65.63 209.06 L 65.25 209 L 64.75 209 L 64.38 208.94 L 64.13 208.81 L 64 208.63 L 64 208.38 L 63.94 208.19 L 63.81 208.06 L 63.63 208 L 63.38 208 L 63.19 207.94 L 63.06 207.81 L 63 207.63 L 63 207.38 L 62.94 207.19 L 62.81 207.06 L 62.63 207 L 62.38 207 L 62.19 206.88 L 62.06 206.63 L 62 206.25 L 62 205.75 L 62.06 205.38 L 62.19 205.13 L 62.38 205 L 62.63 205 L 62.81 204.81 L 62.94 204.44 L 63 203.88 L 63 203.13 L 63.06 202.56 L 63.19 202.19 L 63.38 202 L 63.63 202 L 63.81 201.81 L 63.94 201.44 L 64 200.88 L 64 200.13 L 64.06 199.56 L 64.19 199.19 L 64.38 199 L 64.63 199 L 64.81 198.69 L 64.94 198.06 L 65 197.13 L 65 195.88 L 65.06 194.94 L 65.19 194.31 L 65.38 194 L 65.63 194 L 65.81 193.81 L 65.94 193.44 L 66 192.88 L 66 192.13 L 66.06 191.56 L 66.19 191.19 L 66.38 191 L 66.63 191 L 66.81 189.19 L 66.94 185.56 L 67 180.13 L 67 172.88 L 66.94 167.44 L 66.81 163.81 L 66.63 162 L 66.38 162 L 66.19 161.75 L 66.06 161.25 L 66 160.5 L 66 159.5 L 65.94 158.75 L 65.81 158.25 L 65.63 158 L 65.38 158 L 65.19 157.56 L 65.06 156.69 L 65 155.38 L 65 153.63 L 64.94 152.31 L 64.81 151.44 L 64.63 151 L 64.38 151 L 64.19 150.81 L 64.06 150.44 L 64 149.88 L 64 149.13 L 63.94 148.56 L 63.81 148.19 L 63.63 148 L 63.38 148 L 63.19 147.38 L 63.06 146.13 L 63 144.25 L 63 141.75 L 63.06 139.88 L 63.19 138.63 L 63.38 138 L 63.63 138 L 63.81 137.94 L 63.94 137.81 L 64 137.63 L 64 137.38 L 64.06 137.19 L 64.19 137.06 L 64.38 137 L 64.63 137 L 64.81 136.94 L 64.94 136.81 L 65 136.63 L 65 136.38 L 65.06 136.19 L 65.19 136.06 L 65.38 136 L 65.63 136 L 65.81 135.94 L 65.94 135.81 L 66 135.63 L 66 135.38 L 66.06 135.19 L 66.19 135.06 L 66.38 135 L 66.63 135 L 66.81 134.94 L 66.94 134.81 L 67 134.63 L 67 134.38 L 67.06 134.19 L 67.19 134.06 L 67.38 134 L 67.63 134 L 67.81 133.94 L 67.94 133.81 L 68 133.63 L 68 133.38 L 68.06 133.19 L 68.19 133.06 L 68.38 133 L 68.63 133 L 68.81 132.81 L 68.94 132.44 L 69 131.88 L 69 131.13 L 69.06 130.56 L 69.19 130.19 L 69.38 130 L 69.63 130 L 69.81 129.81 L 69.94 129.44 L 70 128.88 L 70 128.13 L 70.06 127.56 L 70.19 127.19 L 70.38 127 L 70.63 127 L 70.81 126.88 L 70.94 126.63 L 71 126.25 L 71 125.75 L 71.13 125.38 L 71.38 125.13 L 71.75 125 L 72.25 125 L 72.63 124.88 L 72.88 124.63 L 73 124.25 L 73 123.75 L 73.13 123.38 L 73.38 123.13 L 73.75 123 L 74.25 123 L 74.63 122.44 L 74.88 121.31 L 75 119.63 L 75 117.38 L 75.06 115.69 L 75.19 114.56 L 75.38 114 L 75.63 114 L 75.81 113.88 L 75.94 113.63 L 76 113.25 L 76 112.75 L 76.06 112.38 L 76.19 112.13 L 76.38 112 L 76.63 112 L 76.81 111.81 L 76.94 111.44 L 77 110.88 L 77 110.13 L 77.06 109.56 L 77.19 109.19 L 77.38 109 L 77.63 109 L 77.81 108.94 L 77.94 108.81 L 78 108.63 L 78 108.38 L 78.06 108.19 L 78.19 108.06 L 78.38 108 L 78.63 108 L 78.81 107.94 L 78.94 107.81 L 79 107.63 L 79 107.38 L 79.06 107.19 L 79.19 107.06 L 79.38 107 L 79.63 107 L 79.81 106.94 L 79.94 106.81 L 80 106.63 L 80 106.38 L 80.06 106.19 L 80.19 106.06 L 80.38 106 L 80.63 106 L 80.81 105.94 L 80.94 105.81 L 81 105.63 L 81 105.38 L 81.13 105.19 L 81.38 105.06 L 81.75 105 L 82.25 105 L 82.63 104.94 L 82.88 104.81 L 83 104.63 L 83 104.38 L 83.13 104.19 L 83.38 104.06 Z" fill="#FFE998" fill-rule="evenodd"/>
</svg>
