<?xml version="1.0" encoding="UTF-8"?>
<svg viewBox="0 0 256 256" xmlns="http://www.w3.org/2000/svg" fill="none">
  <path d="M 134.5 42 L 135.5 42 L 136.25 42.06 L 136.75 42.19 L 137 42.38 L 137 42.63 L 137.13 42.81 L 137.38 42.94 L 137.75 43 L 138.25 43 L 138.63 43.06 L 138.88 43.19 L 139 43.38 L 139 43.63 L 139.06 43.81 L 139.19 43.94 L 139.38 44 L 139.63 44 L 139.81 44.06 L 139.94 44.19 L 140 44.38 L 140 44.63 L 140.06 44.81 L 140.19 44.94 L 140.38 45 L 140.63 45 L 140.81 45.06 L 140.94 45.19 L 141 45.38 L 141 45.63 L 141.06 45.81 L 141.19 45.94 L 141.38 46 L 141.63 46 L 141.81 46.06 L 141.94 46.19 L 142 46.38 L 142 46.63 L 142.13 46.81 L 142.38 46.94 L 142.75 47 L 143.25 47 L 143.63 47.06 L 143.88 47.19 L 144 47.38 L 144 47.63 L 144.06 47.81 L 144.19 47.94 L 144.38 48 L 144.63 48 L 144.81 48.06 L 144.94 48.19 L 145 48.38 L 145 48.63 L 145.06 48.81 L 145.19 48.94 L 145.38 49 L 145.63 49 L 145.81 49.44 L 145.94 50.31 L 146 51.63 L 146 53.38 L 145.94 54.69 L 145.81 55.56 L 145.63 56 L 145.38 56 L 145.19 57.94 L 145.06 61.81 L 145 67.63 L 145 75.38 L 145.06 81.19 L 145.19 85.06 L 145.38 87 L 145.63 87 L 145.81 87.25 L 145.94 87.75 L 146 88.5 L 146 89.5 L 146.06 90.25 L 146.19 90.75 L 146.38 91 L 146.63 91 L 146.81 91.19 L 146.94 91.56 L 147 92.13 L 147 92.88 L 147.06 93.44 L 147.19 93.81 L 147.38 94 L 147.63 94 L 147.81 94.13 L 147.94 94.38 L 148 94.75 L 148 95.25 L 148.06 95.63 L 148.19 95.88 L 148.38 96 L 148.63 96 L 148.81 96.19 L 148.94 96.56 L 149 97.13 L 149 97.88 L 149.06 98.44 L 149.19 98.81 L 149.38 99 L 149.63 99 L 149.81 99.13 L 149.94 99.38 L 150 99.75 L 150 100.25 L 150.06 100.63 L 150.19 100.88 L 150.38 101 L 150.63 101 L 150.81 101.13 L 150.94 101.38 L 151 101.75 L 151 102.25 L 151.06 102.63 L 151.19 102.88 L 151.38 103 L 151.63 103 L 151.81 103.13 L 151.94 103.38 L 152 103.75 L 152 104.25 L 152.06 104.63 L 152.19 104.88 L 152.38 105 L 152.63 105 L 152.81 105.13 L 152.94 105.38 L 153 105.75 L 153 106.25 L 153.06 106.63 L 153.19 106.88 L 153.38 107 L 153.63 107 L 153.81 107.13 L 153.94 107.38 L 154 107.75 L 154 108.25 L 154.06 108.63 L 154.19 108.88 L 154.38 109 L 154.63 109 L 154.81 109.13 L 154.94 109.38 L 155 109.75 L 155 110.25 L 155.06 110.63 L 155.19 110.88 L 155.38 111 L 155.63 111 L 155.81 111.13 L 155.94 111.38 L 156 111.75 L 156 112.25 L 156.06 112.63 L 156.19 112.88 L 156.38 113 L 156.63 113 L 156.81 113.13 L 156.94 113.38 L 157 113.75 L 157 114.25 L 157.06 114.63 L 157.19 114.88 L 157.38 115 L 157.63 115 L 157.81 115.06 L 157.94 115.19 L 158 115.38 L 158 115.63 L 158.06 115.81 L 158.19 115.94 L 158.38 116 L 158.63 116 L 158.81 116.13 L 158.94 116.38 L 159 116.75 L 159 117.25 L 159.06 117.63 L 159.19 117.88 L 159.38 118 L 159.63 118 L 159.81 118.13 L 159.94 118.38 L 160 118.75 L 160 119.25 L 160.06 119.63 L 160.19 119.88 L 160.38 120 L 160.63 120 L 160.81 120.13 L 160.94 120.38 L 161 120.75 L 161 121.25 L 161.06 121.63 L 161.19 121.88 L 161.38 122 L 161.63 122 L 161.81 122.06 L 161.94 122.19 L 162 122.38 L 162 122.63 L 162.06 122.81 L 162.19 122.94 L 162.38 123 L 162.63 123 L 162.81 123.13 L 162.94 123.38 L 163 123.75 L 163 124.25 L 163.06 124.63 L 163.19 124.88 L 163.38 125 L 163.63 125 L 163.81 125.13 L 163.94 125.38 L 164 125.75 L 164 126.25 L 164.06 126.63 L 164.19 126.88 L 164.38 127 L 164.63 127 L 164.81 127.13 L 164.94 127.38 L 165 127.75 L 165 128.25 L 165.06 128.63 L 165.19 128.88 L 165.38 129 L 165.63 129 L 165.81 129.13 L 165.94 129.38 L 166 129.75 L 166 130.25 L 166.06 130.63 L 166.19 130.88 L 166.38 131 L 166.63 131 L 166.81 131.06 L 166.94 131.19 L 167 131.38 L 167 131.63 L 167.06 131.81 L 167.19 131.94 L 167.38 132 L 167.63 132 L 167.81 132.13 L 167.94 132.38 L 168 132.75 L 168 133.25 L 168.06 133.63 L 168.19 133.88 L 168.38 134 L 168.63 134 L 168.81 134.06 L 168.94 134.19 L 169 134.38 L 169 134.63 L 169.06 134.81 L 169.19 134.94 L 169.38 135 L 169.63 135 L 169.81 135.13 L 169.94 135.38 L 170 135.75 L 170 136.25 L 170.06 136.63 L 170.19 136.88 L 170.38 137 L 170.63 137 L 170.81 137.06 L 170.94 137.19 L 171 137.38 L 171 137.63 L 171.06 137.81 L 171.19 137.94 L 171.38 138 L 171.63 138 L 171.81 138.13 L 171.94 138.38 L 172 138.75 L 172 139.25 L 172.06 139.63 L 172.19 139.88 L 172.38 140 L 172.63 140 L 172.81 140.13 L 172.94 140.38 L 173 140.75 L 173 141.25 L 173.06 141.63 L 173.19 141.88 L 173.38 142 L 173.63 142 L 173.81 142.06 L 173.94 142.19 L 174 142.38 L 174 142.63 L 174.06 142.81 L 174.19 142.94 L 174.38 143 L 174.63 143 L 174.81 143.13 L 174.94 143.38 L 175 143.75 L 175 144.25 L 175.06 144.63 L 175.19 144.88 L 175.38 145 L 175.63 145 L 175.81 145.13 L 175.94 145.38 L 176 145.75 L 176 146.25 L 176.06 146.63 L 176.19 146.88 L 176.38 147 L 176.63 147 L 176.81 147.06 L 176.94 147.19 L 177 147.38 L 177 147.63 L 177.06 147.81 L 177.19 147.94 L 177.38 148 L 177.63 148 L 177.81 148.13 L 177.94 148.38 L 178 148.75 L 178 149.25 L 178.06 149.63 L 178.19 149.88 L 178.38 150 L 178.63 150 L 178.81 150.06 L 178.94 150.19 L 179 150.38 L 179 150.63 L 179.06 150.81 L 179.19 150.94 L 179.38 151 L 179.63 151 L 179.81 151.06 L 179.94 151.19 L 180 151.38 L 180 151.63 L 180.06 151.81 L 180.19 151.94 L 180.38 152 L 180.63 152 L 180.81 152.13 L 180.94 152.38 L 181 152.75 L 181 153.25 L 181.06 153.63 L 181.19 153.88 L 181.38 154 L 181.63 154 L 181.81 154.06 L 181.94 154.19 L 182 154.38 L 182 154.63 L 182.06 154.81 L 182.19 154.94 L 182.38 155 L 182.63 155 L 182.81 155.13 L 182.94 155.38 L 183 155.75 L 183 156.25 L 183.06 156.63 L 183.19 156.88 L 183.38 157 L 183.63 157 L 183.81 157.06 L 183.94 157.19 L 184 157.38 L 184 157.63 L 184.06 157.81 L 184.19 157.94 L 184.38 158 L 184.63 158 L 184.81 158.13 L 184.94 158.38 L 185 158.75 L 185 159.25 L 185.06 159.63 L 185.19 159.88 L 185.38 160 L 185.63 160 L 185.81 160.06 L 185.94 160.19 L 186 160.38 L 186 160.63 L 186.06 160.81 L 186.19 160.94 L 186.38 161 L 186.63 161 L 186.81 161.06 L 186.94 161.19 L 187 161.38 L 187 161.63 L 187.06 161.81 L 187.19 161.94 L 187.38 162 L 187.63 162 L 187.81 162.06 L 187.94 162.19 L 188 162.38 L 188 162.63 L 188.06 162.81 L 188.19 162.94 L 188.38 163 L 188.63 163 L 188.81 163.06 L 188.94 163.19 L 189 163.38 L 189 163.63 L 189.13 163.81 L 189.38 163.94 L 189.75 164 L 190.25 164 L 190.63 164.06 L 190.88 164.19 L 191 164.38 L 191 164.63 L 191.13 164.81 L 191.38 164.94 L 191.75 165 L 192.25 165 L 192.63 165.06 L 192.88 165.19 L 193 165.38 L 193 165.63 L 193.13 165.81 L 193.38 165.94 L 193.75 166 L 194.25 166 L 194.63 166.06 L 194.88 166.19 L 195 166.38 L 195 166.63 L 195.31 166.81 L 195.94 166.94 L 196.88 167 L 198.13 167 L 199.06 167.06 L 199.69 167.19 L 200 167.38 L 200 167.63 L 200.31 167.81 L 200.94 167.94 L 201.88 168 L 203.13 168 L 204.06 168.06 L 204.69 168.19 L 205 168.38 L 205 168.63 L 205.38 168.81 L 206.13 168.94 L 207.25 169 L 208.75 169 L 209.88 169.06 L 210.63 169.19 L 211 169.38 L 211 169.63 L 211.25 169.81 L 211.75 169.94 L 212.5 170 L 213.5 170 L 214.25 170.06 L 214.75 170.19 L 215 170.38 L 215 170.63 L 215.25 170.81 L 215.75 170.94 L 216.5 171 L 217.5 171 L 218.25 171.06 L 218.75 171.19 L 219 171.38 L 219 171.63 L 219.06 171.81 L 219.19 171.94 L 219.38 172 L 219.63 172 L 219.81 172.06 L 219.94 172.19 L 220 172.38 L 220 172.63 L 220.13 172.81 L 220.38 172.94 L 220.75 173 L 221.25 173 L 221.63 173.06 L 221.88 173.19 L 222 173.38 L 222 173.63 L 222.06 173.81 L 222.19 173.94 L 222.38 174 L 222.63 174 L 222.81 174.13 L 222.94 174.38 L 223 174.75 L 223 175.25 L 223.06 175.63 L 223.19 175.88 L 223.38 176 L 223.63 176 L 223.81 176.13 L 223.94 176.38 L 224 176.75 L 224 177.25 L 224.06 177.63 L 224.19 177.88 L 224.38 178 L 224.63 178 L 224.81 178.38 L 224.94 179.13 L 225 180.25 L 225 181.75 L 224.94 182.88 L 224.81 183.63 L 224.63 184 L 224.38 184 L 224.19 184.19 L 224.06 184.56 L 224 185.13 L 224 185.88 L 223.94 186.44 L 223.81 186.81 L 223.63 187 L 223.38 187 L 223.19 187.06 L 223.06 187.19 L 223 187.38 L 223 187.63 L 222.94 187.81 L 222.81 187.94 L 222.63 188 L 222.38 188 L 222.19 188.13 L 222.06 188.38 L 222 188.75 L 222 189.25 L 221.94 189.63 L 221.81 189.88 L 221.63 190 L 221.38 190 L 221.19 190.06 L 221.06 190.19 L 221 190.38 L 221 190.63 L 220.88 190.81 L 220.63 190.94 L 220.25 191 L 219.75 191 L 219.38 191.06 L 219.13 191.19 L 219 191.38 L 219 191.63 L 218.94 191.81 L 218.81 191.94 L 218.63 192 L 218.38 192 L 218.19 192.06 L 218.06 192.19 L 218 192.38 L 218 192.63 L 217.75 192.81 L 217.25 192.94 L 216.5 193 L 215.5 193 L 214.75 193.06 L 214.25 193.19 L 214 193.38 L 214 193.63 L 212 193.81 L 208 193.94 L 202 194 L 194 194 L 188 194.06 L 184 194.19 L 182 194.38 L 182 194.63 L 181.5 194.81 L 180.5 194.94 L 179 195 L 177 195 L 175.5 195.06 L 174.5 195.19 L 174 195.38 L 174 195.63 L 173.19 195.81 L 171.56 195.94 L 169.13 196 L 165.88 196 L 163.44 195.94 L 161.81 195.81 L 161 195.63 L 161 195.38 L 160.81 195.19 L 160.44 195.06 L 159.88 195 L 159.13 195 L 158.56 194.94 L 158.19 194.81 L 158 194.63 L 158 194.38 L 157.81 194.19 L 157.44 194.06 L 156.88 194 L 156.13 194 L 155.56 193.94 L 155.19 193.81 L 155 193.63 L 155 193.38 L 154.88 193.19 L 154.63 193.06 L 154.25 193 L 153.75 193 L 153.38 192.94 L 153.13 192.81 L 153 192.63 L 153 192.38 L 152.94 192.19 L 152.81 192.06 L 152.63 192 L 152.38 192 L 152.19 191.94 L 152.06 191.81 L 152 191.63 L 152 191.38 L 151.88 191.19 L 151.63 191.06 L 151.25 191 L 150.75 191 L 150.38 190.94 L 150.13 190.81 L 150 190.63 L 150 190.38 L 149.94 190.19 L 149.81 190.06 L 149.63 190 L 149.38 190 L 149.19 189.94 L 149.06 189.81 L 149 189.63 L 149 189.38 L 148.88 189.19 L 148.63 189.06 L 148.25 189 L 147.75 189 L 147.38 188.94 L 147.13 188.81 L 147 188.63 L 147 188.38 L 146.94 188.19 L 146.81 188.06 L 146.63 188 L 146.38 188 L 146.19 187.94 L 146.06 187.81 L 146 187.63 L 146 187.38 L 145.94 187.19 L 145.81 187.06 L 145.63 187 L 145.38 187 L 145.19 186.94 L 145.06 186.81 L 145 186.63 L 145 186.38 L 144.94 186.19 L 144.81 186.06 L 144.63 186 L 144.38 186 L 144.19 185.94 L 144.06 185.81 L 144 185.63 L 144 185.38 L 143.88 185.19 L 143.63 185.06 L 143.25 185 L 142.75 185 L 142.38 184.94 L 142.13 184.81 L 142 184.63 L 142 184.38 L 141.94 184.19 L 141.81 184.06 L 141.63 184 L 141.38 184 L 141.19 183.94 L 141.06 183.81 L 141 183.63 L 141 183.38 L 140.94 183.19 L 140.81 183.06 L 140.63 183 L 140.38 183 L 140.19 182.94 L 140.06 182.81 L 140 182.63 L 140 182.38 L 139.94 182.19 L 139.81 182.06 L 139.63 182 L 139.38 182 L 139.19 181.94 L 139.06 181.81 L 139 181.63 L 139 181.38 L 138.94 181.19 L 138.81 181.06 L 138.63 181 L 138.38 181 L 138.19 180.94 L 138.06 180.81 L 138 180.63 L 138 180.38 L 137.94 180.19 L 137.81 180.06 L 137.63 180 L 137.38 180 L 137.19 179.94 L 137.06 179.81 L 137 179.63 L 137 179.38 L 136.94 179.19 L 136.81 179.06 L 136.63 179 L 136.38 179 L 136.19 178.94 L 136.06 178.81 L 136 178.63 L 136 178.38 L 135.94 178.19 L 135.81 178.06 L 135.63 178 L 135.38 178 L 135.19 177.94 L 135.06 177.81 L 135 177.63 L 135 177.38 L 134.94 177.19 L 134.81 177.06 L 134.63 177 L 134.38 177 L 134.19 176.94 L 134.06 176.81 L 134 176.63 L 134 176.38 L 133.94 176.19 L 133.81 176.06 L 133.63 176 L 133.38 176 L 133.19 175.94 L 133.06 175.81 L 133 175.63 L 133 175.38 L 132.94 175.19 L 132.81 175.06 L 132.63 175 L 132.38 175 L 132.19 174.94 L 132.06 174.81 L 132 174.63 L 132 174.38 L 131.94 174.19 L 131.81 174.06 L 131.63 174 L 131.38 174 L 131.19 173.94 L 131.06 173.81 L 131 173.63 L 131 173.38 L 130.94 173.19 L 130.81 173.06 L 130.63 173 L 130.38 173 L 130.19 172.94 L 130.06 172.81 L 130 172.63 L 130 172.38 L 129.94 172.19 L 129.81 172.06 L 129.63 172 L 129.38 172 L 129.19 171.94 L 129.06 171.81 L 129 171.63 L 129 171.38 L 128.88 171.19 L 128.63 171.06 L 128.25 171 L 127.75 171 L 127.38 170.94 L 127.13 170.81 L 127 170.63 L 127 170.38 L 126.94 170.19 L 126.81 170.06 L 126.63 170 L 126.38 170 L 126.19 169.94 L 126.06 169.81 L 126 169.63 L 126 169.38 L 125.94 169.19 L 125.81 169.06 L 125.63 169 L 125.38 169 L 125.19 168.94 L 125.06 168.81 L 125 168.63 L 125 168.38 L 124.94 168.19 L 124.81 168.06 L 124.63 168 L 124.38 168 L 124.19 167.94 L 124.06 167.81 L 124 167.63 L 124 167.38 L 123.94 167.19 L 123.81 167.06 L 123.63 167 L 123.38 167 L 123.19 166.94 L 123.06 166.81 L 123 166.63 L 123 166.38 L 122.94 166.19 L 122.81 166.06 L 122.63 166 L 122.38 166 L 122.19 165.94 L 122.06 165.81 L 122 165.63 L 122 165.38 L 121.88 165.19 L 121.63 165.06 L 121.25 165 L 120.75 165 L 120.38 164.94 L 120.13 164.81 L 120 164.63 L 120 164.38 L 119.94 164.19 L 119.81 164.06 L 119.63 164 L 119.38 164 L 119.19 163.94 L 119.06 163.81 L 119 163.63 L 119 163.38 L 118.94 163.19 L 118.81 163.06 L 118.63 163 L 118.38 163 L 118.19 162.94 L 118.06 162.81 L 118 162.63 L 118 162.38 L 117.94 162.19 L 117.81 162.06 L 117.63 162 L 117.38 162 L 117.19 161.94 L 117.06 161.81 L 117 161.63 L 117 161.38 L 116.88 161.19 L 116.63 161.06 L 116.25 161 L 115.75 161 L 115.38 160.94 L 115.13 160.81 L 115 160.63 L 115 160.38 L 114.94 160.19 L 114.81 160.06 L 114.63 160 L 114.38 160 L 114.19 159.94 L 114.06 159.81 L 114 159.63 L 114 159.38 L 113.75 159.19 L 113.25 159.06 L 112.5 159 L 111.5 159 L 110.75 158.94 L 110.25 158.81 L 110 158.63 L 110 158.38 L 109.88 158.19 L 109.63 158.06 L 109.25 158 L 108.75 158 L 108.38 157.94 L 108.13 157.81 L 108 157.63 L 108 157.38 L 107.81 157.19 L 107.44 157.06 L 106.88 157 L 106.13 157 L 105.56 156.94 L 105.19 156.81 L 105 156.63 L 105 156.38 L 104.81 156.19 L 104.44 156.06 L 103.88 156 L 103.13 156 L 102.56 155.94 L 102.19 155.81 L 102 155.63 L 102 155.38 L 101.81 155.19 L 101.44 155.06 L 100.88 155 L 100.13 155 L 99.56 154.94 L 99.19 154.81 L 99 154.63 L 99 154.38 L 98.75 154.19 L 98.25 154.06 L 97.5 154 L 96.5 154 L 95.75 153.94 L 95.25 153.81 L 95 153.63 L 95 153.38 L 94.81 153.19 L 94.44 153.06 L 93.88 153 L 93.13 153 L 92.56 152.94 L 92.19 152.81 L 92 152.63 L 92 152.38 L 91.81 152.19 L 91.44 152.06 L 90.88 152 L 90.13 152 L 89.56 151.94 L 89.19 151.81 L 89 151.63 L 89 151.38 L 88.63 151.19 L 87.88 151.06 L 86.75 151 L 85.25 151 L 84.13 151.06 L 83.38 151.19 L 83 151.38 L 83 151.63 L 82.94 151.81 L 82.81 151.94 L 82.63 152 L 82.38 152 L 82.19 152.06 L 82.06 152.19 L 82 152.38 L 82 152.63 L 81.94 152.81 L 81.81 152.94 L 81.63 153 L 81.38 153 L 81.19 153.06 L 81.06 153.19 L 81 153.38 L 81 153.63 L 80.94 153.81 L 80.81 153.94 L 80.63 154 L 80.38 154 L 80.19 154.06 L 80.06 154.19 L 80 154.38 L 80 154.63 L 79.88 154.81 L 79.63 154.94 L 79.25 155 L 78.75 155 L 78.38 155.06 L 78.13 155.19 L 78 155.38 L 78 155.63 L 77.94 155.81 L 77.81 155.94 L 77.63 156 L 77.38 156 L 77.19 156.06 L 77.06 156.19 L 77 156.38 L 77 156.63 L 76.94 156.81 L 76.81 156.94 L 76.63 157 L 76.38 157 L 76.19 157.44 L 76.06 158.31 L 76 159.63 L 76 161.38 L 76.06 162.69 L 76.19 163.56 L 76.38 164 L 76.63 164 L 76.81 164.19 L 76.94 164.56 L 77 165.13 L 77 165.88 L 77.06 166.44 L 77.19 166.81 L 77.38 167 L 77.63 167 L 77.81 167.13 L 77.94 167.38 L 78 167.75 L 78 168.25 L 78.06 168.63 L 78.19 168.88 L 78.38 169 L 78.63 169 L 78.81 169.06 L 78.94 169.19 L 79 169.38 L 79 169.63 L 79.06 169.81 L 79.19 169.94 L 79.38 170 L 79.63 170 L 79.81 170.13 L 79.94 170.38 L 80 170.75 L 80 171.25 L 80.06 171.63 L 80.19 171.88 L 80.38 172 L 80.63 172 L 80.81 172.06 L 80.94 172.19 L 81 172.38 L 81 172.63 L 81.06 172.81 L 81.19 172.94 L 81.38 173 L 81.63 173 L 81.81 173.06 L 81.94 173.19 L 82 173.38 L 82 173.63 L 82.06 173.81 L 82.19 173.94 L 82.38 174 L 82.63 174 L 82.81 174.06 L 82.94 174.19 L 83 174.38 L 83 174.63 L 83.06 174.81 L 83.19 174.94 L 83.38 175 L 83.63 175 L 83.81 175.06 L 83.94 175.19 L 84 175.38 L 84 175.63 L 84.06 175.81 L 84.19 175.94 L 84.38 176 L 84.63 176 L 84.81 176.06 L 84.94 176.19 L 85 176.38 L 85 176.63 L 85.06 176.81 L 85.19 176.94 L 85.38 177 L 85.63 177 L 85.81 177.13 L 85.94 177.38 L 86 177.75 L 86 178.25 L 86.06 178.63 L 86.19 178.88 L 86.38 179 L 86.63 179 L 86.81 179.06 L 86.94 179.19 L 87 179.38 L 87 179.63 L 87.06 179.81 L 87.19 179.94 L 87.38 180 L 87.63 180 L 87.81 180.06 L 87.94 180.19 L 88 180.38 L 88 180.63 L 88.06 180.81 L 88.19 180.94 L 88.38 181 L 88.63 181 L 88.81 181.06 L 88.94 181.19 L 89 181.38 L 89 181.63 L 89.06 181.81 L 89.19 181.94 L 89.38 182 L 89.63 182 L 89.81 182.06 L 89.94 182.19 L 90 182.38 L 90 182.63 L 90.06 182.81 L 90.19 182.94 L 90.38 183 L 90.63 183 L 90.81 183.06 L 90.94 183.19 L 91 183.38 L 91 183.63 L 91.06 183.81 L 91.19 183.94 L 91.38 184 L 91.63 184 L 91.81 184.06 L 91.94 184.19 L 92 184.38 L 92 184.63 L 92.06 184.81 L 92.19 184.94 L 92.38 185 L 92.63 185 L 92.81 185.13 L 92.94 185.38 L 93 185.75 L 93 186.25 L 93.06 186.63 L 93.19 186.88 L 93.38 187 L 93.63 187 L 93.81 187.06 L 93.94 187.19 L 94 187.38 L 94 187.63 L 94.06 187.81 L 94.19 187.94 L 94.38 188 L 94.63 188 L 94.81 188.06 L 94.94 188.19 L 95 188.38 L 95 188.63 L 95.06 188.81 L 95.19 188.94 L 95.38 189 L 95.63 189 L 95.81 189.13 L 95.94 189.38 L 96 189.75 L 96 190.25 L 96.06 190.63 L 96.19 190.88 L 96.38 191 L 96.63 191 L 96.81 191.06 L 96.94 191.19 L 97 191.38 L 97 191.63 L 97.06 191.81 L 97.19 191.94 L 97.38 192 L 97.63 192 L 97.81 192.44 L 97.94 193.31 L 98 194.63 L 98 196.38 L 97.94 197.69 L 97.81 198.56 L 97.63 199 L 97.38 199 L 97.19 199.06 L 97.06 199.19 L 97 199.38 L 97 199.63 L 96.94 199.81 L 96.81 199.94 L 96.63 200 L 96.38 200 L 96.19 200.06 L 96.06 200.19 L 96 200.38 L 96 200.63 L 95.94 200.81 L 95.81 200.94 L 95.63 201 L 95.38 201 L 95.19 201.06 L 95.06 201.19 L 95 201.38 L 95 201.63 L 94.75 201.81 L 94.25 201.94 L 93.5 202 L 92.5 202 L 91.75 201.94 L 91.25 201.81 L 91 201.63 L 91 201.38 L 90.88 201.19 L 90.63 201.06 L 90.25 201 L 89.75 201 L 89.38 200.94 L 89.13 200.81 L 89 200.63 L 89 200.38 L 88.88 200.19 L 88.63 200.06 L 88.25 200 L 87.75 200 L 87.38 199.94 L 87.13 199.81 L 87 199.63 L 87 199.38 L 86.94 199.19 L 86.81 199.06 L 86.63 199 L 86.38 199 L 86.19 198.94 L 86.06 198.81 L 86 198.63 L 86 198.38 L 85.88 198.19 L 85.63 198.06 L 85.25 198 L 84.75 198 L 84.38 197.94 L 84.13 197.81 L 84 197.63 L 84 197.38 L 83.94 197.19 L 83.81 197.06 L 83.63 197 L 83.38 197 L 83.19 196.94 L 83.06 196.81 L 83 196.63 L 83 196.38 L 82.94 196.19 L 82.81 196.06 L 82.63 196 L 82.38 196 L 82.19 195.94 L 82.06 195.81 L 82 195.63 L 82 195.38 L 81.94 195.19 L 81.81 195.06 L 81.63 195 L 81.38 195 L 81.19 194.94 L 81.06 194.81 L 81 194.63 L 81 194.38 L 80.94 194.19 L 80.81 194.06 L 80.63 194 L 80.38 194 L 80.19 193.94 L 80.06 193.81 L 80 193.63 L 80 193.38 L 79.94 193.19 L 79.81 193.06 L 79.63 193 L 79.38 193 L 79.19 192.94 L 79.06 192.81 L 79 192.63 L 79 192.38 L 78.94 192.19 L 78.81 192.06 L 78.63 192 L 78.38 192 L 78.19 191.94 L 78.06 191.81 L 78 191.63 L 78 191.38 L 77.94 191.19 L 77.81 191.06 L 77.63 191 L 77.38 191 L 77.19 190.88 L 77.06 190.63 L 77 190.25 L 77 189.75 L 76.88 189.38 L 76.63 189.13 L 76.25 189 L 75.75 189 L 75.38 188.88 L 75.13 188.63 L 75 188.25 L 75 187.75 L 74.94 187.38 L 74.81 187.13 L 74.63 187 L 74.38 187 L 74.19 186.94 L 74.06 186.81 L 74 186.63 L 74 186.38 L 73.94 186.19 L 73.81 186.06 L 73.63 186 L 73.38 186 L 73.19 185.94 L 73.06 185.81 L 73 185.63 L 73 185.38 L 72.94 185.19 L 72.81 185.06 L 72.63 185 L 72.38 185 L 72.19 184.94 L 72.06 184.81 L 72 184.63 L 72 184.38 L 71.94 184.19 L 71.81 184.06 L 71.63 184 L 71.38 184 L 71.19 183.88 L 71.06 183.63 L 71 183.25 L 71 182.75 L 70.88 182.38 L 70.63 182.13 L 70.25 182 L 69.75 182 L 69.38 181.88 L 69.13 181.63 L 69 181.25 L 69 180.75 L 68.94 180.38 L 68.81 180.13 L 68.63 180 L 68.38 180 L 68.19 179.94 L 68.06 179.81 L 68 179.63 L 68 179.38 L 67.94 179.19 L 67.81 179.06 L 67.63 179 L 67.38 179 L 67.19 178.94 L 67.06 178.81 L 67 178.63 L 67 178.38 L 66.94 178.19 L 66.81 178.06 L 66.63 178 L 66.38 178 L 66.19 177.94 L 66.06 177.81 L 66 177.63 L 66 177.38 L 65.94 177.19 L 65.81 177.06 L 65.63 177 L 65.38 177 L 65.19 176.94 L 65.06 176.81 L 65 176.63 L 65 176.38 L 64.94 176.19 L 64.81 176.06 L 64.63 176 L 64.38 176 L 64.19 175.88 L 64.06 175.63 L 64 175.25 L 64 174.75 L 63.94 174.38 L 63.81 174.13 L 63.63 174 L 63.38 174 L 63.19 173.94 L 63.06 173.81 L 63 173.63 L 63 173.38 L 62.94 173.19 L 62.81 173.06 L 62.63 173 L 62.38 173 L 62.19 172.94 L 62.06 172.81 L 62 172.63 L 62 172.38 L 61.94 172.19 L 61.81 172.06 L 61.63 172 L 61.38 172 L 61.19 171.94 L 61.06 171.81 L 61 171.63 L 61 171.38 L 60.94 171.19 L 60.81 171.06 L 60.63 171 L 60.38 171 L 60.19 170.88 L 60.06 170.63 L 60 170.25 L 60 169.75 L 59.94 169.38 L 59.81 169.13 L 59.63 169 L 59.38 169 L 59.19 168.94 L 59.06 168.81 L 59 168.63 L 59 168.38 L 58.94 168.19 L 58.81 168.06 L 58.63 168 L 58.38 168 L 58.19 167.94 L 58.06 167.81 L 58 167.63 L 58 167.38 L 57.94 167.19 L 57.81 167.06 L 57.63 167 L 57.38 167 L 57.19 166.94 L 57.06 166.81 L 57 166.63 L 57 166.38 L 56.94 166.19 L 56.81 166.06 L 56.63 166 L 56.38 166 L 56.19 165.88 L 56.06 165.63 L 56 165.25 L 56 164.75 L 55.94 164.38 L 55.81 164.13 L 55.63 164 L 55.38 164 L 55.19 163.94 L 55.06 163.81 L 55 163.63 L 55 163.38 L 54.94 163.19 L 54.81 163.06 L 54.63 163 L 54.38 163 L 54.19 162.94 L 54.06 162.81 L 54 162.63 L 54 162.38 L 53.94 162.19 L 53.81 162.06 L 53.63 162 L 53.38 162 L 53.19 161.94 L 53.06 161.81 L 53 161.63 L 53 161.38 L 52.94 161.19 L 52.81 161.06 L 52.63 161 L 52.38 161 L 52.19 160.94 L 52.06 160.81 L 52 160.63 L 52 160.38 L 51.94 160.19 L 51.81 160.06 L 51.63 160 L 51.38 160 L 51.19 159.94 L 51.06 159.81 L 51 159.63 L 51 159.38 L 50.94 159.19 L 50.81 159.06 L 50.63 159 L 50.38 159 L 50.19 158.94 L 50.06 158.81 L 50 158.63 L 50 158.38 L 49.94 158.19 L 49.81 158.06 L 49.63 158 L 49.38 158 L 49.19 157.94 L 49.06 157.81 L 49 157.63 L 49 157.38 L 48.94 157.19 L 48.81 157.06 L 48.63 157 L 48.38 157 L 48.19 156.94 L 48.06 156.81 L 48 156.63 L 48 156.38 L 47.94 156.19 L 47.81 156.06 L 47.63 156 L 47.38 156 L 47.19 155.88 L 47.06 155.63 L 47 155.25 L 47 154.75 L 46.88 154.38 L 46.63 154.13 L 46.25 154 L 45.75 154 L 45.38 153.94 L 45.13 153.81 L 45 153.63 L 45 153.38 L 44.94 153.19 L 44.81 153.06 L 44.63 153 L 44.38 153 L 44.19 152.94 L 44.06 152.81 L 44 152.63 L 44 152.38 L 43.94 152.19 L 43.81 152.06 L 43.63 152 L 43.38 152 L 43.19 151.88 L 43.06 151.63 L 43 151.25 L 43 150.75 L 42.88 150.38 L 42.63 150.13 L 42.25 150 L 41.75 150 L 41.38 149.88 L 41.13 149.63 L 41 149.25 L 41 148.75 L 40.94 148.38 L 40.81 148.13 L 40.63 148 L 40.38 148 L 40.19 147.94 L 40.06 147.81 L 40 147.63 L 40 147.38 L 39.94 147.19 L 39.81 147.06 L 39.63 147 L 39.38 147 L 39.19 146.94 L 39.06 146.81 L 39 146.63 L 39 146.38 L 38.94 146.19 L 38.81 146.06 L 38.63 146 L 38.38 146 L 38.19 145.94 L 38.06 145.81 L 38 145.63 L 38 145.38 L 37.94 145.19 L 37.81 145.06 L 37.63 145 L 37.38 145 L 37.19 144.88 L 37.06 144.63 L 37 144.25 L 37 143.75 L 36.94 143.38 L 36.81 143.13 L 36.63 143 L 36.38 143 L 36.19 142.88 L 36.06 142.63 L 36 142.25 L 36 141.75 L 35.94 141.38 L 35.81 141.13 L 35.63 141 L 35.38 141 L 35.19 140.88 L 35.06 140.63 L 35 140.25 L 35 139.75 L 34.94 139.38 L 34.81 139.13 L 34.63 139 L 34.38 139 L 34.19 138.88 L 34.06 138.63 L 34 138.25 L 34 137.75 L 33.94 137.38 L 33.81 137.13 L 33.63 137 L 33.38 137 L 33.19 136.5 L 33.06 135.5 L 33 134 L 33 132 L 33.06 130.5 L 33.19 129.5 L 33.38 129 L 33.63 129 L 33.81 128.94 L 33.94 128.81 L 34 128.63 L 34 128.38 L 34.06 128.19 L 34.19 128.06 L 34.38 128 L 34.63 128 L 34.81 127.88 L 34.94 127.63 L 35 127.25 L 35 126.75 L 35.13 126.38 L 35.38 126.13 L 35.75 126 L 36.25 126 L 36.63 125.94 L 36.88 125.81 L 37 125.63 L 37 125.38 L 37.06 125.19 L 37.19 125.06 L 37.38 125 L 37.63 125 L 37.81 124.94 L 37.94 124.81 L 38 124.63 L 38 124.38 L 38.19 124.19 L 38.56 124.06 L 39.13 124 L 39.88 124 L 40.44 124.06 L 40.81 124.19 L 41 124.38 L 41 124.63 L 41.19 124.81 L 41.56 124.94 L 42.13 125 L 42.88 125 L 43.44 124.94 L 43.81 124.81 L 44 124.63 L 44 124.38 L 44.13 124.19 L 44.38 124.06 L 44.75 124 L 45.25 124 L 45.63 123.94 L 45.88 123.81 L 46 123.63 L 46 123.38 L 46.06 123.19 L 46.19 123.06 L 46.38 123 L 46.63 123 L 46.81 122.94 L 46.94 122.81 L 47 122.63 L 47 122.38 L 47.06 122.19 L 47.19 122.06 L 47.38 122 L 47.63 122 L 47.81 121.94 L 47.94 121.81 L 48 121.63 L 48 121.38 L 48.06 121.19 L 48.19 121.06 L 48.38 121 L 48.63 121 L 48.81 120.94 L 48.94 120.81 L 49 120.63 L 49 120.38 L 49.06 120.19 L 49.19 120.06 L 49.38 120 L 49.63 120 L 49.81 119.94 L 49.94 119.81 L 50 119.63 L 50 119.38 L 50.06 119.19 L 50.19 119.06 L 50.38 119 L 50.63 119 L 50.81 118.94 L 50.94 118.81 L 51 118.63 L 51 118.38 L 51.31 118.19 L 51.94 118.06 L 52.88 118 L 54.13 118 L 55.06 118.25 L 55.69 118.75 L 56 119.5 L 56 120.5 L 55.94 121.25 L 55.81 121.75 L 55.63 122 L 55.38 122 L 55.19 122.06 L 55.06 122.19 L 55 122.38 L 55 122.63 L 54.94 122.81 L 54.81 122.94 L 54.63 123 L 54.38 123 L 54.19 123.06 L 54.06 123.19 L 54 123.38 L 54 123.63 L 53.94 123.81 L 53.81 123.94 L 53.63 124 L 53.38 124 L 53.19 124.06 L 53.06 124.19 L 53 124.38 L 53 124.63 L 52.94 124.81 L 52.81 124.94 L 52.63 125 L 52.38 125 L 52.19 125.06 L 52.06 125.19 L 52 125.38 L 52 125.63 L 51.94 125.81 L 51.81 125.94 L 51.63 126 L 51.38 126 L 51.19 126.06 L 51.06 126.19 L 51 126.38 L 51 126.63 L 50.94 126.81 L 50.81 126.94 L 50.63 127 L 50.38 127 L 50.19 127.19 L 50.06 127.56 L 50 128.13 L 50 128.88 L 50.06 129.44 L 50.19 129.81 L 50.38 130 L 50.63 130 L 50.81 129.94 L 50.94 129.81 L 51 129.63 L 51 129.38 L 51.06 129.19 L 51.19 129.06 L 51.38 129 L 51.63 129 L 51.81 128.94 L 51.94 128.81 L 52 128.63 L 52 128.38 L 52.06 128.19 L 52.19 128.06 L 52.38 128 L 52.63 128 L 52.81 127.94 L 52.94 127.81 L 53 127.63 L 53 127.38 L 53.06 127.19 L 53.19 127.06 L 53.38 127 L 53.63 127 L 53.81 126.94 L 53.94 126.81 L 54 126.63 L 54 126.38 L 54.13 126.19 L 54.38 126.06 L 54.75 126 L 55.25 126 L 55.63 125.88 L 55.88 125.63 L 56 125.25 L 56 124.75 L 56.31 124.38 L 56.94 124.13 L 57.88 124 L 59.13 124 L 60.06 123.81 L 60.69 123.44 L 61 122.88 L 61 122.13 L 61.06 121.56 L 61.19 121.19 L 61.38 121 L 61.63 121 L 61.81 120.63 L 61.94 119.88 L 62 118.75 L 62 117.25 L 62.06 116.13 L 62.19 115.38 L 62.38 115 L 62.63 115 L 62.81 114.69 L 62.94 114.06 L 63 113.13 L 63 111.88 L 63.06 110.94 L 63.19 110.31 L 63.38 110 L 63.63 110 L 63.81 109.88 L 63.94 109.63 L 64 109.25 L 64 108.75 L 64.06 108.38 L 64.19 108.13 L 64.38 108 L 64.63 108 L 64.81 107.88 L 64.94 107.63 L 65 107.25 L 65 106.75 L 65.06 106.38 L 65.19 106.13 L 65.38 106 L 65.63 106 L 65.81 105.94 L 65.94 105.81 L 66 105.63 L 66 105.38 L 66.13 105.19 L 66.38 105.06 L 66.75 105 L 67.25 105 L 67.63 104.94 L 67.88 104.81 L 68 104.63 L 68 104.38 L 68.06 104.19 L 68.19 104.06 L 68.38 104 L 68.63 104 L 68.81 103.94 L 68.94 103.81 L 69 103.63 L 69 103.38 L 69.13 103.19 L 69.38 103.06 L 69.75 103 L 70.25 103 L 70.63 102.88 L 70.88 102.63 L 71 102.25 L 71 101.75 L 71.06 101.38 L 71.19 101.13 L 71.38 101 L 71.63 101 L 71.81 100.94 L 71.94 100.81 L 72 100.63 L 72 100.38 L 72.06 100.19 L 72.19 100.06 L 72.38 100 L 72.63 100 L 72.81 99.94 L 72.94 99.81 L 73 99.63 L 73 99.38 L 73.06 99.19 L 73.19 99.06 L 73.38 99 L 73.63 99 L 73.81 98.94 L 73.94 98.81 L 74 98.63 L 74 98.38 L 74.06 98.19 L 74.19 98.06 L 74.38 98 L 74.63 98 L 74.81 97.88 L 74.94 97.63 L 75 97.25 L 75 96.75 L 75.13 96.38 L 75.38 96.13 L 75.75 96 L 76.25 96 L 76.63 95.88 L 76.88 95.63 L 77 95.25 L 77 94.75 L 77.06 94.38 L 77.19 94.13 L 77.38 94 L 77.63 94 L 77.81 93.94 L 77.94 93.81 L 78 93.63 L 78 93.38 L 78.06 93.19 L 78.19 93.06 L 78.38 93 L 78.63 93 L 78.81 92.94 L 78.94 92.81 L 79 92.63 L 79 92.38 L 79.06 92.19 L 79.19 92.06 L 79.38 92 L 79.63 92 L 79.81 91.88 L 79.94 91.63 L 80 91.25 L 80 90.75 L 80.06 90.38 L 80.19 90.13 L 80.38 90 L 80.63 90 L 80.81 89.94 L 80.94 89.81 L 81 89.63 L 81 89.38 L 81.06 89.19 L 81.19 89.06 L 81.38 89 L 81.63 89 L 81.81 88.94 L 81.94 88.81 L 82 88.63 L 82 88.38 L 82.06 88.19 L 82.19 88.06 L 82.38 88 L 82.63 88 L 82.81 87.94 L 82.94 87.81 L 83 87.63 L 83 87.38 L 83.06 87.19 L 83.19 87.06 L 83.38 87 L 83.63 87 L 83.81 86.88 L 83.94 86.63 L 84 86.25 L 84 85.75 L 84.06 85.38 L 84.19 85.13 L 84.38 85 L 84.63 85 L 84.81 84.94 L 84.94 84.81 L 85 84.63 L 85 84.38 L 85.06 84.19 L 85.19 84.06 L 85.38 84 L 85.63 84 L 85.81 83.44 L 85.94 82.31 L 86 80.63 L 86 78.38 L 86.06 76.69 L 86.19 75.56 L 86.38 75 L 86.63 75 L 86.81 74.88 L 86.94 74.63 L 87 74.25 L 87 73.75 L 87.06 73.38 L 87.19 73.13 L 87.38 73 L 87.63 73 L 87.81 72.06 L 87.94 70.19 L 88 67.38 L 88 63.63 L 88.06 60.81 L 88.19 58.94 L 88.38 58 L 88.63 58 L 88.81 57.88 L 88.94 57.63 L 89 57.25 L 89 56.75 L 88.94 56.38 L 88.81 56.13 L 88.63 56 L 88.38 56 L 88.19 55.88 L 88.06 55.63 L 88 55.25 L 88 54.75 L 87.94 54.38 L 87.81 54.13 L 87.63 54 L 87.38 54 L 87.19 53.94 L 87.06 53.81 L 87 53.63 L 87 53.38 L 86.94 53.19 L 86.81 53.06 L 86.63 53 L 86.38 53 L 86.19 52.56 L 86.06 51.69 L 86 50.38 L 86 48.63 L 86.06 47.31 L 86.19 46.44 L 86.38 46 L 86.63 46 L 86.81 45.94 L 86.94 45.81 L 87 45.63 L 87 45.38 L 87.19 45.19 L 87.56 45.06 L 88.13 45 L 88.88 45 L 89.44 44.94 L 89.81 44.81 L 90 44.63 L 90 44.38 L 90.13 44.19 L 90.38 44.06 L 90.75 44 L 91.25 44 L 91.63 43.94 L 91.88 43.81 L 92 43.63 L 92 43.38 L 94.56 43.19 L 99.69 43.06 L 107.38 43 L 117.63 43 L 125.31 42.94 L 130.44 42.81 L 133 42.63 L 133 42.38 L 133.25 42.19 L 133.75 42.06 Z M 183.38 77 L 183.63 77 L 183.81 77.06 L 183.94 77.19 L 184 77.38 L 184 77.63 L 184.06 77.81 L 184.19 77.94 L 184.38 78 L 184.63 78 L 184.81 78.06 L 184.94 78.19 L 185 78.38 L 185 78.63 L 185.06 78.81 L 185.19 78.94 L 185.38 79 L 185.63 79 L 185.81 79.13 L 185.94 79.38 L 186 79.75 L 186 80.25 L 186.06 80.63 L 186.19 80.88 L 186.38 81 L 186.63 81 L 186.81 81.25 L 186.94 81.75 L 187 82.5 L 187 83.5 L 187.06 84.25 L 187.19 84.75 L 187.38 85 L 187.63 85 L 187.81 85.06 L 187.94 85.19 L 188 85.38 L 188 85.63 L 188.06 85.81 L 188.19 85.94 L 188.38 86 L 188.63 86 L 188.81 86.06 L 188.94 86.19 L 189 86.38 L 189 86.63 L 189.56 86.81 L 190.69 86.94 L 192.38 87 L 194.63 87 L 196.31 87.06 L 197.44 87.19 L 198 87.38 L 198 87.63 L 198.06 87.81 L 198.19 87.94 L 198.38 88 L 198.63 88 L 198.81 88.13 L 198.94 88.38 L 199 88.75 L 199 89.25 L 198.94 89.63 L 198.81 89.88 L 198.63 90 L 198.38 90 L 198.19 90.13 L 198.06 90.38 L 198 90.75 L 198 91.25 L 197.94 91.63 L 197.81 91.88 L 197.63 92 L 197.38 92 L 197.19 92.06 L 197.06 92.19 L 197 92.38 L 197 92.63 L 196.88 92.81 L 196.63 92.94 L 196.25 93 L 195.75 93 L 195.38 93.06 L 195.13 93.19 L 195 93.38 L 195 93.63 L 194.94 93.81 L 194.81 93.94 L 194.63 94 L 194.38 94 L 194.19 94.06 L 194.06 94.19 L 194 94.38 L 194 94.63 L 193.94 94.81 L 193.81 94.94 L 193.63 95 L 193.38 95 L 193.19 95.06 L 193.06 95.19 L 193 95.38 L 193 95.63 L 192.94 95.81 L 192.81 95.94 L 192.63 96 L 192.38 96 L 192.19 96.19 L 192.06 96.56 L 192 97.13 L 192 97.88 L 192.06 98.44 L 192.19 98.81 L 192.38 99 L 192.63 99 L 192.81 99.25 L 192.94 99.75 L 193 100.5 L 193 101.5 L 193.06 102.25 L 193.19 102.75 L 193.38 103 L 193.63 103 L 193.81 103.19 L 193.94 103.56 L 194 104.13 L 194 104.88 L 193.94 105.44 L 193.81 105.81 L 193.63 106 L 193.38 106 L 193.19 106.06 L 193.06 106.19 L 193 106.38 L 193 106.63 L 192.75 106.81 L 192.25 106.94 L 191.5 107 L 190.5 107 L 189.75 106.94 L 189.25 106.81 L 189 106.63 L 189 106.38 L 188.94 106.19 L 188.81 106.06 L 188.63 106 L 188.38 106 L 188.19 105.94 L 188.06 105.81 L 188 105.63 L 188 105.38 L 187.94 105.19 L 187.81 105.06 L 187.63 105 L 187.38 105 L 187.19 104.94 L 187.06 104.81 L 187 104.63 L 187 104.38 L 186.94 104.19 L 186.81 104.06 L 186.63 104 L 186.38 104 L 186.19 103.94 L 186.06 103.81 L 186 103.63 L 186 103.38 L 185.69 103.19 L 185.06 103.06 L 184.13 103 L 182.88 103 L 181.94 103.06 L 181.31 103.19 L 181 103.38 L 181 103.63 L 180.94 103.81 L 180.81 103.94 L 180.63 104 L 180.38 104 L 180.19 104.06 L 180.06 104.19 L 180 104.38 L 180 104.63 L 179.94 104.81 L 179.81 104.94 L 179.63 105 L 179.38 105 L 179.19 105.06 L 179.06 105.19 L 179 105.38 L 179 105.63 L 178.94 105.81 L 178.81 105.94 L 178.63 106 L 178.38 106 L 178.19 106.06 L 178.06 106.19 L 178 106.38 L 178 106.63 L 177.69 106.81 L 177.06 106.94 L 176.13 107 L 174.88 107 L 173.94 106.69 L 173.31 106.06 L 173 105.13 L 173 103.88 L 173.06 102.94 L 173.19 102.31 L 173.38 102 L 173.63 102 L 173.81 101.81 L 173.94 101.44 L 174 100.88 L 174 100.13 L 174.06 99.56 L 174.19 99.19 L 174.38 99 L 174.63 99 L 174.81 98.81 L 174.94 98.44 L 175 97.88 L 175 97.13 L 174.94 96.56 L 174.81 96.19 L 174.63 96 L 174.38 96 L 174.19 95.94 L 174.06 95.81 L 174 95.63 L 174 95.38 L 173.94 95.19 L 173.81 95.06 L 173.63 95 L 173.38 95 L 173.19 94.94 L 173.06 94.81 L 173 94.63 L 173 94.38 L 172.94 94.19 L 172.81 94.06 L 172.63 94 L 172.38 94 L 172.19 93.94 L 172.06 93.81 L 172 93.63 L 172 93.38 L 171.88 93.19 L 171.63 93.06 L 171.25 93 L 170.75 93 L 170.38 92.94 L 170.13 92.81 L 170 92.63 L 170 92.38 L 169.94 92.19 L 169.81 92.06 L 169.63 92 L 169.38 92 L 169.19 91.94 L 169.06 91.81 L 169 91.63 L 169 91.38 L 168.94 91.19 L 168.81 91.06 L 168.63 91 L 168.38 91 L 168.19 90.81 L 168.06 90.44 L 168 89.88 L 168 89.13 L 168.06 88.56 L 168.19 88.19 L 168.38 88 L 168.63 88 L 168.81 87.94 L 168.94 87.81 L 169 87.63 L 169 87.38 L 169.56 87.19 L 170.69 87.06 L 172.38 87 L 174.63 87 L 176.31 86.94 L 177.44 86.81 L 178 86.63 L 178 86.38 L 178.06 86.19 L 178.19 86.06 L 178.38 86 L 178.63 86 L 178.81 85.94 L 178.94 85.81 L 179 85.63 L 179 85.38 L 179.06 85.19 L 179.19 85.06 L 179.38 85 L 179.63 85 L 179.81 84.69 L 179.94 84.06 L 180 83.13 L 180 81.88 L 180.06 80.94 L 180.19 80.31 L 180.38 80 L 180.63 80 L 180.81 79.94 L 180.94 79.81 L 181 79.63 L 181 79.38 L 181.06 79.19 L 181.19 79.06 L 181.38 79 L 181.63 79 L 181.81 78.94 L 181.94 78.81 L 182 78.63 L 182 78.38 L 182.06 78.19 L 182.19 78.06 L 182.38 78 L 182.63 78 L 182.81 77.94 L 182.94 77.81 L 183 77.63 L 183 77.38 L 183.06 77.19 L 183.19 77.06 Z M 48.38 83 L 48.63 83 L 48.81 83.06 L 48.94 83.19 L 49 83.38 L 49 83.63 L 49.06 83.81 L 49.19 83.94 L 49.38 84 L 49.63 84 L 49.81 84.06 L 49.94 84.19 L 50 84.38 L 50 84.63 L 50.06 84.81 L 50.19 84.94 L 50.38 85 L 50.63 85 L 50.81 85.06 L 50.94 85.19 L 51 85.38 L 51 85.63 L 51.06 85.81 L 51.19 85.94 L 51.38 86 L 51.63 86 L 51.81 86.13 L 51.94 86.38 L 52 86.75 L 52 87.25 L 52.06 87.63 L 52.19 87.88 L 52.38 88 L 52.63 88 L 52.81 88.06 L 52.94 88.19 L 53 88.38 L 53 88.63 L 53.31 88.81 L 53.94 88.94 L 54.88 89 L 56.13 89 L 57.06 89.06 L 57.69 89.19 L 58 89.38 L 58 89.63 L 58.06 89.81 L 58.19 89.94 L 58.38 90 L 58.63 90 L 58.81 90.13 L 58.94 90.38 L 59 90.75 L 59 91.25 L 58.94 91.63 L 58.81 91.88 L 58.63 92 L 58.38 92 L 58.19 92.06 L 58.06 92.19 L 58 92.38 L 58 92.63 L 57.94 92.81 L 57.81 92.94 L 57.63 93 L 57.38 93 L 57.19 93.06 L 57.06 93.19 L 57 93.38 L 57 93.63 L 56.94 93.81 L 56.81 93.94 L 56.63 94 L 56.38 94 L 56.19 94.06 L 56.06 94.19 L 56 94.38 L 56 94.63 L 55.94 94.81 L 55.81 94.94 L 55.63 95 L 55.38 95 L 55.19 95.19 L 55.06 95.56 L 55 96.13 L 55 96.88 L 55.06 97.44 L 55.19 97.81 L 55.38 98 L 55.63 98 L 55.81 98.19 L 55.94 98.56 L 56 99.13 L 56 99.88 L 55.94 100.44 L 55.81 100.81 L 55.63 101 L 55.38 101 L 55.19 101.06 L 55.06 101.19 L 55 101.38 L 55 101.63 L 54.94 101.81 L 54.81 101.94 L 54.63 102 L 54.38 102 L 54.19 102.06 L 54.06 102.19 L 54 102.38 L 54 102.63 L 53.94 102.81 L 53.81 102.94 L 53.63 103 L 53.38 103 L 53.19 102.94 L 53.06 102.81 L 53 102.63 L 53 102.38 L 52.94 102.19 L 52.81 102.06 L 52.63 102 L 52.38 102 L 52.19 101.94 L 52.06 101.81 L 52 101.63 L 52 101.38 L 51.88 101.19 L 51.63 101.06 L 51.25 101 L 50.75 101 L 50.38 100.94 L 50.13 100.81 L 50 100.63 L 50 100.38 L 49.88 100.19 L 49.63 100.06 L 49.25 100 L 48.75 100 L 48.38 100.06 L 48.13 100.19 L 48 100.38 L 48 100.63 L 47.88 100.81 L 47.63 100.94 L 47.25 101 L 46.75 101 L 46.38 101.06 L 46.13 101.19 L 46 101.38 L 46 101.63 L 45.94 101.81 L 45.81 101.94 L 45.63 102 L 45.38 102 L 45.19 102.06 L 45.06 102.19 L 45 102.38 L 45 102.63 L 44.94 102.81 L 44.81 102.94 L 44.63 103 L 44.38 103 L 44.19 102.94 L 44.06 102.81 L 44 102.63 L 44 102.38 L 43.88 102.19 L 43.63 102.06 L 43.25 102 L 42.75 102 L 42.38 101.75 L 42.13 101.25 L 42 100.5 L 42 99.5 L 42.06 98.75 L 42.19 98.25 L 42.38 98 L 42.63 98 L 42.81 97.81 L 42.94 97.44 L 43 96.88 L 43 96.13 L 42.94 95.56 L 42.81 95.19 L 42.63 95 L 42.38 95 L 42.19 94.94 L 42.06 94.81 L 42 94.63 L 42 94.38 L 41.88 94.19 L 41.63 94.06 L 41.25 94 L 40.75 94 L 40.38 93.88 L 40.13 93.63 L 40 93.25 L 40 92.75 L 39.94 92.38 L 39.81 92.13 L 39.63 92 L 39.38 92 L 39.19 91.88 L 39.06 91.63 L 39 91.25 L 39 90.75 L 39.06 90.38 L 39.19 90.13 L 39.38 90 L 39.63 90 L 39.81 89.94 L 39.94 89.81 L 40 89.63 L 40 89.38 L 40.31 89.19 L 40.94 89.06 L 41.88 89 L 43.13 89 L 44.06 88.88 L 44.69 88.63 L 45 88.25 L 45 87.75 L 45.06 87.38 L 45.19 87.13 L 45.38 87 L 45.63 87 L 45.81 86.94 L 45.94 86.81 L 46 86.63 L 46 86.38 L 46.06 86.19 L 46.19 86.06 L 46.38 86 L 46.63 86 L 46.81 85.88 L 46.94 85.63 L 47 85.25 L 47 84.75 L 47.06 84.38 L 47.19 84.13 L 47.38 84 L 47.63 84 L 47.81 83.94 L 47.94 83.81 L 48 83.63 L 48 83.38 L 48.06 83.19 L 48.19 83.06 Z M 27.88 111 L 29.13 111 L 30.06 111.13 L 30.69 111.38 L 31 111.75 L 31 112.25 L 31.06 112.63 L 31.19 112.88 L 31.38 113 L 31.63 113 L 31.81 113.19 L 31.94 113.56 L 32 114.13 L 32 114.88 L 31.94 115.44 L 31.81 115.81 L 31.63 116 L 31.38 116 L 31.19 116.13 L 31.06 116.38 L 31 116.75 L 31 117.25 L 30.69 117.63 L 30.06 117.88 L 29.13 118 L 27.88 118 L 26.94 117.94 L 26.31 117.81 L 26 117.63 L 26 117.38 L 25.94 117.19 L 25.81 117.06 L 25.63 117 L 25.38 117 L 25.19 116.94 L 25.06 116.81 L 25 116.63 L 25 116.38 L 24.94 116.19 L 24.81 116.06 L 24.63 116 L 24.38 116 L 24.19 115.81 L 24.06 115.44 L 24 114.88 L 24 114.13 L 24.06 113.56 L 24.19 113.19 L 24.38 113 L 24.63 113 L 24.81 112.94 L 24.94 112.81 L 25 112.63 L 25 112.38 L 25.06 112.19 L 25.19 112.06 L 25.38 112 L 25.63 112 L 25.81 111.94 L 25.94 111.81 L 26 111.63 L 26 111.38 L 26.31 111.19 L 26.94 111.06 Z M 209.75 115 L 210.25 115 L 210.63 115.06 L 210.88 115.19 L 211 115.38 L 211 115.63 L 211.13 115.81 L 211.38 115.94 L 211.75 116 L 212.25 116 L 212.63 116.06 L 212.88 116.19 L 213 116.38 L 213 116.63 L 213.13 116.81 L 213.38 116.94 L 213.75 117 L 214.25 117 L 214.63 117.13 L 214.88 117.38 L 215 117.75 L 215 118.25 L 215.06 118.63 L 215.19 118.88 L 215.38 119 L 215.63 119 L 215.81 119.06 L 215.94 119.19 L 216 119.38 L 216 119.63 L 216.06 119.81 L 216.19 119.94 L 216.38 120 L 216.63 120 L 216.81 120.31 L 216.94 120.94 L 217 121.88 L 217 123.13 L 216.94 124.06 L 216.81 124.69 L 216.63 125 L 216.38 125 L 216.19 125.13 L 216.06 125.38 L 216 125.75 L 216 126.25 L 215.94 126.63 L 215.81 126.88 L 215.63 127 L 215.38 127 L 215.19 127.06 L 215.06 127.19 L 215 127.38 L 215 127.63 L 214.94 127.81 L 214.81 127.94 L 214.63 128 L 214.38 128 L 214.19 128.06 L 214.06 128.19 L 214 128.38 L 214 128.63 L 213.5 128.81 L 212.5 128.94 L 211 129 L 209 129 L 207.5 128.94 L 206.5 128.81 L 206 128.63 L 206 128.38 L 205.94 128.19 L 205.81 128.06 L 205.63 128 L 205.38 128 L 205.19 127.94 L 205.06 127.81 L 205 127.63 L 205 127.38 L 204.94 127.19 L 204.81 127.06 L 204.63 127 L 204.38 127 L 204.19 126.88 L 204.06 126.63 L 204 126.25 L 204 125.75 L 203.94 125.38 L 203.81 125.13 L 203.63 125 L 203.38 125 L 203.19 124.69 L 203.06 124.06 L 203 123.13 L 203 121.88 L 203.06 120.94 L 203.19 120.31 L 203.38 120 L 203.63 120 L 203.81 119.88 L 203.94 119.63 L 204 119.25 L 204 118.75 L 204.06 118.38 L 204.19 118.13 L 204.38 118 L 204.63 118 L 204.81 117.94 L 204.94 117.81 L 205 117.63 L 205 117.38 L 205.06 117.19 L 205.19 117.06 L 205.38 117 L 205.63 117 L 205.81 116.94 L 205.94 116.81 L 206 116.63 L 206 116.38 L 206.19 116.19 L 206.56 116.06 L 207.13 116 L 207.88 116 L 208.44 115.94 L 208.81 115.81 L 209 115.63 L 209 115.38 L 209.13 115.19 L 209.38 115.06 Z M 59 129.75 L 59 130.25 L 58.88 130.63 L 58.63 130.88 L 58.25 131 L 57.75 131 L 57.38 131.06 L 57.13 131.19 L 57 131.38 L 57 131.63 L 56.94 131.81 L 56.81 131.94 L 56.63 132 L 56.38 132 L 56.19 132.06 L 56.06 132.19 L 56 132.38 L 56 132.63 L 55.94 132.81 L 55.81 132.94 L 55.63 133 L 55.38 133 L 55.19 133.13 L 55.06 133.38 L 55 133.75 L 55 134.25 L 55.19 134.63 L 55.56 134.88 L 56.13 135 L 56.88 135 L 57.44 134.88 L 57.81 134.63 L 58 134.25 L 58 133.75 L 58.13 133.38 L 58.38 133.13 L 58.75 133 L 59.25 133 L 59.63 132.94 L 59.88 132.81 L 60 132.63 L 60 132.38 L 60.06 132.19 L 60.19 132.06 L 60.38 132 L 60.63 132 L 60.81 131.88 L 60.94 131.63 L 61 131.25 L 61 130.75 L 61.06 130.38 L 61.19 130.13 L 61.38 130 L 61.63 130 L 61.81 129.94 L 61.94 129.81 L 62 129.63 L 62 129.38 L 61.81 129.19 L 61.44 129.06 L 60.88 129 L 60.13 129 L 59.56 129.13 L 59.19 129.38 Z M 63.63 136 L 63.38 136 L 63.19 136.13 L 63.06 136.38 L 63 136.75 L 63 137.25 L 62.88 137.63 L 62.63 137.88 L 62.25 138 L 61.75 138 L 61.38 138.19 L 61.13 138.56 L 61 139.13 L 61 139.88 L 61.06 140.44 L 61.19 140.81 L 61.38 141 L 61.63 141 L 61.81 140.88 L 61.94 140.63 L 62 140.25 L 62 139.75 L 62.13 139.38 L 62.38 139.13 L 62.75 139 L 63.25 139 L 63.63 138.81 L 63.88 138.44 L 64 137.88 L 64 137.13 L 63.94 136.56 L 63.81 136.19 Z M 68.63 142 L 68.38 142 L 68.19 142.06 L 68.06 142.19 L 68 142.38 L 68 142.63 L 67.94 142.81 L 67.81 142.94 L 67.63 143 L 67.38 143 L 67.19 143.06 L 67.06 143.19 L 67 143.38 L 67 143.63 L 66.88 143.81 L 66.63 143.94 L 66.25 144 L 65.75 144 L 65.38 144.19 L 65.13 144.56 L 65 145.13 L 65 145.88 L 65.19 146.44 L 65.56 146.81 L 66.13 147 L 66.88 147 L 67.44 146.94 L 67.81 146.81 L 68 146.63 L 68 146.38 L 68.06 146.19 L 68.19 146.06 L 68.38 146 L 68.63 146 L 68.81 145.94 L 68.94 145.81 L 69 145.63 L 69 145.38 L 69.06 145.19 L 69.19 145.06 L 69.38 145 L 69.63 145 L 69.81 144.88 L 69.94 144.63 L 70 144.25 L 70 143.75 L 69.94 143.38 L 69.81 143.13 L 69.63 143 L 69.38 143 L 69.19 142.94 L 69.06 142.81 L 69 142.63 L 69 142.38 L 68.94 142.19 L 68.81 142.06 Z M 76.63 147 L 76.38 147 L 76.19 147.06 L 76.06 147.19 L 76 147.38 L 76 147.63 L 75.88 147.81 L 75.63 147.94 L 75.25 148 L 74.75 148 L 74.38 148.06 L 74.13 148.19 L 74 148.38 L 74 148.63 L 73.94 148.81 L 73.81 148.94 L 73.63 149 L 73.38 149 L 73.19 149.06 L 73.06 149.19 L 73 149.38 L 73 149.63 L 72.94 149.81 L 72.81 149.94 L 72.63 150 L 72.38 150 L 72.19 150.06 L 72.06 150.19 L 72 150.38 L 72 150.63 L 71.94 150.81 L 71.81 150.94 L 71.63 151 L 71.38 151 L 71.19 151.13 L 71.06 151.38 L 71 151.75 L 71 152.25 L 71.13 152.63 L 71.38 152.88 L 71.75 153 L 72.25 153 L 72.63 152.94 L 72.88 152.81 L 73 152.63 L 73 152.38 L 73.06 152.19 L 73.19 152.06 L 73.38 152 L 73.63 152 L 73.81 151.94 L 73.94 151.81 L 74 151.63 L 74 151.38 L 74.06 151.19 L 74.19 151.06 L 74.38 151 L 74.63 151 L 74.81 150.94 L 74.94 150.81 L 75 150.63 L 75 150.38 L 75.13 150.19 L 75.38 150.06 L 75.75 150 L 76.25 150 L 76.63 149.81 L 76.88 149.44 L 77 148.88 L 77 148.13 L 76.94 147.56 L 76.81 147.19 Z M 124.5 188 L 125.5 188 L 126.25 188.13 L 126.75 188.38 L 127 188.75 L 127 189.25 L 127.13 189.63 L 127.38 189.88 L 127.75 190 L 128.25 190 L 128.63 190.06 L 128.88 190.19 L 129 190.38 L 129 190.63 L 129.13 190.81 L 129.38 190.94 L 129.75 191 L 130.25 191 L 130.63 191.25 L 130.88 191.75 L 131 192.5 L 131 193.5 L 130.94 194.25 L 130.81 194.75 L 130.63 195 L 130.38 195 L 130.19 195.25 L 130.06 195.75 L 130 196.5 L 130 197.5 L 129.94 198.25 L 129.81 198.75 L 129.63 199 L 129.38 199 L 129.19 199.13 L 129.06 199.38 L 129 199.75 L 129 200.25 L 128.88 200.63 L 128.63 200.88 L 128.25 201 L 127.75 201 L 127.38 200.94 L 127.13 200.81 L 127 200.63 L 127 200.38 L 126.63 200.19 L 125.88 200.06 L 124.75 200 L 123.25 200 L 122.13 199.94 L 121.38 199.81 L 121 199.63 L 121 199.38 L 120.94 199.19 L 120.81 199.06 L 120.63 199 L 120.38 199 L 120.19 198.75 L 120.06 198.25 L 120 197.5 L 120 196.5 L 119.94 195.75 L 119.81 195.25 L 119.63 195 L 119.38 195 L 119.19 194.94 L 119.06 194.81 L 119 194.63 L 119 194.38 L 118.94 194.19 L 118.81 194.06 L 118.63 194 L 118.38 194 L 118.19 193.94 L 118.06 193.81 L 118 193.63 L 118 193.38 L 118.06 193.19 L 118.19 193.06 L 118.38 193 L 118.63 193 L 118.81 192.94 L 118.94 192.81 L 119 192.63 L 119 192.38 L 119.06 192.19 L 119.19 192.06 L 119.38 192 L 119.63 192 L 119.81 191.94 L 119.94 191.81 L 120 191.63 L 120 191.38 L 120.13 191.19 L 120.38 191.06 L 120.75 191 L 121.25 191 L 121.63 190.88 L 121.88 190.63 L 122 190.25 L 122 189.75 L 122.06 189.38 L 122.19 189.13 L 122.38 189 L 122.63 189 L 122.81 188.94 L 122.94 188.81 L 123 188.63 L 123 188.38 L 123.25 188.19 L 123.75 188.06 Z" fill="#FFE998" fill-rule="evenodd"/>
</svg>
